M48
; DRILL file {KiCad 5.1.5+dfsg1-2~bpo10+1} date Wed 01 Apr 2020 17:55:06 CEST
; FORMAT={-:-/ absolute / inch / decimal}
; #@! TF.CreationDate,2020-04-01T17:55:06+02:00
; #@! TF.GenerationSoftware,Kicad,Pcbnew,5.1.5+dfsg1-2~bpo10+1
; #@! TF.FileFunction,Plated,5,6,Blind
FMAT,2
INCH
T1C0.0039
T2C0.0059
%
G90
G05
T1
X0.6988Y-0.7154
X0.7087Y-1.0237
X0.735Y-0.7283
X0.739Y-0.6969
X0.752Y-1.0232
X0.7654Y-0.7968
X0.7657Y-0.7693
X0.7681Y-0.822
X0.7732Y-0.8634
X0.7748Y-0.85
X0.7772Y-0.6996
X0.7783Y-0.9008
X0.7807Y-0.7673
X0.7831Y-0.872
X0.7862Y-1.0091
X0.7976Y-0.8217
X0.8102Y-0.8844
X0.8104Y-0.8709
X0.8104Y-0.8984
X0.8104Y-0.9122
X0.811Y-0.822
X0.8224Y-0.7949
X0.8224Y-0.8083
X0.8242Y-0.8709
X0.8242Y-0.8984
X0.8242Y-0.9122
X0.8243Y-0.8845
X0.8268Y-0.8374
X0.8366Y-0.7791
X0.838Y-0.8709
X0.838Y-0.8984
X0.838Y-0.9122
X0.8382Y-0.8845
X0.848Y-0.9398
X0.8518Y-0.8846
X0.8518Y-0.8984
X0.8518Y-0.9122
X0.8518Y-0.8709
X0.8656Y-0.8709
X0.8656Y-0.8845
X0.8656Y-0.8984
X0.8656Y-0.9122
X0.8913Y-0.8217
X0.8945Y-0.9528
X0.8965Y-0.9059
X0.8972Y-0.9319
X0.8996Y-0.9189
X0.9059Y-0.822
X0.9161Y-0.8315
X0.926Y-0.7476
X0.926Y-0.7677
X0.9291Y-0.9476
X0.936Y-0.9604
X0.9508Y-0.9898
X0.9756Y-1.0232
X0.9823Y-0.8441
X0.9823Y-0.857
X0.9823Y-0.9047
X0.9921Y-0.7173
X1.0028Y-0.8913
X1.0138Y-0.961
X1.0285Y-0.8114
X1.0319Y-0.961
X1.0571Y-0.6874
X1.0657Y-0.75
T2
X0.6839Y-1.0004
X0.6996Y-0.7858
X0.7413Y-1.0071
X0.778Y-0.8858
X0.778Y-0.9815
X0.7921Y-0.946
X0.81Y-0.9937
X0.8102Y-0.9508
X0.8402Y-1.0067
X0.8866Y-1.0118
X0.8984Y-0.8909
X0.9311Y-0.8909
X0.9315Y-0.8295
X0.9498Y-0.8104
X0.9535Y-0.8988
X0.9677Y-0.9331
X0.9898Y-1.024
X1.0138Y-0.8114
X1.0173Y-1.0268
X1.0335Y-0.9185
T0
M30
