M48
; DRILL file {KiCad 5.1.4+dfsg1-1~bpo10+1} date Fri Mar  6 16:54:14 2020
; FORMAT={-:-/ absolute / metric / decimal}
; #@! TF.CreationDate,2020-03-06T16:54:14+01:00
; #@! TF.GenerationSoftware,Kicad,Pcbnew,5.1.4+dfsg1-1~bpo10+1
; #@! TF.FileFunction,Plated,4,5,Buried
FMAT,2
METRIC
T1C0.100
T2C0.150
%
G90
G05
T1
X18.29Y-22.42
X18.72Y-25.99
X20.15Y-19.49
X20.3Y-25.63
X20.937Y-22.467
X20.937Y-22.823
X21.284Y-22.819
X21.292Y-22.467
X21.635Y-22.124
X21.635Y-22.467
X21.635Y-22.823
X22.19Y-24.22
X22.26Y-21.389
T2
X17.38Y-25.76
X18.82Y-25.23
X19.77Y-25.28
X19.79Y-24.209
X20.23Y-25.25
X21.34Y-25.99
X22.2Y-26.0
X23.08Y-24.27
X23.26Y-23.89
X24.13Y-21.07
X24.22Y-22.449
X24.5Y-20.584
X24.58Y-24.09
X25.14Y-25.63
X25.375Y-20.609
X25.89Y-23.32
X26.25Y-26.08
X26.27Y-22.91
T0
M30
