%TF.GenerationSoftware,KiCad,Pcbnew,5.1.5+dfsg1-2~bpo10+1*%
%TF.CreationDate,2020-05-22T12:44:22+02:00*%
%TF.ProjectId,qomu-board,716f6d75-2d62-46f6-9172-642e6b696361,rev?*%
%TF.SameCoordinates,Original*%
%TF.FileFunction,Other,User*%
%FSLAX46Y46*%
G04 Gerber Fmt 4.6, Leading zero omitted, Abs format (unit mm)*
G04 Created by KiCad (PCBNEW 5.1.5+dfsg1-2~bpo10+1) date 2020-05-22 12:44:22 commit 5cfbf1f*
%MOMM*%
%LPD*%
G04 APERTURE LIST*
%ADD10C,0.050000*%
%ADD11C,0.010000*%
%ADD12C,0.030000*%
G04 APERTURE END LIST*
D10*
X45150000Y-26630000D02*
G75*
G02X44650000Y-27130000I-500000J0D01*
G01*
X44650000Y-16480000D02*
G75*
G02X45150000Y-16980000I0J-500000D01*
G01*
X31515000Y-22680000D02*
X31515000Y-20920000D01*
X29744948Y-25590113D02*
G75*
G02X31492032Y-25994015I831536J-383648D01*
G01*
X30015000Y-22610000D02*
G75*
G03X31515000Y-22680000I750000J-35000D01*
G01*
X30015000Y-21130000D02*
X30015000Y-20990000D01*
X29745000Y-18010000D02*
G75*
G03X31492032Y-17605985I831484J383761D01*
G01*
X17525000Y-17100000D02*
X29525000Y-17100000D01*
X31492032Y-17605985D02*
X31500000Y-16980000D01*
X31500000Y-26630000D02*
X31492032Y-25994015D01*
X30015000Y-20990000D02*
G75*
G02X31515000Y-20920000I750000J35000D01*
G01*
X45150000Y-26630000D02*
X45150000Y-16980000D01*
X32000000Y-27130000D02*
X44650000Y-27130000D01*
X32000000Y-16480000D02*
X44650000Y-16480000D01*
X31500000Y-26630000D02*
G75*
G03X32000000Y-27130000I500000J0D01*
G01*
X31500000Y-16980000D02*
G75*
G02X32000000Y-16480000I500000J0D01*
G01*
X17025000Y-26000000D02*
G75*
G03X17525000Y-26500000I500000J0D01*
G01*
D11*
X29325000Y-22650000D02*
G75*
G02X28125000Y-22650000I-600000J0D01*
G01*
X29325000Y-20950000D02*
G75*
G03X28125000Y-20950000I-600000J0D01*
G01*
X28125000Y-20950000D02*
G75*
G03X28125000Y-22650000I0J-850000D01*
G01*
D10*
X28500000Y-26500000D02*
G75*
G03X26900000Y-26500000I-800000J0D01*
G01*
X28500000Y-26500000D02*
X29525000Y-26500000D01*
D11*
X29325000Y-20950000D02*
X29325000Y-22650000D01*
D10*
X17525000Y-17100000D02*
G75*
G03X17025000Y-17600000I0J-500000D01*
G01*
X17025000Y-17600000D02*
X17025000Y-26000000D01*
X17525000Y-26500000D02*
X26900000Y-26500000D01*
X30025000Y-21800000D02*
X30025000Y-21670000D01*
X30025000Y-21670000D02*
X30025000Y-21530000D01*
X30025000Y-21530000D02*
X30025000Y-21400000D01*
X30025000Y-21400000D02*
X30025000Y-21260000D01*
X30025000Y-21260000D02*
X30015000Y-21130000D01*
X29745000Y-18010000D02*
X29735000Y-17910000D01*
X29735000Y-17910000D02*
X29715000Y-17820000D01*
X29715000Y-17820000D02*
X29695000Y-17720000D01*
X29695000Y-17720000D02*
X29675000Y-17640000D01*
X29675000Y-17640000D02*
X29655000Y-17550000D01*
X29655000Y-17550000D02*
X29645000Y-17460000D01*
X29645000Y-17460000D02*
X29625000Y-17380000D01*
X29625000Y-17380000D02*
X29605000Y-17300000D01*
X29605000Y-17300000D02*
X29585000Y-17230000D01*
X29585000Y-17230000D02*
X29555000Y-17150000D01*
X29555000Y-17150000D02*
X29525000Y-17100000D01*
X29525000Y-26500000D02*
X29555000Y-26450000D01*
X29555000Y-26450000D02*
X29585000Y-26370000D01*
X29585000Y-26370000D02*
X29605000Y-26300000D01*
X29605000Y-26300000D02*
X29625000Y-26220000D01*
X29625000Y-26220000D02*
X29645000Y-26140000D01*
X29645000Y-26140000D02*
X29655000Y-26050000D01*
X29655000Y-26050000D02*
X29675000Y-25960000D01*
X29675000Y-25960000D02*
X29695000Y-25880000D01*
X29695000Y-25880000D02*
X29715000Y-25780000D01*
X29715000Y-25780000D02*
X29735000Y-25690000D01*
X29735000Y-25690000D02*
X29745000Y-25590000D01*
X30015000Y-22610000D02*
X30015000Y-22470000D01*
X30015000Y-22470000D02*
X30025000Y-22340000D01*
X30025000Y-22340000D02*
X30025000Y-22200000D01*
X30025000Y-22200000D02*
X30025000Y-22070000D01*
X30025000Y-22070000D02*
X30025000Y-21930000D01*
X30025000Y-21930000D02*
X30025000Y-21800000D01*
X21320000Y-24170000D02*
X20620000Y-24170000D01*
X20620000Y-24170000D02*
X20620000Y-25570000D01*
X20620000Y-25570000D02*
X21320000Y-25570000D01*
X21320000Y-25570000D02*
X21320000Y-24170000D01*
X23420000Y-24170000D02*
X22720000Y-24170000D01*
X22720000Y-24170000D02*
X22720000Y-25570000D01*
X22720000Y-25570000D02*
X23420000Y-25570000D01*
X23420000Y-25570000D02*
X23420000Y-24170000D01*
X19750000Y-21145000D02*
X23550000Y-21145000D01*
X23550000Y-21145000D02*
X23550000Y-18345000D01*
X23550000Y-18345000D02*
X19750000Y-18345000D01*
X19750000Y-18345000D02*
X19750000Y-21145000D01*
X21320000Y-24170000D02*
X21320000Y-25570000D01*
X22020000Y-24170000D02*
X21320000Y-24170000D01*
X22020000Y-25570000D02*
X22020000Y-24170000D01*
X21320000Y-25570000D02*
X22020000Y-25570000D01*
X22020000Y-24170000D02*
X22020000Y-25570000D01*
X22720000Y-24170000D02*
X22020000Y-24170000D01*
X22720000Y-25570000D02*
X22720000Y-24170000D01*
X22020000Y-25570000D02*
X22720000Y-25570000D01*
D12*
X26425000Y-19125000D02*
X25225000Y-19125000D01*
X25225000Y-19125000D02*
X25225000Y-20325000D01*
X25225000Y-20325000D02*
X26425000Y-20325000D01*
X26425000Y-20325000D02*
X26425000Y-19125000D01*
D10*
X34500000Y-18970000D02*
X38000000Y-18970000D01*
X38000000Y-18970000D02*
X38000000Y-16970000D01*
X38000000Y-16970000D02*
X34500000Y-16970000D01*
X34500000Y-16970000D02*
X34500000Y-18970000D01*
X23700000Y-20390000D02*
X23700000Y-22890000D01*
X26200000Y-20390000D02*
X23700000Y-20390000D01*
X26200000Y-22890000D02*
X26200000Y-20390000D01*
X23700000Y-22890000D02*
X26200000Y-22890000D01*
X40650000Y-21470000D02*
X40650000Y-22170000D01*
X40650000Y-22170000D02*
X42050000Y-22170000D01*
X42050000Y-22170000D02*
X42050000Y-21470000D01*
X42050000Y-21470000D02*
X40650000Y-21470000D01*
X40650000Y-20720000D02*
X40650000Y-21420000D01*
X40650000Y-21420000D02*
X42050000Y-21420000D01*
X42050000Y-21420000D02*
X42050000Y-20720000D01*
X42050000Y-20720000D02*
X40650000Y-20720000D01*
X40530000Y-26750000D02*
X33670000Y-26750000D01*
X40530000Y-26750000D02*
X40530000Y-19390000D01*
X33670000Y-26750000D02*
X33670000Y-19390000D01*
X40530000Y-19390000D02*
X33670000Y-19390000D01*
X41925000Y-19295000D02*
X38015000Y-19295000D01*
X38015000Y-16645000D02*
X38015000Y-19295000D01*
X41925000Y-16645000D02*
X38015000Y-16645000D01*
X41925000Y-16645000D02*
X41925000Y-19295000D01*
X25520000Y-25140000D02*
X25520000Y-24440000D01*
X25520000Y-24440000D02*
X24120000Y-24440000D01*
X24120000Y-24440000D02*
X24120000Y-25140000D01*
X24120000Y-25140000D02*
X25520000Y-25140000D01*
X19540000Y-21659000D02*
X19540000Y-20959000D01*
X19540000Y-20959000D02*
X18140000Y-20959000D01*
X18140000Y-20959000D02*
X18140000Y-21659000D01*
X18140000Y-21659000D02*
X19540000Y-21659000D01*
X17400000Y-24579000D02*
X18100000Y-24579000D01*
X18100000Y-24579000D02*
X18100000Y-23179000D01*
X18100000Y-23179000D02*
X17400000Y-23179000D01*
X17400000Y-23179000D02*
X17400000Y-24579000D01*
X17400000Y-23169000D02*
X18100000Y-23169000D01*
X18100000Y-23169000D02*
X18100000Y-21769000D01*
X18100000Y-21769000D02*
X17400000Y-21769000D01*
X17400000Y-21769000D02*
X17400000Y-23169000D01*
X20620000Y-25669000D02*
X20620000Y-24169000D01*
X18800000Y-25669000D02*
X20620000Y-25669000D01*
X18800000Y-24169000D02*
X18800000Y-25669000D01*
X20620000Y-24169000D02*
X18800000Y-24169000D01*
X23665000Y-22940000D02*
X23665000Y-24440000D01*
X25485000Y-22940000D02*
X23665000Y-22940000D01*
X25485000Y-24440000D02*
X25485000Y-22940000D01*
X23665000Y-24440000D02*
X25485000Y-24440000D01*
X27200000Y-19069000D02*
X26500000Y-19069000D01*
X26500000Y-19069000D02*
X26500000Y-20469000D01*
X26500000Y-20469000D02*
X27200000Y-20469000D01*
X27200000Y-20469000D02*
X27200000Y-19069000D01*
X27200000Y-18989000D02*
X27200000Y-17589000D01*
X26500000Y-18989000D02*
X27200000Y-18989000D01*
X26500000Y-17589000D02*
X26500000Y-18989000D01*
X27200000Y-17589000D02*
X26500000Y-17589000D01*
X25150000Y-18909000D02*
X24450000Y-18909000D01*
X24450000Y-18909000D02*
X24450000Y-20309000D01*
X24450000Y-20309000D02*
X25150000Y-20309000D01*
X25150000Y-20309000D02*
X25150000Y-18909000D01*
X43500000Y-17120000D02*
X43500000Y-17820000D01*
X43500000Y-17820000D02*
X44900000Y-17820000D01*
X44900000Y-17820000D02*
X44900000Y-17120000D01*
X44900000Y-17120000D02*
X43500000Y-17120000D01*
X43400000Y-17820000D02*
X43400000Y-17120000D01*
X43400000Y-17120000D02*
X42000000Y-17120000D01*
X42000000Y-17120000D02*
X42000000Y-17820000D01*
X42000000Y-17820000D02*
X43400000Y-17820000D01*
X19440000Y-20239000D02*
X19440000Y-19539000D01*
X19440000Y-19539000D02*
X18040000Y-19539000D01*
X18040000Y-19539000D02*
X18040000Y-20239000D01*
X18040000Y-20239000D02*
X19440000Y-20239000D01*
X19440000Y-19529000D02*
X19440000Y-18829000D01*
X19440000Y-18829000D02*
X18040000Y-18829000D01*
X18040000Y-18829000D02*
X18040000Y-19529000D01*
X18040000Y-19529000D02*
X19440000Y-19529000D01*
X19440000Y-20949000D02*
X19440000Y-20249000D01*
X19440000Y-20249000D02*
X18040000Y-20249000D01*
X18040000Y-20249000D02*
X18040000Y-20949000D01*
X18040000Y-20949000D02*
X19440000Y-20949000D01*
X26930000Y-20519000D02*
X26230000Y-20519000D01*
X26230000Y-20519000D02*
X26230000Y-21919000D01*
X26230000Y-21919000D02*
X26930000Y-21919000D01*
X26930000Y-21919000D02*
X26930000Y-20519000D01*
X40900000Y-26720000D02*
X41600000Y-26720000D01*
X41600000Y-26720000D02*
X41600000Y-25320000D01*
X41600000Y-25320000D02*
X40900000Y-25320000D01*
X40900000Y-25320000D02*
X40900000Y-26720000D01*
X25520000Y-25840000D02*
X25520000Y-25140000D01*
X25520000Y-25140000D02*
X24120000Y-25140000D01*
X24120000Y-25140000D02*
X24120000Y-25840000D01*
X24120000Y-25840000D02*
X25520000Y-25840000D01*
X26220000Y-24440000D02*
X25520000Y-24440000D01*
X25520000Y-24440000D02*
X25520000Y-25840000D01*
X25520000Y-25840000D02*
X26220000Y-25840000D01*
X26220000Y-25840000D02*
X26220000Y-24440000D01*
X26920000Y-24440000D02*
X26220000Y-24440000D01*
X26220000Y-24440000D02*
X26220000Y-25840000D01*
X26220000Y-25840000D02*
X26920000Y-25840000D01*
X26920000Y-25840000D02*
X26920000Y-24440000D01*
X24120000Y-24440000D02*
X23420000Y-24440000D01*
X23420000Y-24440000D02*
X23420000Y-25840000D01*
X23420000Y-25840000D02*
X24120000Y-25840000D01*
X24120000Y-25840000D02*
X24120000Y-24440000D01*
X18020000Y-19924000D02*
X18020000Y-18874000D01*
X18020000Y-18874000D02*
X17520000Y-18874000D01*
X17520000Y-18874000D02*
X17520000Y-19924000D01*
X17520000Y-19924000D02*
X18020000Y-19924000D01*
X17530000Y-20494000D02*
X17530000Y-21544000D01*
X17530000Y-21544000D02*
X18030000Y-21544000D01*
X18030000Y-21544000D02*
X18030000Y-20494000D01*
X18030000Y-20494000D02*
X17530000Y-20494000D01*
X17560000Y-24594000D02*
X17560000Y-25644000D01*
X17560000Y-25644000D02*
X18060000Y-25644000D01*
X18060000Y-25644000D02*
X18060000Y-24594000D01*
X18060000Y-24594000D02*
X17560000Y-24594000D01*
X27255000Y-23930000D02*
X26205000Y-23930000D01*
X26205000Y-23930000D02*
X26205000Y-24430000D01*
X26205000Y-24430000D02*
X27255000Y-24430000D01*
X27255000Y-24430000D02*
X27255000Y-23930000D01*
X27700000Y-19684000D02*
X27700000Y-18634000D01*
X27700000Y-18634000D02*
X27200000Y-18634000D01*
X27200000Y-18634000D02*
X27200000Y-19684000D01*
X27200000Y-19684000D02*
X27700000Y-19684000D01*
X27245000Y-23390000D02*
X26195000Y-23390000D01*
X26195000Y-23390000D02*
X26195000Y-23890000D01*
X26195000Y-23890000D02*
X27245000Y-23890000D01*
X27245000Y-23890000D02*
X27245000Y-23390000D01*
X27200000Y-17584000D02*
X27200000Y-18634000D01*
X27200000Y-18634000D02*
X27700000Y-18634000D01*
X27700000Y-18634000D02*
X27700000Y-17584000D01*
X27700000Y-17584000D02*
X27200000Y-17584000D01*
X34450000Y-17620000D02*
X33750000Y-17620000D01*
X33750000Y-17620000D02*
X33750000Y-19020000D01*
X33750000Y-19020000D02*
X34450000Y-19020000D01*
X34450000Y-19020000D02*
X34450000Y-17620000D01*
X22900000Y-22604000D02*
X23600000Y-22604000D01*
X23600000Y-22604000D02*
X23600000Y-21204000D01*
X23600000Y-21204000D02*
X22900000Y-21204000D01*
X22900000Y-21204000D02*
X22900000Y-22604000D01*
X23600000Y-22645000D02*
X22900000Y-22645000D01*
X22900000Y-22645000D02*
X22900000Y-24045000D01*
X22900000Y-24045000D02*
X23600000Y-24045000D01*
X23600000Y-24045000D02*
X23600000Y-22645000D01*
X24450000Y-18909000D02*
X23750000Y-18909000D01*
X23750000Y-18909000D02*
X23750000Y-20309000D01*
X23750000Y-20309000D02*
X24450000Y-20309000D01*
X24450000Y-20309000D02*
X24450000Y-18909000D01*
X26230000Y-23359000D02*
X26930000Y-23359000D01*
X26930000Y-23359000D02*
X26930000Y-21959000D01*
X26930000Y-21959000D02*
X26230000Y-21959000D01*
X26230000Y-21959000D02*
X26230000Y-23359000D01*
X19540000Y-22369000D02*
X19540000Y-21669000D01*
X19540000Y-21669000D02*
X18140000Y-21669000D01*
X18140000Y-21669000D02*
X18140000Y-22369000D01*
X18140000Y-22369000D02*
X19540000Y-22369000D01*
X25490000Y-24340000D02*
X26190000Y-24340000D01*
X26190000Y-24340000D02*
X26190000Y-22940000D01*
X26190000Y-22940000D02*
X25490000Y-22940000D01*
X25490000Y-22940000D02*
X25490000Y-24340000D01*
X18800000Y-24170000D02*
X18100000Y-24170000D01*
X18100000Y-24170000D02*
X18100000Y-25570000D01*
X18100000Y-25570000D02*
X18800000Y-25570000D01*
X18800000Y-25570000D02*
X18800000Y-24170000D01*
X19735000Y-24045000D02*
X22835000Y-24045000D01*
X22835000Y-24045000D02*
X22835000Y-21245000D01*
X22835000Y-21245000D02*
X19735000Y-21245000D01*
X19735000Y-21245000D02*
X19735000Y-24045000D01*
M02*
