%TF.GenerationSoftware,KiCad,Pcbnew,5.1.5+dfsg1-2~bpo10+1*%
%TF.CreationDate,2020-05-22T12:44:22+02:00*%
%TF.ProjectId,qomu-board,716f6d75-2d62-46f6-9172-642e6b696361,rev?*%
%TF.SameCoordinates,Original*%
%TF.FileFunction,Plated,1,6,PTH,Drill*%
%TF.FilePolarity,Positive*%
%FSLAX46Y46*%
G04 Gerber Fmt 4.6, Leading zero omitted, Abs format (unit mm)*
G04 Created by KiCad (PCBNEW 5.1.5+dfsg1-2~bpo10+1) date 2020-05-22 12:44:22 commit 5cfbf1f*
%MOMM*%
%LPD*%
G04 APERTURE LIST*
%TA.AperFunction,ViaDrill*%
%ADD10C,0.150000*%
%TD*%
%TA.AperFunction,ViaDrill*%
%ADD11C,0.200000*%
%TD*%
%TA.AperFunction,ComponentDrill*%
%ADD12C,0.700000*%
%TD*%
%TA.AperFunction,ComponentDrill*%
%ADD13C,0.900000*%
%TD*%
G04 APERTURE END LIST*
D10*
X17320000Y-19209000D03*
X17320000Y-23559000D03*
X17360000Y-18729000D03*
X17370000Y-17479000D03*
X17380000Y-24919000D03*
X17400000Y-21649000D03*
X17770000Y-20389000D03*
X17800000Y-21659000D03*
X18380000Y-17499000D03*
X18850000Y-24600000D03*
X19360000Y-17500000D03*
X20210000Y-18140000D03*
X22090000Y-19449000D03*
X24820000Y-18420000D03*
X25030000Y-24260000D03*
X25430000Y-24130000D03*
X26130000Y-17879000D03*
X27450000Y-18659000D03*
X27480000Y-20150000D03*
X27510000Y-23839000D03*
X27510000Y-24540000D03*
X27980000Y-19100000D03*
X33700000Y-22220000D03*
X34000000Y-19120000D03*
X34550000Y-23370000D03*
X34600000Y-18620000D03*
X34600000Y-19370000D03*
X35100000Y-18870000D03*
X35830000Y-25110000D03*
X35850000Y-18770000D03*
X35850000Y-19320000D03*
X35850000Y-23370000D03*
X37100000Y-18770000D03*
X37100000Y-19320000D03*
X37100000Y-25100000D03*
X38350000Y-19370000D03*
X38380000Y-25110000D03*
X39420000Y-19030000D03*
X39650000Y-21810000D03*
X40340000Y-24570000D03*
X40520000Y-26010000D03*
X40600000Y-21820000D03*
X40760000Y-19170000D03*
X41600000Y-18920000D03*
X41600000Y-19370000D03*
X42960000Y-21780000D03*
X42960000Y-22310000D03*
X43300000Y-17970000D03*
X43800000Y-17970000D03*
D11*
X29850000Y-18650000D03*
X29850000Y-24950000D03*
X29920000Y-19400000D03*
X29920000Y-24200000D03*
X29980000Y-20150000D03*
X29980000Y-23450000D03*
X31500000Y-18650000D03*
X31500000Y-19400000D03*
X31500000Y-20150000D03*
X31500000Y-23450000D03*
X31500000Y-24200000D03*
X31500000Y-24950000D03*
D12*
%TO.C,J3*%
X39330000Y-17970000D03*
X40600000Y-17970000D03*
D13*
%TO.C,J2*%
X32800000Y-17995000D03*
X32800000Y-20535000D03*
X32800000Y-23075000D03*
X32800000Y-25615000D03*
%TO.C,S1*%
X43500000Y-20710000D03*
X43500000Y-23710000D03*
M02*
