M48
; DRILL file {KiCad 5.1.5+dfsg1-2~bpo10+1} date Wed 01 Apr 2020 17:55:06 CEST
; FORMAT={-:-/ absolute / inch / decimal}
; #@! TF.CreationDate,2020-04-01T17:55:06+02:00
; #@! TF.GenerationSoftware,Kicad,Pcbnew,5.1.5+dfsg1-2~bpo10+1
; #@! TF.FileFunction,Plated,4,5,Buried
FMAT,2
INCH
T1C0.0039
T2C0.0059
%
G90
G05
T1
X0.7201Y-0.8827
X0.737Y-1.0232
X0.7933Y-0.7673
X0.7992Y-1.0091
X0.8243Y-0.8845
X0.8243Y-0.8985
X0.838Y-0.8984
X0.8383Y-0.8845
X0.8518Y-0.871
X0.8518Y-0.8845
X0.8518Y-0.8985
X0.8764Y-0.8421
X0.936Y-0.9732
T2
X0.6843Y-1.0142
X0.7409Y-0.9933
X0.7783Y-0.9953
X0.7791Y-0.9531
X0.7965Y-0.9941
X0.8402Y-1.0232
X0.874Y-1.0236
X0.9087Y-0.9555
X0.9157Y-0.9406
X0.95Y-0.8295
X0.9535Y-0.8838
X0.9646Y-0.8104
X0.9677Y-0.9484
X0.9898Y-1.0091
X0.999Y-0.8114
X1.0193Y-0.9181
X1.0335Y-1.0268
X1.0343Y-0.902
T0
M30
