%TF.GenerationSoftware,KiCad,Pcbnew,5.1.5+dfsg1-2~bpo10+1*%
%TF.CreationDate,2020-05-22T12:44:22+02:00*%
%TF.ProjectId,qomu-board,716f6d75-2d62-46f6-9172-642e6b696361,rev?*%
%TF.SameCoordinates,Original*%
%TF.FileFunction,Other,Fab,Bot*%
%FSLAX46Y46*%
G04 Gerber Fmt 4.6, Leading zero omitted, Abs format (unit mm)*
G04 Created by KiCad (PCBNEW 5.1.5+dfsg1-2~bpo10+1) date 2020-05-22 12:44:22 commit 5cfbf1f*
%MOMM*%
%LPD*%
G04 APERTURE LIST*
%ADD10C,0.050000*%
%ADD11C,0.010000*%
%ADD12C,0.100000*%
%ADD13C,0.150000*%
G04 APERTURE END LIST*
D10*
X45150000Y-26630000D02*
G75*
G02X44650000Y-27130000I-500000J0D01*
G01*
X44650000Y-16480000D02*
G75*
G02X45150000Y-16980000I0J-500000D01*
G01*
X31515000Y-22680000D02*
X31515000Y-20920000D01*
X29744948Y-25590113D02*
G75*
G02X31492032Y-25994015I831536J-383648D01*
G01*
X30015000Y-22610000D02*
G75*
G03X31515000Y-22680000I750000J-35000D01*
G01*
X30015000Y-21130000D02*
X30015000Y-20990000D01*
X29745000Y-18010000D02*
G75*
G03X31492032Y-17605985I831484J383761D01*
G01*
X17525000Y-17100000D02*
X29525000Y-17100000D01*
X31492032Y-17605985D02*
X31500000Y-16980000D01*
X31500000Y-26630000D02*
X31492032Y-25994015D01*
X30015000Y-20990000D02*
G75*
G02X31515000Y-20920000I750000J35000D01*
G01*
X45150000Y-26630000D02*
X45150000Y-16980000D01*
X32000000Y-27130000D02*
X44650000Y-27130000D01*
X32000000Y-16480000D02*
X44650000Y-16480000D01*
X31500000Y-26630000D02*
G75*
G03X32000000Y-27130000I500000J0D01*
G01*
X31500000Y-16980000D02*
G75*
G02X32000000Y-16480000I500000J0D01*
G01*
X17025000Y-26000000D02*
G75*
G03X17525000Y-26500000I500000J0D01*
G01*
D11*
X29325000Y-22650000D02*
G75*
G02X28125000Y-22650000I-600000J0D01*
G01*
X29325000Y-20950000D02*
G75*
G03X28125000Y-20950000I-600000J0D01*
G01*
X28125000Y-20950000D02*
G75*
G03X28125000Y-22650000I0J-850000D01*
G01*
D10*
X28500000Y-26500000D02*
G75*
G03X26900000Y-26500000I-800000J0D01*
G01*
X28500000Y-26500000D02*
X29525000Y-26500000D01*
D11*
X29325000Y-20950000D02*
X29325000Y-22650000D01*
D10*
X17525000Y-17100000D02*
G75*
G03X17025000Y-17600000I0J-500000D01*
G01*
X17025000Y-17600000D02*
X17025000Y-26000000D01*
X17525000Y-26500000D02*
X26900000Y-26500000D01*
X30025000Y-21800000D02*
X30025000Y-21670000D01*
X30025000Y-21670000D02*
X30025000Y-21530000D01*
X30025000Y-21530000D02*
X30025000Y-21400000D01*
X30025000Y-21400000D02*
X30025000Y-21260000D01*
X30025000Y-21260000D02*
X30015000Y-21130000D01*
X29745000Y-18010000D02*
X29735000Y-17910000D01*
X29735000Y-17910000D02*
X29715000Y-17820000D01*
X29715000Y-17820000D02*
X29695000Y-17720000D01*
X29695000Y-17720000D02*
X29675000Y-17640000D01*
X29675000Y-17640000D02*
X29655000Y-17550000D01*
X29655000Y-17550000D02*
X29645000Y-17460000D01*
X29645000Y-17460000D02*
X29625000Y-17380000D01*
X29625000Y-17380000D02*
X29605000Y-17300000D01*
X29605000Y-17300000D02*
X29585000Y-17230000D01*
X29585000Y-17230000D02*
X29555000Y-17150000D01*
X29555000Y-17150000D02*
X29525000Y-17100000D01*
X29525000Y-26500000D02*
X29555000Y-26450000D01*
X29555000Y-26450000D02*
X29585000Y-26370000D01*
X29585000Y-26370000D02*
X29605000Y-26300000D01*
X29605000Y-26300000D02*
X29625000Y-26220000D01*
X29625000Y-26220000D02*
X29645000Y-26140000D01*
X29645000Y-26140000D02*
X29655000Y-26050000D01*
X29655000Y-26050000D02*
X29675000Y-25960000D01*
X29675000Y-25960000D02*
X29695000Y-25880000D01*
X29695000Y-25880000D02*
X29715000Y-25780000D01*
X29715000Y-25780000D02*
X29735000Y-25690000D01*
X29735000Y-25690000D02*
X29745000Y-25590000D01*
X30015000Y-22610000D02*
X30015000Y-22470000D01*
X30015000Y-22470000D02*
X30025000Y-22340000D01*
X30025000Y-22340000D02*
X30025000Y-22200000D01*
X30025000Y-22200000D02*
X30025000Y-22070000D01*
X30025000Y-22070000D02*
X30025000Y-21930000D01*
X30025000Y-21930000D02*
X30025000Y-21800000D01*
D12*
X21120000Y-24570000D02*
X20820000Y-24570000D01*
X20820000Y-24570000D02*
X20820000Y-25170000D01*
X20820000Y-25170000D02*
X21120000Y-25170000D01*
X21120000Y-25170000D02*
X21120000Y-24570000D01*
X23220000Y-24570000D02*
X22920000Y-24570000D01*
X22920000Y-24570000D02*
X22920000Y-25170000D01*
X22920000Y-25170000D02*
X23220000Y-25170000D01*
X23220000Y-25170000D02*
X23220000Y-24570000D01*
D13*
X20850000Y-20745000D02*
X20150000Y-20045000D01*
X20150000Y-20045000D02*
X20150000Y-18745000D01*
X20150000Y-18745000D02*
X23150000Y-18745000D01*
X23150000Y-18745000D02*
X23150000Y-20745000D01*
X23150000Y-20745000D02*
X20850000Y-20745000D01*
D12*
X21520000Y-24570000D02*
X21520000Y-25170000D01*
X21820000Y-24570000D02*
X21520000Y-24570000D01*
X21820000Y-25170000D02*
X21820000Y-24570000D01*
X21520000Y-25170000D02*
X21820000Y-25170000D01*
X22220000Y-24570000D02*
X22220000Y-25170000D01*
X22520000Y-24570000D02*
X22220000Y-24570000D01*
X22520000Y-25170000D02*
X22520000Y-24570000D01*
X22220000Y-25170000D02*
X22520000Y-25170000D01*
D10*
X25300000Y-19267800D02*
X25367800Y-19200000D01*
X26350000Y-20250000D02*
X26350000Y-19200000D01*
X25300000Y-20250000D02*
X26350000Y-20250000D01*
X25300000Y-19267800D02*
X25300000Y-20250000D01*
X26350000Y-19200000D02*
X25367800Y-19200000D01*
D12*
X42200000Y-18860000D02*
X44800000Y-18860000D01*
X44800000Y-18860000D02*
X44800000Y-25560000D01*
X42200000Y-25560000D02*
X44800000Y-25560000D01*
X42200000Y-18860000D02*
X42200000Y-25560000D01*
X44800000Y-23660000D02*
X46300000Y-23660000D01*
X44800000Y-22360000D02*
X46300000Y-22360000D01*
X46300000Y-22360000D02*
X46300000Y-23660000D01*
X37150000Y-18670000D02*
X37150000Y-17270000D01*
X37150000Y-18670000D02*
X35350000Y-18670000D01*
X35350000Y-17270000D02*
X37150000Y-17270000D01*
X35350000Y-17270000D02*
X35350000Y-18670000D01*
D13*
X25750000Y-22440000D02*
X24950000Y-22440000D01*
X25750000Y-20840000D02*
X25750000Y-22440000D01*
X24150000Y-20840000D02*
X25750000Y-20840000D01*
X24150000Y-21640000D02*
X24150000Y-20840000D01*
X24950000Y-22440000D02*
X24150000Y-21640000D01*
D12*
X41050000Y-21670000D02*
X41050000Y-21970000D01*
X41050000Y-21970000D02*
X41650000Y-21970000D01*
X41650000Y-21970000D02*
X41650000Y-21670000D01*
X41650000Y-21670000D02*
X41050000Y-21670000D01*
X41050000Y-20920000D02*
X41050000Y-21220000D01*
X41050000Y-21220000D02*
X41650000Y-21220000D01*
X41650000Y-21220000D02*
X41650000Y-20920000D01*
X41650000Y-20920000D02*
X41050000Y-20920000D01*
X33925000Y-24785000D02*
X40275000Y-24785000D01*
X40275000Y-24785000D02*
X40275000Y-21355000D01*
X33925000Y-24785000D02*
X33925000Y-21355000D01*
X33925000Y-21355000D02*
X40275000Y-21355000D01*
X41700000Y-16870000D02*
X38240000Y-16870000D01*
X38240000Y-16870000D02*
X38240000Y-19070000D01*
X41700000Y-19070000D02*
X38240000Y-19070000D01*
X41700000Y-16870000D02*
X41700000Y-19070000D01*
X25120000Y-24940000D02*
X25120000Y-24640000D01*
X25120000Y-24640000D02*
X24520000Y-24640000D01*
X24520000Y-24640000D02*
X24520000Y-24940000D01*
X24520000Y-24940000D02*
X25120000Y-24940000D01*
X19140000Y-21459000D02*
X19140000Y-21159000D01*
X19140000Y-21159000D02*
X18540000Y-21159000D01*
X18540000Y-21159000D02*
X18540000Y-21459000D01*
X18540000Y-21459000D02*
X19140000Y-21459000D01*
X17600000Y-24179000D02*
X17900000Y-24179000D01*
X17900000Y-24179000D02*
X17900000Y-23579000D01*
X17900000Y-23579000D02*
X17600000Y-23579000D01*
X17600000Y-23579000D02*
X17600000Y-24179000D01*
X17600000Y-22769000D02*
X17900000Y-22769000D01*
X17900000Y-22769000D02*
X17900000Y-22169000D01*
X17900000Y-22169000D02*
X17600000Y-22169000D01*
X17600000Y-22169000D02*
X17600000Y-22769000D01*
X19210000Y-24419000D02*
X19210000Y-25419000D01*
X19960000Y-24419000D02*
X19210000Y-24419000D01*
X20210000Y-24669000D02*
X19960000Y-24419000D01*
X20210000Y-25419000D02*
X20210000Y-24669000D01*
X19210000Y-25419000D02*
X20210000Y-25419000D01*
X25075000Y-24190000D02*
X25075000Y-23190000D01*
X24325000Y-24190000D02*
X25075000Y-24190000D01*
X24075000Y-23940000D02*
X24325000Y-24190000D01*
X24075000Y-23190000D02*
X24075000Y-23940000D01*
X25075000Y-23190000D02*
X24075000Y-23190000D01*
X27000000Y-19469000D02*
X26700000Y-19469000D01*
X26700000Y-19469000D02*
X26700000Y-20069000D01*
X26700000Y-20069000D02*
X27000000Y-20069000D01*
X27000000Y-20069000D02*
X27000000Y-19469000D01*
X27000000Y-18589000D02*
X27000000Y-17989000D01*
X26700000Y-18589000D02*
X27000000Y-18589000D01*
X26700000Y-17989000D02*
X26700000Y-18589000D01*
X27000000Y-17989000D02*
X26700000Y-17989000D01*
X24950000Y-19309000D02*
X24650000Y-19309000D01*
X24650000Y-19309000D02*
X24650000Y-19909000D01*
X24650000Y-19909000D02*
X24950000Y-19909000D01*
X24950000Y-19909000D02*
X24950000Y-19309000D01*
X43900000Y-17320000D02*
X43900000Y-17620000D01*
X43900000Y-17620000D02*
X44500000Y-17620000D01*
X44500000Y-17620000D02*
X44500000Y-17320000D01*
X44500000Y-17320000D02*
X43900000Y-17320000D01*
X43000000Y-17620000D02*
X43000000Y-17320000D01*
X43000000Y-17320000D02*
X42400000Y-17320000D01*
X42400000Y-17320000D02*
X42400000Y-17620000D01*
X42400000Y-17620000D02*
X43000000Y-17620000D01*
X19040000Y-20039000D02*
X19040000Y-19739000D01*
X19040000Y-19739000D02*
X18440000Y-19739000D01*
X18440000Y-19739000D02*
X18440000Y-20039000D01*
X18440000Y-20039000D02*
X19040000Y-20039000D01*
X19040000Y-19329000D02*
X19040000Y-19029000D01*
X19040000Y-19029000D02*
X18440000Y-19029000D01*
X18440000Y-19029000D02*
X18440000Y-19329000D01*
X18440000Y-19329000D02*
X19040000Y-19329000D01*
X19040000Y-20749000D02*
X19040000Y-20449000D01*
X19040000Y-20449000D02*
X18440000Y-20449000D01*
X18440000Y-20449000D02*
X18440000Y-20749000D01*
X18440000Y-20749000D02*
X19040000Y-20749000D01*
X26730000Y-20919000D02*
X26430000Y-20919000D01*
X26430000Y-20919000D02*
X26430000Y-21519000D01*
X26430000Y-21519000D02*
X26730000Y-21519000D01*
X26730000Y-21519000D02*
X26730000Y-20919000D01*
X41100000Y-26320000D02*
X41400000Y-26320000D01*
X41400000Y-26320000D02*
X41400000Y-25720000D01*
X41400000Y-25720000D02*
X41100000Y-25720000D01*
X41100000Y-25720000D02*
X41100000Y-26320000D01*
X25120000Y-25640000D02*
X25120000Y-25340000D01*
X25120000Y-25340000D02*
X24520000Y-25340000D01*
X24520000Y-25340000D02*
X24520000Y-25640000D01*
X24520000Y-25640000D02*
X25120000Y-25640000D01*
X26020000Y-24840000D02*
X25720000Y-24840000D01*
X25720000Y-24840000D02*
X25720000Y-25440000D01*
X25720000Y-25440000D02*
X26020000Y-25440000D01*
X26020000Y-25440000D02*
X26020000Y-24840000D01*
X26720000Y-24840000D02*
X26420000Y-24840000D01*
X26420000Y-24840000D02*
X26420000Y-25440000D01*
X26420000Y-25440000D02*
X26720000Y-25440000D01*
X26720000Y-25440000D02*
X26720000Y-24840000D01*
X23920000Y-24840000D02*
X23620000Y-24840000D01*
X23620000Y-24840000D02*
X23620000Y-25440000D01*
X23620000Y-25440000D02*
X23920000Y-25440000D01*
X23920000Y-25440000D02*
X23920000Y-24840000D01*
X17610000Y-19709000D02*
X17930000Y-19709000D01*
X17610000Y-19089000D02*
X17610000Y-19709000D01*
X17930000Y-19089000D02*
X17610000Y-19089000D01*
X17930000Y-19709000D02*
X17930000Y-19089000D01*
X17940000Y-20709000D02*
X17620000Y-20709000D01*
X17940000Y-21329000D02*
X17940000Y-20709000D01*
X17620000Y-21329000D02*
X17940000Y-21329000D01*
X17620000Y-20709000D02*
X17620000Y-21329000D01*
X17970000Y-24809000D02*
X17650000Y-24809000D01*
X17970000Y-25429000D02*
X17970000Y-24809000D01*
X17650000Y-25429000D02*
X17970000Y-25429000D01*
X17650000Y-24809000D02*
X17650000Y-25429000D01*
X27040000Y-24340000D02*
X27040000Y-24020000D01*
X26420000Y-24340000D02*
X27040000Y-24340000D01*
X26420000Y-24020000D02*
X26420000Y-24340000D01*
X27040000Y-24020000D02*
X26420000Y-24020000D01*
X27290000Y-19469000D02*
X27610000Y-19469000D01*
X27290000Y-18849000D02*
X27290000Y-19469000D01*
X27610000Y-18849000D02*
X27290000Y-18849000D01*
X27610000Y-19469000D02*
X27610000Y-18849000D01*
X27030000Y-23800000D02*
X27030000Y-23480000D01*
X26410000Y-23800000D02*
X27030000Y-23800000D01*
X26410000Y-23480000D02*
X26410000Y-23800000D01*
X27030000Y-23480000D02*
X26410000Y-23480000D01*
X27610000Y-17799000D02*
X27290000Y-17799000D01*
X27610000Y-18419000D02*
X27610000Y-17799000D01*
X27290000Y-18419000D02*
X27610000Y-18419000D01*
X27290000Y-17799000D02*
X27290000Y-18419000D01*
X34250000Y-18020000D02*
X33950000Y-18020000D01*
X33950000Y-18020000D02*
X33950000Y-18620000D01*
X33950000Y-18620000D02*
X34250000Y-18620000D01*
X34250000Y-18620000D02*
X34250000Y-18020000D01*
X23100000Y-22204000D02*
X23400000Y-22204000D01*
X23400000Y-22204000D02*
X23400000Y-21604000D01*
X23400000Y-21604000D02*
X23100000Y-21604000D01*
X23100000Y-21604000D02*
X23100000Y-22204000D01*
X23400000Y-23045000D02*
X23100000Y-23045000D01*
X23100000Y-23045000D02*
X23100000Y-23645000D01*
X23100000Y-23645000D02*
X23400000Y-23645000D01*
X23400000Y-23645000D02*
X23400000Y-23045000D01*
X24250000Y-19309000D02*
X23950000Y-19309000D01*
X23950000Y-19309000D02*
X23950000Y-19909000D01*
X23950000Y-19909000D02*
X24250000Y-19909000D01*
X24250000Y-19909000D02*
X24250000Y-19309000D01*
X26430000Y-22959000D02*
X26730000Y-22959000D01*
X26730000Y-22959000D02*
X26730000Y-22359000D01*
X26730000Y-22359000D02*
X26430000Y-22359000D01*
X26430000Y-22359000D02*
X26430000Y-22959000D01*
X19140000Y-22169000D02*
X19140000Y-21869000D01*
X19140000Y-21869000D02*
X18540000Y-21869000D01*
X18540000Y-21869000D02*
X18540000Y-22169000D01*
X18540000Y-22169000D02*
X19140000Y-22169000D01*
X25690000Y-23940000D02*
X25990000Y-23940000D01*
X25990000Y-23940000D02*
X25990000Y-23340000D01*
X25990000Y-23340000D02*
X25690000Y-23340000D01*
X25690000Y-23340000D02*
X25690000Y-23940000D01*
X18600000Y-24570000D02*
X18300000Y-24570000D01*
X18300000Y-24570000D02*
X18300000Y-25170000D01*
X18300000Y-25170000D02*
X18600000Y-25170000D01*
X18600000Y-25170000D02*
X18600000Y-24570000D01*
D13*
X20957000Y-23856000D02*
X19957000Y-22856000D01*
X19957000Y-22856000D02*
X19957000Y-21434000D01*
X19957000Y-21434000D02*
X22613000Y-21434000D01*
X22613000Y-21434000D02*
X22613000Y-23856000D01*
X22613000Y-23856000D02*
X20957000Y-23856000D01*
D10*
X25567819Y-20063133D02*
X25472580Y-20063133D01*
X25586866Y-20120276D02*
X25520200Y-19920276D01*
X25453533Y-20120276D01*
M02*
