M48
; DRILL file {KiCad 5.1.4+dfsg1-1~bpo10+1} date Fri Mar  6 16:54:14 2020
; FORMAT={-:-/ absolute / metric / decimal}
; #@! TF.CreationDate,2020-03-06T16:54:14+01:00
; #@! TF.GenerationSoftware,Kicad,Pcbnew,5.1.4+dfsg1-1~bpo10+1
; #@! TF.FileFunction,Plated,5,6,Blind
FMAT,2
METRIC
T1C0.100
T2C0.150
%
G90
G05
T1
X17.75Y-18.17
X18.0Y-26.001
X18.67Y-18.5
X18.77Y-17.7
X19.1Y-25.99
X19.44Y-20.239
X19.45Y-19.539
X19.51Y-20.88
X19.64Y-21.93
X19.68Y-21.59
X19.74Y-17.77
X19.77Y-22.88
X19.83Y-19.49
X19.89Y-22.15
X19.97Y-25.63
X20.26Y-20.87
X20.579Y-22.464
X20.585Y-22.12
X20.585Y-22.82
X20.585Y-23.17
X20.6Y-20.88
X20.89Y-20.19
X20.89Y-20.53
X20.935Y-22.12
X20.935Y-22.82
X20.935Y-23.17
X20.937Y-22.467
X21.0Y-21.27
X21.25Y-19.79
X21.285Y-22.12
X21.285Y-22.82
X21.285Y-23.17
X21.291Y-22.467
X21.54Y-23.87
X21.635Y-22.47
X21.635Y-22.82
X21.635Y-23.17
X21.635Y-22.12
X21.985Y-22.12
X21.985Y-22.467
X21.985Y-22.821
X21.985Y-23.17
X21.99Y-23.519
X22.64Y-20.87
X22.72Y-24.2
X22.77Y-23.009
X22.79Y-23.669
X22.85Y-23.339
X23.01Y-20.88
X23.27Y-21.12
X23.52Y-18.99
X23.52Y-19.5
X23.6Y-24.07
X24.15Y-25.14
X24.78Y-25.99
X24.95Y-21.439
X24.95Y-21.769
X24.95Y-22.979
X25.2Y-18.22
X25.47Y-22.64
X25.75Y-24.41
X26.125Y-20.609
X26.21Y-24.41
X26.85Y-17.46
X27.07Y-19.049
T2
X17.37Y-25.409
X17.77Y-19.959
X18.83Y-25.581
X19.76Y-22.5
X19.76Y-24.929
X20.12Y-24.029
X20.575Y-25.24
X20.58Y-24.15
X21.34Y-25.57
X22.52Y-25.7
X22.82Y-22.629
X23.65Y-22.629
X23.66Y-21.07
X24.125Y-20.584
X24.22Y-22.829
X24.58Y-23.7
X25.14Y-26.01
X25.75Y-20.609
X25.84Y-26.08
X26.25Y-23.33
T0
M30
