%TF.GenerationSoftware,KiCad,Pcbnew,5.1.5+dfsg1-2~bpo10+1*%
%TF.CreationDate,2020-05-22T12:44:22+02:00*%
%TF.ProjectId,qomu-board,716f6d75-2d62-46f6-9172-642e6b696361,rev?*%
%TF.SameCoordinates,Original*%
%TF.FileFunction,Plated,5,6,Blind,Drill*%
%TF.FilePolarity,Positive*%
%FSLAX46Y46*%
G04 Gerber Fmt 4.6, Leading zero omitted, Abs format (unit mm)*
G04 Created by KiCad (PCBNEW 5.1.5+dfsg1-2~bpo10+1) date 2020-05-22 12:44:22 commit 5cfbf1f*
%MOMM*%
%LPD*%
G04 APERTURE LIST*
%TA.AperFunction,ViaDrill*%
%ADD10C,0.100000*%
%TD*%
%TA.AperFunction,ViaDrill*%
%ADD11C,0.150000*%
%TD*%
G04 APERTURE END LIST*
D10*
X17750000Y-18170000D03*
X18000000Y-26000800D03*
X18670000Y-18500000D03*
X18770000Y-17700000D03*
X19100000Y-25990000D03*
X19440000Y-20239000D03*
X19450000Y-19539000D03*
X19510000Y-20880000D03*
X19640000Y-21930000D03*
X19680000Y-21590000D03*
X19740000Y-17770000D03*
X19770000Y-22880000D03*
X19830000Y-19490000D03*
X19890000Y-22150000D03*
X19970000Y-25630000D03*
X20260000Y-20870000D03*
X20579400Y-22464400D03*
X20585000Y-22120000D03*
X20585000Y-22820000D03*
X20585000Y-23170000D03*
X20600000Y-20880000D03*
X20890000Y-20190000D03*
X20890000Y-20530000D03*
X20935000Y-22120000D03*
X20935000Y-22820000D03*
X20935000Y-23170000D03*
X20936800Y-22467200D03*
X21000000Y-21270000D03*
X21250000Y-19790000D03*
X21285000Y-22120000D03*
X21285000Y-22820000D03*
X21285000Y-23170000D03*
X21290600Y-22467200D03*
X21540000Y-23870000D03*
X21635000Y-22470000D03*
X21635000Y-22820000D03*
X21635000Y-23170000D03*
X21635300Y-22120000D03*
X21985000Y-22120000D03*
X21985000Y-22467200D03*
X21985000Y-22820600D03*
X21985000Y-23170000D03*
X22640000Y-20870000D03*
X22720000Y-24200000D03*
X22770000Y-23009000D03*
X22790000Y-23669000D03*
X22850000Y-23339000D03*
X23010000Y-20880000D03*
X23270000Y-21120000D03*
X23520000Y-18990000D03*
X23520000Y-19500000D03*
X23600000Y-24070000D03*
X23775000Y-24395000D03*
X24150000Y-25140000D03*
X24780000Y-25990000D03*
X24950000Y-21439000D03*
X24950000Y-21769000D03*
X24950000Y-22979000D03*
X25200000Y-18220000D03*
X25470000Y-22640000D03*
X25750000Y-24410000D03*
X26125000Y-20609000D03*
X26210000Y-24410000D03*
X26850000Y-17460000D03*
X27070000Y-19049000D03*
D11*
X17370000Y-25409000D03*
X17770000Y-19959000D03*
X18830000Y-25581000D03*
X19760000Y-22500000D03*
X19760000Y-24929000D03*
X20120000Y-24029000D03*
X20575000Y-25240000D03*
X20580000Y-24150000D03*
X21340000Y-25570000D03*
X22520000Y-25700000D03*
X22820000Y-22629000D03*
X23650000Y-22629000D03*
X23660000Y-21070000D03*
X24125000Y-20584000D03*
X24220000Y-22829000D03*
X24580000Y-23700000D03*
X25140000Y-26010000D03*
X25750000Y-20609000D03*
X25840000Y-26080000D03*
X26250000Y-23330000D03*
M02*
