M48
; DRILL file {KiCad 5.1.5+dfsg1-2~bpo10+1} date Wed 01 Apr 2020 17:55:06 CEST
; FORMAT={-:-/ absolute / inch / decimal}
; #@! TF.CreationDate,2020-04-01T17:55:06+02:00
; #@! TF.GenerationSoftware,Kicad,Pcbnew,5.1.5+dfsg1-2~bpo10+1
; #@! TF.FileFunction,Plated,1,6,PTH
FMAT,2
INCH
T1C0.0059
T2C0.0079
T3C0.0276
T4C0.0354
%
G90
G05
T1
X0.6819Y-0.7563
X0.6819Y-0.9275
X0.6835Y-0.7374
X0.6839Y-0.6881
X0.6843Y-0.9811
X0.685Y-0.8523
X0.6996Y-0.8027
X0.7008Y-0.8527
X0.7236Y-0.6889
X0.7421Y-0.9685
X0.7622Y-0.689
X0.7957Y-0.7142
X0.8697Y-0.7657
X0.9772Y-0.7252
X0.9854Y-0.9551
X1.0012Y-0.95
X1.0287Y-0.7039
X1.0807Y-0.7346
X1.0819Y-0.7933
X1.0831Y-0.9385
X1.0831Y-0.9661
X1.1016Y-0.752
X1.3268Y-0.8748
X1.3386Y-0.7528
X1.3602Y-0.9201
X1.3622Y-0.7331
X1.3622Y-0.7626
X1.3819Y-0.7429
X1.4106Y-0.9886
X1.4114Y-0.739
X1.4114Y-0.7606
X1.4114Y-0.9201
X1.4606Y-0.739
X1.4606Y-0.7606
X1.4606Y-0.9882
X1.5098Y-0.7626
X1.511Y-0.9886
X1.552Y-0.7492
X1.561Y-0.8587
X1.5882Y-0.9673
X1.5953Y-1.024
X1.5984Y-0.8591
X1.6047Y-0.7547
X1.6378Y-0.7449
X1.6378Y-0.7626
X1.6913Y-0.8575
X1.6913Y-0.8783
X1.7047Y-0.7075
X1.7244Y-0.7075
T2
X1.1752Y-0.7343
X1.1752Y-0.9823
X1.178Y-0.7638
X1.178Y-0.9528
X1.1803Y-0.7933
X1.1803Y-0.9232
X1.2402Y-0.7343
X1.2402Y-0.7638
X1.2402Y-0.7933
X1.2402Y-0.9232
X1.2402Y-0.9528
X1.2402Y-0.9823
T3
X1.5484Y-0.7075
X1.5984Y-0.7075
T4
X1.2913Y-0.7085
X1.2913Y-0.8085
X1.2913Y-0.9085
X1.2913Y-1.0085
X1.7126Y-0.8154
X1.7126Y-0.9335
T0
M30
