%TF.GenerationSoftware,KiCad,Pcbnew,5.1.5+dfsg1-2~bpo10+1*%
%TF.CreationDate,2020-05-22T12:44:22+02:00*%
%TF.ProjectId,qomu-board,716f6d75-2d62-46f6-9172-642e6b696361,rev?*%
%TF.SameCoordinates,Original*%
%TF.FileFunction,OtherDrawing,Comment*%
%FSLAX46Y46*%
G04 Gerber Fmt 4.6, Leading zero omitted, Abs format (unit mm)*
G04 Created by KiCad (PCBNEW 5.1.5+dfsg1-2~bpo10+1) date 2020-05-22 12:44:22 commit 5cfbf1f*
%MOMM*%
%LPD*%
G04 APERTURE LIST*
%ADD10C,0.150000*%
%ADD11C,0.200000*%
%ADD12C,0.300000*%
%ADD13C,0.100000*%
%ADD14C,0.050000*%
%ADD15C,0.010000*%
%ADD16C,0.025400*%
G04 APERTURE END LIST*
D10*
X51322976Y-53824261D02*
X51465833Y-53871880D01*
X51703928Y-53871880D01*
X51799166Y-53824261D01*
X51846785Y-53776642D01*
X51894404Y-53681404D01*
X51894404Y-53586166D01*
X51846785Y-53490928D01*
X51799166Y-53443309D01*
X51703928Y-53395690D01*
X51513452Y-53348071D01*
X51418214Y-53300452D01*
X51370595Y-53252833D01*
X51322976Y-53157595D01*
X51322976Y-53062357D01*
X51370595Y-52967119D01*
X51418214Y-52919500D01*
X51513452Y-52871880D01*
X51751547Y-52871880D01*
X51894404Y-52919500D01*
X52322976Y-53871880D02*
X52322976Y-53205214D01*
X52322976Y-53300452D02*
X52370595Y-53252833D01*
X52465833Y-53205214D01*
X52608690Y-53205214D01*
X52703928Y-53252833D01*
X52751547Y-53348071D01*
X52751547Y-53871880D01*
X52751547Y-53348071D02*
X52799166Y-53252833D01*
X52894404Y-53205214D01*
X53037261Y-53205214D01*
X53132500Y-53252833D01*
X53180119Y-53348071D01*
X53180119Y-53871880D01*
X54084880Y-53871880D02*
X54084880Y-53348071D01*
X54037261Y-53252833D01*
X53942023Y-53205214D01*
X53751547Y-53205214D01*
X53656309Y-53252833D01*
X54084880Y-53824261D02*
X53989642Y-53871880D01*
X53751547Y-53871880D01*
X53656309Y-53824261D01*
X53608690Y-53729023D01*
X53608690Y-53633785D01*
X53656309Y-53538547D01*
X53751547Y-53490928D01*
X53989642Y-53490928D01*
X54084880Y-53443309D01*
X54703928Y-53871880D02*
X54608690Y-53824261D01*
X54561071Y-53729023D01*
X54561071Y-52871880D01*
X55227738Y-53871880D02*
X55132500Y-53824261D01*
X55084880Y-53729023D01*
X55084880Y-52871880D01*
X55989642Y-53824261D02*
X55894404Y-53871880D01*
X55703928Y-53871880D01*
X55608690Y-53824261D01*
X55561071Y-53729023D01*
X55561071Y-53348071D01*
X55608690Y-53252833D01*
X55703928Y-53205214D01*
X55894404Y-53205214D01*
X55989642Y-53252833D01*
X56037261Y-53348071D01*
X56037261Y-53443309D01*
X55561071Y-53538547D01*
X56418214Y-53824261D02*
X56513452Y-53871880D01*
X56703928Y-53871880D01*
X56799166Y-53824261D01*
X56846785Y-53729023D01*
X56846785Y-53681404D01*
X56799166Y-53586166D01*
X56703928Y-53538547D01*
X56561071Y-53538547D01*
X56465833Y-53490928D01*
X56418214Y-53395690D01*
X56418214Y-53348071D01*
X56465833Y-53252833D01*
X56561071Y-53205214D01*
X56703928Y-53205214D01*
X56799166Y-53252833D01*
X57132500Y-53205214D02*
X57513452Y-53205214D01*
X57275357Y-52871880D02*
X57275357Y-53729023D01*
X57322976Y-53824261D01*
X57418214Y-53871880D01*
X57513452Y-53871880D01*
X58608690Y-53871880D02*
X58608690Y-52871880D01*
X59037261Y-53871880D02*
X59037261Y-53348071D01*
X58989642Y-53252833D01*
X58894404Y-53205214D01*
X58751547Y-53205214D01*
X58656309Y-53252833D01*
X58608690Y-53300452D01*
X59656309Y-53871880D02*
X59561071Y-53824261D01*
X59513452Y-53776642D01*
X59465833Y-53681404D01*
X59465833Y-53395690D01*
X59513452Y-53300452D01*
X59561071Y-53252833D01*
X59656309Y-53205214D01*
X59799166Y-53205214D01*
X59894404Y-53252833D01*
X59942023Y-53300452D01*
X59989642Y-53395690D01*
X59989642Y-53681404D01*
X59942023Y-53776642D01*
X59894404Y-53824261D01*
X59799166Y-53871880D01*
X59656309Y-53871880D01*
X60561071Y-53871880D02*
X60465833Y-53824261D01*
X60418214Y-53729023D01*
X60418214Y-52871880D01*
X61322976Y-53824261D02*
X61227738Y-53871880D01*
X61037261Y-53871880D01*
X60942023Y-53824261D01*
X60894404Y-53729023D01*
X60894404Y-53348071D01*
X60942023Y-53252833D01*
X61037261Y-53205214D01*
X61227738Y-53205214D01*
X61322976Y-53252833D01*
X61370595Y-53348071D01*
X61370595Y-53443309D01*
X60894404Y-53538547D01*
X61799166Y-53776642D02*
X61846785Y-53824261D01*
X61799166Y-53871880D01*
X61751547Y-53824261D01*
X61799166Y-53776642D01*
X61799166Y-53871880D01*
X61799166Y-53252833D02*
X61846785Y-53300452D01*
X61799166Y-53348071D01*
X61751547Y-53300452D01*
X61799166Y-53252833D01*
X61799166Y-53348071D01*
X63227738Y-52871880D02*
X63322976Y-52871880D01*
X63418214Y-52919500D01*
X63465833Y-52967119D01*
X63513452Y-53062357D01*
X63561071Y-53252833D01*
X63561071Y-53490928D01*
X63513452Y-53681404D01*
X63465833Y-53776642D01*
X63418214Y-53824261D01*
X63322976Y-53871880D01*
X63227738Y-53871880D01*
X63132500Y-53824261D01*
X63084880Y-53776642D01*
X63037261Y-53681404D01*
X62989642Y-53490928D01*
X62989642Y-53252833D01*
X63037261Y-53062357D01*
X63084880Y-52967119D01*
X63132500Y-52919500D01*
X63227738Y-52871880D01*
X63989642Y-53776642D02*
X64037261Y-53824261D01*
X63989642Y-53871880D01*
X63942023Y-53824261D01*
X63989642Y-53776642D01*
X63989642Y-53871880D01*
X64989642Y-53871880D02*
X64418214Y-53871880D01*
X64703928Y-53871880D02*
X64703928Y-52871880D01*
X64608690Y-53014738D01*
X64513452Y-53109976D01*
X64418214Y-53157595D01*
X65418214Y-53871880D02*
X65418214Y-53205214D01*
X65418214Y-53300452D02*
X65465833Y-53252833D01*
X65561071Y-53205214D01*
X65703928Y-53205214D01*
X65799166Y-53252833D01*
X65846785Y-53348071D01*
X65846785Y-53871880D01*
X65846785Y-53348071D02*
X65894404Y-53252833D01*
X65989642Y-53205214D01*
X66132499Y-53205214D01*
X66227738Y-53252833D01*
X66275357Y-53348071D01*
X66275357Y-53871880D01*
X66751547Y-53871880D02*
X66751547Y-53205214D01*
X66751547Y-53300452D02*
X66799166Y-53252833D01*
X66894404Y-53205214D01*
X67037261Y-53205214D01*
X67132500Y-53252833D01*
X67180119Y-53348071D01*
X67180119Y-53871880D01*
X67180119Y-53348071D02*
X67227738Y-53252833D01*
X67322976Y-53205214D01*
X67465833Y-53205214D01*
X67561071Y-53252833D01*
X67608690Y-53348071D01*
X67608690Y-53871880D01*
X51370595Y-55521880D02*
X51370595Y-54521880D01*
X51703928Y-55236166D01*
X52037261Y-54521880D01*
X52037261Y-55521880D01*
X52513452Y-55521880D02*
X52513452Y-54855214D01*
X52513452Y-54521880D02*
X52465833Y-54569500D01*
X52513452Y-54617119D01*
X52561071Y-54569500D01*
X52513452Y-54521880D01*
X52513452Y-54617119D01*
X52989642Y-54855214D02*
X52989642Y-55521880D01*
X52989642Y-54950452D02*
X53037261Y-54902833D01*
X53132500Y-54855214D01*
X53275357Y-54855214D01*
X53370595Y-54902833D01*
X53418214Y-54998071D01*
X53418214Y-55521880D01*
X54513452Y-54855214D02*
X54894404Y-54855214D01*
X54656309Y-54521880D02*
X54656309Y-55379023D01*
X54703928Y-55474261D01*
X54799166Y-55521880D01*
X54894404Y-55521880D01*
X55227738Y-55521880D02*
X55227738Y-54855214D01*
X55227738Y-55045690D02*
X55275357Y-54950452D01*
X55322976Y-54902833D01*
X55418214Y-54855214D01*
X55513452Y-54855214D01*
X56275357Y-55521880D02*
X56275357Y-54998071D01*
X56227738Y-54902833D01*
X56132500Y-54855214D01*
X55942023Y-54855214D01*
X55846785Y-54902833D01*
X56275357Y-55474261D02*
X56180119Y-55521880D01*
X55942023Y-55521880D01*
X55846785Y-55474261D01*
X55799166Y-55379023D01*
X55799166Y-55283785D01*
X55846785Y-55188547D01*
X55942023Y-55140928D01*
X56180119Y-55140928D01*
X56275357Y-55093309D01*
X57180119Y-55474261D02*
X57084880Y-55521880D01*
X56894404Y-55521880D01*
X56799166Y-55474261D01*
X56751547Y-55426642D01*
X56703928Y-55331404D01*
X56703928Y-55045690D01*
X56751547Y-54950452D01*
X56799166Y-54902833D01*
X56894404Y-54855214D01*
X57084880Y-54855214D01*
X57180119Y-54902833D01*
X57608690Y-55521880D02*
X57608690Y-54521880D01*
X57703928Y-55140928D02*
X57989642Y-55521880D01*
X57989642Y-54855214D02*
X57608690Y-55236166D01*
X59084880Y-54855214D02*
X59275357Y-55521880D01*
X59465833Y-55045690D01*
X59656309Y-55521880D01*
X59846785Y-54855214D01*
X60227738Y-55521880D02*
X60227738Y-54855214D01*
X60227738Y-54521880D02*
X60180119Y-54569500D01*
X60227738Y-54617119D01*
X60275357Y-54569500D01*
X60227738Y-54521880D01*
X60227738Y-54617119D01*
X61132500Y-55521880D02*
X61132500Y-54521880D01*
X61132500Y-55474261D02*
X61037261Y-55521880D01*
X60846785Y-55521880D01*
X60751547Y-55474261D01*
X60703928Y-55426642D01*
X60656309Y-55331404D01*
X60656309Y-55045690D01*
X60703928Y-54950452D01*
X60751547Y-54902833D01*
X60846785Y-54855214D01*
X61037261Y-54855214D01*
X61132500Y-54902833D01*
X61465833Y-54855214D02*
X61846785Y-54855214D01*
X61608690Y-54521880D02*
X61608690Y-55379023D01*
X61656309Y-55474261D01*
X61751547Y-55521880D01*
X61846785Y-55521880D01*
X62180119Y-55521880D02*
X62180119Y-54521880D01*
X62608690Y-55521880D02*
X62608690Y-54998071D01*
X62561071Y-54902833D01*
X62465833Y-54855214D01*
X62322976Y-54855214D01*
X62227738Y-54902833D01*
X62180119Y-54950452D01*
X63084880Y-55426642D02*
X63132500Y-55474261D01*
X63084880Y-55521880D01*
X63037261Y-55474261D01*
X63084880Y-55426642D01*
X63084880Y-55521880D01*
X63084880Y-54902833D02*
X63132500Y-54950452D01*
X63084880Y-54998071D01*
X63037261Y-54950452D01*
X63084880Y-54902833D01*
X63084880Y-54998071D01*
X64513452Y-54521880D02*
X64608690Y-54521880D01*
X64703928Y-54569500D01*
X64751547Y-54617119D01*
X64799166Y-54712357D01*
X64846785Y-54902833D01*
X64846785Y-55140928D01*
X64799166Y-55331404D01*
X64751547Y-55426642D01*
X64703928Y-55474261D01*
X64608690Y-55521880D01*
X64513452Y-55521880D01*
X64418214Y-55474261D01*
X64370595Y-55426642D01*
X64322976Y-55331404D01*
X64275357Y-55140928D01*
X64275357Y-54902833D01*
X64322976Y-54712357D01*
X64370595Y-54617119D01*
X64418214Y-54569500D01*
X64513452Y-54521880D01*
X65275357Y-55426642D02*
X65322976Y-55474261D01*
X65275357Y-55521880D01*
X65227738Y-55474261D01*
X65275357Y-55426642D01*
X65275357Y-55521880D01*
X66275357Y-55521880D02*
X65703928Y-55521880D01*
X65989642Y-55521880D02*
X65989642Y-54521880D01*
X65894404Y-54664738D01*
X65799166Y-54759976D01*
X65703928Y-54807595D01*
X66703928Y-55521880D02*
X66703928Y-54855214D01*
X66703928Y-54950452D02*
X66751547Y-54902833D01*
X66846785Y-54855214D01*
X66989642Y-54855214D01*
X67084880Y-54902833D01*
X67132500Y-54998071D01*
X67132500Y-55521880D01*
X67132500Y-54998071D02*
X67180119Y-54902833D01*
X67275357Y-54855214D01*
X67418214Y-54855214D01*
X67513452Y-54902833D01*
X67561071Y-54998071D01*
X67561071Y-55521880D01*
X68037261Y-55521880D02*
X68037261Y-54855214D01*
X68037261Y-54950452D02*
X68084880Y-54902833D01*
X68180119Y-54855214D01*
X68322976Y-54855214D01*
X68418214Y-54902833D01*
X68465833Y-54998071D01*
X68465833Y-55521880D01*
X68465833Y-54998071D02*
X68513452Y-54902833D01*
X68608690Y-54855214D01*
X68751547Y-54855214D01*
X68846785Y-54902833D01*
X68894404Y-54998071D01*
X68894404Y-55521880D01*
X51370595Y-57171880D02*
X51370595Y-56171880D01*
X51703928Y-56886166D01*
X52037261Y-56171880D01*
X52037261Y-57171880D01*
X52513452Y-57171880D02*
X52513452Y-56505214D01*
X52513452Y-56171880D02*
X52465833Y-56219500D01*
X52513452Y-56267119D01*
X52561071Y-56219500D01*
X52513452Y-56171880D01*
X52513452Y-56267119D01*
X52989642Y-56505214D02*
X52989642Y-57171880D01*
X52989642Y-56600452D02*
X53037261Y-56552833D01*
X53132500Y-56505214D01*
X53275357Y-56505214D01*
X53370595Y-56552833D01*
X53418214Y-56648071D01*
X53418214Y-57171880D01*
X55084880Y-57124261D02*
X54989642Y-57171880D01*
X54799166Y-57171880D01*
X54703928Y-57124261D01*
X54656309Y-57076642D01*
X54608690Y-56981404D01*
X54608690Y-56695690D01*
X54656309Y-56600452D01*
X54703928Y-56552833D01*
X54799166Y-56505214D01*
X54989642Y-56505214D01*
X55084880Y-56552833D01*
X55656309Y-57171880D02*
X55561071Y-57124261D01*
X55513452Y-57029023D01*
X55513452Y-56171880D01*
X56418214Y-57124261D02*
X56322976Y-57171880D01*
X56132500Y-57171880D01*
X56037261Y-57124261D01*
X55989642Y-57029023D01*
X55989642Y-56648071D01*
X56037261Y-56552833D01*
X56132500Y-56505214D01*
X56322976Y-56505214D01*
X56418214Y-56552833D01*
X56465833Y-56648071D01*
X56465833Y-56743309D01*
X55989642Y-56838547D01*
X57322976Y-57171880D02*
X57322976Y-56648071D01*
X57275357Y-56552833D01*
X57180119Y-56505214D01*
X56989642Y-56505214D01*
X56894404Y-56552833D01*
X57322976Y-57124261D02*
X57227738Y-57171880D01*
X56989642Y-57171880D01*
X56894404Y-57124261D01*
X56846785Y-57029023D01*
X56846785Y-56933785D01*
X56894404Y-56838547D01*
X56989642Y-56790928D01*
X57227738Y-56790928D01*
X57322976Y-56743309D01*
X57799166Y-57171880D02*
X57799166Y-56505214D01*
X57799166Y-56695690D02*
X57846785Y-56600452D01*
X57894404Y-56552833D01*
X57989642Y-56505214D01*
X58084880Y-56505214D01*
X58846785Y-57171880D02*
X58846785Y-56648071D01*
X58799166Y-56552833D01*
X58703928Y-56505214D01*
X58513452Y-56505214D01*
X58418214Y-56552833D01*
X58846785Y-57124261D02*
X58751547Y-57171880D01*
X58513452Y-57171880D01*
X58418214Y-57124261D01*
X58370595Y-57029023D01*
X58370595Y-56933785D01*
X58418214Y-56838547D01*
X58513452Y-56790928D01*
X58751547Y-56790928D01*
X58846785Y-56743309D01*
X59322976Y-56505214D02*
X59322976Y-57171880D01*
X59322976Y-56600452D02*
X59370595Y-56552833D01*
X59465833Y-56505214D01*
X59608690Y-56505214D01*
X59703928Y-56552833D01*
X59751547Y-56648071D01*
X59751547Y-57171880D01*
X60656309Y-57124261D02*
X60561071Y-57171880D01*
X60370595Y-57171880D01*
X60275357Y-57124261D01*
X60227738Y-57076642D01*
X60180119Y-56981404D01*
X60180119Y-56695690D01*
X60227738Y-56600452D01*
X60275357Y-56552833D01*
X60370595Y-56505214D01*
X60561071Y-56505214D01*
X60656309Y-56552833D01*
X61465833Y-57124261D02*
X61370595Y-57171880D01*
X61180119Y-57171880D01*
X61084880Y-57124261D01*
X61037261Y-57029023D01*
X61037261Y-56648071D01*
X61084880Y-56552833D01*
X61180119Y-56505214D01*
X61370595Y-56505214D01*
X61465833Y-56552833D01*
X61513452Y-56648071D01*
X61513452Y-56743309D01*
X61037261Y-56838547D01*
X61942023Y-57076642D02*
X61989642Y-57124261D01*
X61942023Y-57171880D01*
X61894404Y-57124261D01*
X61942023Y-57076642D01*
X61942023Y-57171880D01*
X61942023Y-56552833D02*
X61989642Y-56600452D01*
X61942023Y-56648071D01*
X61894404Y-56600452D01*
X61942023Y-56552833D01*
X61942023Y-56648071D01*
X63370595Y-56171880D02*
X63465833Y-56171880D01*
X63561071Y-56219500D01*
X63608690Y-56267119D01*
X63656309Y-56362357D01*
X63703928Y-56552833D01*
X63703928Y-56790928D01*
X63656309Y-56981404D01*
X63608690Y-57076642D01*
X63561071Y-57124261D01*
X63465833Y-57171880D01*
X63370595Y-57171880D01*
X63275357Y-57124261D01*
X63227738Y-57076642D01*
X63180119Y-56981404D01*
X63132500Y-56790928D01*
X63132500Y-56552833D01*
X63180119Y-56362357D01*
X63227738Y-56267119D01*
X63275357Y-56219500D01*
X63370595Y-56171880D01*
X64132500Y-57076642D02*
X64180119Y-57124261D01*
X64132500Y-57171880D01*
X64084880Y-57124261D01*
X64132500Y-57076642D01*
X64132500Y-57171880D01*
X64799166Y-56171880D02*
X64894404Y-56171880D01*
X64989642Y-56219500D01*
X65037261Y-56267119D01*
X65084880Y-56362357D01*
X65132499Y-56552833D01*
X65132499Y-56790928D01*
X65084880Y-56981404D01*
X65037261Y-57076642D01*
X64989642Y-57124261D01*
X64894404Y-57171880D01*
X64799166Y-57171880D01*
X64703928Y-57124261D01*
X64656309Y-57076642D01*
X64608690Y-56981404D01*
X64561071Y-56790928D01*
X64561071Y-56552833D01*
X64608690Y-56362357D01*
X64656309Y-56267119D01*
X64703928Y-56219500D01*
X64799166Y-56171880D01*
X65608690Y-57171880D02*
X65799166Y-57171880D01*
X65894404Y-57124261D01*
X65942023Y-57076642D01*
X66037261Y-56933785D01*
X66084880Y-56743309D01*
X66084880Y-56362357D01*
X66037261Y-56267119D01*
X65989642Y-56219500D01*
X65894404Y-56171880D01*
X65703928Y-56171880D01*
X65608690Y-56219500D01*
X65561071Y-56267119D01*
X65513452Y-56362357D01*
X65513452Y-56600452D01*
X65561071Y-56695690D01*
X65608690Y-56743309D01*
X65703928Y-56790928D01*
X65894404Y-56790928D01*
X65989642Y-56743309D01*
X66037261Y-56695690D01*
X66084880Y-56600452D01*
X66513452Y-57171880D02*
X66513452Y-56505214D01*
X66513452Y-56600452D02*
X66561071Y-56552833D01*
X66656309Y-56505214D01*
X66799166Y-56505214D01*
X66894404Y-56552833D01*
X66942023Y-56648071D01*
X66942023Y-57171880D01*
X66942023Y-56648071D02*
X66989642Y-56552833D01*
X67084880Y-56505214D01*
X67227738Y-56505214D01*
X67322976Y-56552833D01*
X67370595Y-56648071D01*
X67370595Y-57171880D01*
X67846785Y-57171880D02*
X67846785Y-56505214D01*
X67846785Y-56600452D02*
X67894404Y-56552833D01*
X67989642Y-56505214D01*
X68132500Y-56505214D01*
X68227738Y-56552833D01*
X68275357Y-56648071D01*
X68275357Y-57171880D01*
X68275357Y-56648071D02*
X68322976Y-56552833D01*
X68418214Y-56505214D01*
X68561071Y-56505214D01*
X68656309Y-56552833D01*
X68703928Y-56648071D01*
X68703928Y-57171880D01*
X51703928Y-58298071D02*
X51846785Y-58345690D01*
X51894404Y-58393309D01*
X51942023Y-58488547D01*
X51942023Y-58631404D01*
X51894404Y-58726642D01*
X51846785Y-58774261D01*
X51751547Y-58821880D01*
X51370595Y-58821880D01*
X51370595Y-57821880D01*
X51703928Y-57821880D01*
X51799166Y-57869500D01*
X51846785Y-57917119D01*
X51894404Y-58012357D01*
X51894404Y-58107595D01*
X51846785Y-58202833D01*
X51799166Y-58250452D01*
X51703928Y-58298071D01*
X51370595Y-58298071D01*
X52513452Y-58821880D02*
X52418214Y-58774261D01*
X52370595Y-58679023D01*
X52370595Y-57821880D01*
X52894404Y-58821880D02*
X52894404Y-58155214D01*
X52894404Y-57821880D02*
X52846785Y-57869500D01*
X52894404Y-57917119D01*
X52942023Y-57869500D01*
X52894404Y-57821880D01*
X52894404Y-57917119D01*
X53370595Y-58155214D02*
X53370595Y-58821880D01*
X53370595Y-58250452D02*
X53418214Y-58202833D01*
X53513452Y-58155214D01*
X53656309Y-58155214D01*
X53751547Y-58202833D01*
X53799166Y-58298071D01*
X53799166Y-58821880D01*
X54703928Y-58821880D02*
X54703928Y-57821880D01*
X54703928Y-58774261D02*
X54608690Y-58821880D01*
X54418214Y-58821880D01*
X54322976Y-58774261D01*
X54275357Y-58726642D01*
X54227738Y-58631404D01*
X54227738Y-58345690D01*
X54275357Y-58250452D01*
X54322976Y-58202833D01*
X54418214Y-58155214D01*
X54608690Y-58155214D01*
X54703928Y-58202833D01*
X55799166Y-57821880D02*
X56132500Y-58821880D01*
X56465833Y-57821880D01*
X56799166Y-58821880D02*
X56799166Y-58155214D01*
X56799166Y-57821880D02*
X56751547Y-57869500D01*
X56799166Y-57917119D01*
X56846785Y-57869500D01*
X56799166Y-57821880D01*
X56799166Y-57917119D01*
X57703928Y-58821880D02*
X57703928Y-58298071D01*
X57656309Y-58202833D01*
X57561071Y-58155214D01*
X57370595Y-58155214D01*
X57275357Y-58202833D01*
X57703928Y-58774261D02*
X57608690Y-58821880D01*
X57370595Y-58821880D01*
X57275357Y-58774261D01*
X57227738Y-58679023D01*
X57227738Y-58583785D01*
X57275357Y-58488547D01*
X57370595Y-58440928D01*
X57608690Y-58440928D01*
X57703928Y-58393309D01*
X58132500Y-58774261D02*
X58227738Y-58821880D01*
X58418214Y-58821880D01*
X58513452Y-58774261D01*
X58561071Y-58679023D01*
X58561071Y-58631404D01*
X58513452Y-58536166D01*
X58418214Y-58488547D01*
X58275357Y-58488547D01*
X58180119Y-58440928D01*
X58132500Y-58345690D01*
X58132500Y-58298071D01*
X58180119Y-58202833D01*
X58275357Y-58155214D01*
X58418214Y-58155214D01*
X58513452Y-58202833D01*
X58989642Y-58726642D02*
X59037261Y-58774261D01*
X58989642Y-58821880D01*
X58942023Y-58774261D01*
X58989642Y-58726642D01*
X58989642Y-58821880D01*
X58989642Y-58202833D02*
X59037261Y-58250452D01*
X58989642Y-58298071D01*
X58942023Y-58250452D01*
X58989642Y-58202833D01*
X58989642Y-58298071D01*
X60132500Y-58155214D02*
X60370595Y-58821880D01*
X60608690Y-58155214D02*
X60370595Y-58821880D01*
X60275357Y-59059976D01*
X60227738Y-59107595D01*
X60132500Y-59155214D01*
X61370595Y-58774261D02*
X61275357Y-58821880D01*
X61084880Y-58821880D01*
X60989642Y-58774261D01*
X60942023Y-58679023D01*
X60942023Y-58298071D01*
X60989642Y-58202833D01*
X61084880Y-58155214D01*
X61275357Y-58155214D01*
X61370595Y-58202833D01*
X61418214Y-58298071D01*
X61418214Y-58393309D01*
X60942023Y-58488547D01*
X61799166Y-58774261D02*
X61894404Y-58821880D01*
X62084880Y-58821880D01*
X62180119Y-58774261D01*
X62227738Y-58679023D01*
X62227738Y-58631404D01*
X62180119Y-58536166D01*
X62084880Y-58488547D01*
X61942023Y-58488547D01*
X61846785Y-58440928D01*
X61799166Y-58345690D01*
X61799166Y-58298071D01*
X61846785Y-58202833D01*
X61942023Y-58155214D01*
X62084880Y-58155214D01*
X62180119Y-58202833D01*
X51703928Y-59948071D02*
X51846785Y-59995690D01*
X51894404Y-60043309D01*
X51942023Y-60138547D01*
X51942023Y-60281404D01*
X51894404Y-60376642D01*
X51846785Y-60424261D01*
X51751547Y-60471880D01*
X51370595Y-60471880D01*
X51370595Y-59471880D01*
X51703928Y-59471880D01*
X51799166Y-59519500D01*
X51846785Y-59567119D01*
X51894404Y-59662357D01*
X51894404Y-59757595D01*
X51846785Y-59852833D01*
X51799166Y-59900452D01*
X51703928Y-59948071D01*
X51370595Y-59948071D01*
X52799166Y-59805214D02*
X52799166Y-60471880D01*
X52370595Y-59805214D02*
X52370595Y-60329023D01*
X52418214Y-60424261D01*
X52513452Y-60471880D01*
X52656309Y-60471880D01*
X52751547Y-60424261D01*
X52799166Y-60376642D01*
X53275357Y-60471880D02*
X53275357Y-59805214D01*
X53275357Y-59995690D02*
X53322976Y-59900452D01*
X53370595Y-59852833D01*
X53465833Y-59805214D01*
X53561071Y-59805214D01*
X53894404Y-60471880D02*
X53894404Y-59805214D01*
X53894404Y-59471880D02*
X53846785Y-59519500D01*
X53894404Y-59567119D01*
X53942023Y-59519500D01*
X53894404Y-59471880D01*
X53894404Y-59567119D01*
X54751547Y-60424261D02*
X54656309Y-60471880D01*
X54465833Y-60471880D01*
X54370595Y-60424261D01*
X54322976Y-60329023D01*
X54322976Y-59948071D01*
X54370595Y-59852833D01*
X54465833Y-59805214D01*
X54656309Y-59805214D01*
X54751547Y-59852833D01*
X54799166Y-59948071D01*
X54799166Y-60043309D01*
X54322976Y-60138547D01*
X55656309Y-60471880D02*
X55656309Y-59471880D01*
X55656309Y-60424261D02*
X55561071Y-60471880D01*
X55370595Y-60471880D01*
X55275357Y-60424261D01*
X55227738Y-60376642D01*
X55180119Y-60281404D01*
X55180119Y-59995690D01*
X55227738Y-59900452D01*
X55275357Y-59852833D01*
X55370595Y-59805214D01*
X55561071Y-59805214D01*
X55656309Y-59852833D01*
X56751547Y-59471880D02*
X57084880Y-60471880D01*
X57418214Y-59471880D01*
X57751547Y-60471880D02*
X57751547Y-59805214D01*
X57751547Y-59471880D02*
X57703928Y-59519500D01*
X57751547Y-59567119D01*
X57799166Y-59519500D01*
X57751547Y-59471880D01*
X57751547Y-59567119D01*
X58656309Y-60471880D02*
X58656309Y-59948071D01*
X58608690Y-59852833D01*
X58513452Y-59805214D01*
X58322976Y-59805214D01*
X58227738Y-59852833D01*
X58656309Y-60424261D02*
X58561071Y-60471880D01*
X58322976Y-60471880D01*
X58227738Y-60424261D01*
X58180119Y-60329023D01*
X58180119Y-60233785D01*
X58227738Y-60138547D01*
X58322976Y-60090928D01*
X58561071Y-60090928D01*
X58656309Y-60043309D01*
X59084880Y-60424261D02*
X59180119Y-60471880D01*
X59370595Y-60471880D01*
X59465833Y-60424261D01*
X59513452Y-60329023D01*
X59513452Y-60281404D01*
X59465833Y-60186166D01*
X59370595Y-60138547D01*
X59227738Y-60138547D01*
X59132500Y-60090928D01*
X59084880Y-59995690D01*
X59084880Y-59948071D01*
X59132500Y-59852833D01*
X59227738Y-59805214D01*
X59370595Y-59805214D01*
X59465833Y-59852833D01*
X59942023Y-60376642D02*
X59989642Y-60424261D01*
X59942023Y-60471880D01*
X59894404Y-60424261D01*
X59942023Y-60376642D01*
X59942023Y-60471880D01*
X59942023Y-59852833D02*
X59989642Y-59900452D01*
X59942023Y-59948071D01*
X59894404Y-59900452D01*
X59942023Y-59852833D01*
X59942023Y-59948071D01*
X61084880Y-59805214D02*
X61322976Y-60471880D01*
X61561071Y-59805214D02*
X61322976Y-60471880D01*
X61227738Y-60709976D01*
X61180119Y-60757595D01*
X61084880Y-60805214D01*
X62322976Y-60424261D02*
X62227738Y-60471880D01*
X62037261Y-60471880D01*
X61942023Y-60424261D01*
X61894404Y-60329023D01*
X61894404Y-59948071D01*
X61942023Y-59852833D01*
X62037261Y-59805214D01*
X62227738Y-59805214D01*
X62322976Y-59852833D01*
X62370595Y-59948071D01*
X62370595Y-60043309D01*
X61894404Y-60138547D01*
X62751547Y-60424261D02*
X62846785Y-60471880D01*
X63037261Y-60471880D01*
X63132500Y-60424261D01*
X63180119Y-60329023D01*
X63180119Y-60281404D01*
X63132500Y-60186166D01*
X63037261Y-60138547D01*
X62894404Y-60138547D01*
X62799166Y-60090928D01*
X62751547Y-59995690D01*
X62751547Y-59948071D01*
X62799166Y-59852833D01*
X62894404Y-59805214D01*
X63037261Y-59805214D01*
X63132500Y-59852833D01*
X51348094Y-49547380D02*
X51348094Y-48547380D01*
X51729047Y-48547380D01*
X51824285Y-48595000D01*
X51871904Y-48642619D01*
X51919523Y-48737857D01*
X51919523Y-48880714D01*
X51871904Y-48975952D01*
X51824285Y-49023571D01*
X51729047Y-49071190D01*
X51348094Y-49071190D01*
X52919523Y-49452142D02*
X52871904Y-49499761D01*
X52729047Y-49547380D01*
X52633809Y-49547380D01*
X52490952Y-49499761D01*
X52395714Y-49404523D01*
X52348094Y-49309285D01*
X52300475Y-49118809D01*
X52300475Y-48975952D01*
X52348094Y-48785476D01*
X52395714Y-48690238D01*
X52490952Y-48595000D01*
X52633809Y-48547380D01*
X52729047Y-48547380D01*
X52871904Y-48595000D01*
X52919523Y-48642619D01*
X53681428Y-49023571D02*
X53824285Y-49071190D01*
X53871904Y-49118809D01*
X53919523Y-49214047D01*
X53919523Y-49356904D01*
X53871904Y-49452142D01*
X53824285Y-49499761D01*
X53729047Y-49547380D01*
X53348094Y-49547380D01*
X53348094Y-48547380D01*
X53681428Y-48547380D01*
X53776666Y-48595000D01*
X53824285Y-48642619D01*
X53871904Y-48737857D01*
X53871904Y-48833095D01*
X53824285Y-48928333D01*
X53776666Y-48975952D01*
X53681428Y-49023571D01*
X53348094Y-49023571D01*
X54967142Y-48880714D02*
X55348094Y-48880714D01*
X55109999Y-48547380D02*
X55109999Y-49404523D01*
X55157618Y-49499761D01*
X55252856Y-49547380D01*
X55348094Y-49547380D01*
X55681428Y-49547380D02*
X55681428Y-48547380D01*
X56109999Y-49547380D02*
X56109999Y-49023571D01*
X56062380Y-48928333D01*
X55967142Y-48880714D01*
X55824285Y-48880714D01*
X55729047Y-48928333D01*
X55681428Y-48975952D01*
X56586190Y-49547380D02*
X56586190Y-48880714D01*
X56586190Y-48547380D02*
X56538571Y-48595000D01*
X56586190Y-48642619D01*
X56633809Y-48595000D01*
X56586190Y-48547380D01*
X56586190Y-48642619D01*
X57490952Y-49499761D02*
X57395714Y-49547380D01*
X57205237Y-49547380D01*
X57109999Y-49499761D01*
X57062380Y-49452142D01*
X57014761Y-49356904D01*
X57014761Y-49071190D01*
X57062380Y-48975952D01*
X57109999Y-48928333D01*
X57205237Y-48880714D01*
X57395714Y-48880714D01*
X57490952Y-48928333D01*
X57919523Y-49547380D02*
X57919523Y-48547380D01*
X58014761Y-49166428D02*
X58300475Y-49547380D01*
X58300475Y-48880714D02*
X57919523Y-49261666D01*
X58729047Y-48880714D02*
X58729047Y-49547380D01*
X58729047Y-48975952D02*
X58776666Y-48928333D01*
X58871904Y-48880714D01*
X59014761Y-48880714D01*
X59109999Y-48928333D01*
X59157618Y-49023571D01*
X59157618Y-49547380D01*
X60014761Y-49499761D02*
X59919523Y-49547380D01*
X59729047Y-49547380D01*
X59633809Y-49499761D01*
X59586190Y-49404523D01*
X59586190Y-49023571D01*
X59633809Y-48928333D01*
X59729047Y-48880714D01*
X59919523Y-48880714D01*
X60014761Y-48928333D01*
X60062380Y-49023571D01*
X60062380Y-49118809D01*
X59586190Y-49214047D01*
X60443333Y-49499761D02*
X60538571Y-49547380D01*
X60729047Y-49547380D01*
X60824285Y-49499761D01*
X60871904Y-49404523D01*
X60871904Y-49356904D01*
X60824285Y-49261666D01*
X60729047Y-49214047D01*
X60586190Y-49214047D01*
X60490952Y-49166428D01*
X60443333Y-49071190D01*
X60443333Y-49023571D01*
X60490952Y-48928333D01*
X60586190Y-48880714D01*
X60729047Y-48880714D01*
X60824285Y-48928333D01*
X61252856Y-49499761D02*
X61348094Y-49547380D01*
X61538571Y-49547380D01*
X61633809Y-49499761D01*
X61681428Y-49404523D01*
X61681428Y-49356904D01*
X61633809Y-49261666D01*
X61538571Y-49214047D01*
X61395714Y-49214047D01*
X61300475Y-49166428D01*
X61252856Y-49071190D01*
X61252856Y-49023571D01*
X61300475Y-48928333D01*
X61395714Y-48880714D01*
X61538571Y-48880714D01*
X61633809Y-48928333D01*
X63062380Y-48547380D02*
X63157618Y-48547380D01*
X63252856Y-48595000D01*
X63300475Y-48642619D01*
X63348094Y-48737857D01*
X63395714Y-48928333D01*
X63395714Y-49166428D01*
X63348094Y-49356904D01*
X63300475Y-49452142D01*
X63252856Y-49499761D01*
X63157618Y-49547380D01*
X63062380Y-49547380D01*
X62967142Y-49499761D01*
X62919523Y-49452142D01*
X62871904Y-49356904D01*
X62824285Y-49166428D01*
X62824285Y-48928333D01*
X62871904Y-48737857D01*
X62919523Y-48642619D01*
X62967142Y-48595000D01*
X63062380Y-48547380D01*
X63824285Y-49452142D02*
X63871904Y-49499761D01*
X63824285Y-49547380D01*
X63776666Y-49499761D01*
X63824285Y-49452142D01*
X63824285Y-49547380D01*
X64729047Y-48547380D02*
X64538571Y-48547380D01*
X64443333Y-48595000D01*
X64395714Y-48642619D01*
X64300475Y-48785476D01*
X64252856Y-48975952D01*
X64252856Y-49356904D01*
X64300475Y-49452142D01*
X64348094Y-49499761D01*
X64443333Y-49547380D01*
X64633809Y-49547380D01*
X64729047Y-49499761D01*
X64776666Y-49452142D01*
X64824285Y-49356904D01*
X64824285Y-49118809D01*
X64776666Y-49023571D01*
X64729047Y-48975952D01*
X64633809Y-48928333D01*
X64443333Y-48928333D01*
X64348094Y-48975952D01*
X64300475Y-49023571D01*
X64252856Y-49118809D01*
X65252856Y-49547380D02*
X65252856Y-48880714D01*
X65252856Y-48975952D02*
X65300475Y-48928333D01*
X65395714Y-48880714D01*
X65538571Y-48880714D01*
X65633809Y-48928333D01*
X65681428Y-49023571D01*
X65681428Y-49547380D01*
X65681428Y-49023571D02*
X65729047Y-48928333D01*
X65824285Y-48880714D01*
X65967142Y-48880714D01*
X66062380Y-48928333D01*
X66109999Y-49023571D01*
X66109999Y-49547380D01*
X66586190Y-49547380D02*
X66586190Y-48880714D01*
X66586190Y-48975952D02*
X66633809Y-48928333D01*
X66729047Y-48880714D01*
X66871904Y-48880714D01*
X66967142Y-48928333D01*
X67014761Y-49023571D01*
X67014761Y-49547380D01*
X67014761Y-49023571D02*
X67062380Y-48928333D01*
X67157618Y-48880714D01*
X67300475Y-48880714D01*
X67395714Y-48928333D01*
X67443333Y-49023571D01*
X67443333Y-49547380D01*
X71744985Y-44413442D02*
X71697366Y-44461061D01*
X71554509Y-44508680D01*
X71459271Y-44508680D01*
X71316414Y-44461061D01*
X71221176Y-44365823D01*
X71173557Y-44270585D01*
X71125938Y-44080109D01*
X71125938Y-43937252D01*
X71173557Y-43746776D01*
X71221176Y-43651538D01*
X71316414Y-43556300D01*
X71459271Y-43508680D01*
X71554509Y-43508680D01*
X71697366Y-43556300D01*
X71744985Y-43603919D01*
X72316414Y-44508680D02*
X72221176Y-44461061D01*
X72173557Y-44413442D01*
X72125938Y-44318204D01*
X72125938Y-44032490D01*
X72173557Y-43937252D01*
X72221176Y-43889633D01*
X72316414Y-43842014D01*
X72459271Y-43842014D01*
X72554509Y-43889633D01*
X72602128Y-43937252D01*
X72649747Y-44032490D01*
X72649747Y-44318204D01*
X72602128Y-44413442D01*
X72554509Y-44461061D01*
X72459271Y-44508680D01*
X72316414Y-44508680D01*
X73078319Y-43842014D02*
X73078319Y-44842014D01*
X73078319Y-43889633D02*
X73173557Y-43842014D01*
X73364033Y-43842014D01*
X73459271Y-43889633D01*
X73506890Y-43937252D01*
X73554509Y-44032490D01*
X73554509Y-44318204D01*
X73506890Y-44413442D01*
X73459271Y-44461061D01*
X73364033Y-44508680D01*
X73173557Y-44508680D01*
X73078319Y-44461061D01*
X73983080Y-43842014D02*
X73983080Y-44842014D01*
X73983080Y-43889633D02*
X74078319Y-43842014D01*
X74268795Y-43842014D01*
X74364033Y-43889633D01*
X74411652Y-43937252D01*
X74459271Y-44032490D01*
X74459271Y-44318204D01*
X74411652Y-44413442D01*
X74364033Y-44461061D01*
X74268795Y-44508680D01*
X74078319Y-44508680D01*
X73983080Y-44461061D01*
X75268795Y-44461061D02*
X75173557Y-44508680D01*
X74983080Y-44508680D01*
X74887842Y-44461061D01*
X74840223Y-44365823D01*
X74840223Y-43984871D01*
X74887842Y-43889633D01*
X74983080Y-43842014D01*
X75173557Y-43842014D01*
X75268795Y-43889633D01*
X75316414Y-43984871D01*
X75316414Y-44080109D01*
X74840223Y-44175347D01*
X75744985Y-44508680D02*
X75744985Y-43842014D01*
X75744985Y-44032490D02*
X75792604Y-43937252D01*
X75840223Y-43889633D01*
X75935461Y-43842014D01*
X76030700Y-43842014D01*
X71744985Y-40413442D02*
X71697366Y-40461061D01*
X71554509Y-40508680D01*
X71459271Y-40508680D01*
X71316414Y-40461061D01*
X71221176Y-40365823D01*
X71173557Y-40270585D01*
X71125938Y-40080109D01*
X71125938Y-39937252D01*
X71173557Y-39746776D01*
X71221176Y-39651538D01*
X71316414Y-39556300D01*
X71459271Y-39508680D01*
X71554509Y-39508680D01*
X71697366Y-39556300D01*
X71744985Y-39603919D01*
X72316414Y-40508680D02*
X72221176Y-40461061D01*
X72173557Y-40413442D01*
X72125938Y-40318204D01*
X72125938Y-40032490D01*
X72173557Y-39937252D01*
X72221176Y-39889633D01*
X72316414Y-39842014D01*
X72459271Y-39842014D01*
X72554509Y-39889633D01*
X72602128Y-39937252D01*
X72649747Y-40032490D01*
X72649747Y-40318204D01*
X72602128Y-40413442D01*
X72554509Y-40461061D01*
X72459271Y-40508680D01*
X72316414Y-40508680D01*
X73078319Y-39842014D02*
X73078319Y-40842014D01*
X73078319Y-39889633D02*
X73173557Y-39842014D01*
X73364033Y-39842014D01*
X73459271Y-39889633D01*
X73506890Y-39937252D01*
X73554509Y-40032490D01*
X73554509Y-40318204D01*
X73506890Y-40413442D01*
X73459271Y-40461061D01*
X73364033Y-40508680D01*
X73173557Y-40508680D01*
X73078319Y-40461061D01*
X73983080Y-39842014D02*
X73983080Y-40842014D01*
X73983080Y-39889633D02*
X74078319Y-39842014D01*
X74268795Y-39842014D01*
X74364033Y-39889633D01*
X74411652Y-39937252D01*
X74459271Y-40032490D01*
X74459271Y-40318204D01*
X74411652Y-40413442D01*
X74364033Y-40461061D01*
X74268795Y-40508680D01*
X74078319Y-40508680D01*
X73983080Y-40461061D01*
X75268795Y-40461061D02*
X75173557Y-40508680D01*
X74983080Y-40508680D01*
X74887842Y-40461061D01*
X74840223Y-40365823D01*
X74840223Y-39984871D01*
X74887842Y-39889633D01*
X74983080Y-39842014D01*
X75173557Y-39842014D01*
X75268795Y-39889633D01*
X75316414Y-39984871D01*
X75316414Y-40080109D01*
X74840223Y-40175347D01*
X75744985Y-40508680D02*
X75744985Y-39842014D01*
X75744985Y-40032490D02*
X75792604Y-39937252D01*
X75840223Y-39889633D01*
X75935461Y-39842014D01*
X76030700Y-39842014D01*
X84874747Y-43628919D02*
X84922366Y-43581300D01*
X85017604Y-43533680D01*
X85255700Y-43533680D01*
X85350938Y-43581300D01*
X85398557Y-43628919D01*
X85446176Y-43724157D01*
X85446176Y-43819395D01*
X85398557Y-43962252D01*
X84827128Y-44533680D01*
X85446176Y-44533680D01*
X86350938Y-43533680D02*
X85874747Y-43533680D01*
X85827128Y-44009871D01*
X85874747Y-43962252D01*
X85969985Y-43914633D01*
X86208080Y-43914633D01*
X86303319Y-43962252D01*
X86350938Y-44009871D01*
X86398557Y-44105109D01*
X86398557Y-44343204D01*
X86350938Y-44438442D01*
X86303319Y-44486061D01*
X86208080Y-44533680D01*
X85969985Y-44533680D01*
X85874747Y-44486061D01*
X85827128Y-44438442D01*
X87255700Y-43867014D02*
X87255700Y-44533680D01*
X86827128Y-43867014D02*
X86827128Y-44390823D01*
X86874747Y-44486061D01*
X86969985Y-44533680D01*
X87112842Y-44533680D01*
X87208080Y-44486061D01*
X87255700Y-44438442D01*
X87731890Y-44533680D02*
X87731890Y-43867014D01*
X87731890Y-43962252D02*
X87779509Y-43914633D01*
X87874747Y-43867014D01*
X88017604Y-43867014D01*
X88112842Y-43914633D01*
X88160461Y-44009871D01*
X88160461Y-44533680D01*
X88160461Y-44009871D02*
X88208080Y-43914633D01*
X88303319Y-43867014D01*
X88446176Y-43867014D01*
X88541414Y-43914633D01*
X88589033Y-44009871D01*
X88589033Y-44533680D01*
X84874747Y-39628919D02*
X84922366Y-39581300D01*
X85017604Y-39533680D01*
X85255700Y-39533680D01*
X85350938Y-39581300D01*
X85398557Y-39628919D01*
X85446176Y-39724157D01*
X85446176Y-39819395D01*
X85398557Y-39962252D01*
X84827128Y-40533680D01*
X85446176Y-40533680D01*
X86350938Y-39533680D02*
X85874747Y-39533680D01*
X85827128Y-40009871D01*
X85874747Y-39962252D01*
X85969985Y-39914633D01*
X86208080Y-39914633D01*
X86303319Y-39962252D01*
X86350938Y-40009871D01*
X86398557Y-40105109D01*
X86398557Y-40343204D01*
X86350938Y-40438442D01*
X86303319Y-40486061D01*
X86208080Y-40533680D01*
X85969985Y-40533680D01*
X85874747Y-40486061D01*
X85827128Y-40438442D01*
X87255700Y-39867014D02*
X87255700Y-40533680D01*
X86827128Y-39867014D02*
X86827128Y-40390823D01*
X86874747Y-40486061D01*
X86969985Y-40533680D01*
X87112842Y-40533680D01*
X87208080Y-40486061D01*
X87255700Y-40438442D01*
X87731890Y-40533680D02*
X87731890Y-39867014D01*
X87731890Y-39962252D02*
X87779509Y-39914633D01*
X87874747Y-39867014D01*
X88017604Y-39867014D01*
X88112842Y-39914633D01*
X88160461Y-40009871D01*
X88160461Y-40533680D01*
X88160461Y-40009871D02*
X88208080Y-39914633D01*
X88303319Y-39867014D01*
X88446176Y-39867014D01*
X88541414Y-39914633D01*
X88589033Y-40009871D01*
X88589033Y-40533680D01*
X91748809Y-44449761D02*
X91891667Y-44497380D01*
X92129762Y-44497380D01*
X92225000Y-44449761D01*
X92272619Y-44402142D01*
X92320238Y-44306904D01*
X92320238Y-44211666D01*
X92272619Y-44116428D01*
X92225000Y-44068809D01*
X92129762Y-44021190D01*
X91939286Y-43973571D01*
X91844047Y-43925952D01*
X91796428Y-43878333D01*
X91748809Y-43783095D01*
X91748809Y-43687857D01*
X91796428Y-43592619D01*
X91844047Y-43545000D01*
X91939286Y-43497380D01*
X92177381Y-43497380D01*
X92320238Y-43545000D01*
X92748809Y-44497380D02*
X92748809Y-43830714D01*
X92748809Y-43497380D02*
X92701190Y-43545000D01*
X92748809Y-43592619D01*
X92796428Y-43545000D01*
X92748809Y-43497380D01*
X92748809Y-43592619D01*
X93653571Y-43830714D02*
X93653571Y-44640238D01*
X93605952Y-44735476D01*
X93558333Y-44783095D01*
X93463095Y-44830714D01*
X93320238Y-44830714D01*
X93225000Y-44783095D01*
X93653571Y-44449761D02*
X93558333Y-44497380D01*
X93367857Y-44497380D01*
X93272619Y-44449761D01*
X93225000Y-44402142D01*
X93177381Y-44306904D01*
X93177381Y-44021190D01*
X93225000Y-43925952D01*
X93272619Y-43878333D01*
X93367857Y-43830714D01*
X93558333Y-43830714D01*
X93653571Y-43878333D01*
X94129762Y-43830714D02*
X94129762Y-44497380D01*
X94129762Y-43925952D02*
X94177381Y-43878333D01*
X94272619Y-43830714D01*
X94415476Y-43830714D01*
X94510714Y-43878333D01*
X94558333Y-43973571D01*
X94558333Y-44497380D01*
X95463095Y-44497380D02*
X95463095Y-43973571D01*
X95415476Y-43878333D01*
X95320238Y-43830714D01*
X95129762Y-43830714D01*
X95034524Y-43878333D01*
X95463095Y-44449761D02*
X95367857Y-44497380D01*
X95129762Y-44497380D01*
X95034524Y-44449761D01*
X94986905Y-44354523D01*
X94986905Y-44259285D01*
X95034524Y-44164047D01*
X95129762Y-44116428D01*
X95367857Y-44116428D01*
X95463095Y-44068809D01*
X96082143Y-44497380D02*
X95986905Y-44449761D01*
X95939286Y-44354523D01*
X95939286Y-43497380D01*
X85350938Y-41583680D02*
X85160461Y-41583680D01*
X85065223Y-41631300D01*
X85017604Y-41678919D01*
X84922366Y-41821776D01*
X84874747Y-42012252D01*
X84874747Y-42393204D01*
X84922366Y-42488442D01*
X84969985Y-42536061D01*
X85065223Y-42583680D01*
X85255700Y-42583680D01*
X85350938Y-42536061D01*
X85398557Y-42488442D01*
X85446176Y-42393204D01*
X85446176Y-42155109D01*
X85398557Y-42059871D01*
X85350938Y-42012252D01*
X85255700Y-41964633D01*
X85065223Y-41964633D01*
X84969985Y-42012252D01*
X84922366Y-42059871D01*
X84874747Y-42155109D01*
X86350938Y-41583680D02*
X85874747Y-41583680D01*
X85827128Y-42059871D01*
X85874747Y-42012252D01*
X85969985Y-41964633D01*
X86208080Y-41964633D01*
X86303319Y-42012252D01*
X86350938Y-42059871D01*
X86398557Y-42155109D01*
X86398557Y-42393204D01*
X86350938Y-42488442D01*
X86303319Y-42536061D01*
X86208080Y-42583680D01*
X85969985Y-42583680D01*
X85874747Y-42536061D01*
X85827128Y-42488442D01*
X87255700Y-41917014D02*
X87255700Y-42583680D01*
X86827128Y-41917014D02*
X86827128Y-42440823D01*
X86874747Y-42536061D01*
X86969985Y-42583680D01*
X87112842Y-42583680D01*
X87208080Y-42536061D01*
X87255700Y-42488442D01*
X87731890Y-42583680D02*
X87731890Y-41917014D01*
X87731890Y-42012252D02*
X87779509Y-41964633D01*
X87874747Y-41917014D01*
X88017604Y-41917014D01*
X88112842Y-41964633D01*
X88160461Y-42059871D01*
X88160461Y-42583680D01*
X88160461Y-42059871D02*
X88208080Y-41964633D01*
X88303319Y-41917014D01*
X88446176Y-41917014D01*
X88541414Y-41964633D01*
X88589033Y-42059871D01*
X88589033Y-42583680D01*
X85350938Y-37583680D02*
X85160461Y-37583680D01*
X85065223Y-37631300D01*
X85017604Y-37678919D01*
X84922366Y-37821776D01*
X84874747Y-38012252D01*
X84874747Y-38393204D01*
X84922366Y-38488442D01*
X84969985Y-38536061D01*
X85065223Y-38583680D01*
X85255700Y-38583680D01*
X85350938Y-38536061D01*
X85398557Y-38488442D01*
X85446176Y-38393204D01*
X85446176Y-38155109D01*
X85398557Y-38059871D01*
X85350938Y-38012252D01*
X85255700Y-37964633D01*
X85065223Y-37964633D01*
X84969985Y-38012252D01*
X84922366Y-38059871D01*
X84874747Y-38155109D01*
X86350938Y-37583680D02*
X85874747Y-37583680D01*
X85827128Y-38059871D01*
X85874747Y-38012252D01*
X85969985Y-37964633D01*
X86208080Y-37964633D01*
X86303319Y-38012252D01*
X86350938Y-38059871D01*
X86398557Y-38155109D01*
X86398557Y-38393204D01*
X86350938Y-38488442D01*
X86303319Y-38536061D01*
X86208080Y-38583680D01*
X85969985Y-38583680D01*
X85874747Y-38536061D01*
X85827128Y-38488442D01*
X87255700Y-37917014D02*
X87255700Y-38583680D01*
X86827128Y-37917014D02*
X86827128Y-38440823D01*
X86874747Y-38536061D01*
X86969985Y-38583680D01*
X87112842Y-38583680D01*
X87208080Y-38536061D01*
X87255700Y-38488442D01*
X87731890Y-38583680D02*
X87731890Y-37917014D01*
X87731890Y-38012252D02*
X87779509Y-37964633D01*
X87874747Y-37917014D01*
X88017604Y-37917014D01*
X88112842Y-37964633D01*
X88160461Y-38059871D01*
X88160461Y-38583680D01*
X88160461Y-38059871D02*
X88208080Y-37964633D01*
X88303319Y-37917014D01*
X88446176Y-37917014D01*
X88541414Y-37964633D01*
X88589033Y-38059871D01*
X88589033Y-38583680D01*
X71744985Y-42628680D02*
X71411652Y-42152490D01*
X71173557Y-42628680D02*
X71173557Y-41628680D01*
X71554509Y-41628680D01*
X71649747Y-41676300D01*
X71697366Y-41723919D01*
X71744985Y-41819157D01*
X71744985Y-41962014D01*
X71697366Y-42057252D01*
X71649747Y-42104871D01*
X71554509Y-42152490D01*
X71173557Y-42152490D01*
X72744985Y-42533442D02*
X72697366Y-42581061D01*
X72554509Y-42628680D01*
X72459271Y-42628680D01*
X72316414Y-42581061D01*
X72221176Y-42485823D01*
X72173557Y-42390585D01*
X72125938Y-42200109D01*
X72125938Y-42057252D01*
X72173557Y-41866776D01*
X72221176Y-41771538D01*
X72316414Y-41676300D01*
X72459271Y-41628680D01*
X72554509Y-41628680D01*
X72697366Y-41676300D01*
X72744985Y-41723919D01*
X73744985Y-42533442D02*
X73697366Y-42581061D01*
X73554509Y-42628680D01*
X73459271Y-42628680D01*
X73316414Y-42581061D01*
X73221176Y-42485823D01*
X73173557Y-42390585D01*
X73125938Y-42200109D01*
X73125938Y-42057252D01*
X73173557Y-41866776D01*
X73221176Y-41771538D01*
X73316414Y-41676300D01*
X73459271Y-41628680D01*
X73554509Y-41628680D01*
X73697366Y-41676300D01*
X73744985Y-41723919D01*
X71744985Y-38703680D02*
X71411652Y-38227490D01*
X71173557Y-38703680D02*
X71173557Y-37703680D01*
X71554509Y-37703680D01*
X71649747Y-37751300D01*
X71697366Y-37798919D01*
X71744985Y-37894157D01*
X71744985Y-38037014D01*
X71697366Y-38132252D01*
X71649747Y-38179871D01*
X71554509Y-38227490D01*
X71173557Y-38227490D01*
X72744985Y-38608442D02*
X72697366Y-38656061D01*
X72554509Y-38703680D01*
X72459271Y-38703680D01*
X72316414Y-38656061D01*
X72221176Y-38560823D01*
X72173557Y-38465585D01*
X72125938Y-38275109D01*
X72125938Y-38132252D01*
X72173557Y-37941776D01*
X72221176Y-37846538D01*
X72316414Y-37751300D01*
X72459271Y-37703680D01*
X72554509Y-37703680D01*
X72697366Y-37751300D01*
X72744985Y-37798919D01*
X73744985Y-38608442D02*
X73697366Y-38656061D01*
X73554509Y-38703680D01*
X73459271Y-38703680D01*
X73316414Y-38656061D01*
X73221176Y-38560823D01*
X73173557Y-38465585D01*
X73125938Y-38275109D01*
X73125938Y-38132252D01*
X73173557Y-37941776D01*
X73221176Y-37846538D01*
X73316414Y-37751300D01*
X73459271Y-37703680D01*
X73554509Y-37703680D01*
X73697366Y-37751300D01*
X73744985Y-37798919D01*
X55346176Y-43522380D02*
X55155700Y-43522380D01*
X55060461Y-43570000D01*
X55012842Y-43617619D01*
X54917604Y-43760476D01*
X54869985Y-43950952D01*
X54869985Y-44331904D01*
X54917604Y-44427142D01*
X54965223Y-44474761D01*
X55060461Y-44522380D01*
X55250938Y-44522380D01*
X55346176Y-44474761D01*
X55393795Y-44427142D01*
X55441414Y-44331904D01*
X55441414Y-44093809D01*
X55393795Y-43998571D01*
X55346176Y-43950952D01*
X55250938Y-43903333D01*
X55060461Y-43903333D01*
X54965223Y-43950952D01*
X54917604Y-43998571D01*
X54869985Y-44093809D01*
X58933333Y-42358680D02*
X58933333Y-41358680D01*
X59171428Y-41358680D01*
X59314285Y-41406300D01*
X59409523Y-41501538D01*
X59457142Y-41596776D01*
X59504761Y-41787252D01*
X59504761Y-41930109D01*
X59457142Y-42120585D01*
X59409523Y-42215823D01*
X59314285Y-42311061D01*
X59171428Y-42358680D01*
X58933333Y-42358680D01*
X59933333Y-42358680D02*
X59933333Y-41692014D01*
X59933333Y-41358680D02*
X59885714Y-41406300D01*
X59933333Y-41453919D01*
X59980952Y-41406300D01*
X59933333Y-41358680D01*
X59933333Y-41453919D01*
X60790476Y-42311061D02*
X60695238Y-42358680D01*
X60504761Y-42358680D01*
X60409523Y-42311061D01*
X60361904Y-42215823D01*
X60361904Y-41834871D01*
X60409523Y-41739633D01*
X60504761Y-41692014D01*
X60695238Y-41692014D01*
X60790476Y-41739633D01*
X60838095Y-41834871D01*
X60838095Y-41930109D01*
X60361904Y-42025347D01*
X61409523Y-42358680D02*
X61314285Y-42311061D01*
X61266666Y-42215823D01*
X61266666Y-41358680D01*
X62171428Y-42311061D02*
X62076190Y-42358680D01*
X61885714Y-42358680D01*
X61790476Y-42311061D01*
X61742857Y-42215823D01*
X61742857Y-41834871D01*
X61790476Y-41739633D01*
X61885714Y-41692014D01*
X62076190Y-41692014D01*
X62171428Y-41739633D01*
X62219047Y-41834871D01*
X62219047Y-41930109D01*
X61742857Y-42025347D01*
X63076190Y-42311061D02*
X62980952Y-42358680D01*
X62790476Y-42358680D01*
X62695238Y-42311061D01*
X62647619Y-42263442D01*
X62600000Y-42168204D01*
X62600000Y-41882490D01*
X62647619Y-41787252D01*
X62695238Y-41739633D01*
X62790476Y-41692014D01*
X62980952Y-41692014D01*
X63076190Y-41739633D01*
X63361904Y-41692014D02*
X63742857Y-41692014D01*
X63504761Y-41358680D02*
X63504761Y-42215823D01*
X63552380Y-42311061D01*
X63647619Y-42358680D01*
X63742857Y-42358680D01*
X64076190Y-42358680D02*
X64076190Y-41692014D01*
X64076190Y-41882490D02*
X64123809Y-41787252D01*
X64171428Y-41739633D01*
X64266666Y-41692014D01*
X64361904Y-41692014D01*
X64695238Y-42358680D02*
X64695238Y-41692014D01*
X64695238Y-41358680D02*
X64647619Y-41406300D01*
X64695238Y-41453919D01*
X64742857Y-41406300D01*
X64695238Y-41358680D01*
X64695238Y-41453919D01*
X65600000Y-42311061D02*
X65504761Y-42358680D01*
X65314285Y-42358680D01*
X65219047Y-42311061D01*
X65171428Y-42263442D01*
X65123809Y-42168204D01*
X65123809Y-41882490D01*
X65171428Y-41787252D01*
X65219047Y-41739633D01*
X65314285Y-41692014D01*
X65504761Y-41692014D01*
X65600000Y-41739633D01*
X67219047Y-41692014D02*
X67219047Y-42358680D01*
X66980952Y-41311061D02*
X66742857Y-42025347D01*
X67361904Y-42025347D01*
X58933333Y-40558680D02*
X58933333Y-39558680D01*
X59409523Y-39892014D02*
X59409523Y-40558680D01*
X59409523Y-39987252D02*
X59457142Y-39939633D01*
X59552381Y-39892014D01*
X59695238Y-39892014D01*
X59790476Y-39939633D01*
X59838095Y-40034871D01*
X59838095Y-40558680D01*
X60742857Y-39892014D02*
X60742857Y-40558680D01*
X60504761Y-39511061D02*
X60266666Y-40225347D01*
X60885714Y-40225347D01*
X61266666Y-40463442D02*
X61314285Y-40511061D01*
X61266666Y-40558680D01*
X61219047Y-40511061D01*
X61266666Y-40463442D01*
X61266666Y-40558680D01*
X62314285Y-40463442D02*
X62266666Y-40511061D01*
X62123809Y-40558680D01*
X62028571Y-40558680D01*
X61885714Y-40511061D01*
X61790476Y-40415823D01*
X61742857Y-40320585D01*
X61695238Y-40130109D01*
X61695238Y-39987252D01*
X61742857Y-39796776D01*
X61790476Y-39701538D01*
X61885714Y-39606300D01*
X62028571Y-39558680D01*
X62123809Y-39558680D01*
X62266666Y-39606300D01*
X62314285Y-39653919D01*
X63171428Y-39892014D02*
X63171428Y-40558680D01*
X62742857Y-39892014D02*
X62742857Y-40415823D01*
X62790476Y-40511061D01*
X62885714Y-40558680D01*
X63028571Y-40558680D01*
X63123809Y-40511061D01*
X63171428Y-40463442D01*
X58933333Y-38533680D02*
X58933333Y-37533680D01*
X59171428Y-37533680D01*
X59314285Y-37581300D01*
X59409523Y-37676538D01*
X59457142Y-37771776D01*
X59504761Y-37962252D01*
X59504761Y-38105109D01*
X59457142Y-38295585D01*
X59409523Y-38390823D01*
X59314285Y-38486061D01*
X59171428Y-38533680D01*
X58933333Y-38533680D01*
X59933333Y-38533680D02*
X59933333Y-37867014D01*
X59933333Y-37533680D02*
X59885714Y-37581300D01*
X59933333Y-37628919D01*
X59980952Y-37581300D01*
X59933333Y-37533680D01*
X59933333Y-37628919D01*
X60790476Y-38486061D02*
X60695238Y-38533680D01*
X60504761Y-38533680D01*
X60409523Y-38486061D01*
X60361904Y-38390823D01*
X60361904Y-38009871D01*
X60409523Y-37914633D01*
X60504761Y-37867014D01*
X60695238Y-37867014D01*
X60790476Y-37914633D01*
X60838095Y-38009871D01*
X60838095Y-38105109D01*
X60361904Y-38200347D01*
X61409523Y-38533680D02*
X61314285Y-38486061D01*
X61266666Y-38390823D01*
X61266666Y-37533680D01*
X62171428Y-38486061D02*
X62076190Y-38533680D01*
X61885714Y-38533680D01*
X61790476Y-38486061D01*
X61742857Y-38390823D01*
X61742857Y-38009871D01*
X61790476Y-37914633D01*
X61885714Y-37867014D01*
X62076190Y-37867014D01*
X62171428Y-37914633D01*
X62219047Y-38009871D01*
X62219047Y-38105109D01*
X61742857Y-38200347D01*
X63076190Y-38486061D02*
X62980952Y-38533680D01*
X62790476Y-38533680D01*
X62695238Y-38486061D01*
X62647619Y-38438442D01*
X62600000Y-38343204D01*
X62600000Y-38057490D01*
X62647619Y-37962252D01*
X62695238Y-37914633D01*
X62790476Y-37867014D01*
X62980952Y-37867014D01*
X63076190Y-37914633D01*
X63361904Y-37867014D02*
X63742857Y-37867014D01*
X63504761Y-37533680D02*
X63504761Y-38390823D01*
X63552380Y-38486061D01*
X63647619Y-38533680D01*
X63742857Y-38533680D01*
X64076190Y-38533680D02*
X64076190Y-37867014D01*
X64076190Y-38057490D02*
X64123809Y-37962252D01*
X64171428Y-37914633D01*
X64266666Y-37867014D01*
X64361904Y-37867014D01*
X64695238Y-38533680D02*
X64695238Y-37867014D01*
X64695238Y-37533680D02*
X64647619Y-37581300D01*
X64695238Y-37628919D01*
X64742857Y-37581300D01*
X64695238Y-37533680D01*
X64695238Y-37628919D01*
X65600000Y-38486061D02*
X65504761Y-38533680D01*
X65314285Y-38533680D01*
X65219047Y-38486061D01*
X65171428Y-38438442D01*
X65123809Y-38343204D01*
X65123809Y-38057490D01*
X65171428Y-37962252D01*
X65219047Y-37914633D01*
X65314285Y-37867014D01*
X65504761Y-37867014D01*
X65600000Y-37914633D01*
X66695238Y-37533680D02*
X67314285Y-37533680D01*
X66980952Y-37914633D01*
X67123809Y-37914633D01*
X67219047Y-37962252D01*
X67266666Y-38009871D01*
X67314285Y-38105109D01*
X67314285Y-38343204D01*
X67266666Y-38438442D01*
X67219047Y-38486061D01*
X67123809Y-38533680D01*
X66838095Y-38533680D01*
X66742857Y-38486061D01*
X66695238Y-38438442D01*
X58933333Y-36633680D02*
X58933333Y-35633680D01*
X59409523Y-35967014D02*
X59409523Y-36633680D01*
X59409523Y-36062252D02*
X59457142Y-36014633D01*
X59552381Y-35967014D01*
X59695238Y-35967014D01*
X59790476Y-36014633D01*
X59838095Y-36109871D01*
X59838095Y-36633680D01*
X60219047Y-35633680D02*
X60838095Y-35633680D01*
X60504761Y-36014633D01*
X60647619Y-36014633D01*
X60742857Y-36062252D01*
X60790476Y-36109871D01*
X60838095Y-36205109D01*
X60838095Y-36443204D01*
X60790476Y-36538442D01*
X60742857Y-36586061D01*
X60647619Y-36633680D01*
X60361904Y-36633680D01*
X60266666Y-36586061D01*
X60219047Y-36538442D01*
X61266666Y-36538442D02*
X61314285Y-36586061D01*
X61266666Y-36633680D01*
X61219047Y-36586061D01*
X61266666Y-36538442D01*
X61266666Y-36633680D01*
X62314285Y-36538442D02*
X62266666Y-36586061D01*
X62123809Y-36633680D01*
X62028571Y-36633680D01*
X61885714Y-36586061D01*
X61790476Y-36490823D01*
X61742857Y-36395585D01*
X61695238Y-36205109D01*
X61695238Y-36062252D01*
X61742857Y-35871776D01*
X61790476Y-35776538D01*
X61885714Y-35681300D01*
X62028571Y-35633680D01*
X62123809Y-35633680D01*
X62266666Y-35681300D01*
X62314285Y-35728919D01*
X63171428Y-35967014D02*
X63171428Y-36633680D01*
X62742857Y-35967014D02*
X62742857Y-36490823D01*
X62790476Y-36586061D01*
X62885714Y-36633680D01*
X63028571Y-36633680D01*
X63123809Y-36586061D01*
X63171428Y-36538442D01*
D11*
X101105700Y-47031300D02*
X91105700Y-47031300D01*
X101105700Y-45031300D02*
X91105700Y-45031300D01*
X101105700Y-41031300D02*
X91105700Y-41031300D01*
X101105700Y-43031300D02*
X91105700Y-43031300D01*
X51105700Y-47031300D02*
X91105700Y-47031300D01*
X51105700Y-45031300D02*
X91105700Y-45031300D01*
X51105700Y-43031300D02*
X91105700Y-43031300D01*
X51105700Y-41031300D02*
X91105700Y-41031300D01*
X91105700Y-27031300D02*
X101105700Y-27031300D01*
X91105700Y-29031300D02*
X101105700Y-29031300D01*
X91105700Y-25031300D02*
X101105700Y-25031300D01*
X91105700Y-33031300D02*
X101105700Y-33031300D01*
X91105700Y-35031300D02*
X101105700Y-35031300D01*
X91105700Y-23031300D02*
X101105700Y-23031300D01*
D10*
X84827128Y-31483680D02*
X85446176Y-31483680D01*
X85112842Y-31864633D01*
X85255700Y-31864633D01*
X85350938Y-31912252D01*
X85398557Y-31959871D01*
X85446176Y-32055109D01*
X85446176Y-32293204D01*
X85398557Y-32388442D01*
X85350938Y-32436061D01*
X85255700Y-32483680D01*
X84969985Y-32483680D01*
X84874747Y-32436061D01*
X84827128Y-32388442D01*
X86350938Y-31483680D02*
X85874747Y-31483680D01*
X85827128Y-31959871D01*
X85874747Y-31912252D01*
X85969985Y-31864633D01*
X86208080Y-31864633D01*
X86303319Y-31912252D01*
X86350938Y-31959871D01*
X86398557Y-32055109D01*
X86398557Y-32293204D01*
X86350938Y-32388442D01*
X86303319Y-32436061D01*
X86208080Y-32483680D01*
X85969985Y-32483680D01*
X85874747Y-32436061D01*
X85827128Y-32388442D01*
X87255700Y-31817014D02*
X87255700Y-32483680D01*
X86827128Y-31817014D02*
X86827128Y-32340823D01*
X86874747Y-32436061D01*
X86969985Y-32483680D01*
X87112842Y-32483680D01*
X87208080Y-32436061D01*
X87255700Y-32388442D01*
X87731890Y-32483680D02*
X87731890Y-31817014D01*
X87731890Y-31912252D02*
X87779509Y-31864633D01*
X87874747Y-31817014D01*
X88017604Y-31817014D01*
X88112842Y-31864633D01*
X88160461Y-31959871D01*
X88160461Y-32483680D01*
X88160461Y-31959871D02*
X88208080Y-31864633D01*
X88303319Y-31817014D01*
X88446176Y-31817014D01*
X88541414Y-31864633D01*
X88589033Y-31959871D01*
X88589033Y-32483680D01*
X84874747Y-27578919D02*
X84922366Y-27531300D01*
X85017604Y-27483680D01*
X85255700Y-27483680D01*
X85350938Y-27531300D01*
X85398557Y-27578919D01*
X85446176Y-27674157D01*
X85446176Y-27769395D01*
X85398557Y-27912252D01*
X84827128Y-28483680D01*
X85446176Y-28483680D01*
X86350938Y-27483680D02*
X85874747Y-27483680D01*
X85827128Y-27959871D01*
X85874747Y-27912252D01*
X85969985Y-27864633D01*
X86208080Y-27864633D01*
X86303319Y-27912252D01*
X86350938Y-27959871D01*
X86398557Y-28055109D01*
X86398557Y-28293204D01*
X86350938Y-28388442D01*
X86303319Y-28436061D01*
X86208080Y-28483680D01*
X85969985Y-28483680D01*
X85874747Y-28436061D01*
X85827128Y-28388442D01*
X87255700Y-27817014D02*
X87255700Y-28483680D01*
X86827128Y-27817014D02*
X86827128Y-28340823D01*
X86874747Y-28436061D01*
X86969985Y-28483680D01*
X87112842Y-28483680D01*
X87208080Y-28436061D01*
X87255700Y-28388442D01*
X87731890Y-28483680D02*
X87731890Y-27817014D01*
X87731890Y-27912252D02*
X87779509Y-27864633D01*
X87874747Y-27817014D01*
X88017604Y-27817014D01*
X88112842Y-27864633D01*
X88160461Y-27959871D01*
X88160461Y-28483680D01*
X88160461Y-27959871D02*
X88208080Y-27864633D01*
X88303319Y-27817014D01*
X88446176Y-27817014D01*
X88541414Y-27864633D01*
X88589033Y-27959871D01*
X88589033Y-28483680D01*
X85350938Y-25483680D02*
X85160461Y-25483680D01*
X85065223Y-25531300D01*
X85017604Y-25578919D01*
X84922366Y-25721776D01*
X84874747Y-25912252D01*
X84874747Y-26293204D01*
X84922366Y-26388442D01*
X84969985Y-26436061D01*
X85065223Y-26483680D01*
X85255700Y-26483680D01*
X85350938Y-26436061D01*
X85398557Y-26388442D01*
X85446176Y-26293204D01*
X85446176Y-26055109D01*
X85398557Y-25959871D01*
X85350938Y-25912252D01*
X85255700Y-25864633D01*
X85065223Y-25864633D01*
X84969985Y-25912252D01*
X84922366Y-25959871D01*
X84874747Y-26055109D01*
X86350938Y-25483680D02*
X85874747Y-25483680D01*
X85827128Y-25959871D01*
X85874747Y-25912252D01*
X85969985Y-25864633D01*
X86208080Y-25864633D01*
X86303319Y-25912252D01*
X86350938Y-25959871D01*
X86398557Y-26055109D01*
X86398557Y-26293204D01*
X86350938Y-26388442D01*
X86303319Y-26436061D01*
X86208080Y-26483680D01*
X85969985Y-26483680D01*
X85874747Y-26436061D01*
X85827128Y-26388442D01*
X87255700Y-25817014D02*
X87255700Y-26483680D01*
X86827128Y-25817014D02*
X86827128Y-26340823D01*
X86874747Y-26436061D01*
X86969985Y-26483680D01*
X87112842Y-26483680D01*
X87208080Y-26436061D01*
X87255700Y-26388442D01*
X87731890Y-26483680D02*
X87731890Y-25817014D01*
X87731890Y-25912252D02*
X87779509Y-25864633D01*
X87874747Y-25817014D01*
X88017604Y-25817014D01*
X88112842Y-25864633D01*
X88160461Y-25959871D01*
X88160461Y-26483680D01*
X88160461Y-25959871D02*
X88208080Y-25864633D01*
X88303319Y-25817014D01*
X88446176Y-25817014D01*
X88541414Y-25864633D01*
X88589033Y-25959871D01*
X88589033Y-26483680D01*
X85446176Y-34483680D02*
X84874748Y-34483680D01*
X85160462Y-34483680D02*
X85160462Y-33483680D01*
X85065224Y-33626538D01*
X84969986Y-33721776D01*
X84874748Y-33769395D01*
X86065224Y-33483680D02*
X86160462Y-33483680D01*
X86255700Y-33531300D01*
X86303319Y-33578919D01*
X86350938Y-33674157D01*
X86398557Y-33864633D01*
X86398557Y-34102728D01*
X86350938Y-34293204D01*
X86303319Y-34388442D01*
X86255700Y-34436061D01*
X86160462Y-34483680D01*
X86065224Y-34483680D01*
X85969986Y-34436061D01*
X85922367Y-34388442D01*
X85874748Y-34293204D01*
X85827129Y-34102728D01*
X85827129Y-33864633D01*
X85874748Y-33674157D01*
X85922367Y-33578919D01*
X85969986Y-33531300D01*
X86065224Y-33483680D01*
X87017605Y-33483680D02*
X87112843Y-33483680D01*
X87208081Y-33531300D01*
X87255700Y-33578919D01*
X87303319Y-33674157D01*
X87350938Y-33864633D01*
X87350938Y-34102728D01*
X87303319Y-34293204D01*
X87255700Y-34388442D01*
X87208081Y-34436061D01*
X87112843Y-34483680D01*
X87017605Y-34483680D01*
X86922367Y-34436061D01*
X86874748Y-34388442D01*
X86827129Y-34293204D01*
X86779510Y-34102728D01*
X86779510Y-33864633D01*
X86827129Y-33674157D01*
X86874748Y-33578919D01*
X86922367Y-33531300D01*
X87017605Y-33483680D01*
X88208081Y-33817014D02*
X88208081Y-34483680D01*
X87779510Y-33817014D02*
X87779510Y-34340823D01*
X87827129Y-34436061D01*
X87922367Y-34483680D01*
X88065224Y-34483680D01*
X88160462Y-34436061D01*
X88208081Y-34388442D01*
X88684271Y-34483680D02*
X88684271Y-33817014D01*
X88684271Y-33912252D02*
X88731891Y-33864633D01*
X88827129Y-33817014D01*
X88969986Y-33817014D01*
X89065224Y-33864633D01*
X89112843Y-33959871D01*
X89112843Y-34483680D01*
X89112843Y-33959871D02*
X89160462Y-33864633D01*
X89255700Y-33817014D01*
X89398557Y-33817014D01*
X89493795Y-33864633D01*
X89541414Y-33959871D01*
X89541414Y-34483680D01*
X85350938Y-29483680D02*
X85160461Y-29483680D01*
X85065223Y-29531300D01*
X85017604Y-29578919D01*
X84922366Y-29721776D01*
X84874747Y-29912252D01*
X84874747Y-30293204D01*
X84922366Y-30388442D01*
X84969985Y-30436061D01*
X85065223Y-30483680D01*
X85255700Y-30483680D01*
X85350938Y-30436061D01*
X85398557Y-30388442D01*
X85446176Y-30293204D01*
X85446176Y-30055109D01*
X85398557Y-29959871D01*
X85350938Y-29912252D01*
X85255700Y-29864633D01*
X85065223Y-29864633D01*
X84969985Y-29912252D01*
X84922366Y-29959871D01*
X84874747Y-30055109D01*
X86350938Y-29483680D02*
X85874747Y-29483680D01*
X85827128Y-29959871D01*
X85874747Y-29912252D01*
X85969985Y-29864633D01*
X86208080Y-29864633D01*
X86303319Y-29912252D01*
X86350938Y-29959871D01*
X86398557Y-30055109D01*
X86398557Y-30293204D01*
X86350938Y-30388442D01*
X86303319Y-30436061D01*
X86208080Y-30483680D01*
X85969985Y-30483680D01*
X85874747Y-30436061D01*
X85827128Y-30388442D01*
X87255700Y-29817014D02*
X87255700Y-30483680D01*
X86827128Y-29817014D02*
X86827128Y-30340823D01*
X86874747Y-30436061D01*
X86969985Y-30483680D01*
X87112842Y-30483680D01*
X87208080Y-30436061D01*
X87255700Y-30388442D01*
X87731890Y-30483680D02*
X87731890Y-29817014D01*
X87731890Y-29912252D02*
X87779509Y-29864633D01*
X87874747Y-29817014D01*
X88017604Y-29817014D01*
X88112842Y-29864633D01*
X88160461Y-29959871D01*
X88160461Y-30483680D01*
X88160461Y-29959871D02*
X88208080Y-29864633D01*
X88303319Y-29817014D01*
X88446176Y-29817014D01*
X88541414Y-29864633D01*
X88589033Y-29959871D01*
X88589033Y-30483680D01*
X85446176Y-46472380D02*
X84874747Y-46472380D01*
X85160461Y-46472380D02*
X85160461Y-45472380D01*
X85065223Y-45615238D01*
X84969985Y-45710476D01*
X84874747Y-45758095D01*
X86065223Y-45472380D02*
X86160461Y-45472380D01*
X86255700Y-45520000D01*
X86303319Y-45567619D01*
X86350938Y-45662857D01*
X86398557Y-45853333D01*
X86398557Y-46091428D01*
X86350938Y-46281904D01*
X86303319Y-46377142D01*
X86255700Y-46424761D01*
X86160461Y-46472380D01*
X86065223Y-46472380D01*
X85969985Y-46424761D01*
X85922366Y-46377142D01*
X85874747Y-46281904D01*
X85827128Y-46091428D01*
X85827128Y-45853333D01*
X85874747Y-45662857D01*
X85922366Y-45567619D01*
X85969985Y-45520000D01*
X86065223Y-45472380D01*
X87255700Y-45805714D02*
X87255700Y-46472380D01*
X86827128Y-45805714D02*
X86827128Y-46329523D01*
X86874747Y-46424761D01*
X86969985Y-46472380D01*
X87112842Y-46472380D01*
X87208080Y-46424761D01*
X87255700Y-46377142D01*
X87731890Y-46472380D02*
X87731890Y-45805714D01*
X87731890Y-45900952D02*
X87779509Y-45853333D01*
X87874747Y-45805714D01*
X88017604Y-45805714D01*
X88112842Y-45853333D01*
X88160461Y-45948571D01*
X88160461Y-46472380D01*
X88160461Y-45948571D02*
X88208080Y-45853333D01*
X88303319Y-45805714D01*
X88446176Y-45805714D01*
X88541414Y-45853333D01*
X88589033Y-45948571D01*
X88589033Y-46472380D01*
D11*
X91105700Y-19031300D02*
X101105700Y-19031300D01*
X101100000Y-19031300D02*
X101100000Y-47095000D01*
X101105700Y-39031300D02*
X91105700Y-39031300D01*
X70105700Y-19031300D02*
X70105700Y-47095000D01*
D10*
X71125937Y-22411061D02*
X71268794Y-22458680D01*
X71506890Y-22458680D01*
X71602128Y-22411061D01*
X71649747Y-22363442D01*
X71697366Y-22268204D01*
X71697366Y-22172966D01*
X71649747Y-22077728D01*
X71602128Y-22030109D01*
X71506890Y-21982490D01*
X71316413Y-21934871D01*
X71221175Y-21887252D01*
X71173556Y-21839633D01*
X71125937Y-21744395D01*
X71125937Y-21649157D01*
X71173556Y-21553919D01*
X71221175Y-21506300D01*
X71316413Y-21458680D01*
X71554509Y-21458680D01*
X71697366Y-21506300D01*
X72268794Y-22458680D02*
X72173556Y-22411061D01*
X72125937Y-22363442D01*
X72078318Y-22268204D01*
X72078318Y-21982490D01*
X72125937Y-21887252D01*
X72173556Y-21839633D01*
X72268794Y-21792014D01*
X72411651Y-21792014D01*
X72506890Y-21839633D01*
X72554509Y-21887252D01*
X72602128Y-21982490D01*
X72602128Y-22268204D01*
X72554509Y-22363442D01*
X72506890Y-22411061D01*
X72411651Y-22458680D01*
X72268794Y-22458680D01*
X73173556Y-22458680D02*
X73078318Y-22411061D01*
X73030699Y-22315823D01*
X73030699Y-21458680D01*
X73983080Y-22458680D02*
X73983080Y-21458680D01*
X73983080Y-22411061D02*
X73887842Y-22458680D01*
X73697366Y-22458680D01*
X73602128Y-22411061D01*
X73554509Y-22363442D01*
X73506890Y-22268204D01*
X73506890Y-21982490D01*
X73554509Y-21887252D01*
X73602128Y-21839633D01*
X73697366Y-21792014D01*
X73887842Y-21792014D01*
X73983080Y-21839633D01*
X74840223Y-22411061D02*
X74744985Y-22458680D01*
X74554509Y-22458680D01*
X74459271Y-22411061D01*
X74411651Y-22315823D01*
X74411651Y-21934871D01*
X74459271Y-21839633D01*
X74554509Y-21792014D01*
X74744985Y-21792014D01*
X74840223Y-21839633D01*
X74887842Y-21934871D01*
X74887842Y-22030109D01*
X74411651Y-22125347D01*
X75316413Y-22458680D02*
X75316413Y-21792014D01*
X75316413Y-21982490D02*
X75364032Y-21887252D01*
X75411651Y-21839633D01*
X75506890Y-21792014D01*
X75602128Y-21792014D01*
X77268794Y-22458680D02*
X76935461Y-21982490D01*
X76697366Y-22458680D02*
X76697366Y-21458680D01*
X77078318Y-21458680D01*
X77173556Y-21506300D01*
X77221175Y-21553919D01*
X77268794Y-21649157D01*
X77268794Y-21792014D01*
X77221175Y-21887252D01*
X77173556Y-21934871D01*
X77078318Y-21982490D01*
X76697366Y-21982490D01*
X78078318Y-22411061D02*
X77983080Y-22458680D01*
X77792604Y-22458680D01*
X77697366Y-22411061D01*
X77649747Y-22315823D01*
X77649747Y-21934871D01*
X77697366Y-21839633D01*
X77792604Y-21792014D01*
X77983080Y-21792014D01*
X78078318Y-21839633D01*
X78125937Y-21934871D01*
X78125937Y-22030109D01*
X77649747Y-22125347D01*
X78506890Y-22411061D02*
X78602128Y-22458680D01*
X78792604Y-22458680D01*
X78887842Y-22411061D01*
X78935461Y-22315823D01*
X78935461Y-22268204D01*
X78887842Y-22172966D01*
X78792604Y-22125347D01*
X78649747Y-22125347D01*
X78554509Y-22077728D01*
X78506890Y-21982490D01*
X78506890Y-21934871D01*
X78554509Y-21839633D01*
X78649747Y-21792014D01*
X78792604Y-21792014D01*
X78887842Y-21839633D01*
X79364032Y-22458680D02*
X79364032Y-21792014D01*
X79364032Y-21458680D02*
X79316413Y-21506300D01*
X79364032Y-21553919D01*
X79411651Y-21506300D01*
X79364032Y-21458680D01*
X79364032Y-21553919D01*
X79792604Y-22411061D02*
X79887842Y-22458680D01*
X80078318Y-22458680D01*
X80173556Y-22411061D01*
X80221175Y-22315823D01*
X80221175Y-22268204D01*
X80173556Y-22172966D01*
X80078318Y-22125347D01*
X79935461Y-22125347D01*
X79840223Y-22077728D01*
X79792604Y-21982490D01*
X79792604Y-21934871D01*
X79840223Y-21839633D01*
X79935461Y-21792014D01*
X80078318Y-21792014D01*
X80173556Y-21839633D01*
X80506890Y-21792014D02*
X80887842Y-21792014D01*
X80649747Y-21458680D02*
X80649747Y-22315823D01*
X80697366Y-22411061D01*
X80792604Y-22458680D01*
X80887842Y-22458680D01*
X71744985Y-28363442D02*
X71697366Y-28411061D01*
X71554509Y-28458680D01*
X71459271Y-28458680D01*
X71316414Y-28411061D01*
X71221176Y-28315823D01*
X71173557Y-28220585D01*
X71125938Y-28030109D01*
X71125938Y-27887252D01*
X71173557Y-27696776D01*
X71221176Y-27601538D01*
X71316414Y-27506300D01*
X71459271Y-27458680D01*
X71554509Y-27458680D01*
X71697366Y-27506300D01*
X71744985Y-27553919D01*
X72316414Y-28458680D02*
X72221176Y-28411061D01*
X72173557Y-28363442D01*
X72125938Y-28268204D01*
X72125938Y-27982490D01*
X72173557Y-27887252D01*
X72221176Y-27839633D01*
X72316414Y-27792014D01*
X72459271Y-27792014D01*
X72554509Y-27839633D01*
X72602128Y-27887252D01*
X72649747Y-27982490D01*
X72649747Y-28268204D01*
X72602128Y-28363442D01*
X72554509Y-28411061D01*
X72459271Y-28458680D01*
X72316414Y-28458680D01*
X73078319Y-27792014D02*
X73078319Y-28792014D01*
X73078319Y-27839633D02*
X73173557Y-27792014D01*
X73364033Y-27792014D01*
X73459271Y-27839633D01*
X73506890Y-27887252D01*
X73554509Y-27982490D01*
X73554509Y-28268204D01*
X73506890Y-28363442D01*
X73459271Y-28411061D01*
X73364033Y-28458680D01*
X73173557Y-28458680D01*
X73078319Y-28411061D01*
X73983080Y-27792014D02*
X73983080Y-28792014D01*
X73983080Y-27839633D02*
X74078319Y-27792014D01*
X74268795Y-27792014D01*
X74364033Y-27839633D01*
X74411652Y-27887252D01*
X74459271Y-27982490D01*
X74459271Y-28268204D01*
X74411652Y-28363442D01*
X74364033Y-28411061D01*
X74268795Y-28458680D01*
X74078319Y-28458680D01*
X73983080Y-28411061D01*
X75268795Y-28411061D02*
X75173557Y-28458680D01*
X74983080Y-28458680D01*
X74887842Y-28411061D01*
X74840223Y-28315823D01*
X74840223Y-27934871D01*
X74887842Y-27839633D01*
X74983080Y-27792014D01*
X75173557Y-27792014D01*
X75268795Y-27839633D01*
X75316414Y-27934871D01*
X75316414Y-28030109D01*
X74840223Y-28125347D01*
X75744985Y-28458680D02*
X75744985Y-27792014D01*
X75744985Y-27982490D02*
X75792604Y-27887252D01*
X75840223Y-27839633D01*
X75935461Y-27792014D01*
X76030700Y-27792014D01*
X71744985Y-24363442D02*
X71697366Y-24411061D01*
X71554509Y-24458680D01*
X71459271Y-24458680D01*
X71316414Y-24411061D01*
X71221176Y-24315823D01*
X71173557Y-24220585D01*
X71125938Y-24030109D01*
X71125938Y-23887252D01*
X71173557Y-23696776D01*
X71221176Y-23601538D01*
X71316414Y-23506300D01*
X71459271Y-23458680D01*
X71554509Y-23458680D01*
X71697366Y-23506300D01*
X71744985Y-23553919D01*
X72316414Y-24458680D02*
X72221176Y-24411061D01*
X72173557Y-24363442D01*
X72125938Y-24268204D01*
X72125938Y-23982490D01*
X72173557Y-23887252D01*
X72221176Y-23839633D01*
X72316414Y-23792014D01*
X72459271Y-23792014D01*
X72554509Y-23839633D01*
X72602128Y-23887252D01*
X72649747Y-23982490D01*
X72649747Y-24268204D01*
X72602128Y-24363442D01*
X72554509Y-24411061D01*
X72459271Y-24458680D01*
X72316414Y-24458680D01*
X73078319Y-23792014D02*
X73078319Y-24792014D01*
X73078319Y-23839633D02*
X73173557Y-23792014D01*
X73364033Y-23792014D01*
X73459271Y-23839633D01*
X73506890Y-23887252D01*
X73554509Y-23982490D01*
X73554509Y-24268204D01*
X73506890Y-24363442D01*
X73459271Y-24411061D01*
X73364033Y-24458680D01*
X73173557Y-24458680D01*
X73078319Y-24411061D01*
X73983080Y-23792014D02*
X73983080Y-24792014D01*
X73983080Y-23839633D02*
X74078319Y-23792014D01*
X74268795Y-23792014D01*
X74364033Y-23839633D01*
X74411652Y-23887252D01*
X74459271Y-23982490D01*
X74459271Y-24268204D01*
X74411652Y-24363442D01*
X74364033Y-24411061D01*
X74268795Y-24458680D01*
X74078319Y-24458680D01*
X73983080Y-24411061D01*
X75268795Y-24411061D02*
X75173557Y-24458680D01*
X74983080Y-24458680D01*
X74887842Y-24411061D01*
X74840223Y-24315823D01*
X74840223Y-23934871D01*
X74887842Y-23839633D01*
X74983080Y-23792014D01*
X75173557Y-23792014D01*
X75268795Y-23839633D01*
X75316414Y-23934871D01*
X75316414Y-24030109D01*
X74840223Y-24125347D01*
X75744985Y-24458680D02*
X75744985Y-23792014D01*
X75744985Y-23982490D02*
X75792604Y-23887252D01*
X75840223Y-23839633D01*
X75935461Y-23792014D01*
X76030700Y-23792014D01*
X71744985Y-32363442D02*
X71697366Y-32411061D01*
X71554509Y-32458680D01*
X71459271Y-32458680D01*
X71316414Y-32411061D01*
X71221176Y-32315823D01*
X71173557Y-32220585D01*
X71125938Y-32030109D01*
X71125938Y-31887252D01*
X71173557Y-31696776D01*
X71221176Y-31601538D01*
X71316414Y-31506300D01*
X71459271Y-31458680D01*
X71554509Y-31458680D01*
X71697366Y-31506300D01*
X71744985Y-31553919D01*
X72316414Y-32458680D02*
X72221176Y-32411061D01*
X72173557Y-32363442D01*
X72125938Y-32268204D01*
X72125938Y-31982490D01*
X72173557Y-31887252D01*
X72221176Y-31839633D01*
X72316414Y-31792014D01*
X72459271Y-31792014D01*
X72554509Y-31839633D01*
X72602128Y-31887252D01*
X72649747Y-31982490D01*
X72649747Y-32268204D01*
X72602128Y-32363442D01*
X72554509Y-32411061D01*
X72459271Y-32458680D01*
X72316414Y-32458680D01*
X73078319Y-31792014D02*
X73078319Y-32792014D01*
X73078319Y-31839633D02*
X73173557Y-31792014D01*
X73364033Y-31792014D01*
X73459271Y-31839633D01*
X73506890Y-31887252D01*
X73554509Y-31982490D01*
X73554509Y-32268204D01*
X73506890Y-32363442D01*
X73459271Y-32411061D01*
X73364033Y-32458680D01*
X73173557Y-32458680D01*
X73078319Y-32411061D01*
X73983080Y-31792014D02*
X73983080Y-32792014D01*
X73983080Y-31839633D02*
X74078319Y-31792014D01*
X74268795Y-31792014D01*
X74364033Y-31839633D01*
X74411652Y-31887252D01*
X74459271Y-31982490D01*
X74459271Y-32268204D01*
X74411652Y-32363442D01*
X74364033Y-32411061D01*
X74268795Y-32458680D01*
X74078319Y-32458680D01*
X73983080Y-32411061D01*
X75268795Y-32411061D02*
X75173557Y-32458680D01*
X74983080Y-32458680D01*
X74887842Y-32411061D01*
X74840223Y-32315823D01*
X74840223Y-31934871D01*
X74887842Y-31839633D01*
X74983080Y-31792014D01*
X75173557Y-31792014D01*
X75268795Y-31839633D01*
X75316414Y-31934871D01*
X75316414Y-32030109D01*
X74840223Y-32125347D01*
X75744985Y-32458680D02*
X75744985Y-31792014D01*
X75744985Y-31982490D02*
X75792604Y-31887252D01*
X75840223Y-31839633D01*
X75935461Y-31792014D01*
X76030700Y-31792014D01*
X71744985Y-30458680D02*
X71411652Y-29982490D01*
X71173557Y-30458680D02*
X71173557Y-29458680D01*
X71554509Y-29458680D01*
X71649747Y-29506300D01*
X71697366Y-29553919D01*
X71744985Y-29649157D01*
X71744985Y-29792014D01*
X71697366Y-29887252D01*
X71649747Y-29934871D01*
X71554509Y-29982490D01*
X71173557Y-29982490D01*
X72744985Y-30363442D02*
X72697366Y-30411061D01*
X72554509Y-30458680D01*
X72459271Y-30458680D01*
X72316414Y-30411061D01*
X72221176Y-30315823D01*
X72173557Y-30220585D01*
X72125938Y-30030109D01*
X72125938Y-29887252D01*
X72173557Y-29696776D01*
X72221176Y-29601538D01*
X72316414Y-29506300D01*
X72459271Y-29458680D01*
X72554509Y-29458680D01*
X72697366Y-29506300D01*
X72744985Y-29553919D01*
X73744985Y-30363442D02*
X73697366Y-30411061D01*
X73554509Y-30458680D01*
X73459271Y-30458680D01*
X73316414Y-30411061D01*
X73221176Y-30315823D01*
X73173557Y-30220585D01*
X73125938Y-30030109D01*
X73125938Y-29887252D01*
X73173557Y-29696776D01*
X73221176Y-29601538D01*
X73316414Y-29506300D01*
X73459271Y-29458680D01*
X73554509Y-29458680D01*
X73697366Y-29506300D01*
X73744985Y-29553919D01*
X71125937Y-46449761D02*
X71268794Y-46497380D01*
X71506890Y-46497380D01*
X71602128Y-46449761D01*
X71649747Y-46402142D01*
X71697366Y-46306904D01*
X71697366Y-46211666D01*
X71649747Y-46116428D01*
X71602128Y-46068809D01*
X71506890Y-46021190D01*
X71316413Y-45973571D01*
X71221175Y-45925952D01*
X71173556Y-45878333D01*
X71125937Y-45783095D01*
X71125937Y-45687857D01*
X71173556Y-45592619D01*
X71221175Y-45545000D01*
X71316413Y-45497380D01*
X71554509Y-45497380D01*
X71697366Y-45545000D01*
X72268794Y-46497380D02*
X72173556Y-46449761D01*
X72125937Y-46402142D01*
X72078318Y-46306904D01*
X72078318Y-46021190D01*
X72125937Y-45925952D01*
X72173556Y-45878333D01*
X72268794Y-45830714D01*
X72411651Y-45830714D01*
X72506890Y-45878333D01*
X72554509Y-45925952D01*
X72602128Y-46021190D01*
X72602128Y-46306904D01*
X72554509Y-46402142D01*
X72506890Y-46449761D01*
X72411651Y-46497380D01*
X72268794Y-46497380D01*
X73173556Y-46497380D02*
X73078318Y-46449761D01*
X73030699Y-46354523D01*
X73030699Y-45497380D01*
X73983080Y-46497380D02*
X73983080Y-45497380D01*
X73983080Y-46449761D02*
X73887842Y-46497380D01*
X73697366Y-46497380D01*
X73602128Y-46449761D01*
X73554509Y-46402142D01*
X73506890Y-46306904D01*
X73506890Y-46021190D01*
X73554509Y-45925952D01*
X73602128Y-45878333D01*
X73697366Y-45830714D01*
X73887842Y-45830714D01*
X73983080Y-45878333D01*
X74840223Y-46449761D02*
X74744985Y-46497380D01*
X74554509Y-46497380D01*
X74459271Y-46449761D01*
X74411651Y-46354523D01*
X74411651Y-45973571D01*
X74459271Y-45878333D01*
X74554509Y-45830714D01*
X74744985Y-45830714D01*
X74840223Y-45878333D01*
X74887842Y-45973571D01*
X74887842Y-46068809D01*
X74411651Y-46164047D01*
X75316413Y-46497380D02*
X75316413Y-45830714D01*
X75316413Y-46021190D02*
X75364032Y-45925952D01*
X75411651Y-45878333D01*
X75506890Y-45830714D01*
X75602128Y-45830714D01*
X77268794Y-46497380D02*
X76935461Y-46021190D01*
X76697366Y-46497380D02*
X76697366Y-45497380D01*
X77078318Y-45497380D01*
X77173556Y-45545000D01*
X77221175Y-45592619D01*
X77268794Y-45687857D01*
X77268794Y-45830714D01*
X77221175Y-45925952D01*
X77173556Y-45973571D01*
X77078318Y-46021190D01*
X76697366Y-46021190D01*
X78078318Y-46449761D02*
X77983080Y-46497380D01*
X77792604Y-46497380D01*
X77697366Y-46449761D01*
X77649747Y-46354523D01*
X77649747Y-45973571D01*
X77697366Y-45878333D01*
X77792604Y-45830714D01*
X77983080Y-45830714D01*
X78078318Y-45878333D01*
X78125937Y-45973571D01*
X78125937Y-46068809D01*
X77649747Y-46164047D01*
X78506890Y-46449761D02*
X78602128Y-46497380D01*
X78792604Y-46497380D01*
X78887842Y-46449761D01*
X78935461Y-46354523D01*
X78935461Y-46306904D01*
X78887842Y-46211666D01*
X78792604Y-46164047D01*
X78649747Y-46164047D01*
X78554509Y-46116428D01*
X78506890Y-46021190D01*
X78506890Y-45973571D01*
X78554509Y-45878333D01*
X78649747Y-45830714D01*
X78792604Y-45830714D01*
X78887842Y-45878333D01*
X79364032Y-46497380D02*
X79364032Y-45830714D01*
X79364032Y-45497380D02*
X79316413Y-45545000D01*
X79364032Y-45592619D01*
X79411651Y-45545000D01*
X79364032Y-45497380D01*
X79364032Y-45592619D01*
X79792604Y-46449761D02*
X79887842Y-46497380D01*
X80078318Y-46497380D01*
X80173556Y-46449761D01*
X80221175Y-46354523D01*
X80221175Y-46306904D01*
X80173556Y-46211666D01*
X80078318Y-46164047D01*
X79935461Y-46164047D01*
X79840223Y-46116428D01*
X79792604Y-46021190D01*
X79792604Y-45973571D01*
X79840223Y-45878333D01*
X79935461Y-45830714D01*
X80078318Y-45830714D01*
X80173556Y-45878333D01*
X80506890Y-45830714D02*
X80887842Y-45830714D01*
X80649747Y-45497380D02*
X80649747Y-46354523D01*
X80697366Y-46449761D01*
X80792604Y-46497380D01*
X80887842Y-46497380D01*
X71744985Y-36363442D02*
X71697366Y-36411061D01*
X71554509Y-36458680D01*
X71459271Y-36458680D01*
X71316414Y-36411061D01*
X71221176Y-36315823D01*
X71173557Y-36220585D01*
X71125938Y-36030109D01*
X71125938Y-35887252D01*
X71173557Y-35696776D01*
X71221176Y-35601538D01*
X71316414Y-35506300D01*
X71459271Y-35458680D01*
X71554509Y-35458680D01*
X71697366Y-35506300D01*
X71744985Y-35553919D01*
X72316414Y-36458680D02*
X72221176Y-36411061D01*
X72173557Y-36363442D01*
X72125938Y-36268204D01*
X72125938Y-35982490D01*
X72173557Y-35887252D01*
X72221176Y-35839633D01*
X72316414Y-35792014D01*
X72459271Y-35792014D01*
X72554509Y-35839633D01*
X72602128Y-35887252D01*
X72649747Y-35982490D01*
X72649747Y-36268204D01*
X72602128Y-36363442D01*
X72554509Y-36411061D01*
X72459271Y-36458680D01*
X72316414Y-36458680D01*
X73078319Y-35792014D02*
X73078319Y-36792014D01*
X73078319Y-35839633D02*
X73173557Y-35792014D01*
X73364033Y-35792014D01*
X73459271Y-35839633D01*
X73506890Y-35887252D01*
X73554509Y-35982490D01*
X73554509Y-36268204D01*
X73506890Y-36363442D01*
X73459271Y-36411061D01*
X73364033Y-36458680D01*
X73173557Y-36458680D01*
X73078319Y-36411061D01*
X73983080Y-35792014D02*
X73983080Y-36792014D01*
X73983080Y-35839633D02*
X74078319Y-35792014D01*
X74268795Y-35792014D01*
X74364033Y-35839633D01*
X74411652Y-35887252D01*
X74459271Y-35982490D01*
X74459271Y-36268204D01*
X74411652Y-36363442D01*
X74364033Y-36411061D01*
X74268795Y-36458680D01*
X74078319Y-36458680D01*
X73983080Y-36411061D01*
X75268795Y-36411061D02*
X75173557Y-36458680D01*
X74983080Y-36458680D01*
X74887842Y-36411061D01*
X74840223Y-36315823D01*
X74840223Y-35934871D01*
X74887842Y-35839633D01*
X74983080Y-35792014D01*
X75173557Y-35792014D01*
X75268795Y-35839633D01*
X75316414Y-35934871D01*
X75316414Y-36030109D01*
X74840223Y-36125347D01*
X75744985Y-36458680D02*
X75744985Y-35792014D01*
X75744985Y-35982490D02*
X75792604Y-35887252D01*
X75840223Y-35839633D01*
X75935461Y-35792014D01*
X76030700Y-35792014D01*
D11*
X82105700Y-19031300D02*
X82105700Y-47095000D01*
X91105700Y-19031300D02*
X91105700Y-47095000D01*
D10*
X85446176Y-22483680D02*
X84874747Y-22483680D01*
X85160461Y-22483680D02*
X85160461Y-21483680D01*
X85065223Y-21626538D01*
X84969985Y-21721776D01*
X84874747Y-21769395D01*
X86065223Y-21483680D02*
X86160461Y-21483680D01*
X86255700Y-21531300D01*
X86303319Y-21578919D01*
X86350938Y-21674157D01*
X86398557Y-21864633D01*
X86398557Y-22102728D01*
X86350938Y-22293204D01*
X86303319Y-22388442D01*
X86255700Y-22436061D01*
X86160461Y-22483680D01*
X86065223Y-22483680D01*
X85969985Y-22436061D01*
X85922366Y-22388442D01*
X85874747Y-22293204D01*
X85827128Y-22102728D01*
X85827128Y-21864633D01*
X85874747Y-21674157D01*
X85922366Y-21578919D01*
X85969985Y-21531300D01*
X86065223Y-21483680D01*
X87255700Y-21817014D02*
X87255700Y-22483680D01*
X86827128Y-21817014D02*
X86827128Y-22340823D01*
X86874747Y-22436061D01*
X86969985Y-22483680D01*
X87112842Y-22483680D01*
X87208080Y-22436061D01*
X87255700Y-22388442D01*
X87731890Y-22483680D02*
X87731890Y-21817014D01*
X87731890Y-21912252D02*
X87779509Y-21864633D01*
X87874747Y-21817014D01*
X88017604Y-21817014D01*
X88112842Y-21864633D01*
X88160461Y-21959871D01*
X88160461Y-22483680D01*
X88160461Y-21959871D02*
X88208080Y-21864633D01*
X88303319Y-21817014D01*
X88446176Y-21817014D01*
X88541414Y-21864633D01*
X88589033Y-21959871D01*
X88589033Y-22483680D01*
D11*
X58105700Y-19031300D02*
X58105700Y-47095000D01*
D10*
X58790476Y-21483680D02*
X59361904Y-21483680D01*
X59076190Y-22483680D02*
X59076190Y-21483680D01*
X59838095Y-22483680D02*
X59742857Y-22436061D01*
X59695237Y-22388442D01*
X59647618Y-22293204D01*
X59647618Y-22007490D01*
X59695237Y-21912252D01*
X59742857Y-21864633D01*
X59838095Y-21817014D01*
X59980952Y-21817014D01*
X60076190Y-21864633D01*
X60123809Y-21912252D01*
X60171428Y-22007490D01*
X60171428Y-22293204D01*
X60123809Y-22388442D01*
X60076190Y-22436061D01*
X59980952Y-22483680D01*
X59838095Y-22483680D01*
X60599999Y-21817014D02*
X60599999Y-22817014D01*
X60599999Y-21864633D02*
X60695237Y-21817014D01*
X60885714Y-21817014D01*
X60980952Y-21864633D01*
X61028571Y-21912252D01*
X61076190Y-22007490D01*
X61076190Y-22293204D01*
X61028571Y-22388442D01*
X60980952Y-22436061D01*
X60885714Y-22483680D01*
X60695237Y-22483680D01*
X60599999Y-22436061D01*
X62219047Y-22436061D02*
X62361904Y-22483680D01*
X62599999Y-22483680D01*
X62695237Y-22436061D01*
X62742857Y-22388442D01*
X62790476Y-22293204D01*
X62790476Y-22197966D01*
X62742857Y-22102728D01*
X62695237Y-22055109D01*
X62599999Y-22007490D01*
X62409523Y-21959871D01*
X62314285Y-21912252D01*
X62266666Y-21864633D01*
X62219047Y-21769395D01*
X62219047Y-21674157D01*
X62266666Y-21578919D01*
X62314285Y-21531300D01*
X62409523Y-21483680D01*
X62647618Y-21483680D01*
X62790476Y-21531300D01*
X63361904Y-22483680D02*
X63266666Y-22436061D01*
X63219047Y-22388442D01*
X63171428Y-22293204D01*
X63171428Y-22007490D01*
X63219047Y-21912252D01*
X63266666Y-21864633D01*
X63361904Y-21817014D01*
X63504761Y-21817014D01*
X63599999Y-21864633D01*
X63647618Y-21912252D01*
X63695237Y-22007490D01*
X63695237Y-22293204D01*
X63647618Y-22388442D01*
X63599999Y-22436061D01*
X63504761Y-22483680D01*
X63361904Y-22483680D01*
X64266666Y-22483680D02*
X64171428Y-22436061D01*
X64123809Y-22340823D01*
X64123809Y-21483680D01*
X65076190Y-22483680D02*
X65076190Y-21483680D01*
X65076190Y-22436061D02*
X64980952Y-22483680D01*
X64790476Y-22483680D01*
X64695237Y-22436061D01*
X64647618Y-22388442D01*
X64599999Y-22293204D01*
X64599999Y-22007490D01*
X64647618Y-21912252D01*
X64695237Y-21864633D01*
X64790476Y-21817014D01*
X64980952Y-21817014D01*
X65076190Y-21864633D01*
X65933333Y-22436061D02*
X65838095Y-22483680D01*
X65647618Y-22483680D01*
X65552380Y-22436061D01*
X65504761Y-22340823D01*
X65504761Y-21959871D01*
X65552380Y-21864633D01*
X65647618Y-21817014D01*
X65838095Y-21817014D01*
X65933333Y-21864633D01*
X65980952Y-21959871D01*
X65980952Y-22055109D01*
X65504761Y-22150347D01*
X66409523Y-22483680D02*
X66409523Y-21817014D01*
X66409523Y-22007490D02*
X66457142Y-21912252D01*
X66504761Y-21864633D01*
X66599999Y-21817014D01*
X66695237Y-21817014D01*
X58790475Y-23483680D02*
X59361904Y-23483680D01*
X59076190Y-24483680D02*
X59076190Y-23483680D01*
X59838094Y-24483680D02*
X59742856Y-24436061D01*
X59695237Y-24388442D01*
X59647618Y-24293204D01*
X59647618Y-24007490D01*
X59695237Y-23912252D01*
X59742856Y-23864633D01*
X59838094Y-23817014D01*
X59980952Y-23817014D01*
X60076190Y-23864633D01*
X60123809Y-23912252D01*
X60171428Y-24007490D01*
X60171428Y-24293204D01*
X60123809Y-24388442D01*
X60076190Y-24436061D01*
X59980952Y-24483680D01*
X59838094Y-24483680D01*
X60599999Y-23817014D02*
X60599999Y-24817014D01*
X60599999Y-23864633D02*
X60695237Y-23817014D01*
X60885713Y-23817014D01*
X60980952Y-23864633D01*
X61028571Y-23912252D01*
X61076190Y-24007490D01*
X61076190Y-24293204D01*
X61028571Y-24388442D01*
X60980952Y-24436061D01*
X60885713Y-24483680D01*
X60695237Y-24483680D01*
X60599999Y-24436061D01*
X58933333Y-26483680D02*
X58933333Y-25483680D01*
X59171428Y-25483680D01*
X59314285Y-25531300D01*
X59409523Y-25626538D01*
X59457142Y-25721776D01*
X59504761Y-25912252D01*
X59504761Y-26055109D01*
X59457142Y-26245585D01*
X59409523Y-26340823D01*
X59314285Y-26436061D01*
X59171428Y-26483680D01*
X58933333Y-26483680D01*
X59933333Y-26483680D02*
X59933333Y-25817014D01*
X59933333Y-25483680D02*
X59885714Y-25531300D01*
X59933333Y-25578919D01*
X59980952Y-25531300D01*
X59933333Y-25483680D01*
X59933333Y-25578919D01*
X60790476Y-26436061D02*
X60695238Y-26483680D01*
X60504761Y-26483680D01*
X60409523Y-26436061D01*
X60361904Y-26340823D01*
X60361904Y-25959871D01*
X60409523Y-25864633D01*
X60504761Y-25817014D01*
X60695238Y-25817014D01*
X60790476Y-25864633D01*
X60838095Y-25959871D01*
X60838095Y-26055109D01*
X60361904Y-26150347D01*
X61409523Y-26483680D02*
X61314285Y-26436061D01*
X61266666Y-26340823D01*
X61266666Y-25483680D01*
X62171428Y-26436061D02*
X62076190Y-26483680D01*
X61885714Y-26483680D01*
X61790476Y-26436061D01*
X61742857Y-26340823D01*
X61742857Y-25959871D01*
X61790476Y-25864633D01*
X61885714Y-25817014D01*
X62076190Y-25817014D01*
X62171428Y-25864633D01*
X62219047Y-25959871D01*
X62219047Y-26055109D01*
X61742857Y-26150347D01*
X63076190Y-26436061D02*
X62980952Y-26483680D01*
X62790476Y-26483680D01*
X62695238Y-26436061D01*
X62647619Y-26388442D01*
X62600000Y-26293204D01*
X62600000Y-26007490D01*
X62647619Y-25912252D01*
X62695238Y-25864633D01*
X62790476Y-25817014D01*
X62980952Y-25817014D01*
X63076190Y-25864633D01*
X63361904Y-25817014D02*
X63742857Y-25817014D01*
X63504761Y-25483680D02*
X63504761Y-26340823D01*
X63552380Y-26436061D01*
X63647619Y-26483680D01*
X63742857Y-26483680D01*
X64076190Y-26483680D02*
X64076190Y-25817014D01*
X64076190Y-26007490D02*
X64123809Y-25912252D01*
X64171428Y-25864633D01*
X64266666Y-25817014D01*
X64361904Y-25817014D01*
X64695238Y-26483680D02*
X64695238Y-25817014D01*
X64695238Y-25483680D02*
X64647619Y-25531300D01*
X64695238Y-25578919D01*
X64742857Y-25531300D01*
X64695238Y-25483680D01*
X64695238Y-25578919D01*
X65600000Y-26436061D02*
X65504761Y-26483680D01*
X65314285Y-26483680D01*
X65219047Y-26436061D01*
X65171428Y-26388442D01*
X65123809Y-26293204D01*
X65123809Y-26007490D01*
X65171428Y-25912252D01*
X65219047Y-25864633D01*
X65314285Y-25817014D01*
X65504761Y-25817014D01*
X65600000Y-25864633D01*
X67314285Y-26483680D02*
X66742857Y-26483680D01*
X67028571Y-26483680D02*
X67028571Y-25483680D01*
X66933333Y-25626538D01*
X66838095Y-25721776D01*
X66742857Y-25769395D01*
X58933333Y-28483680D02*
X58933333Y-27483680D01*
X59409523Y-27817014D02*
X59409523Y-28483680D01*
X59409523Y-27912252D02*
X59457142Y-27864633D01*
X59552381Y-27817014D01*
X59695238Y-27817014D01*
X59790476Y-27864633D01*
X59838095Y-27959871D01*
X59838095Y-28483680D01*
X60838095Y-28483680D02*
X60266666Y-28483680D01*
X60552381Y-28483680D02*
X60552381Y-27483680D01*
X60457142Y-27626538D01*
X60361904Y-27721776D01*
X60266666Y-27769395D01*
X61266666Y-28388442D02*
X61314285Y-28436061D01*
X61266666Y-28483680D01*
X61219047Y-28436061D01*
X61266666Y-28388442D01*
X61266666Y-28483680D01*
X62314285Y-28388442D02*
X62266666Y-28436061D01*
X62123809Y-28483680D01*
X62028571Y-28483680D01*
X61885714Y-28436061D01*
X61790476Y-28340823D01*
X61742857Y-28245585D01*
X61695238Y-28055109D01*
X61695238Y-27912252D01*
X61742857Y-27721776D01*
X61790476Y-27626538D01*
X61885714Y-27531300D01*
X62028571Y-27483680D01*
X62123809Y-27483680D01*
X62266666Y-27531300D01*
X62314285Y-27578919D01*
X63171428Y-27817014D02*
X63171428Y-28483680D01*
X62742857Y-27817014D02*
X62742857Y-28340823D01*
X62790476Y-28436061D01*
X62885714Y-28483680D01*
X63028571Y-28483680D01*
X63123809Y-28436061D01*
X63171428Y-28388442D01*
X58933333Y-30483680D02*
X58933333Y-29483680D01*
X59171428Y-29483680D01*
X59314285Y-29531300D01*
X59409523Y-29626538D01*
X59457142Y-29721776D01*
X59504761Y-29912252D01*
X59504761Y-30055109D01*
X59457142Y-30245585D01*
X59409523Y-30340823D01*
X59314285Y-30436061D01*
X59171428Y-30483680D01*
X58933333Y-30483680D01*
X59933333Y-30483680D02*
X59933333Y-29817014D01*
X59933333Y-29483680D02*
X59885714Y-29531300D01*
X59933333Y-29578919D01*
X59980952Y-29531300D01*
X59933333Y-29483680D01*
X59933333Y-29578919D01*
X60790476Y-30436061D02*
X60695238Y-30483680D01*
X60504761Y-30483680D01*
X60409523Y-30436061D01*
X60361904Y-30340823D01*
X60361904Y-29959871D01*
X60409523Y-29864633D01*
X60504761Y-29817014D01*
X60695238Y-29817014D01*
X60790476Y-29864633D01*
X60838095Y-29959871D01*
X60838095Y-30055109D01*
X60361904Y-30150347D01*
X61409523Y-30483680D02*
X61314285Y-30436061D01*
X61266666Y-30340823D01*
X61266666Y-29483680D01*
X62171428Y-30436061D02*
X62076190Y-30483680D01*
X61885714Y-30483680D01*
X61790476Y-30436061D01*
X61742857Y-30340823D01*
X61742857Y-29959871D01*
X61790476Y-29864633D01*
X61885714Y-29817014D01*
X62076190Y-29817014D01*
X62171428Y-29864633D01*
X62219047Y-29959871D01*
X62219047Y-30055109D01*
X61742857Y-30150347D01*
X63076190Y-30436061D02*
X62980952Y-30483680D01*
X62790476Y-30483680D01*
X62695238Y-30436061D01*
X62647619Y-30388442D01*
X62600000Y-30293204D01*
X62600000Y-30007490D01*
X62647619Y-29912252D01*
X62695238Y-29864633D01*
X62790476Y-29817014D01*
X62980952Y-29817014D01*
X63076190Y-29864633D01*
X63361904Y-29817014D02*
X63742857Y-29817014D01*
X63504761Y-29483680D02*
X63504761Y-30340823D01*
X63552380Y-30436061D01*
X63647619Y-30483680D01*
X63742857Y-30483680D01*
X64076190Y-30483680D02*
X64076190Y-29817014D01*
X64076190Y-30007490D02*
X64123809Y-29912252D01*
X64171428Y-29864633D01*
X64266666Y-29817014D01*
X64361904Y-29817014D01*
X64695238Y-30483680D02*
X64695238Y-29817014D01*
X64695238Y-29483680D02*
X64647619Y-29531300D01*
X64695238Y-29578919D01*
X64742857Y-29531300D01*
X64695238Y-29483680D01*
X64695238Y-29578919D01*
X65600000Y-30436061D02*
X65504761Y-30483680D01*
X65314285Y-30483680D01*
X65219047Y-30436061D01*
X65171428Y-30388442D01*
X65123809Y-30293204D01*
X65123809Y-30007490D01*
X65171428Y-29912252D01*
X65219047Y-29864633D01*
X65314285Y-29817014D01*
X65504761Y-29817014D01*
X65600000Y-29864633D01*
X66742857Y-29578919D02*
X66790476Y-29531300D01*
X66885714Y-29483680D01*
X67123809Y-29483680D01*
X67219047Y-29531300D01*
X67266666Y-29578919D01*
X67314285Y-29674157D01*
X67314285Y-29769395D01*
X67266666Y-29912252D01*
X66695238Y-30483680D01*
X67314285Y-30483680D01*
X58933333Y-32483680D02*
X58933333Y-31483680D01*
X59409523Y-31817014D02*
X59409523Y-32483680D01*
X59409523Y-31912252D02*
X59457142Y-31864633D01*
X59552381Y-31817014D01*
X59695238Y-31817014D01*
X59790476Y-31864633D01*
X59838095Y-31959871D01*
X59838095Y-32483680D01*
X60266666Y-31578919D02*
X60314285Y-31531300D01*
X60409523Y-31483680D01*
X60647619Y-31483680D01*
X60742857Y-31531300D01*
X60790476Y-31578919D01*
X60838095Y-31674157D01*
X60838095Y-31769395D01*
X60790476Y-31912252D01*
X60219047Y-32483680D01*
X60838095Y-32483680D01*
X61266666Y-32388442D02*
X61314285Y-32436061D01*
X61266666Y-32483680D01*
X61219047Y-32436061D01*
X61266666Y-32388442D01*
X61266666Y-32483680D01*
X62314285Y-32388442D02*
X62266666Y-32436061D01*
X62123809Y-32483680D01*
X62028571Y-32483680D01*
X61885714Y-32436061D01*
X61790476Y-32340823D01*
X61742857Y-32245585D01*
X61695238Y-32055109D01*
X61695238Y-31912252D01*
X61742857Y-31721776D01*
X61790476Y-31626538D01*
X61885714Y-31531300D01*
X62028571Y-31483680D01*
X62123809Y-31483680D01*
X62266666Y-31531300D01*
X62314285Y-31578919D01*
X63171428Y-31817014D02*
X63171428Y-32483680D01*
X62742857Y-31817014D02*
X62742857Y-32340823D01*
X62790476Y-32436061D01*
X62885714Y-32483680D01*
X63028571Y-32483680D01*
X63123809Y-32436061D01*
X63171428Y-32388442D01*
X59504761Y-34388442D02*
X59457142Y-34436061D01*
X59314285Y-34483680D01*
X59219047Y-34483680D01*
X59076190Y-34436061D01*
X58980952Y-34340823D01*
X58933333Y-34245585D01*
X58885714Y-34055109D01*
X58885714Y-33912252D01*
X58933333Y-33721776D01*
X58980952Y-33626538D01*
X59076190Y-33531300D01*
X59219047Y-33483680D01*
X59314285Y-33483680D01*
X59457142Y-33531300D01*
X59504761Y-33578919D01*
X60076190Y-34483680D02*
X59980952Y-34436061D01*
X59933333Y-34388442D01*
X59885714Y-34293204D01*
X59885714Y-34007490D01*
X59933333Y-33912252D01*
X59980952Y-33864633D01*
X60076190Y-33817014D01*
X60219047Y-33817014D01*
X60314285Y-33864633D01*
X60361904Y-33912252D01*
X60409523Y-34007490D01*
X60409523Y-34293204D01*
X60361904Y-34388442D01*
X60314285Y-34436061D01*
X60219047Y-34483680D01*
X60076190Y-34483680D01*
X60838094Y-34483680D02*
X60838094Y-33817014D01*
X60838094Y-34007490D02*
X60885714Y-33912252D01*
X60933333Y-33864633D01*
X61028571Y-33817014D01*
X61123809Y-33817014D01*
X61838094Y-34436061D02*
X61742856Y-34483680D01*
X61552380Y-34483680D01*
X61457142Y-34436061D01*
X61409523Y-34340823D01*
X61409523Y-33959871D01*
X61457142Y-33864633D01*
X61552380Y-33817014D01*
X61742856Y-33817014D01*
X61838094Y-33864633D01*
X61885714Y-33959871D01*
X61885714Y-34055109D01*
X61409523Y-34150347D01*
X59266666Y-43898571D02*
X59409523Y-43946190D01*
X59457142Y-43993809D01*
X59504761Y-44089047D01*
X59504761Y-44231904D01*
X59457142Y-44327142D01*
X59409523Y-44374761D01*
X59314285Y-44422380D01*
X58933333Y-44422380D01*
X58933333Y-43422380D01*
X59266666Y-43422380D01*
X59361904Y-43470000D01*
X59409523Y-43517619D01*
X59457142Y-43612857D01*
X59457142Y-43708095D01*
X59409523Y-43803333D01*
X59361904Y-43850952D01*
X59266666Y-43898571D01*
X58933333Y-43898571D01*
X60076190Y-44422380D02*
X59980952Y-44374761D01*
X59933333Y-44327142D01*
X59885714Y-44231904D01*
X59885714Y-43946190D01*
X59933333Y-43850952D01*
X59980952Y-43803333D01*
X60076190Y-43755714D01*
X60219047Y-43755714D01*
X60314285Y-43803333D01*
X60361904Y-43850952D01*
X60409523Y-43946190D01*
X60409523Y-44231904D01*
X60361904Y-44327142D01*
X60314285Y-44374761D01*
X60219047Y-44422380D01*
X60076190Y-44422380D01*
X60695237Y-43755714D02*
X61076190Y-43755714D01*
X60838095Y-43422380D02*
X60838095Y-44279523D01*
X60885714Y-44374761D01*
X60980952Y-44422380D01*
X61076190Y-44422380D01*
X61266666Y-43755714D02*
X61647618Y-43755714D01*
X61409523Y-43422380D02*
X61409523Y-44279523D01*
X61457142Y-44374761D01*
X61552380Y-44422380D01*
X61647618Y-44422380D01*
X62123809Y-44422380D02*
X62028571Y-44374761D01*
X61980952Y-44327142D01*
X61933333Y-44231904D01*
X61933333Y-43946190D01*
X61980952Y-43850952D01*
X62028571Y-43803333D01*
X62123809Y-43755714D01*
X62266666Y-43755714D01*
X62361904Y-43803333D01*
X62409523Y-43850952D01*
X62457142Y-43946190D01*
X62457142Y-44231904D01*
X62409523Y-44327142D01*
X62361904Y-44374761D01*
X62266666Y-44422380D01*
X62123809Y-44422380D01*
X62885714Y-44422380D02*
X62885714Y-43755714D01*
X62885714Y-43850952D02*
X62933333Y-43803333D01*
X63028571Y-43755714D01*
X63171428Y-43755714D01*
X63266666Y-43803333D01*
X63314285Y-43898571D01*
X63314285Y-44422380D01*
X63314285Y-43898571D02*
X63361904Y-43803333D01*
X63457142Y-43755714D01*
X63599999Y-43755714D01*
X63695237Y-43803333D01*
X63742856Y-43898571D01*
X63742856Y-44422380D01*
X59266666Y-45998571D02*
X59409523Y-46046190D01*
X59457142Y-46093809D01*
X59504761Y-46189047D01*
X59504761Y-46331904D01*
X59457142Y-46427142D01*
X59409523Y-46474761D01*
X59314285Y-46522380D01*
X58933333Y-46522380D01*
X58933333Y-45522380D01*
X59266666Y-45522380D01*
X59361904Y-45570000D01*
X59409523Y-45617619D01*
X59457142Y-45712857D01*
X59457142Y-45808095D01*
X59409523Y-45903333D01*
X59361904Y-45950952D01*
X59266666Y-45998571D01*
X58933333Y-45998571D01*
X60076190Y-46522380D02*
X59980952Y-46474761D01*
X59933333Y-46427142D01*
X59885714Y-46331904D01*
X59885714Y-46046190D01*
X59933333Y-45950952D01*
X59980952Y-45903333D01*
X60076190Y-45855714D01*
X60219047Y-45855714D01*
X60314285Y-45903333D01*
X60361904Y-45950952D01*
X60409523Y-46046190D01*
X60409523Y-46331904D01*
X60361904Y-46427142D01*
X60314285Y-46474761D01*
X60219047Y-46522380D01*
X60076190Y-46522380D01*
X60695238Y-45855714D02*
X61076190Y-45855714D01*
X60838095Y-45522380D02*
X60838095Y-46379523D01*
X60885714Y-46474761D01*
X60980952Y-46522380D01*
X61076190Y-46522380D01*
X61266666Y-45855714D02*
X61647619Y-45855714D01*
X61409523Y-45522380D02*
X61409523Y-46379523D01*
X61457142Y-46474761D01*
X61552380Y-46522380D01*
X61647619Y-46522380D01*
X62123809Y-46522380D02*
X62028571Y-46474761D01*
X61980952Y-46427142D01*
X61933333Y-46331904D01*
X61933333Y-46046190D01*
X61980952Y-45950952D01*
X62028571Y-45903333D01*
X62123809Y-45855714D01*
X62266666Y-45855714D01*
X62361904Y-45903333D01*
X62409523Y-45950952D01*
X62457142Y-46046190D01*
X62457142Y-46331904D01*
X62409523Y-46427142D01*
X62361904Y-46474761D01*
X62266666Y-46522380D01*
X62123809Y-46522380D01*
X62885714Y-46522380D02*
X62885714Y-45855714D01*
X62885714Y-45950952D02*
X62933333Y-45903333D01*
X63028571Y-45855714D01*
X63171428Y-45855714D01*
X63266666Y-45903333D01*
X63314285Y-45998571D01*
X63314285Y-46522380D01*
X63314285Y-45998571D02*
X63361904Y-45903333D01*
X63457142Y-45855714D01*
X63600000Y-45855714D01*
X63695238Y-45903333D01*
X63742857Y-45998571D01*
X63742857Y-46522380D01*
X64933333Y-46474761D02*
X65076190Y-46522380D01*
X65314285Y-46522380D01*
X65409523Y-46474761D01*
X65457142Y-46427142D01*
X65504761Y-46331904D01*
X65504761Y-46236666D01*
X65457142Y-46141428D01*
X65409523Y-46093809D01*
X65314285Y-46046190D01*
X65123809Y-45998571D01*
X65028571Y-45950952D01*
X64980952Y-45903333D01*
X64933333Y-45808095D01*
X64933333Y-45712857D01*
X64980952Y-45617619D01*
X65028571Y-45570000D01*
X65123809Y-45522380D01*
X65361904Y-45522380D01*
X65504761Y-45570000D01*
X66076190Y-46522380D02*
X65980952Y-46474761D01*
X65933333Y-46427142D01*
X65885714Y-46331904D01*
X65885714Y-46046190D01*
X65933333Y-45950952D01*
X65980952Y-45903333D01*
X66076190Y-45855714D01*
X66219047Y-45855714D01*
X66314285Y-45903333D01*
X66361904Y-45950952D01*
X66409523Y-46046190D01*
X66409523Y-46331904D01*
X66361904Y-46427142D01*
X66314285Y-46474761D01*
X66219047Y-46522380D01*
X66076190Y-46522380D01*
X66980952Y-46522380D02*
X66885714Y-46474761D01*
X66838095Y-46379523D01*
X66838095Y-45522380D01*
X67790476Y-46522380D02*
X67790476Y-45522380D01*
X67790476Y-46474761D02*
X67695238Y-46522380D01*
X67504761Y-46522380D01*
X67409523Y-46474761D01*
X67361904Y-46427142D01*
X67314285Y-46331904D01*
X67314285Y-46046190D01*
X67361904Y-45950952D01*
X67409523Y-45903333D01*
X67504761Y-45855714D01*
X67695238Y-45855714D01*
X67790476Y-45903333D01*
X68647619Y-46474761D02*
X68552380Y-46522380D01*
X68361904Y-46522380D01*
X68266666Y-46474761D01*
X68219047Y-46379523D01*
X68219047Y-45998571D01*
X68266666Y-45903333D01*
X68361904Y-45855714D01*
X68552380Y-45855714D01*
X68647619Y-45903333D01*
X68695238Y-45998571D01*
X68695238Y-46093809D01*
X68219047Y-46189047D01*
X69123809Y-46522380D02*
X69123809Y-45855714D01*
X69123809Y-46046190D02*
X69171428Y-45950952D01*
X69219047Y-45903333D01*
X69314285Y-45855714D01*
X69409523Y-45855714D01*
X73343795Y-20483680D02*
X73343795Y-19483680D01*
X73677128Y-20197966D01*
X74010461Y-19483680D01*
X74010461Y-20483680D01*
X74915223Y-20483680D02*
X74915223Y-19959871D01*
X74867604Y-19864633D01*
X74772366Y-19817014D01*
X74581890Y-19817014D01*
X74486652Y-19864633D01*
X74915223Y-20436061D02*
X74819985Y-20483680D01*
X74581890Y-20483680D01*
X74486652Y-20436061D01*
X74439033Y-20340823D01*
X74439033Y-20245585D01*
X74486652Y-20150347D01*
X74581890Y-20102728D01*
X74819985Y-20102728D01*
X74915223Y-20055109D01*
X75248557Y-19817014D02*
X75629509Y-19817014D01*
X75391414Y-19483680D02*
X75391414Y-20340823D01*
X75439033Y-20436061D01*
X75534271Y-20483680D01*
X75629509Y-20483680D01*
X76343795Y-20436061D02*
X76248557Y-20483680D01*
X76058080Y-20483680D01*
X75962842Y-20436061D01*
X75915223Y-20340823D01*
X75915223Y-19959871D01*
X75962842Y-19864633D01*
X76058080Y-19817014D01*
X76248557Y-19817014D01*
X76343795Y-19864633D01*
X76391414Y-19959871D01*
X76391414Y-20055109D01*
X75915223Y-20150347D01*
X76819985Y-20483680D02*
X76819985Y-19817014D01*
X76819985Y-20007490D02*
X76867604Y-19912252D01*
X76915223Y-19864633D01*
X77010461Y-19817014D01*
X77105700Y-19817014D01*
X77439033Y-20483680D02*
X77439033Y-19817014D01*
X77439033Y-19483680D02*
X77391414Y-19531300D01*
X77439033Y-19578919D01*
X77486652Y-19531300D01*
X77439033Y-19483680D01*
X77439033Y-19578919D01*
X78343795Y-20483680D02*
X78343795Y-19959871D01*
X78296176Y-19864633D01*
X78200938Y-19817014D01*
X78010461Y-19817014D01*
X77915223Y-19864633D01*
X78343795Y-20436061D02*
X78248557Y-20483680D01*
X78010461Y-20483680D01*
X77915223Y-20436061D01*
X77867604Y-20340823D01*
X77867604Y-20245585D01*
X77915223Y-20150347D01*
X78010461Y-20102728D01*
X78248557Y-20102728D01*
X78343795Y-20055109D01*
X78962842Y-20483680D02*
X78867604Y-20436061D01*
X78819985Y-20340823D01*
X78819985Y-19483680D01*
X83605700Y-19483680D02*
X84177128Y-19483680D01*
X83891414Y-20483680D02*
X83891414Y-19483680D01*
X84510461Y-20483680D02*
X84510461Y-19483680D01*
X84939033Y-20483680D02*
X84939033Y-19959871D01*
X84891414Y-19864633D01*
X84796176Y-19817014D01*
X84653319Y-19817014D01*
X84558080Y-19864633D01*
X84510461Y-19912252D01*
X85415223Y-20483680D02*
X85415223Y-19817014D01*
X85415223Y-19483680D02*
X85367604Y-19531300D01*
X85415223Y-19578919D01*
X85462842Y-19531300D01*
X85415223Y-19483680D01*
X85415223Y-19578919D01*
X86319985Y-20436061D02*
X86224747Y-20483680D01*
X86034271Y-20483680D01*
X85939033Y-20436061D01*
X85891414Y-20388442D01*
X85843795Y-20293204D01*
X85843795Y-20007490D01*
X85891414Y-19912252D01*
X85939033Y-19864633D01*
X86034271Y-19817014D01*
X86224747Y-19817014D01*
X86319985Y-19864633D01*
X86748557Y-20483680D02*
X86748557Y-19483680D01*
X86843795Y-20102728D02*
X87129509Y-20483680D01*
X87129509Y-19817014D02*
X86748557Y-20197966D01*
X87558080Y-19817014D02*
X87558080Y-20483680D01*
X87558080Y-19912252D02*
X87605700Y-19864633D01*
X87700938Y-19817014D01*
X87843795Y-19817014D01*
X87939033Y-19864633D01*
X87986652Y-19959871D01*
X87986652Y-20483680D01*
X88843795Y-20436061D02*
X88748557Y-20483680D01*
X88558080Y-20483680D01*
X88462842Y-20436061D01*
X88415223Y-20340823D01*
X88415223Y-19959871D01*
X88462842Y-19864633D01*
X88558080Y-19817014D01*
X88748557Y-19817014D01*
X88843795Y-19864633D01*
X88891414Y-19959871D01*
X88891414Y-20055109D01*
X88415223Y-20150347D01*
X89272366Y-20436061D02*
X89367604Y-20483680D01*
X89558080Y-20483680D01*
X89653319Y-20436061D01*
X89700938Y-20340823D01*
X89700938Y-20293204D01*
X89653319Y-20197966D01*
X89558080Y-20150347D01*
X89415223Y-20150347D01*
X89319985Y-20102728D01*
X89272366Y-20007490D01*
X89272366Y-19959871D01*
X89319985Y-19864633D01*
X89415223Y-19817014D01*
X89558080Y-19817014D01*
X89653319Y-19864633D01*
X90081890Y-20436061D02*
X90177128Y-20483680D01*
X90367604Y-20483680D01*
X90462842Y-20436061D01*
X90510461Y-20340823D01*
X90510461Y-20293204D01*
X90462842Y-20197966D01*
X90367604Y-20150347D01*
X90224747Y-20150347D01*
X90129509Y-20102728D01*
X90081890Y-20007490D01*
X90081890Y-19959871D01*
X90129509Y-19864633D01*
X90224747Y-19817014D01*
X90367604Y-19817014D01*
X90462842Y-19864633D01*
X94558080Y-19483680D02*
X95129509Y-19483680D01*
X94843795Y-20483680D02*
X94843795Y-19483680D01*
X95367604Y-19817014D02*
X95605700Y-20483680D01*
X95843795Y-19817014D02*
X95605700Y-20483680D01*
X95510461Y-20721776D01*
X95462842Y-20769395D01*
X95367604Y-20817014D01*
X96224747Y-19817014D02*
X96224747Y-20817014D01*
X96224747Y-19864633D02*
X96319985Y-19817014D01*
X96510461Y-19817014D01*
X96605700Y-19864633D01*
X96653319Y-19912252D01*
X96700938Y-20007490D01*
X96700938Y-20293204D01*
X96653319Y-20388442D01*
X96605700Y-20436061D01*
X96510461Y-20483680D01*
X96319985Y-20483680D01*
X96224747Y-20436061D01*
X97510461Y-20436061D02*
X97415223Y-20483680D01*
X97224747Y-20483680D01*
X97129509Y-20436061D01*
X97081890Y-20340823D01*
X97081890Y-19959871D01*
X97129509Y-19864633D01*
X97224747Y-19817014D01*
X97415223Y-19817014D01*
X97510461Y-19864633D01*
X97558080Y-19959871D01*
X97558080Y-20055109D01*
X97081890Y-20150347D01*
X55391414Y-24483680D02*
X54819985Y-24483680D01*
X55105700Y-24483680D02*
X55105700Y-23483680D01*
X55010461Y-23626538D01*
X54915223Y-23721776D01*
X54819985Y-23769395D01*
X54819985Y-27578919D02*
X54867604Y-27531300D01*
X54962842Y-27483680D01*
X55200938Y-27483680D01*
X55296176Y-27531300D01*
X55343795Y-27578919D01*
X55391414Y-27674157D01*
X55391414Y-27769395D01*
X55343795Y-27912252D01*
X54772366Y-28483680D01*
X55391414Y-28483680D01*
X54772366Y-31483680D02*
X55391414Y-31483680D01*
X55058080Y-31864633D01*
X55200938Y-31864633D01*
X55296176Y-31912252D01*
X55343795Y-31959871D01*
X55391414Y-32055109D01*
X55391414Y-32293204D01*
X55343795Y-32388442D01*
X55296176Y-32436061D01*
X55200938Y-32483680D01*
X54915223Y-32483680D01*
X54819985Y-32436061D01*
X54772366Y-32388442D01*
X55296176Y-35817014D02*
X55296176Y-36483680D01*
X55058080Y-35436061D02*
X54819985Y-36150347D01*
X55439033Y-36150347D01*
X55343795Y-39547380D02*
X54867604Y-39547380D01*
X54819985Y-40023571D01*
X54867604Y-39975952D01*
X54962842Y-39928333D01*
X55200938Y-39928333D01*
X55296176Y-39975952D01*
X55343795Y-40023571D01*
X55391414Y-40118809D01*
X55391414Y-40356904D01*
X55343795Y-40452142D01*
X55296176Y-40499761D01*
X55200938Y-40547380D01*
X54962842Y-40547380D01*
X54867604Y-40499761D01*
X54819985Y-40452142D01*
X53843795Y-20483680D02*
X53367604Y-20483680D01*
X53367604Y-19483680D01*
X54605700Y-20483680D02*
X54605700Y-19959871D01*
X54558080Y-19864633D01*
X54462842Y-19817014D01*
X54272366Y-19817014D01*
X54177128Y-19864633D01*
X54605700Y-20436061D02*
X54510461Y-20483680D01*
X54272366Y-20483680D01*
X54177128Y-20436061D01*
X54129509Y-20340823D01*
X54129509Y-20245585D01*
X54177128Y-20150347D01*
X54272366Y-20102728D01*
X54510461Y-20102728D01*
X54605700Y-20055109D01*
X54986652Y-19817014D02*
X55224747Y-20483680D01*
X55462842Y-19817014D02*
X55224747Y-20483680D01*
X55129509Y-20721776D01*
X55081890Y-20769395D01*
X54986652Y-20817014D01*
X56224747Y-20436061D02*
X56129509Y-20483680D01*
X55939033Y-20483680D01*
X55843795Y-20436061D01*
X55796176Y-20340823D01*
X55796176Y-19959871D01*
X55843795Y-19864633D01*
X55939033Y-19817014D01*
X56129509Y-19817014D01*
X56224747Y-19864633D01*
X56272366Y-19959871D01*
X56272366Y-20055109D01*
X55796176Y-20150347D01*
X56700938Y-20483680D02*
X56700938Y-19817014D01*
X56700938Y-20007490D02*
X56748557Y-19912252D01*
X56796176Y-19864633D01*
X56891414Y-19817014D01*
X56986652Y-19817014D01*
X62272366Y-20483680D02*
X62272366Y-19483680D01*
X62843795Y-20483680D01*
X62843795Y-19483680D01*
X63748557Y-20483680D02*
X63748557Y-19959871D01*
X63700938Y-19864633D01*
X63605700Y-19817014D01*
X63415223Y-19817014D01*
X63319985Y-19864633D01*
X63748557Y-20436061D02*
X63653319Y-20483680D01*
X63415223Y-20483680D01*
X63319985Y-20436061D01*
X63272366Y-20340823D01*
X63272366Y-20245585D01*
X63319985Y-20150347D01*
X63415223Y-20102728D01*
X63653319Y-20102728D01*
X63748557Y-20055109D01*
X64224747Y-20483680D02*
X64224747Y-19817014D01*
X64224747Y-19912252D02*
X64272366Y-19864633D01*
X64367604Y-19817014D01*
X64510461Y-19817014D01*
X64605700Y-19864633D01*
X64653319Y-19959871D01*
X64653319Y-20483680D01*
X64653319Y-19959871D02*
X64700938Y-19864633D01*
X64796176Y-19817014D01*
X64939033Y-19817014D01*
X65034271Y-19864633D01*
X65081890Y-19959871D01*
X65081890Y-20483680D01*
X65939033Y-20436061D02*
X65843795Y-20483680D01*
X65653319Y-20483680D01*
X65558080Y-20436061D01*
X65510461Y-20340823D01*
X65510461Y-19959871D01*
X65558080Y-19864633D01*
X65653319Y-19817014D01*
X65843795Y-19817014D01*
X65939033Y-19864633D01*
X65986652Y-19959871D01*
X65986652Y-20055109D01*
X65510461Y-20150347D01*
X84827128Y-35483680D02*
X85446176Y-35483680D01*
X85112842Y-35864633D01*
X85255700Y-35864633D01*
X85350938Y-35912252D01*
X85398557Y-35959871D01*
X85446176Y-36055109D01*
X85446176Y-36293204D01*
X85398557Y-36388442D01*
X85350938Y-36436061D01*
X85255700Y-36483680D01*
X84969985Y-36483680D01*
X84874747Y-36436061D01*
X84827128Y-36388442D01*
X86350938Y-35483680D02*
X85874747Y-35483680D01*
X85827128Y-35959871D01*
X85874747Y-35912252D01*
X85969985Y-35864633D01*
X86208080Y-35864633D01*
X86303319Y-35912252D01*
X86350938Y-35959871D01*
X86398557Y-36055109D01*
X86398557Y-36293204D01*
X86350938Y-36388442D01*
X86303319Y-36436061D01*
X86208080Y-36483680D01*
X85969985Y-36483680D01*
X85874747Y-36436061D01*
X85827128Y-36388442D01*
X87255700Y-35817014D02*
X87255700Y-36483680D01*
X86827128Y-35817014D02*
X86827128Y-36340823D01*
X86874747Y-36436061D01*
X86969985Y-36483680D01*
X87112842Y-36483680D01*
X87208080Y-36436061D01*
X87255700Y-36388442D01*
X87731890Y-36483680D02*
X87731890Y-35817014D01*
X87731890Y-35912252D02*
X87779509Y-35864633D01*
X87874747Y-35817014D01*
X88017604Y-35817014D01*
X88112842Y-35864633D01*
X88160461Y-35959871D01*
X88160461Y-36483680D01*
X88160461Y-35959871D02*
X88208080Y-35864633D01*
X88303319Y-35817014D01*
X88446176Y-35817014D01*
X88541414Y-35864633D01*
X88589033Y-35959871D01*
X88589033Y-36483680D01*
D11*
X52105700Y-21031300D02*
X51105700Y-21031300D01*
X51105700Y-23031300D02*
X91105700Y-23031300D01*
D10*
X84874747Y-23578919D02*
X84922366Y-23531300D01*
X85017604Y-23483680D01*
X85255700Y-23483680D01*
X85350938Y-23531300D01*
X85398557Y-23578919D01*
X85446176Y-23674157D01*
X85446176Y-23769395D01*
X85398557Y-23912252D01*
X84827128Y-24483680D01*
X85446176Y-24483680D01*
X86350938Y-23483680D02*
X85874747Y-23483680D01*
X85827128Y-23959871D01*
X85874747Y-23912252D01*
X85969985Y-23864633D01*
X86208080Y-23864633D01*
X86303319Y-23912252D01*
X86350938Y-23959871D01*
X86398557Y-24055109D01*
X86398557Y-24293204D01*
X86350938Y-24388442D01*
X86303319Y-24436061D01*
X86208080Y-24483680D01*
X85969985Y-24483680D01*
X85874747Y-24436061D01*
X85827128Y-24388442D01*
X87255700Y-23817014D02*
X87255700Y-24483680D01*
X86827128Y-23817014D02*
X86827128Y-24340823D01*
X86874747Y-24436061D01*
X86969985Y-24483680D01*
X87112842Y-24483680D01*
X87208080Y-24436061D01*
X87255700Y-24388442D01*
X87731890Y-24483680D02*
X87731890Y-23817014D01*
X87731890Y-23912252D02*
X87779509Y-23864633D01*
X87874747Y-23817014D01*
X88017604Y-23817014D01*
X88112842Y-23864633D01*
X88160461Y-23959871D01*
X88160461Y-24483680D01*
X88160461Y-23959871D02*
X88208080Y-23864633D01*
X88303319Y-23817014D01*
X88446176Y-23817014D01*
X88541414Y-23864633D01*
X88589033Y-23959871D01*
X88589033Y-24483680D01*
D11*
X91105700Y-21031300D02*
X101105700Y-21031300D01*
D10*
X91748809Y-24399761D02*
X91891667Y-24447380D01*
X92129762Y-24447380D01*
X92225000Y-24399761D01*
X92272619Y-24352142D01*
X92320238Y-24256904D01*
X92320238Y-24161666D01*
X92272619Y-24066428D01*
X92225000Y-24018809D01*
X92129762Y-23971190D01*
X91939286Y-23923571D01*
X91844047Y-23875952D01*
X91796428Y-23828333D01*
X91748809Y-23733095D01*
X91748809Y-23637857D01*
X91796428Y-23542619D01*
X91844047Y-23495000D01*
X91939286Y-23447380D01*
X92177381Y-23447380D01*
X92320238Y-23495000D01*
X92748809Y-24447380D02*
X92748809Y-23780714D01*
X92748809Y-23447380D02*
X92701190Y-23495000D01*
X92748809Y-23542619D01*
X92796428Y-23495000D01*
X92748809Y-23447380D01*
X92748809Y-23542619D01*
X93653571Y-23780714D02*
X93653571Y-24590238D01*
X93605952Y-24685476D01*
X93558333Y-24733095D01*
X93463095Y-24780714D01*
X93320238Y-24780714D01*
X93225000Y-24733095D01*
X93653571Y-24399761D02*
X93558333Y-24447380D01*
X93367857Y-24447380D01*
X93272619Y-24399761D01*
X93225000Y-24352142D01*
X93177381Y-24256904D01*
X93177381Y-23971190D01*
X93225000Y-23875952D01*
X93272619Y-23828333D01*
X93367857Y-23780714D01*
X93558333Y-23780714D01*
X93653571Y-23828333D01*
X94129762Y-23780714D02*
X94129762Y-24447380D01*
X94129762Y-23875952D02*
X94177381Y-23828333D01*
X94272619Y-23780714D01*
X94415476Y-23780714D01*
X94510714Y-23828333D01*
X94558333Y-23923571D01*
X94558333Y-24447380D01*
X95463095Y-24447380D02*
X95463095Y-23923571D01*
X95415476Y-23828333D01*
X95320238Y-23780714D01*
X95129762Y-23780714D01*
X95034524Y-23828333D01*
X95463095Y-24399761D02*
X95367857Y-24447380D01*
X95129762Y-24447380D01*
X95034524Y-24399761D01*
X94986905Y-24304523D01*
X94986905Y-24209285D01*
X95034524Y-24114047D01*
X95129762Y-24066428D01*
X95367857Y-24066428D01*
X95463095Y-24018809D01*
X96082143Y-24447380D02*
X95986905Y-24399761D01*
X95939286Y-24304523D01*
X95939286Y-23447380D01*
X91796428Y-32467380D02*
X91796428Y-31467380D01*
X92177380Y-31467380D01*
X92272619Y-31515000D01*
X92320238Y-31562619D01*
X92367857Y-31657857D01*
X92367857Y-31800714D01*
X92320238Y-31895952D01*
X92272619Y-31943571D01*
X92177380Y-31991190D01*
X91796428Y-31991190D01*
X92939285Y-32467380D02*
X92844047Y-32419761D01*
X92796428Y-32324523D01*
X92796428Y-31467380D01*
X93748809Y-32467380D02*
X93748809Y-31943571D01*
X93701190Y-31848333D01*
X93605952Y-31800714D01*
X93415476Y-31800714D01*
X93320238Y-31848333D01*
X93748809Y-32419761D02*
X93653571Y-32467380D01*
X93415476Y-32467380D01*
X93320238Y-32419761D01*
X93272619Y-32324523D01*
X93272619Y-32229285D01*
X93320238Y-32134047D01*
X93415476Y-32086428D01*
X93653571Y-32086428D01*
X93748809Y-32038809D01*
X94225000Y-31800714D02*
X94225000Y-32467380D01*
X94225000Y-31895952D02*
X94272619Y-31848333D01*
X94367857Y-31800714D01*
X94510714Y-31800714D01*
X94605952Y-31848333D01*
X94653571Y-31943571D01*
X94653571Y-32467380D01*
X95510714Y-32419761D02*
X95415476Y-32467380D01*
X95225000Y-32467380D01*
X95129761Y-32419761D01*
X95082142Y-32324523D01*
X95082142Y-31943571D01*
X95129761Y-31848333D01*
X95225000Y-31800714D01*
X95415476Y-31800714D01*
X95510714Y-31848333D01*
X95558333Y-31943571D01*
X95558333Y-32038809D01*
X95082142Y-32134047D01*
X97034523Y-32848333D02*
X96986904Y-32800714D01*
X96891666Y-32657857D01*
X96844047Y-32562619D01*
X96796428Y-32419761D01*
X96748809Y-32181666D01*
X96748809Y-31991190D01*
X96796428Y-31753095D01*
X96844047Y-31610238D01*
X96891666Y-31515000D01*
X96986904Y-31372142D01*
X97034523Y-31324523D01*
X97939285Y-31515000D02*
X97844047Y-31467380D01*
X97701190Y-31467380D01*
X97558333Y-31515000D01*
X97463095Y-31610238D01*
X97415476Y-31705476D01*
X97367857Y-31895952D01*
X97367857Y-32038809D01*
X97415476Y-32229285D01*
X97463095Y-32324523D01*
X97558333Y-32419761D01*
X97701190Y-32467380D01*
X97796428Y-32467380D01*
X97939285Y-32419761D01*
X97986904Y-32372142D01*
X97986904Y-32038809D01*
X97796428Y-32038809D01*
X98415476Y-32467380D02*
X98415476Y-31467380D01*
X98986904Y-32467380D01*
X98986904Y-31467380D01*
X99463095Y-32467380D02*
X99463095Y-31467380D01*
X99701190Y-31467380D01*
X99844047Y-31515000D01*
X99939285Y-31610238D01*
X99986904Y-31705476D01*
X100034523Y-31895952D01*
X100034523Y-32038809D01*
X99986904Y-32229285D01*
X99939285Y-32324523D01*
X99844047Y-32419761D01*
X99701190Y-32467380D01*
X99463095Y-32467380D01*
X100367857Y-32848333D02*
X100415476Y-32800714D01*
X100510714Y-32657857D01*
X100558333Y-32562619D01*
X100605952Y-32419761D01*
X100653571Y-32181666D01*
X100653571Y-31991190D01*
X100605952Y-31753095D01*
X100558333Y-31610238D01*
X100510714Y-31515000D01*
X100415476Y-31372142D01*
X100367857Y-31324523D01*
X91796428Y-36477380D02*
X91796428Y-35477380D01*
X92177380Y-35477380D01*
X92272619Y-35525000D01*
X92320238Y-35572619D01*
X92367857Y-35667857D01*
X92367857Y-35810714D01*
X92320238Y-35905952D01*
X92272619Y-35953571D01*
X92177380Y-36001190D01*
X91796428Y-36001190D01*
X92939285Y-36477380D02*
X92844047Y-36429761D01*
X92796428Y-36334523D01*
X92796428Y-35477380D01*
X93748809Y-36477380D02*
X93748809Y-35953571D01*
X93701190Y-35858333D01*
X93605952Y-35810714D01*
X93415476Y-35810714D01*
X93320238Y-35858333D01*
X93748809Y-36429761D02*
X93653571Y-36477380D01*
X93415476Y-36477380D01*
X93320238Y-36429761D01*
X93272619Y-36334523D01*
X93272619Y-36239285D01*
X93320238Y-36144047D01*
X93415476Y-36096428D01*
X93653571Y-36096428D01*
X93748809Y-36048809D01*
X94225000Y-35810714D02*
X94225000Y-36477380D01*
X94225000Y-35905952D02*
X94272619Y-35858333D01*
X94367857Y-35810714D01*
X94510714Y-35810714D01*
X94605952Y-35858333D01*
X94653571Y-35953571D01*
X94653571Y-36477380D01*
X95510714Y-36429761D02*
X95415476Y-36477380D01*
X95225000Y-36477380D01*
X95129761Y-36429761D01*
X95082142Y-36334523D01*
X95082142Y-35953571D01*
X95129761Y-35858333D01*
X95225000Y-35810714D01*
X95415476Y-35810714D01*
X95510714Y-35858333D01*
X95558333Y-35953571D01*
X95558333Y-36048809D01*
X95082142Y-36144047D01*
X97034523Y-36858333D02*
X96986904Y-36810714D01*
X96891666Y-36667857D01*
X96844047Y-36572619D01*
X96796428Y-36429761D01*
X96748809Y-36191666D01*
X96748809Y-36001190D01*
X96796428Y-35763095D01*
X96844047Y-35620238D01*
X96891666Y-35525000D01*
X96986904Y-35382142D01*
X97034523Y-35334523D01*
X97939285Y-35525000D02*
X97844047Y-35477380D01*
X97701190Y-35477380D01*
X97558333Y-35525000D01*
X97463095Y-35620238D01*
X97415476Y-35715476D01*
X97367857Y-35905952D01*
X97367857Y-36048809D01*
X97415476Y-36239285D01*
X97463095Y-36334523D01*
X97558333Y-36429761D01*
X97701190Y-36477380D01*
X97796428Y-36477380D01*
X97939285Y-36429761D01*
X97986904Y-36382142D01*
X97986904Y-36048809D01*
X97796428Y-36048809D01*
X98415476Y-36477380D02*
X98415476Y-35477380D01*
X98986904Y-36477380D01*
X98986904Y-35477380D01*
X99463095Y-36477380D02*
X99463095Y-35477380D01*
X99701190Y-35477380D01*
X99844047Y-35525000D01*
X99939285Y-35620238D01*
X99986904Y-35715476D01*
X100034523Y-35905952D01*
X100034523Y-36048809D01*
X99986904Y-36239285D01*
X99939285Y-36334523D01*
X99844047Y-36429761D01*
X99701190Y-36477380D01*
X99463095Y-36477380D01*
X100367857Y-36858333D02*
X100415476Y-36810714D01*
X100510714Y-36667857D01*
X100558333Y-36572619D01*
X100605952Y-36429761D01*
X100653571Y-36191666D01*
X100653571Y-36001190D01*
X100605952Y-35763095D01*
X100558333Y-35620238D01*
X100510714Y-35525000D01*
X100415476Y-35382142D01*
X100367857Y-35334523D01*
X91748809Y-28409761D02*
X91891667Y-28457380D01*
X92129762Y-28457380D01*
X92225000Y-28409761D01*
X92272619Y-28362142D01*
X92320238Y-28266904D01*
X92320238Y-28171666D01*
X92272619Y-28076428D01*
X92225000Y-28028809D01*
X92129762Y-27981190D01*
X91939286Y-27933571D01*
X91844047Y-27885952D01*
X91796428Y-27838333D01*
X91748809Y-27743095D01*
X91748809Y-27647857D01*
X91796428Y-27552619D01*
X91844047Y-27505000D01*
X91939286Y-27457380D01*
X92177381Y-27457380D01*
X92320238Y-27505000D01*
X92748809Y-28457380D02*
X92748809Y-27790714D01*
X92748809Y-27457380D02*
X92701190Y-27505000D01*
X92748809Y-27552619D01*
X92796428Y-27505000D01*
X92748809Y-27457380D01*
X92748809Y-27552619D01*
X93653571Y-27790714D02*
X93653571Y-28600238D01*
X93605952Y-28695476D01*
X93558333Y-28743095D01*
X93463095Y-28790714D01*
X93320238Y-28790714D01*
X93225000Y-28743095D01*
X93653571Y-28409761D02*
X93558333Y-28457380D01*
X93367857Y-28457380D01*
X93272619Y-28409761D01*
X93225000Y-28362142D01*
X93177381Y-28266904D01*
X93177381Y-27981190D01*
X93225000Y-27885952D01*
X93272619Y-27838333D01*
X93367857Y-27790714D01*
X93558333Y-27790714D01*
X93653571Y-27838333D01*
X94129762Y-27790714D02*
X94129762Y-28457380D01*
X94129762Y-27885952D02*
X94177381Y-27838333D01*
X94272619Y-27790714D01*
X94415476Y-27790714D01*
X94510714Y-27838333D01*
X94558333Y-27933571D01*
X94558333Y-28457380D01*
X95463095Y-28457380D02*
X95463095Y-27933571D01*
X95415476Y-27838333D01*
X95320238Y-27790714D01*
X95129762Y-27790714D01*
X95034524Y-27838333D01*
X95463095Y-28409761D02*
X95367857Y-28457380D01*
X95129762Y-28457380D01*
X95034524Y-28409761D01*
X94986905Y-28314523D01*
X94986905Y-28219285D01*
X95034524Y-28124047D01*
X95129762Y-28076428D01*
X95367857Y-28076428D01*
X95463095Y-28028809D01*
X96082143Y-28457380D02*
X95986905Y-28409761D01*
X95939286Y-28314523D01*
X95939286Y-27457380D01*
X91748809Y-40439761D02*
X91891667Y-40487380D01*
X92129762Y-40487380D01*
X92225000Y-40439761D01*
X92272619Y-40392142D01*
X92320238Y-40296904D01*
X92320238Y-40201666D01*
X92272619Y-40106428D01*
X92225000Y-40058809D01*
X92129762Y-40011190D01*
X91939286Y-39963571D01*
X91844047Y-39915952D01*
X91796428Y-39868333D01*
X91748809Y-39773095D01*
X91748809Y-39677857D01*
X91796428Y-39582619D01*
X91844047Y-39535000D01*
X91939286Y-39487380D01*
X92177381Y-39487380D01*
X92320238Y-39535000D01*
X92748809Y-40487380D02*
X92748809Y-39820714D01*
X92748809Y-39487380D02*
X92701190Y-39535000D01*
X92748809Y-39582619D01*
X92796428Y-39535000D01*
X92748809Y-39487380D01*
X92748809Y-39582619D01*
X93653571Y-39820714D02*
X93653571Y-40630238D01*
X93605952Y-40725476D01*
X93558333Y-40773095D01*
X93463095Y-40820714D01*
X93320238Y-40820714D01*
X93225000Y-40773095D01*
X93653571Y-40439761D02*
X93558333Y-40487380D01*
X93367857Y-40487380D01*
X93272619Y-40439761D01*
X93225000Y-40392142D01*
X93177381Y-40296904D01*
X93177381Y-40011190D01*
X93225000Y-39915952D01*
X93272619Y-39868333D01*
X93367857Y-39820714D01*
X93558333Y-39820714D01*
X93653571Y-39868333D01*
X94129762Y-39820714D02*
X94129762Y-40487380D01*
X94129762Y-39915952D02*
X94177381Y-39868333D01*
X94272619Y-39820714D01*
X94415476Y-39820714D01*
X94510714Y-39868333D01*
X94558333Y-39963571D01*
X94558333Y-40487380D01*
X95463095Y-40487380D02*
X95463095Y-39963571D01*
X95415476Y-39868333D01*
X95320238Y-39820714D01*
X95129762Y-39820714D01*
X95034524Y-39868333D01*
X95463095Y-40439761D02*
X95367857Y-40487380D01*
X95129762Y-40487380D01*
X95034524Y-40439761D01*
X94986905Y-40344523D01*
X94986905Y-40249285D01*
X95034524Y-40154047D01*
X95129762Y-40106428D01*
X95367857Y-40106428D01*
X95463095Y-40058809D01*
X96082143Y-40487380D02*
X95986905Y-40439761D01*
X95939286Y-40344523D01*
X95939286Y-39487380D01*
D11*
X51105700Y-25031300D02*
X91105700Y-25031300D01*
X51105700Y-27031300D02*
X91105700Y-27031300D01*
X51105700Y-29031300D02*
X91105700Y-29031300D01*
X51105700Y-31031300D02*
X91105700Y-31031300D01*
X51105700Y-33031300D02*
X91105700Y-33031300D01*
X51105700Y-35031300D02*
X91105700Y-35031300D01*
X51105700Y-37031300D02*
X91105700Y-37031300D01*
X51105700Y-39031300D02*
X91105700Y-39031300D01*
X51105700Y-19031300D02*
X51105700Y-47095000D01*
X51105700Y-19031300D02*
X91105700Y-19031300D01*
X52105700Y-21031300D02*
X91105700Y-21031300D01*
X91105700Y-37031300D02*
X101105700Y-37031300D01*
X91105700Y-31031300D02*
X101105700Y-31031300D01*
D12*
X52269985Y-17489871D02*
X51769985Y-16775585D01*
X51412842Y-17489871D02*
X51412842Y-15989871D01*
X51984271Y-15989871D01*
X52127128Y-16061300D01*
X52198557Y-16132728D01*
X52269985Y-16275585D01*
X52269985Y-16489871D01*
X52198557Y-16632728D01*
X52127128Y-16704157D01*
X51984271Y-16775585D01*
X51412842Y-16775585D01*
X53484271Y-17418442D02*
X53341414Y-17489871D01*
X53055700Y-17489871D01*
X52912842Y-17418442D01*
X52841414Y-17275585D01*
X52841414Y-16704157D01*
X52912842Y-16561300D01*
X53055700Y-16489871D01*
X53341414Y-16489871D01*
X53484271Y-16561300D01*
X53555700Y-16704157D01*
X53555700Y-16847014D01*
X52841414Y-16989871D01*
X54841414Y-17418442D02*
X54698557Y-17489871D01*
X54412842Y-17489871D01*
X54269985Y-17418442D01*
X54198557Y-17347014D01*
X54127128Y-17204157D01*
X54127128Y-16775585D01*
X54198557Y-16632728D01*
X54269985Y-16561300D01*
X54412842Y-16489871D01*
X54698557Y-16489871D01*
X54841414Y-16561300D01*
X55698557Y-17489871D02*
X55555700Y-17418442D01*
X55484271Y-17347014D01*
X55412842Y-17204157D01*
X55412842Y-16775585D01*
X55484271Y-16632728D01*
X55555700Y-16561300D01*
X55698557Y-16489871D01*
X55912842Y-16489871D01*
X56055700Y-16561300D01*
X56127128Y-16632728D01*
X56198557Y-16775585D01*
X56198557Y-17204157D01*
X56127128Y-17347014D01*
X56055700Y-17418442D01*
X55912842Y-17489871D01*
X55698557Y-17489871D01*
X56841414Y-17489871D02*
X56841414Y-16489871D01*
X56841414Y-16632728D02*
X56912842Y-16561300D01*
X57055700Y-16489871D01*
X57269985Y-16489871D01*
X57412842Y-16561300D01*
X57484271Y-16704157D01*
X57484271Y-17489871D01*
X57484271Y-16704157D02*
X57555700Y-16561300D01*
X57698557Y-16489871D01*
X57912842Y-16489871D01*
X58055700Y-16561300D01*
X58127128Y-16704157D01*
X58127128Y-17489871D01*
X58841414Y-17489871D02*
X58841414Y-16489871D01*
X58841414Y-16632728D02*
X58912842Y-16561300D01*
X59055700Y-16489871D01*
X59269985Y-16489871D01*
X59412842Y-16561300D01*
X59484271Y-16704157D01*
X59484271Y-17489871D01*
X59484271Y-16704157D02*
X59555700Y-16561300D01*
X59698557Y-16489871D01*
X59912842Y-16489871D01*
X60055700Y-16561300D01*
X60127128Y-16704157D01*
X60127128Y-17489871D01*
X61412842Y-17418442D02*
X61269985Y-17489871D01*
X60984271Y-17489871D01*
X60841414Y-17418442D01*
X60769985Y-17275585D01*
X60769985Y-16704157D01*
X60841414Y-16561300D01*
X60984271Y-16489871D01*
X61269985Y-16489871D01*
X61412842Y-16561300D01*
X61484271Y-16704157D01*
X61484271Y-16847014D01*
X60769985Y-16989871D01*
X62127128Y-16489871D02*
X62127128Y-17489871D01*
X62127128Y-16632728D02*
X62198557Y-16561300D01*
X62341414Y-16489871D01*
X62555700Y-16489871D01*
X62698557Y-16561300D01*
X62769985Y-16704157D01*
X62769985Y-17489871D01*
X64127128Y-17489871D02*
X64127128Y-15989871D01*
X64127128Y-17418442D02*
X63984271Y-17489871D01*
X63698557Y-17489871D01*
X63555700Y-17418442D01*
X63484271Y-17347014D01*
X63412842Y-17204157D01*
X63412842Y-16775585D01*
X63484271Y-16632728D01*
X63555700Y-16561300D01*
X63698557Y-16489871D01*
X63984271Y-16489871D01*
X64127128Y-16561300D01*
X65412842Y-17418442D02*
X65269985Y-17489871D01*
X64984271Y-17489871D01*
X64841414Y-17418442D01*
X64769985Y-17275585D01*
X64769985Y-16704157D01*
X64841414Y-16561300D01*
X64984271Y-16489871D01*
X65269985Y-16489871D01*
X65412842Y-16561300D01*
X65484271Y-16704157D01*
X65484271Y-16847014D01*
X64769985Y-16989871D01*
X66769985Y-17489871D02*
X66769985Y-15989871D01*
X66769985Y-17418442D02*
X66627128Y-17489871D01*
X66341414Y-17489871D01*
X66198557Y-17418442D01*
X66127128Y-17347014D01*
X66055700Y-17204157D01*
X66055700Y-16775585D01*
X66127128Y-16632728D01*
X66198557Y-16561300D01*
X66341414Y-16489871D01*
X66627128Y-16489871D01*
X66769985Y-16561300D01*
X68627128Y-17489871D02*
X68627128Y-15989871D01*
X69198557Y-15989871D01*
X69341414Y-16061300D01*
X69412842Y-16132728D01*
X69484271Y-16275585D01*
X69484271Y-16489871D01*
X69412842Y-16632728D01*
X69341414Y-16704157D01*
X69198557Y-16775585D01*
X68627128Y-16775585D01*
X70984271Y-17347014D02*
X70912842Y-17418442D01*
X70698557Y-17489871D01*
X70555700Y-17489871D01*
X70341414Y-17418442D01*
X70198557Y-17275585D01*
X70127128Y-17132728D01*
X70055700Y-16847014D01*
X70055700Y-16632728D01*
X70127128Y-16347014D01*
X70198557Y-16204157D01*
X70341414Y-16061300D01*
X70555700Y-15989871D01*
X70698557Y-15989871D01*
X70912842Y-16061300D01*
X70984271Y-16132728D01*
X72127128Y-16704157D02*
X72341414Y-16775585D01*
X72412842Y-16847014D01*
X72484271Y-16989871D01*
X72484271Y-17204157D01*
X72412842Y-17347014D01*
X72341414Y-17418442D01*
X72198557Y-17489871D01*
X71627128Y-17489871D01*
X71627128Y-15989871D01*
X72127128Y-15989871D01*
X72269985Y-16061300D01*
X72341414Y-16132728D01*
X72412842Y-16275585D01*
X72412842Y-16418442D01*
X72341414Y-16561300D01*
X72269985Y-16632728D01*
X72127128Y-16704157D01*
X71627128Y-16704157D01*
X74198557Y-17418442D02*
X74341414Y-17489871D01*
X74627128Y-17489871D01*
X74769985Y-17418442D01*
X74841414Y-17275585D01*
X74841414Y-17204157D01*
X74769985Y-17061300D01*
X74627128Y-16989871D01*
X74412842Y-16989871D01*
X74269985Y-16918442D01*
X74198557Y-16775585D01*
X74198557Y-16704157D01*
X74269985Y-16561300D01*
X74412842Y-16489871D01*
X74627128Y-16489871D01*
X74769985Y-16561300D01*
X75269985Y-16489871D02*
X75841414Y-16489871D01*
X75484271Y-15989871D02*
X75484271Y-17275585D01*
X75555700Y-17418442D01*
X75698557Y-17489871D01*
X75841414Y-17489871D01*
X76984271Y-17489871D02*
X76984271Y-16704157D01*
X76912842Y-16561300D01*
X76769985Y-16489871D01*
X76484271Y-16489871D01*
X76341414Y-16561300D01*
X76984271Y-17418442D02*
X76841414Y-17489871D01*
X76484271Y-17489871D01*
X76341414Y-17418442D01*
X76269985Y-17275585D01*
X76269985Y-17132728D01*
X76341414Y-16989871D01*
X76484271Y-16918442D01*
X76841414Y-16918442D01*
X76984271Y-16847014D01*
X78341414Y-17418442D02*
X78198557Y-17489871D01*
X77912842Y-17489871D01*
X77769985Y-17418442D01*
X77698557Y-17347014D01*
X77627128Y-17204157D01*
X77627128Y-16775585D01*
X77698557Y-16632728D01*
X77769985Y-16561300D01*
X77912842Y-16489871D01*
X78198557Y-16489871D01*
X78341414Y-16561300D01*
X78984271Y-17489871D02*
X78984271Y-15989871D01*
X79127128Y-16918442D02*
X79555700Y-17489871D01*
X79555700Y-16489871D02*
X78984271Y-17061300D01*
X80841414Y-16489871D02*
X80841414Y-17489871D01*
X80198557Y-16489871D02*
X80198557Y-17275585D01*
X80269985Y-17418442D01*
X80412842Y-17489871D01*
X80627128Y-17489871D01*
X80769985Y-17418442D01*
X80841414Y-17347014D01*
X81555700Y-16489871D02*
X81555700Y-17989871D01*
X81555700Y-16561300D02*
X81698557Y-16489871D01*
X81984271Y-16489871D01*
X82127128Y-16561300D01*
X82198557Y-16632728D01*
X82269985Y-16775585D01*
X82269985Y-17204157D01*
X82198557Y-17347014D01*
X82127128Y-17418442D01*
X81984271Y-17489871D01*
X81698557Y-17489871D01*
X81555700Y-17418442D01*
D10*
X51942023Y-64796380D02*
X51608690Y-64320190D01*
X51370595Y-64796380D02*
X51370595Y-63796380D01*
X51751547Y-63796380D01*
X51846785Y-63844000D01*
X51894404Y-63891619D01*
X51942023Y-63986857D01*
X51942023Y-64129714D01*
X51894404Y-64224952D01*
X51846785Y-64272571D01*
X51751547Y-64320190D01*
X51370595Y-64320190D01*
X52751547Y-64748761D02*
X52656309Y-64796380D01*
X52465833Y-64796380D01*
X52370595Y-64748761D01*
X52322976Y-64653523D01*
X52322976Y-64272571D01*
X52370595Y-64177333D01*
X52465833Y-64129714D01*
X52656309Y-64129714D01*
X52751547Y-64177333D01*
X52799166Y-64272571D01*
X52799166Y-64367809D01*
X52322976Y-64463047D01*
X53656309Y-64748761D02*
X53561071Y-64796380D01*
X53370595Y-64796380D01*
X53275357Y-64748761D01*
X53227738Y-64701142D01*
X53180119Y-64605904D01*
X53180119Y-64320190D01*
X53227738Y-64224952D01*
X53275357Y-64177333D01*
X53370595Y-64129714D01*
X53561071Y-64129714D01*
X53656309Y-64177333D01*
X54227738Y-64796380D02*
X54132500Y-64748761D01*
X54084880Y-64701142D01*
X54037261Y-64605904D01*
X54037261Y-64320190D01*
X54084880Y-64224952D01*
X54132500Y-64177333D01*
X54227738Y-64129714D01*
X54370595Y-64129714D01*
X54465833Y-64177333D01*
X54513452Y-64224952D01*
X54561071Y-64320190D01*
X54561071Y-64605904D01*
X54513452Y-64701142D01*
X54465833Y-64748761D01*
X54370595Y-64796380D01*
X54227738Y-64796380D01*
X54989642Y-64796380D02*
X54989642Y-64129714D01*
X54989642Y-64224952D02*
X55037261Y-64177333D01*
X55132500Y-64129714D01*
X55275357Y-64129714D01*
X55370595Y-64177333D01*
X55418214Y-64272571D01*
X55418214Y-64796380D01*
X55418214Y-64272571D02*
X55465833Y-64177333D01*
X55561071Y-64129714D01*
X55703928Y-64129714D01*
X55799166Y-64177333D01*
X55846785Y-64272571D01*
X55846785Y-64796380D01*
X56322976Y-64796380D02*
X56322976Y-64129714D01*
X56322976Y-64224952D02*
X56370595Y-64177333D01*
X56465833Y-64129714D01*
X56608690Y-64129714D01*
X56703928Y-64177333D01*
X56751547Y-64272571D01*
X56751547Y-64796380D01*
X56751547Y-64272571D02*
X56799166Y-64177333D01*
X56894404Y-64129714D01*
X57037261Y-64129714D01*
X57132500Y-64177333D01*
X57180119Y-64272571D01*
X57180119Y-64796380D01*
X58037261Y-64748761D02*
X57942023Y-64796380D01*
X57751547Y-64796380D01*
X57656309Y-64748761D01*
X57608690Y-64653523D01*
X57608690Y-64272571D01*
X57656309Y-64177333D01*
X57751547Y-64129714D01*
X57942023Y-64129714D01*
X58037261Y-64177333D01*
X58084880Y-64272571D01*
X58084880Y-64367809D01*
X57608690Y-64463047D01*
X58513452Y-64129714D02*
X58513452Y-64796380D01*
X58513452Y-64224952D02*
X58561071Y-64177333D01*
X58656309Y-64129714D01*
X58799166Y-64129714D01*
X58894404Y-64177333D01*
X58942023Y-64272571D01*
X58942023Y-64796380D01*
X59846785Y-64796380D02*
X59846785Y-63796380D01*
X59846785Y-64748761D02*
X59751547Y-64796380D01*
X59561071Y-64796380D01*
X59465833Y-64748761D01*
X59418214Y-64701142D01*
X59370595Y-64605904D01*
X59370595Y-64320190D01*
X59418214Y-64224952D01*
X59465833Y-64177333D01*
X59561071Y-64129714D01*
X59751547Y-64129714D01*
X59846785Y-64177333D01*
X60703928Y-64748761D02*
X60608690Y-64796380D01*
X60418214Y-64796380D01*
X60322976Y-64748761D01*
X60275357Y-64653523D01*
X60275357Y-64272571D01*
X60322976Y-64177333D01*
X60418214Y-64129714D01*
X60608690Y-64129714D01*
X60703928Y-64177333D01*
X60751547Y-64272571D01*
X60751547Y-64367809D01*
X60275357Y-64463047D01*
X61608690Y-64796380D02*
X61608690Y-63796380D01*
X61608690Y-64748761D02*
X61513452Y-64796380D01*
X61322976Y-64796380D01*
X61227738Y-64748761D01*
X61180119Y-64701142D01*
X61132500Y-64605904D01*
X61132500Y-64320190D01*
X61180119Y-64224952D01*
X61227738Y-64177333D01*
X61322976Y-64129714D01*
X61513452Y-64129714D01*
X61608690Y-64177333D01*
X62846785Y-64796380D02*
X62846785Y-63796380D01*
X63227738Y-63796380D01*
X63322976Y-63844000D01*
X63370595Y-63891619D01*
X63418214Y-63986857D01*
X63418214Y-64129714D01*
X63370595Y-64224952D01*
X63322976Y-64272571D01*
X63227738Y-64320190D01*
X62846785Y-64320190D01*
X64418214Y-64701142D02*
X64370595Y-64748761D01*
X64227738Y-64796380D01*
X64132500Y-64796380D01*
X63989642Y-64748761D01*
X63894404Y-64653523D01*
X63846785Y-64558285D01*
X63799166Y-64367809D01*
X63799166Y-64224952D01*
X63846785Y-64034476D01*
X63894404Y-63939238D01*
X63989642Y-63844000D01*
X64132500Y-63796380D01*
X64227738Y-63796380D01*
X64370595Y-63844000D01*
X64418214Y-63891619D01*
X65180119Y-64272571D02*
X65322976Y-64320190D01*
X65370595Y-64367809D01*
X65418214Y-64463047D01*
X65418214Y-64605904D01*
X65370595Y-64701142D01*
X65322976Y-64748761D01*
X65227738Y-64796380D01*
X64846785Y-64796380D01*
X64846785Y-63796380D01*
X65180119Y-63796380D01*
X65275357Y-63844000D01*
X65322976Y-63891619D01*
X65370595Y-63986857D01*
X65370595Y-64082095D01*
X65322976Y-64177333D01*
X65275357Y-64224952D01*
X65180119Y-64272571D01*
X64846785Y-64272571D01*
X66465833Y-64129714D02*
X66846785Y-64129714D01*
X66608690Y-64796380D02*
X66608690Y-63939238D01*
X66656309Y-63844000D01*
X66751547Y-63796380D01*
X66846785Y-63796380D01*
X67180119Y-64796380D02*
X67180119Y-64129714D01*
X67180119Y-63796380D02*
X67132500Y-63844000D01*
X67180119Y-63891619D01*
X67227738Y-63844000D01*
X67180119Y-63796380D01*
X67180119Y-63891619D01*
X67656309Y-64129714D02*
X67656309Y-64796380D01*
X67656309Y-64224952D02*
X67703928Y-64177333D01*
X67799166Y-64129714D01*
X67942023Y-64129714D01*
X68037261Y-64177333D01*
X68084880Y-64272571D01*
X68084880Y-64796380D01*
X68561071Y-64796380D02*
X68561071Y-64129714D01*
X68561071Y-63796380D02*
X68513452Y-63844000D01*
X68561071Y-63891619D01*
X68608690Y-63844000D01*
X68561071Y-63796380D01*
X68561071Y-63891619D01*
X68989642Y-64748761D02*
X69084880Y-64796380D01*
X69275357Y-64796380D01*
X69370595Y-64748761D01*
X69418214Y-64653523D01*
X69418214Y-64605904D01*
X69370595Y-64510666D01*
X69275357Y-64463047D01*
X69132500Y-64463047D01*
X69037261Y-64415428D01*
X68989642Y-64320190D01*
X68989642Y-64272571D01*
X69037261Y-64177333D01*
X69132500Y-64129714D01*
X69275357Y-64129714D01*
X69370595Y-64177333D01*
X69846785Y-64796380D02*
X69846785Y-63796380D01*
X70275357Y-64796380D02*
X70275357Y-64272571D01*
X70227738Y-64177333D01*
X70132500Y-64129714D01*
X69989642Y-64129714D01*
X69894404Y-64177333D01*
X69846785Y-64224952D01*
X70751547Y-64701142D02*
X70799166Y-64748761D01*
X70751547Y-64796380D01*
X70703928Y-64748761D01*
X70751547Y-64701142D01*
X70751547Y-64796380D01*
X70751547Y-64177333D02*
X70799166Y-64224952D01*
X70751547Y-64272571D01*
X70703928Y-64224952D01*
X70751547Y-64177333D01*
X70751547Y-64272571D01*
X51894404Y-65494000D02*
X51799166Y-65446380D01*
X51656309Y-65446380D01*
X51513452Y-65494000D01*
X51418214Y-65589238D01*
X51370595Y-65684476D01*
X51322976Y-65874952D01*
X51322976Y-66017809D01*
X51370595Y-66208285D01*
X51418214Y-66303523D01*
X51513452Y-66398761D01*
X51656309Y-66446380D01*
X51751547Y-66446380D01*
X51894404Y-66398761D01*
X51942023Y-66351142D01*
X51942023Y-66017809D01*
X51751547Y-66017809D01*
X52513452Y-66446380D02*
X52418214Y-66398761D01*
X52370595Y-66351142D01*
X52322976Y-66255904D01*
X52322976Y-65970190D01*
X52370595Y-65874952D01*
X52418214Y-65827333D01*
X52513452Y-65779714D01*
X52656309Y-65779714D01*
X52751547Y-65827333D01*
X52799166Y-65874952D01*
X52846785Y-65970190D01*
X52846785Y-66255904D01*
X52799166Y-66351142D01*
X52751547Y-66398761D01*
X52656309Y-66446380D01*
X52513452Y-66446380D01*
X53418214Y-66446380D02*
X53322976Y-66398761D01*
X53275357Y-66303523D01*
X53275357Y-65446380D01*
X54227738Y-66446380D02*
X54227738Y-65446380D01*
X54227738Y-66398761D02*
X54132500Y-66446380D01*
X53942023Y-66446380D01*
X53846785Y-66398761D01*
X53799166Y-66351142D01*
X53751547Y-66255904D01*
X53751547Y-65970190D01*
X53799166Y-65874952D01*
X53846785Y-65827333D01*
X53942023Y-65779714D01*
X54132500Y-65779714D01*
X54227738Y-65827333D01*
X55465833Y-65779714D02*
X55465833Y-66779714D01*
X55465833Y-65827333D02*
X55561071Y-65779714D01*
X55751547Y-65779714D01*
X55846785Y-65827333D01*
X55894404Y-65874952D01*
X55942023Y-65970190D01*
X55942023Y-66255904D01*
X55894404Y-66351142D01*
X55846785Y-66398761D01*
X55751547Y-66446380D01*
X55561071Y-66446380D01*
X55465833Y-66398761D01*
X56513452Y-66446380D02*
X56418214Y-66398761D01*
X56370595Y-66303523D01*
X56370595Y-65446380D01*
X57322976Y-66446380D02*
X57322976Y-65922571D01*
X57275357Y-65827333D01*
X57180119Y-65779714D01*
X56989642Y-65779714D01*
X56894404Y-65827333D01*
X57322976Y-66398761D02*
X57227738Y-66446380D01*
X56989642Y-66446380D01*
X56894404Y-66398761D01*
X56846785Y-66303523D01*
X56846785Y-66208285D01*
X56894404Y-66113047D01*
X56989642Y-66065428D01*
X57227738Y-66065428D01*
X57322976Y-66017809D01*
X57656309Y-65779714D02*
X58037261Y-65779714D01*
X57799166Y-65446380D02*
X57799166Y-66303523D01*
X57846785Y-66398761D01*
X57942023Y-66446380D01*
X58037261Y-66446380D01*
X58370595Y-66446380D02*
X58370595Y-65779714D01*
X58370595Y-65446380D02*
X58322976Y-65494000D01*
X58370595Y-65541619D01*
X58418214Y-65494000D01*
X58370595Y-65446380D01*
X58370595Y-65541619D01*
X58846785Y-65779714D02*
X58846785Y-66446380D01*
X58846785Y-65874952D02*
X58894404Y-65827333D01*
X58989642Y-65779714D01*
X59132500Y-65779714D01*
X59227738Y-65827333D01*
X59275357Y-65922571D01*
X59275357Y-66446380D01*
X60180119Y-65779714D02*
X60180119Y-66589238D01*
X60132500Y-66684476D01*
X60084880Y-66732095D01*
X59989642Y-66779714D01*
X59846785Y-66779714D01*
X59751547Y-66732095D01*
X60180119Y-66398761D02*
X60084880Y-66446380D01*
X59894404Y-66446380D01*
X59799166Y-66398761D01*
X59751547Y-66351142D01*
X59703928Y-66255904D01*
X59703928Y-65970190D01*
X59751547Y-65874952D01*
X59799166Y-65827333D01*
X59894404Y-65779714D01*
X60084880Y-65779714D01*
X60180119Y-65827333D01*
X61703928Y-66827333D02*
X61656309Y-66779714D01*
X61561071Y-66636857D01*
X61513452Y-66541619D01*
X61465833Y-66398761D01*
X61418214Y-66160666D01*
X61418214Y-65970190D01*
X61465833Y-65732095D01*
X61513452Y-65589238D01*
X61561071Y-65494000D01*
X61656309Y-65351142D01*
X61703928Y-65303523D01*
X62084880Y-65922571D02*
X62418214Y-65922571D01*
X62561071Y-66446380D02*
X62084880Y-66446380D01*
X62084880Y-65446380D01*
X62561071Y-65446380D01*
X62989642Y-66446380D02*
X62989642Y-65446380D01*
X63561071Y-66446380D01*
X63561071Y-65446380D01*
X64037261Y-66446380D02*
X64037261Y-65446380D01*
X65037261Y-65494000D02*
X64942023Y-65446380D01*
X64799166Y-65446380D01*
X64656309Y-65494000D01*
X64561071Y-65589238D01*
X64513452Y-65684476D01*
X64465833Y-65874952D01*
X64465833Y-66017809D01*
X64513452Y-66208285D01*
X64561071Y-66303523D01*
X64656309Y-66398761D01*
X64799166Y-66446380D01*
X64894404Y-66446380D01*
X65037261Y-66398761D01*
X65084880Y-66351142D01*
X65084880Y-66017809D01*
X64894404Y-66017809D01*
X65561071Y-66398761D02*
X65561071Y-66446380D01*
X65513452Y-66541619D01*
X65465833Y-66589238D01*
X66703928Y-66398761D02*
X66799166Y-66446380D01*
X66989642Y-66446380D01*
X67084880Y-66398761D01*
X67132500Y-66303523D01*
X67132500Y-66255904D01*
X67084880Y-66160666D01*
X66989642Y-66113047D01*
X66846785Y-66113047D01*
X66751547Y-66065428D01*
X66703928Y-65970190D01*
X66703928Y-65922571D01*
X66751547Y-65827333D01*
X66846785Y-65779714D01*
X66989642Y-65779714D01*
X67084880Y-65827333D01*
X67942023Y-66398761D02*
X67846785Y-66446380D01*
X67656309Y-66446380D01*
X67561071Y-66398761D01*
X67513452Y-66303523D01*
X67513452Y-65922571D01*
X67561071Y-65827333D01*
X67656309Y-65779714D01*
X67846785Y-65779714D01*
X67942023Y-65827333D01*
X67989642Y-65922571D01*
X67989642Y-66017809D01*
X67513452Y-66113047D01*
X68561071Y-66446380D02*
X68465833Y-66398761D01*
X68418214Y-66303523D01*
X68418214Y-65446380D01*
X69322976Y-66398761D02*
X69227738Y-66446380D01*
X69037261Y-66446380D01*
X68942023Y-66398761D01*
X68894404Y-66303523D01*
X68894404Y-65922571D01*
X68942023Y-65827333D01*
X69037261Y-65779714D01*
X69227738Y-65779714D01*
X69322976Y-65827333D01*
X69370595Y-65922571D01*
X69370595Y-66017809D01*
X68894404Y-66113047D01*
X70227738Y-66398761D02*
X70132500Y-66446380D01*
X69942023Y-66446380D01*
X69846785Y-66398761D01*
X69799166Y-66351142D01*
X69751547Y-66255904D01*
X69751547Y-65970190D01*
X69799166Y-65874952D01*
X69846785Y-65827333D01*
X69942023Y-65779714D01*
X70132500Y-65779714D01*
X70227738Y-65827333D01*
X70513452Y-65779714D02*
X70894404Y-65779714D01*
X70656309Y-65446380D02*
X70656309Y-66303523D01*
X70703928Y-66398761D01*
X70799166Y-66446380D01*
X70894404Y-66446380D01*
X71227738Y-66446380D02*
X71227738Y-65779714D01*
X71227738Y-65446380D02*
X71180119Y-65494000D01*
X71227738Y-65541619D01*
X71275357Y-65494000D01*
X71227738Y-65446380D01*
X71227738Y-65541619D01*
X71608690Y-65779714D02*
X71846785Y-66446380D01*
X72084880Y-65779714D01*
X72846785Y-66398761D02*
X72751547Y-66446380D01*
X72561071Y-66446380D01*
X72465833Y-66398761D01*
X72418214Y-66303523D01*
X72418214Y-65922571D01*
X72465833Y-65827333D01*
X72561071Y-65779714D01*
X72751547Y-65779714D01*
X72846785Y-65827333D01*
X72894404Y-65922571D01*
X72894404Y-66017809D01*
X72418214Y-66113047D01*
X73227738Y-66827333D02*
X73275357Y-66779714D01*
X73370595Y-66636857D01*
X73418214Y-66541619D01*
X73465833Y-66398761D01*
X73513452Y-66160666D01*
X73513452Y-65970190D01*
X73465833Y-65732095D01*
X73418214Y-65589238D01*
X73370595Y-65494000D01*
X73275357Y-65351142D01*
X73227738Y-65303523D01*
X51322976Y-68048761D02*
X51465833Y-68096380D01*
X51703928Y-68096380D01*
X51799166Y-68048761D01*
X51846785Y-68001142D01*
X51894404Y-67905904D01*
X51894404Y-67810666D01*
X51846785Y-67715428D01*
X51799166Y-67667809D01*
X51703928Y-67620190D01*
X51513452Y-67572571D01*
X51418214Y-67524952D01*
X51370595Y-67477333D01*
X51322976Y-67382095D01*
X51322976Y-67286857D01*
X51370595Y-67191619D01*
X51418214Y-67144000D01*
X51513452Y-67096380D01*
X51751547Y-67096380D01*
X51894404Y-67144000D01*
X52465833Y-68096380D02*
X52370595Y-68048761D01*
X52322976Y-68001142D01*
X52275357Y-67905904D01*
X52275357Y-67620190D01*
X52322976Y-67524952D01*
X52370595Y-67477333D01*
X52465833Y-67429714D01*
X52608690Y-67429714D01*
X52703928Y-67477333D01*
X52751547Y-67524952D01*
X52799166Y-67620190D01*
X52799166Y-67905904D01*
X52751547Y-68001142D01*
X52703928Y-68048761D01*
X52608690Y-68096380D01*
X52465833Y-68096380D01*
X53370595Y-68096380D02*
X53275357Y-68048761D01*
X53227738Y-67953523D01*
X53227738Y-67096380D01*
X54180119Y-68096380D02*
X54180119Y-67096380D01*
X54180119Y-68048761D02*
X54084880Y-68096380D01*
X53894404Y-68096380D01*
X53799166Y-68048761D01*
X53751547Y-68001142D01*
X53703928Y-67905904D01*
X53703928Y-67620190D01*
X53751547Y-67524952D01*
X53799166Y-67477333D01*
X53894404Y-67429714D01*
X54084880Y-67429714D01*
X54180119Y-67477333D01*
X55037261Y-68048761D02*
X54942023Y-68096380D01*
X54751547Y-68096380D01*
X54656309Y-68048761D01*
X54608690Y-67953523D01*
X54608690Y-67572571D01*
X54656309Y-67477333D01*
X54751547Y-67429714D01*
X54942023Y-67429714D01*
X55037261Y-67477333D01*
X55084880Y-67572571D01*
X55084880Y-67667809D01*
X54608690Y-67763047D01*
X55513452Y-68096380D02*
X55513452Y-67429714D01*
X55513452Y-67620190D02*
X55561071Y-67524952D01*
X55608690Y-67477333D01*
X55703928Y-67429714D01*
X55799166Y-67429714D01*
X56894404Y-68096380D02*
X56894404Y-67429714D01*
X56894404Y-67524952D02*
X56942023Y-67477333D01*
X57037261Y-67429714D01*
X57180119Y-67429714D01*
X57275357Y-67477333D01*
X57322976Y-67572571D01*
X57322976Y-68096380D01*
X57322976Y-67572571D02*
X57370595Y-67477333D01*
X57465833Y-67429714D01*
X57608690Y-67429714D01*
X57703928Y-67477333D01*
X57751547Y-67572571D01*
X57751547Y-68096380D01*
X58656309Y-68096380D02*
X58656309Y-67572571D01*
X58608690Y-67477333D01*
X58513452Y-67429714D01*
X58322976Y-67429714D01*
X58227738Y-67477333D01*
X58656309Y-68048761D02*
X58561071Y-68096380D01*
X58322976Y-68096380D01*
X58227738Y-68048761D01*
X58180119Y-67953523D01*
X58180119Y-67858285D01*
X58227738Y-67763047D01*
X58322976Y-67715428D01*
X58561071Y-67715428D01*
X58656309Y-67667809D01*
X59084880Y-68048761D02*
X59180119Y-68096380D01*
X59370595Y-68096380D01*
X59465833Y-68048761D01*
X59513452Y-67953523D01*
X59513452Y-67905904D01*
X59465833Y-67810666D01*
X59370595Y-67763047D01*
X59227738Y-67763047D01*
X59132500Y-67715428D01*
X59084880Y-67620190D01*
X59084880Y-67572571D01*
X59132500Y-67477333D01*
X59227738Y-67429714D01*
X59370595Y-67429714D01*
X59465833Y-67477333D01*
X59942023Y-68096380D02*
X59942023Y-67096380D01*
X60037261Y-67715428D02*
X60322976Y-68096380D01*
X60322976Y-67429714D02*
X59942023Y-67810666D01*
X60751547Y-68001142D02*
X60799166Y-68048761D01*
X60751547Y-68096380D01*
X60703928Y-68048761D01*
X60751547Y-68001142D01*
X60751547Y-68096380D01*
X60751547Y-67477333D02*
X60799166Y-67524952D01*
X60751547Y-67572571D01*
X60703928Y-67524952D01*
X60751547Y-67477333D01*
X60751547Y-67572571D01*
X61989642Y-68096380D02*
X61989642Y-67429714D01*
X61989642Y-67524952D02*
X62037261Y-67477333D01*
X62132500Y-67429714D01*
X62275357Y-67429714D01*
X62370595Y-67477333D01*
X62418214Y-67572571D01*
X62418214Y-68096380D01*
X62418214Y-67572571D02*
X62465833Y-67477333D01*
X62561071Y-67429714D01*
X62703928Y-67429714D01*
X62799166Y-67477333D01*
X62846785Y-67572571D01*
X62846785Y-68096380D01*
X63751547Y-68096380D02*
X63751547Y-67572571D01*
X63703928Y-67477333D01*
X63608690Y-67429714D01*
X63418214Y-67429714D01*
X63322976Y-67477333D01*
X63751547Y-68048761D02*
X63656309Y-68096380D01*
X63418214Y-68096380D01*
X63322976Y-68048761D01*
X63275357Y-67953523D01*
X63275357Y-67858285D01*
X63322976Y-67763047D01*
X63418214Y-67715428D01*
X63656309Y-67715428D01*
X63751547Y-67667809D01*
X64084880Y-67429714D02*
X64465833Y-67429714D01*
X64227738Y-67096380D02*
X64227738Y-67953523D01*
X64275357Y-68048761D01*
X64370595Y-68096380D01*
X64465833Y-68096380D01*
X64656309Y-67429714D02*
X65037261Y-67429714D01*
X64799166Y-67096380D02*
X64799166Y-67953523D01*
X64846785Y-68048761D01*
X64942023Y-68096380D01*
X65037261Y-68096380D01*
X66132500Y-68096380D02*
X66132500Y-67096380D01*
X66132500Y-67477333D02*
X66227738Y-67429714D01*
X66418214Y-67429714D01*
X66513452Y-67477333D01*
X66561071Y-67524952D01*
X66608690Y-67620190D01*
X66608690Y-67905904D01*
X66561071Y-68001142D01*
X66513452Y-68048761D01*
X66418214Y-68096380D01*
X66227738Y-68096380D01*
X66132500Y-68048761D01*
X67180119Y-68096380D02*
X67084880Y-68048761D01*
X67037261Y-67953523D01*
X67037261Y-67096380D01*
X67989642Y-68096380D02*
X67989642Y-67572571D01*
X67942023Y-67477333D01*
X67846785Y-67429714D01*
X67656309Y-67429714D01*
X67561071Y-67477333D01*
X67989642Y-68048761D02*
X67894404Y-68096380D01*
X67656309Y-68096380D01*
X67561071Y-68048761D01*
X67513452Y-67953523D01*
X67513452Y-67858285D01*
X67561071Y-67763047D01*
X67656309Y-67715428D01*
X67894404Y-67715428D01*
X67989642Y-67667809D01*
X68894404Y-68048761D02*
X68799166Y-68096380D01*
X68608690Y-68096380D01*
X68513452Y-68048761D01*
X68465833Y-68001142D01*
X68418214Y-67905904D01*
X68418214Y-67620190D01*
X68465833Y-67524952D01*
X68513452Y-67477333D01*
X68608690Y-67429714D01*
X68799166Y-67429714D01*
X68894404Y-67477333D01*
X69322976Y-68096380D02*
X69322976Y-67096380D01*
X69418214Y-67715428D02*
X69703928Y-68096380D01*
X69703928Y-67429714D02*
X69322976Y-67810666D01*
X51322976Y-69698761D02*
X51465833Y-69746380D01*
X51703928Y-69746380D01*
X51799166Y-69698761D01*
X51846785Y-69651142D01*
X51894404Y-69555904D01*
X51894404Y-69460666D01*
X51846785Y-69365428D01*
X51799166Y-69317809D01*
X51703928Y-69270190D01*
X51513452Y-69222571D01*
X51418214Y-69174952D01*
X51370595Y-69127333D01*
X51322976Y-69032095D01*
X51322976Y-68936857D01*
X51370595Y-68841619D01*
X51418214Y-68794000D01*
X51513452Y-68746380D01*
X51751547Y-68746380D01*
X51894404Y-68794000D01*
X52322976Y-69746380D02*
X52322976Y-69079714D01*
X52322976Y-68746380D02*
X52275357Y-68794000D01*
X52322976Y-68841619D01*
X52370595Y-68794000D01*
X52322976Y-68746380D01*
X52322976Y-68841619D01*
X52942023Y-69746380D02*
X52846785Y-69698761D01*
X52799166Y-69603523D01*
X52799166Y-68746380D01*
X53322976Y-69746380D02*
X53322976Y-68746380D01*
X53418214Y-69365428D02*
X53703928Y-69746380D01*
X53703928Y-69079714D02*
X53322976Y-69460666D01*
X54084880Y-69698761D02*
X54180119Y-69746380D01*
X54370595Y-69746380D01*
X54465833Y-69698761D01*
X54513452Y-69603523D01*
X54513452Y-69555904D01*
X54465833Y-69460666D01*
X54370595Y-69413047D01*
X54227738Y-69413047D01*
X54132500Y-69365428D01*
X54084880Y-69270190D01*
X54084880Y-69222571D01*
X54132500Y-69127333D01*
X54227738Y-69079714D01*
X54370595Y-69079714D01*
X54465833Y-69127333D01*
X55370595Y-69698761D02*
X55275357Y-69746380D01*
X55084880Y-69746380D01*
X54989642Y-69698761D01*
X54942023Y-69651142D01*
X54894404Y-69555904D01*
X54894404Y-69270190D01*
X54942023Y-69174952D01*
X54989642Y-69127333D01*
X55084880Y-69079714D01*
X55275357Y-69079714D01*
X55370595Y-69127333D01*
X55799166Y-69746380D02*
X55799166Y-69079714D01*
X55799166Y-69270190D02*
X55846785Y-69174952D01*
X55894404Y-69127333D01*
X55989642Y-69079714D01*
X56084880Y-69079714D01*
X56799166Y-69698761D02*
X56703928Y-69746380D01*
X56513452Y-69746380D01*
X56418214Y-69698761D01*
X56370595Y-69603523D01*
X56370595Y-69222571D01*
X56418214Y-69127333D01*
X56513452Y-69079714D01*
X56703928Y-69079714D01*
X56799166Y-69127333D01*
X56846785Y-69222571D01*
X56846785Y-69317809D01*
X56370595Y-69413047D01*
X57656309Y-69698761D02*
X57561071Y-69746380D01*
X57370595Y-69746380D01*
X57275357Y-69698761D01*
X57227738Y-69603523D01*
X57227738Y-69222571D01*
X57275357Y-69127333D01*
X57370595Y-69079714D01*
X57561071Y-69079714D01*
X57656309Y-69127333D01*
X57703928Y-69222571D01*
X57703928Y-69317809D01*
X57227738Y-69413047D01*
X58132500Y-69079714D02*
X58132500Y-69746380D01*
X58132500Y-69174952D02*
X58180119Y-69127333D01*
X58275357Y-69079714D01*
X58418214Y-69079714D01*
X58513452Y-69127333D01*
X58561071Y-69222571D01*
X58561071Y-69746380D01*
X59037261Y-69651142D02*
X59084880Y-69698761D01*
X59037261Y-69746380D01*
X58989642Y-69698761D01*
X59037261Y-69651142D01*
X59037261Y-69746380D01*
X59037261Y-69127333D02*
X59084880Y-69174952D01*
X59037261Y-69222571D01*
X58989642Y-69174952D01*
X59037261Y-69127333D01*
X59037261Y-69222571D01*
X60180119Y-69079714D02*
X60370595Y-69746380D01*
X60561071Y-69270190D01*
X60751547Y-69746380D01*
X60942023Y-69079714D01*
X61322976Y-69746380D02*
X61322976Y-68746380D01*
X61751547Y-69746380D02*
X61751547Y-69222571D01*
X61703928Y-69127333D01*
X61608690Y-69079714D01*
X61465833Y-69079714D01*
X61370595Y-69127333D01*
X61322976Y-69174952D01*
X62227738Y-69746380D02*
X62227738Y-69079714D01*
X62227738Y-68746380D02*
X62180119Y-68794000D01*
X62227738Y-68841619D01*
X62275357Y-68794000D01*
X62227738Y-68746380D01*
X62227738Y-68841619D01*
X62561071Y-69079714D02*
X62942023Y-69079714D01*
X62703928Y-68746380D02*
X62703928Y-69603523D01*
X62751547Y-69698761D01*
X62846785Y-69746380D01*
X62942023Y-69746380D01*
X63656309Y-69698761D02*
X63561071Y-69746380D01*
X63370595Y-69746380D01*
X63275357Y-69698761D01*
X63227738Y-69603523D01*
X63227738Y-69222571D01*
X63275357Y-69127333D01*
X63370595Y-69079714D01*
X63561071Y-69079714D01*
X63656309Y-69127333D01*
X63703928Y-69222571D01*
X63703928Y-69317809D01*
X63227738Y-69413047D01*
D13*
X51166666Y-73006666D02*
X51566666Y-73006666D01*
X51366666Y-73706666D02*
X51366666Y-73006666D01*
X51800000Y-73706666D02*
X51800000Y-73006666D01*
X52100000Y-73706666D02*
X52100000Y-73340000D01*
X52066666Y-73273333D01*
X52000000Y-73240000D01*
X51900000Y-73240000D01*
X51833333Y-73273333D01*
X51800000Y-73306666D01*
X52700000Y-73673333D02*
X52633333Y-73706666D01*
X52500000Y-73706666D01*
X52433333Y-73673333D01*
X52400000Y-73606666D01*
X52400000Y-73340000D01*
X52433333Y-73273333D01*
X52500000Y-73240000D01*
X52633333Y-73240000D01*
X52700000Y-73273333D01*
X52733333Y-73340000D01*
X52733333Y-73406666D01*
X52400000Y-73473333D01*
X53866666Y-73706666D02*
X53866666Y-73006666D01*
X53866666Y-73673333D02*
X53800000Y-73706666D01*
X53666666Y-73706666D01*
X53600000Y-73673333D01*
X53566666Y-73640000D01*
X53533333Y-73573333D01*
X53533333Y-73373333D01*
X53566666Y-73306666D01*
X53600000Y-73273333D01*
X53666666Y-73240000D01*
X53800000Y-73240000D01*
X53866666Y-73273333D01*
X54466666Y-73673333D02*
X54400000Y-73706666D01*
X54266666Y-73706666D01*
X54200000Y-73673333D01*
X54166666Y-73606666D01*
X54166666Y-73340000D01*
X54200000Y-73273333D01*
X54266666Y-73240000D01*
X54400000Y-73240000D01*
X54466666Y-73273333D01*
X54500000Y-73340000D01*
X54500000Y-73406666D01*
X54166666Y-73473333D01*
X54766666Y-73673333D02*
X54833333Y-73706666D01*
X54966666Y-73706666D01*
X55033333Y-73673333D01*
X55066666Y-73606666D01*
X55066666Y-73573333D01*
X55033333Y-73506666D01*
X54966666Y-73473333D01*
X54866666Y-73473333D01*
X54800000Y-73440000D01*
X54766666Y-73373333D01*
X54766666Y-73340000D01*
X54800000Y-73273333D01*
X54866666Y-73240000D01*
X54966666Y-73240000D01*
X55033333Y-73273333D01*
X55366666Y-73706666D02*
X55366666Y-73240000D01*
X55366666Y-73006666D02*
X55333333Y-73040000D01*
X55366666Y-73073333D01*
X55400000Y-73040000D01*
X55366666Y-73006666D01*
X55366666Y-73073333D01*
X56000000Y-73240000D02*
X56000000Y-73806666D01*
X55966666Y-73873333D01*
X55933333Y-73906666D01*
X55866666Y-73940000D01*
X55766666Y-73940000D01*
X55700000Y-73906666D01*
X56000000Y-73673333D02*
X55933333Y-73706666D01*
X55800000Y-73706666D01*
X55733333Y-73673333D01*
X55700000Y-73640000D01*
X55666666Y-73573333D01*
X55666666Y-73373333D01*
X55700000Y-73306666D01*
X55733333Y-73273333D01*
X55800000Y-73240000D01*
X55933333Y-73240000D01*
X56000000Y-73273333D01*
X56333333Y-73240000D02*
X56333333Y-73706666D01*
X56333333Y-73306666D02*
X56366666Y-73273333D01*
X56433333Y-73240000D01*
X56533333Y-73240000D01*
X56600000Y-73273333D01*
X56633333Y-73340000D01*
X56633333Y-73706666D01*
X57800000Y-73706666D02*
X57800000Y-73006666D01*
X57800000Y-73673333D02*
X57733333Y-73706666D01*
X57600000Y-73706666D01*
X57533333Y-73673333D01*
X57500000Y-73640000D01*
X57466666Y-73573333D01*
X57466666Y-73373333D01*
X57500000Y-73306666D01*
X57533333Y-73273333D01*
X57600000Y-73240000D01*
X57733333Y-73240000D01*
X57800000Y-73273333D01*
X58233333Y-73706666D02*
X58166666Y-73673333D01*
X58133333Y-73640000D01*
X58100000Y-73573333D01*
X58100000Y-73373333D01*
X58133333Y-73306666D01*
X58166666Y-73273333D01*
X58233333Y-73240000D01*
X58333333Y-73240000D01*
X58400000Y-73273333D01*
X58433333Y-73306666D01*
X58466666Y-73373333D01*
X58466666Y-73573333D01*
X58433333Y-73640000D01*
X58400000Y-73673333D01*
X58333333Y-73706666D01*
X58233333Y-73706666D01*
X59033333Y-73673333D02*
X58966666Y-73706666D01*
X58833333Y-73706666D01*
X58766666Y-73673333D01*
X58733333Y-73606666D01*
X58733333Y-73340000D01*
X58766666Y-73273333D01*
X58833333Y-73240000D01*
X58966666Y-73240000D01*
X59033333Y-73273333D01*
X59066666Y-73340000D01*
X59066666Y-73406666D01*
X58733333Y-73473333D01*
X59333333Y-73673333D02*
X59400000Y-73706666D01*
X59533333Y-73706666D01*
X59600000Y-73673333D01*
X59633333Y-73606666D01*
X59633333Y-73573333D01*
X59600000Y-73506666D01*
X59533333Y-73473333D01*
X59433333Y-73473333D01*
X59366666Y-73440000D01*
X59333333Y-73373333D01*
X59333333Y-73340000D01*
X59366666Y-73273333D01*
X59433333Y-73240000D01*
X59533333Y-73240000D01*
X59600000Y-73273333D01*
X60466666Y-73240000D02*
X60466666Y-73706666D01*
X60466666Y-73306666D02*
X60500000Y-73273333D01*
X60566666Y-73240000D01*
X60666666Y-73240000D01*
X60733333Y-73273333D01*
X60766666Y-73340000D01*
X60766666Y-73706666D01*
X61200000Y-73706666D02*
X61133333Y-73673333D01*
X61100000Y-73640000D01*
X61066666Y-73573333D01*
X61066666Y-73373333D01*
X61100000Y-73306666D01*
X61133333Y-73273333D01*
X61200000Y-73240000D01*
X61300000Y-73240000D01*
X61366666Y-73273333D01*
X61400000Y-73306666D01*
X61433333Y-73373333D01*
X61433333Y-73573333D01*
X61400000Y-73640000D01*
X61366666Y-73673333D01*
X61300000Y-73706666D01*
X61200000Y-73706666D01*
X61633333Y-73240000D02*
X61900000Y-73240000D01*
X61733333Y-73006666D02*
X61733333Y-73606666D01*
X61766666Y-73673333D01*
X61833333Y-73706666D01*
X61900000Y-73706666D01*
X62666666Y-73706666D02*
X62666666Y-73240000D01*
X62666666Y-73006666D02*
X62633333Y-73040000D01*
X62666666Y-73073333D01*
X62700000Y-73040000D01*
X62666666Y-73006666D01*
X62666666Y-73073333D01*
X63000000Y-73240000D02*
X63000000Y-73706666D01*
X63000000Y-73306666D02*
X63033333Y-73273333D01*
X63100000Y-73240000D01*
X63200000Y-73240000D01*
X63266666Y-73273333D01*
X63300000Y-73340000D01*
X63300000Y-73706666D01*
X63933333Y-73673333D02*
X63866666Y-73706666D01*
X63733333Y-73706666D01*
X63666666Y-73673333D01*
X63633333Y-73640000D01*
X63600000Y-73573333D01*
X63600000Y-73373333D01*
X63633333Y-73306666D01*
X63666666Y-73273333D01*
X63733333Y-73240000D01*
X63866666Y-73240000D01*
X63933333Y-73273333D01*
X64333333Y-73706666D02*
X64266666Y-73673333D01*
X64233333Y-73606666D01*
X64233333Y-73006666D01*
X64900000Y-73240000D02*
X64900000Y-73706666D01*
X64600000Y-73240000D02*
X64600000Y-73606666D01*
X64633333Y-73673333D01*
X64700000Y-73706666D01*
X64800000Y-73706666D01*
X64866666Y-73673333D01*
X64900000Y-73640000D01*
X65533333Y-73706666D02*
X65533333Y-73006666D01*
X65533333Y-73673333D02*
X65466666Y-73706666D01*
X65333333Y-73706666D01*
X65266666Y-73673333D01*
X65233333Y-73640000D01*
X65200000Y-73573333D01*
X65200000Y-73373333D01*
X65233333Y-73306666D01*
X65266666Y-73273333D01*
X65333333Y-73240000D01*
X65466666Y-73240000D01*
X65533333Y-73273333D01*
X66133333Y-73673333D02*
X66066666Y-73706666D01*
X65933333Y-73706666D01*
X65866666Y-73673333D01*
X65833333Y-73606666D01*
X65833333Y-73340000D01*
X65866666Y-73273333D01*
X65933333Y-73240000D01*
X66066666Y-73240000D01*
X66133333Y-73273333D01*
X66166666Y-73340000D01*
X66166666Y-73406666D01*
X65833333Y-73473333D01*
X67000000Y-73706666D02*
X67000000Y-73006666D01*
X67300000Y-73706666D02*
X67300000Y-73340000D01*
X67266666Y-73273333D01*
X67200000Y-73240000D01*
X67100000Y-73240000D01*
X67033333Y-73273333D01*
X67000000Y-73306666D01*
X67633333Y-73706666D02*
X67633333Y-73240000D01*
X67633333Y-73006666D02*
X67600000Y-73040000D01*
X67633333Y-73073333D01*
X67666666Y-73040000D01*
X67633333Y-73006666D01*
X67633333Y-73073333D01*
X68266666Y-73240000D02*
X68266666Y-73806666D01*
X68233333Y-73873333D01*
X68200000Y-73906666D01*
X68133333Y-73940000D01*
X68033333Y-73940000D01*
X67966666Y-73906666D01*
X68266666Y-73673333D02*
X68200000Y-73706666D01*
X68066666Y-73706666D01*
X68000000Y-73673333D01*
X67966666Y-73640000D01*
X67933333Y-73573333D01*
X67933333Y-73373333D01*
X67966666Y-73306666D01*
X68000000Y-73273333D01*
X68066666Y-73240000D01*
X68200000Y-73240000D01*
X68266666Y-73273333D01*
X68600000Y-73706666D02*
X68600000Y-73006666D01*
X68900000Y-73706666D02*
X68900000Y-73340000D01*
X68866666Y-73273333D01*
X68800000Y-73240000D01*
X68700000Y-73240000D01*
X68633333Y-73273333D01*
X68600000Y-73306666D01*
X69733333Y-73673333D02*
X69800000Y-73706666D01*
X69933333Y-73706666D01*
X70000000Y-73673333D01*
X70033333Y-73606666D01*
X70033333Y-73573333D01*
X70000000Y-73506666D01*
X69933333Y-73473333D01*
X69833333Y-73473333D01*
X69766666Y-73440000D01*
X69733333Y-73373333D01*
X69733333Y-73340000D01*
X69766666Y-73273333D01*
X69833333Y-73240000D01*
X69933333Y-73240000D01*
X70000000Y-73273333D01*
X70333333Y-73240000D02*
X70333333Y-73940000D01*
X70333333Y-73273333D02*
X70400000Y-73240000D01*
X70533333Y-73240000D01*
X70600000Y-73273333D01*
X70633333Y-73306666D01*
X70666666Y-73373333D01*
X70666666Y-73573333D01*
X70633333Y-73640000D01*
X70600000Y-73673333D01*
X70533333Y-73706666D01*
X70400000Y-73706666D01*
X70333333Y-73673333D01*
X71233333Y-73673333D02*
X71166666Y-73706666D01*
X71033333Y-73706666D01*
X70966666Y-73673333D01*
X70933333Y-73606666D01*
X70933333Y-73340000D01*
X70966666Y-73273333D01*
X71033333Y-73240000D01*
X71166666Y-73240000D01*
X71233333Y-73273333D01*
X71266666Y-73340000D01*
X71266666Y-73406666D01*
X70933333Y-73473333D01*
X71833333Y-73673333D02*
X71766666Y-73706666D01*
X71633333Y-73706666D01*
X71566666Y-73673333D01*
X71533333Y-73606666D01*
X71533333Y-73340000D01*
X71566666Y-73273333D01*
X71633333Y-73240000D01*
X71766666Y-73240000D01*
X71833333Y-73273333D01*
X71866666Y-73340000D01*
X71866666Y-73406666D01*
X71533333Y-73473333D01*
X72466666Y-73706666D02*
X72466666Y-73006666D01*
X72466666Y-73673333D02*
X72400000Y-73706666D01*
X72266666Y-73706666D01*
X72200000Y-73673333D01*
X72166666Y-73640000D01*
X72133333Y-73573333D01*
X72133333Y-73373333D01*
X72166666Y-73306666D01*
X72200000Y-73273333D01*
X72266666Y-73240000D01*
X72400000Y-73240000D01*
X72466666Y-73273333D01*
X73300000Y-73673333D02*
X73366666Y-73706666D01*
X73500000Y-73706666D01*
X73566666Y-73673333D01*
X73600000Y-73606666D01*
X73600000Y-73573333D01*
X73566666Y-73506666D01*
X73500000Y-73473333D01*
X73400000Y-73473333D01*
X73333333Y-73440000D01*
X73300000Y-73373333D01*
X73300000Y-73340000D01*
X73333333Y-73273333D01*
X73400000Y-73240000D01*
X73500000Y-73240000D01*
X73566666Y-73273333D01*
X73900000Y-73706666D02*
X73900000Y-73240000D01*
X73900000Y-73006666D02*
X73866666Y-73040000D01*
X73900000Y-73073333D01*
X73933333Y-73040000D01*
X73900000Y-73006666D01*
X73900000Y-73073333D01*
X74533333Y-73240000D02*
X74533333Y-73806666D01*
X74500000Y-73873333D01*
X74466666Y-73906666D01*
X74400000Y-73940000D01*
X74300000Y-73940000D01*
X74233333Y-73906666D01*
X74533333Y-73673333D02*
X74466666Y-73706666D01*
X74333333Y-73706666D01*
X74266666Y-73673333D01*
X74233333Y-73640000D01*
X74200000Y-73573333D01*
X74200000Y-73373333D01*
X74233333Y-73306666D01*
X74266666Y-73273333D01*
X74333333Y-73240000D01*
X74466666Y-73240000D01*
X74533333Y-73273333D01*
X74866666Y-73240000D02*
X74866666Y-73706666D01*
X74866666Y-73306666D02*
X74900000Y-73273333D01*
X74966666Y-73240000D01*
X75066666Y-73240000D01*
X75133333Y-73273333D01*
X75166666Y-73340000D01*
X75166666Y-73706666D01*
X75800000Y-73706666D02*
X75800000Y-73340000D01*
X75766666Y-73273333D01*
X75700000Y-73240000D01*
X75566666Y-73240000D01*
X75500000Y-73273333D01*
X75800000Y-73673333D02*
X75733333Y-73706666D01*
X75566666Y-73706666D01*
X75500000Y-73673333D01*
X75466666Y-73606666D01*
X75466666Y-73540000D01*
X75500000Y-73473333D01*
X75566666Y-73440000D01*
X75733333Y-73440000D01*
X75800000Y-73406666D01*
X76233333Y-73706666D02*
X76166666Y-73673333D01*
X76133333Y-73606666D01*
X76133333Y-73006666D01*
X76600000Y-73706666D02*
X76533333Y-73673333D01*
X76500000Y-73606666D01*
X76500000Y-73006666D01*
X76866666Y-73706666D02*
X76866666Y-73240000D01*
X76866666Y-73006666D02*
X76833333Y-73040000D01*
X76866666Y-73073333D01*
X76900000Y-73040000D01*
X76866666Y-73006666D01*
X76866666Y-73073333D01*
X77200000Y-73240000D02*
X77200000Y-73706666D01*
X77200000Y-73306666D02*
X77233333Y-73273333D01*
X77300000Y-73240000D01*
X77400000Y-73240000D01*
X77466666Y-73273333D01*
X77500000Y-73340000D01*
X77500000Y-73706666D01*
X78133333Y-73240000D02*
X78133333Y-73806666D01*
X78100000Y-73873333D01*
X78066666Y-73906666D01*
X78000000Y-73940000D01*
X77900000Y-73940000D01*
X77833333Y-73906666D01*
X78133333Y-73673333D02*
X78066666Y-73706666D01*
X77933333Y-73706666D01*
X77866666Y-73673333D01*
X77833333Y-73640000D01*
X77800000Y-73573333D01*
X77800000Y-73373333D01*
X77833333Y-73306666D01*
X77866666Y-73273333D01*
X77933333Y-73240000D01*
X78066666Y-73240000D01*
X78133333Y-73273333D01*
X78466666Y-73640000D02*
X78500000Y-73673333D01*
X78466666Y-73706666D01*
X78433333Y-73673333D01*
X78466666Y-73640000D01*
X78466666Y-73706666D01*
X51266666Y-74856666D02*
X51266666Y-74156666D01*
X51666666Y-74856666D01*
X51666666Y-74156666D01*
X52100000Y-74856666D02*
X52033333Y-74823333D01*
X52000000Y-74790000D01*
X51966666Y-74723333D01*
X51966666Y-74523333D01*
X52000000Y-74456666D01*
X52033333Y-74423333D01*
X52100000Y-74390000D01*
X52200000Y-74390000D01*
X52266666Y-74423333D01*
X52300000Y-74456666D01*
X52333333Y-74523333D01*
X52333333Y-74723333D01*
X52300000Y-74790000D01*
X52266666Y-74823333D01*
X52200000Y-74856666D01*
X52100000Y-74856666D01*
X53166666Y-74856666D02*
X53166666Y-74390000D01*
X53166666Y-74156666D02*
X53133333Y-74190000D01*
X53166666Y-74223333D01*
X53200000Y-74190000D01*
X53166666Y-74156666D01*
X53166666Y-74223333D01*
X53500000Y-74856666D02*
X53500000Y-74390000D01*
X53500000Y-74456666D02*
X53533333Y-74423333D01*
X53600000Y-74390000D01*
X53700000Y-74390000D01*
X53766666Y-74423333D01*
X53800000Y-74490000D01*
X53800000Y-74856666D01*
X53800000Y-74490000D02*
X53833333Y-74423333D01*
X53900000Y-74390000D01*
X54000000Y-74390000D01*
X54066666Y-74423333D01*
X54100000Y-74490000D01*
X54100000Y-74856666D01*
X54433333Y-74390000D02*
X54433333Y-75090000D01*
X54433333Y-74423333D02*
X54500000Y-74390000D01*
X54633333Y-74390000D01*
X54700000Y-74423333D01*
X54733333Y-74456666D01*
X54766666Y-74523333D01*
X54766666Y-74723333D01*
X54733333Y-74790000D01*
X54700000Y-74823333D01*
X54633333Y-74856666D01*
X54500000Y-74856666D01*
X54433333Y-74823333D01*
X55333333Y-74823333D02*
X55266666Y-74856666D01*
X55133333Y-74856666D01*
X55066666Y-74823333D01*
X55033333Y-74756666D01*
X55033333Y-74490000D01*
X55066666Y-74423333D01*
X55133333Y-74390000D01*
X55266666Y-74390000D01*
X55333333Y-74423333D01*
X55366666Y-74490000D01*
X55366666Y-74556666D01*
X55033333Y-74623333D01*
X55966666Y-74856666D02*
X55966666Y-74156666D01*
X55966666Y-74823333D02*
X55900000Y-74856666D01*
X55766666Y-74856666D01*
X55700000Y-74823333D01*
X55666666Y-74790000D01*
X55633333Y-74723333D01*
X55633333Y-74523333D01*
X55666666Y-74456666D01*
X55700000Y-74423333D01*
X55766666Y-74390000D01*
X55900000Y-74390000D01*
X55966666Y-74423333D01*
X56600000Y-74856666D02*
X56600000Y-74490000D01*
X56566666Y-74423333D01*
X56500000Y-74390000D01*
X56366666Y-74390000D01*
X56300000Y-74423333D01*
X56600000Y-74823333D02*
X56533333Y-74856666D01*
X56366666Y-74856666D01*
X56300000Y-74823333D01*
X56266666Y-74756666D01*
X56266666Y-74690000D01*
X56300000Y-74623333D01*
X56366666Y-74590000D01*
X56533333Y-74590000D01*
X56600000Y-74556666D01*
X56933333Y-74390000D02*
X56933333Y-74856666D01*
X56933333Y-74456666D02*
X56966666Y-74423333D01*
X57033333Y-74390000D01*
X57133333Y-74390000D01*
X57200000Y-74423333D01*
X57233333Y-74490000D01*
X57233333Y-74856666D01*
X57866666Y-74823333D02*
X57800000Y-74856666D01*
X57666666Y-74856666D01*
X57600000Y-74823333D01*
X57566666Y-74790000D01*
X57533333Y-74723333D01*
X57533333Y-74523333D01*
X57566666Y-74456666D01*
X57600000Y-74423333D01*
X57666666Y-74390000D01*
X57800000Y-74390000D01*
X57866666Y-74423333D01*
X58433333Y-74823333D02*
X58366666Y-74856666D01*
X58233333Y-74856666D01*
X58166666Y-74823333D01*
X58133333Y-74756666D01*
X58133333Y-74490000D01*
X58166666Y-74423333D01*
X58233333Y-74390000D01*
X58366666Y-74390000D01*
X58433333Y-74423333D01*
X58466666Y-74490000D01*
X58466666Y-74556666D01*
X58133333Y-74623333D01*
X59600000Y-74823333D02*
X59533333Y-74856666D01*
X59400000Y-74856666D01*
X59333333Y-74823333D01*
X59300000Y-74790000D01*
X59266666Y-74723333D01*
X59266666Y-74523333D01*
X59300000Y-74456666D01*
X59333333Y-74423333D01*
X59400000Y-74390000D01*
X59533333Y-74390000D01*
X59600000Y-74423333D01*
X60000000Y-74856666D02*
X59933333Y-74823333D01*
X59900000Y-74790000D01*
X59866666Y-74723333D01*
X59866666Y-74523333D01*
X59900000Y-74456666D01*
X59933333Y-74423333D01*
X60000000Y-74390000D01*
X60100000Y-74390000D01*
X60166666Y-74423333D01*
X60200000Y-74456666D01*
X60233333Y-74523333D01*
X60233333Y-74723333D01*
X60200000Y-74790000D01*
X60166666Y-74823333D01*
X60100000Y-74856666D01*
X60000000Y-74856666D01*
X60533333Y-74390000D02*
X60533333Y-74856666D01*
X60533333Y-74456666D02*
X60566666Y-74423333D01*
X60633333Y-74390000D01*
X60733333Y-74390000D01*
X60800000Y-74423333D01*
X60833333Y-74490000D01*
X60833333Y-74856666D01*
X61066666Y-74390000D02*
X61333333Y-74390000D01*
X61166666Y-74156666D02*
X61166666Y-74756666D01*
X61200000Y-74823333D01*
X61266666Y-74856666D01*
X61333333Y-74856666D01*
X61566666Y-74856666D02*
X61566666Y-74390000D01*
X61566666Y-74523333D02*
X61600000Y-74456666D01*
X61633333Y-74423333D01*
X61700000Y-74390000D01*
X61766666Y-74390000D01*
X62100000Y-74856666D02*
X62033333Y-74823333D01*
X62000000Y-74790000D01*
X61966666Y-74723333D01*
X61966666Y-74523333D01*
X62000000Y-74456666D01*
X62033333Y-74423333D01*
X62100000Y-74390000D01*
X62200000Y-74390000D01*
X62266666Y-74423333D01*
X62300000Y-74456666D01*
X62333333Y-74523333D01*
X62333333Y-74723333D01*
X62300000Y-74790000D01*
X62266666Y-74823333D01*
X62200000Y-74856666D01*
X62100000Y-74856666D01*
X62733333Y-74856666D02*
X62666666Y-74823333D01*
X62633333Y-74756666D01*
X62633333Y-74156666D01*
X63533333Y-74856666D02*
X63533333Y-74390000D01*
X63533333Y-74156666D02*
X63500000Y-74190000D01*
X63533333Y-74223333D01*
X63566666Y-74190000D01*
X63533333Y-74156666D01*
X63533333Y-74223333D01*
X63833333Y-74823333D02*
X63900000Y-74856666D01*
X64033333Y-74856666D01*
X64100000Y-74823333D01*
X64133333Y-74756666D01*
X64133333Y-74723333D01*
X64100000Y-74656666D01*
X64033333Y-74623333D01*
X63933333Y-74623333D01*
X63866666Y-74590000D01*
X63833333Y-74523333D01*
X63833333Y-74490000D01*
X63866666Y-74423333D01*
X63933333Y-74390000D01*
X64033333Y-74390000D01*
X64100000Y-74423333D01*
X64966666Y-74856666D02*
X64966666Y-74390000D01*
X64966666Y-74523333D02*
X65000000Y-74456666D01*
X65033333Y-74423333D01*
X65100000Y-74390000D01*
X65166666Y-74390000D01*
X65666666Y-74823333D02*
X65600000Y-74856666D01*
X65466666Y-74856666D01*
X65400000Y-74823333D01*
X65366666Y-74756666D01*
X65366666Y-74490000D01*
X65400000Y-74423333D01*
X65466666Y-74390000D01*
X65600000Y-74390000D01*
X65666666Y-74423333D01*
X65700000Y-74490000D01*
X65700000Y-74556666D01*
X65366666Y-74623333D01*
X66300000Y-74390000D02*
X66300000Y-75090000D01*
X66300000Y-74823333D02*
X66233333Y-74856666D01*
X66100000Y-74856666D01*
X66033333Y-74823333D01*
X66000000Y-74790000D01*
X65966666Y-74723333D01*
X65966666Y-74523333D01*
X66000000Y-74456666D01*
X66033333Y-74423333D01*
X66100000Y-74390000D01*
X66233333Y-74390000D01*
X66300000Y-74423333D01*
X66933333Y-74390000D02*
X66933333Y-74856666D01*
X66633333Y-74390000D02*
X66633333Y-74756666D01*
X66666666Y-74823333D01*
X66733333Y-74856666D01*
X66833333Y-74856666D01*
X66900000Y-74823333D01*
X66933333Y-74790000D01*
X67266666Y-74856666D02*
X67266666Y-74390000D01*
X67266666Y-74156666D02*
X67233333Y-74190000D01*
X67266666Y-74223333D01*
X67300000Y-74190000D01*
X67266666Y-74156666D01*
X67266666Y-74223333D01*
X67600000Y-74856666D02*
X67600000Y-74390000D01*
X67600000Y-74523333D02*
X67633333Y-74456666D01*
X67666666Y-74423333D01*
X67733333Y-74390000D01*
X67800000Y-74390000D01*
X68300000Y-74823333D02*
X68233333Y-74856666D01*
X68100000Y-74856666D01*
X68033333Y-74823333D01*
X68000000Y-74756666D01*
X68000000Y-74490000D01*
X68033333Y-74423333D01*
X68100000Y-74390000D01*
X68233333Y-74390000D01*
X68300000Y-74423333D01*
X68333333Y-74490000D01*
X68333333Y-74556666D01*
X68000000Y-74623333D01*
X68933333Y-74856666D02*
X68933333Y-74156666D01*
X68933333Y-74823333D02*
X68866666Y-74856666D01*
X68733333Y-74856666D01*
X68666666Y-74823333D01*
X68633333Y-74790000D01*
X68600000Y-74723333D01*
X68600000Y-74523333D01*
X68633333Y-74456666D01*
X68666666Y-74423333D01*
X68733333Y-74390000D01*
X68866666Y-74390000D01*
X68933333Y-74423333D01*
X69266666Y-74790000D02*
X69300000Y-74823333D01*
X69266666Y-74856666D01*
X69233333Y-74823333D01*
X69266666Y-74790000D01*
X69266666Y-74856666D01*
D10*
X71744985Y-26578680D02*
X71411652Y-26102490D01*
X71173557Y-26578680D02*
X71173557Y-25578680D01*
X71554509Y-25578680D01*
X71649747Y-25626300D01*
X71697366Y-25673919D01*
X71744985Y-25769157D01*
X71744985Y-25912014D01*
X71697366Y-26007252D01*
X71649747Y-26054871D01*
X71554509Y-26102490D01*
X71173557Y-26102490D01*
X72744985Y-26483442D02*
X72697366Y-26531061D01*
X72554509Y-26578680D01*
X72459271Y-26578680D01*
X72316414Y-26531061D01*
X72221176Y-26435823D01*
X72173557Y-26340585D01*
X72125938Y-26150109D01*
X72125938Y-26007252D01*
X72173557Y-25816776D01*
X72221176Y-25721538D01*
X72316414Y-25626300D01*
X72459271Y-25578680D01*
X72554509Y-25578680D01*
X72697366Y-25626300D01*
X72744985Y-25673919D01*
X73744985Y-26483442D02*
X73697366Y-26531061D01*
X73554509Y-26578680D01*
X73459271Y-26578680D01*
X73316414Y-26531061D01*
X73221176Y-26435823D01*
X73173557Y-26340585D01*
X73125938Y-26150109D01*
X73125938Y-26007252D01*
X73173557Y-25816776D01*
X73221176Y-25721538D01*
X73316414Y-25626300D01*
X73459271Y-25578680D01*
X73554509Y-25578680D01*
X73697366Y-25626300D01*
X73744985Y-25673919D01*
X71506890Y-33964871D02*
X71173557Y-33964871D01*
X71173557Y-34488680D02*
X71173557Y-33488680D01*
X71649747Y-33488680D01*
X72602128Y-34488680D02*
X72268795Y-34012490D01*
X72030700Y-34488680D02*
X72030700Y-33488680D01*
X72411652Y-33488680D01*
X72506890Y-33536300D01*
X72554509Y-33583919D01*
X72602128Y-33679157D01*
X72602128Y-33822014D01*
X72554509Y-33917252D01*
X72506890Y-33964871D01*
X72411652Y-34012490D01*
X72030700Y-34012490D01*
X73459271Y-33822014D02*
X73459271Y-34488680D01*
X73221176Y-33441061D02*
X72983081Y-34155347D01*
X73602128Y-34155347D01*
D14*
X45150000Y-26630000D02*
G75*
G02X44650000Y-27130000I-500000J0D01*
G01*
X44650000Y-16480000D02*
G75*
G02X45150000Y-16980000I0J-500000D01*
G01*
X31515000Y-22680000D02*
X31515000Y-20920000D01*
X29744948Y-25590113D02*
G75*
G02X31492032Y-25994015I831536J-383648D01*
G01*
X30015000Y-22610000D02*
G75*
G03X31515000Y-22680000I750000J-35000D01*
G01*
X30015000Y-21130000D02*
X30015000Y-20990000D01*
X29745000Y-18010000D02*
G75*
G03X31492032Y-17605985I831484J383761D01*
G01*
X17525000Y-17100000D02*
X29525000Y-17100000D01*
X31492032Y-17605985D02*
X31500000Y-16980000D01*
X31500000Y-26630000D02*
X31492032Y-25994015D01*
X30015000Y-20990000D02*
G75*
G02X31515000Y-20920000I750000J35000D01*
G01*
X45150000Y-26630000D02*
X45150000Y-16980000D01*
X32000000Y-27130000D02*
X44650000Y-27130000D01*
X32000000Y-16480000D02*
X44650000Y-16480000D01*
X31500000Y-26630000D02*
G75*
G03X32000000Y-27130000I500000J0D01*
G01*
X31500000Y-16980000D02*
G75*
G02X32000000Y-16480000I500000J0D01*
G01*
X17025000Y-26000000D02*
G75*
G03X17525000Y-26500000I500000J0D01*
G01*
D15*
X29325000Y-22650000D02*
G75*
G02X28125000Y-22650000I-600000J0D01*
G01*
X29325000Y-20950000D02*
G75*
G03X28125000Y-20950000I-600000J0D01*
G01*
X28125000Y-20950000D02*
G75*
G03X28125000Y-22650000I0J-850000D01*
G01*
D14*
X28500000Y-26500000D02*
G75*
G03X26900000Y-26500000I-800000J0D01*
G01*
X28500000Y-26500000D02*
X29525000Y-26500000D01*
D15*
X29325000Y-20950000D02*
X29325000Y-22650000D01*
D14*
X17525000Y-17100000D02*
G75*
G03X17025000Y-17600000I0J-500000D01*
G01*
X17025000Y-17600000D02*
X17025000Y-26000000D01*
X17525000Y-26500000D02*
X26900000Y-26500000D01*
D16*
X17950000Y-27025000D02*
X29950000Y-27025000D01*
X17950000Y-16025000D02*
X17950000Y-27025000D01*
D14*
X30025000Y-21800000D02*
X30025000Y-21670000D01*
X30025000Y-21670000D02*
X30025000Y-21530000D01*
X30025000Y-21530000D02*
X30025000Y-21400000D01*
X30025000Y-21400000D02*
X30025000Y-21260000D01*
X30025000Y-21260000D02*
X30015000Y-21130000D01*
X29745000Y-18010000D02*
X29735000Y-17910000D01*
X29735000Y-17910000D02*
X29715000Y-17820000D01*
X29715000Y-17820000D02*
X29695000Y-17720000D01*
X29695000Y-17720000D02*
X29675000Y-17640000D01*
X29675000Y-17640000D02*
X29655000Y-17550000D01*
X29655000Y-17550000D02*
X29645000Y-17460000D01*
X29645000Y-17460000D02*
X29625000Y-17380000D01*
X29625000Y-17380000D02*
X29605000Y-17300000D01*
X29605000Y-17300000D02*
X29585000Y-17230000D01*
X29585000Y-17230000D02*
X29555000Y-17150000D01*
X29555000Y-17150000D02*
X29525000Y-17100000D01*
X29525000Y-26500000D02*
X29555000Y-26450000D01*
X29555000Y-26450000D02*
X29585000Y-26370000D01*
X29585000Y-26370000D02*
X29605000Y-26300000D01*
X29605000Y-26300000D02*
X29625000Y-26220000D01*
X29625000Y-26220000D02*
X29645000Y-26140000D01*
X29645000Y-26140000D02*
X29655000Y-26050000D01*
X29655000Y-26050000D02*
X29675000Y-25960000D01*
X29675000Y-25960000D02*
X29695000Y-25880000D01*
X29695000Y-25880000D02*
X29715000Y-25780000D01*
X29715000Y-25780000D02*
X29735000Y-25690000D01*
X29735000Y-25690000D02*
X29745000Y-25590000D01*
X30015000Y-22610000D02*
X30015000Y-22470000D01*
X30015000Y-22470000D02*
X30025000Y-22340000D01*
X30025000Y-22340000D02*
X30025000Y-22200000D01*
X30025000Y-22200000D02*
X30025000Y-22070000D01*
X30025000Y-22070000D02*
X30025000Y-21930000D01*
X30025000Y-21930000D02*
X30025000Y-21800000D01*
X28850000Y-26550000D02*
X28850000Y-17150000D01*
X28850000Y-17150000D02*
X16850000Y-17150000D01*
X28850000Y-26550000D02*
X16850000Y-26550000D01*
X16850000Y-26550000D02*
X16850000Y-17150000D01*
M02*
