G04 #@! TF.GenerationSoftware,KiCad,Pcbnew,5.1.4+dfsg1-1~bpo10+1*
G04 #@! TF.CreationDate,2019-12-17T19:50:16+01:00*
G04 #@! TF.ProjectId,qomu-board,716f6d75-2d62-46f6-9172-642e6b696361,rev?*
G04 #@! TF.SameCoordinates,Original*
G04 #@! TF.FileFunction,Soldermask,Top*
G04 #@! TF.FilePolarity,Negative*
%FSLAX46Y46*%
G04 Gerber Fmt 4.6, Leading zero omitted, Abs format (unit mm)*
G04 Created by KiCad (PCBNEW 5.1.4+dfsg1-1~bpo10+1) date 2019-12-17 19:50:16*
%MOMM*%
%LPD*%
G04 APERTURE LIST*
%ADD10C,0.100000*%
G04 APERTURE END LIST*
D10*
G36*
X29550000Y-17170000D02*
G01*
X29900000Y-18320000D01*
X29600000Y-18520000D01*
X29600000Y-19320000D01*
X27300000Y-19320000D01*
X27300000Y-18970000D01*
X27650000Y-18920000D01*
X27750000Y-18670000D01*
X27650000Y-18420000D01*
X27300000Y-18370000D01*
X27300000Y-17120000D01*
X29450000Y-17120000D01*
X29550000Y-17170000D01*
G37*
X29550000Y-17170000D02*
X29900000Y-18320000D01*
X29600000Y-18520000D01*
X29600000Y-19320000D01*
X27300000Y-19320000D01*
X27300000Y-18970000D01*
X27650000Y-18920000D01*
X27750000Y-18670000D01*
X27650000Y-18420000D01*
X27300000Y-18370000D01*
X27300000Y-17120000D01*
X29450000Y-17120000D01*
X29550000Y-17170000D01*
G36*
X29650000Y-25120000D02*
G01*
X29900000Y-25370000D01*
X29550000Y-26470000D01*
X29500000Y-26520000D01*
X28500000Y-26520000D01*
X28450000Y-26170000D01*
X28250000Y-25920000D01*
X28050000Y-25770000D01*
X27900000Y-25720000D01*
X27700000Y-25720000D01*
X27400000Y-25770000D01*
X27200000Y-25870000D01*
X27200000Y-24320000D01*
X29650000Y-24320000D01*
X29650000Y-25120000D01*
G37*
X29650000Y-25120000D02*
X29900000Y-25370000D01*
X29550000Y-26470000D01*
X29500000Y-26520000D01*
X28500000Y-26520000D01*
X28450000Y-26170000D01*
X28250000Y-25920000D01*
X28050000Y-25770000D01*
X27900000Y-25720000D01*
X27700000Y-25720000D01*
X27400000Y-25770000D01*
X27200000Y-25870000D01*
X27200000Y-24320000D01*
X29650000Y-24320000D01*
X29650000Y-25120000D01*
G36*
X29700000Y-20320000D02*
G01*
X30050000Y-20520000D01*
X30050000Y-23120000D01*
X29707585Y-23270000D01*
X29715000Y-24020000D01*
X27300000Y-24020000D01*
X27307500Y-19570000D01*
X29700000Y-19570000D01*
X29700000Y-20320000D01*
G37*
X29700000Y-20320000D02*
X30050000Y-20520000D01*
X30050000Y-23120000D01*
X29707585Y-23270000D01*
X29715000Y-24020000D01*
X27300000Y-24020000D01*
X27307500Y-19570000D01*
X29700000Y-19570000D01*
X29700000Y-20320000D01*
G36*
X32932517Y-24823781D02*
G01*
X33059946Y-24862436D01*
X33177383Y-24925208D01*
X33280317Y-25009683D01*
X33364792Y-25112617D01*
X33427564Y-25230054D01*
X33466219Y-25357484D01*
X33476000Y-25456796D01*
X33476000Y-25773205D01*
X33466219Y-25872517D01*
X33427564Y-25999946D01*
X33364792Y-26117383D01*
X33280317Y-26220316D01*
X33177382Y-26304792D01*
X33059945Y-26367564D01*
X32932516Y-26406219D01*
X32800000Y-26419270D01*
X32667483Y-26406219D01*
X32540054Y-26367564D01*
X32422617Y-26304792D01*
X32319684Y-26220317D01*
X32235208Y-26117382D01*
X32172436Y-25999945D01*
X32133781Y-25872516D01*
X32124000Y-25773204D01*
X32124000Y-25456795D01*
X32133781Y-25357483D01*
X32172436Y-25230054D01*
X32235208Y-25112617D01*
X32319683Y-25009684D01*
X32422618Y-24925208D01*
X32540055Y-24862436D01*
X32667484Y-24823781D01*
X32800000Y-24810730D01*
X32932517Y-24823781D01*
X32932517Y-24823781D01*
G37*
G36*
X18136612Y-17438388D02*
G01*
X18155554Y-17453933D01*
X18177165Y-17465484D01*
X18200614Y-17472597D01*
X18225000Y-17474999D01*
X25600001Y-17474999D01*
X25600001Y-26225001D01*
X18225000Y-26225001D01*
X18200614Y-26227403D01*
X18177165Y-26234516D01*
X18155554Y-26246067D01*
X18136612Y-26261612D01*
X18136612Y-26261613D01*
X18136611Y-26261612D01*
X18117669Y-26246067D01*
X18096058Y-26234516D01*
X18091781Y-26233219D01*
X18090484Y-26228942D01*
X18078933Y-26207331D01*
X18063388Y-26188389D01*
X17099999Y-25225000D01*
X17099999Y-23974999D01*
X17975000Y-23974999D01*
X17999386Y-23972597D01*
X18022835Y-23965484D01*
X18044446Y-23953933D01*
X18063388Y-23938388D01*
X18078933Y-23919446D01*
X18090484Y-23897835D01*
X18097597Y-23874386D01*
X18099999Y-23850000D01*
X18099999Y-19850000D01*
X18097597Y-19825614D01*
X18090484Y-19802165D01*
X18078933Y-19780554D01*
X18063388Y-19761612D01*
X18044446Y-19746067D01*
X18022835Y-19734516D01*
X17999386Y-19727403D01*
X17975000Y-19725001D01*
X17099999Y-19725001D01*
X17099999Y-18475000D01*
X18063388Y-17511611D01*
X18078933Y-17492669D01*
X18090484Y-17471058D01*
X18091781Y-17466781D01*
X18096058Y-17465484D01*
X18117669Y-17453933D01*
X18136611Y-17438388D01*
X18136612Y-17438387D01*
X18136612Y-17438388D01*
X18136612Y-17438388D01*
G37*
G36*
X43689890Y-23094017D02*
G01*
X43808364Y-23143091D01*
X43914988Y-23214335D01*
X44005665Y-23305012D01*
X44076910Y-23411638D01*
X44125983Y-23530110D01*
X44151000Y-23655881D01*
X44151000Y-23784119D01*
X44133045Y-23874386D01*
X44125983Y-23909890D01*
X44076909Y-24028364D01*
X44005665Y-24134988D01*
X43914988Y-24225665D01*
X43808364Y-24296909D01*
X43808363Y-24296910D01*
X43808362Y-24296910D01*
X43689890Y-24345983D01*
X43564119Y-24371000D01*
X43435881Y-24371000D01*
X43310110Y-24345983D01*
X43191638Y-24296910D01*
X43191637Y-24296910D01*
X43191636Y-24296909D01*
X43085012Y-24225665D01*
X42994335Y-24134988D01*
X42923091Y-24028364D01*
X42874017Y-23909890D01*
X42866955Y-23874386D01*
X42849000Y-23784119D01*
X42849000Y-23655881D01*
X42874017Y-23530110D01*
X42923090Y-23411638D01*
X42994335Y-23305012D01*
X43085012Y-23214335D01*
X43191636Y-23143091D01*
X43310110Y-23094017D01*
X43435881Y-23069000D01*
X43564119Y-23069000D01*
X43689890Y-23094017D01*
X43689890Y-23094017D01*
G37*
G36*
X32932517Y-22283781D02*
G01*
X33059946Y-22322436D01*
X33177383Y-22385208D01*
X33280317Y-22469683D01*
X33364792Y-22572617D01*
X33427564Y-22690054D01*
X33466219Y-22817484D01*
X33476000Y-22916796D01*
X33476000Y-23233205D01*
X33466219Y-23332517D01*
X33427564Y-23459946D01*
X33364792Y-23577383D01*
X33280317Y-23680316D01*
X33177382Y-23764792D01*
X33059945Y-23827564D01*
X32932516Y-23866219D01*
X32800000Y-23879270D01*
X32667483Y-23866219D01*
X32540054Y-23827564D01*
X32422617Y-23764792D01*
X32319684Y-23680317D01*
X32235208Y-23577382D01*
X32172436Y-23459945D01*
X32133781Y-23332516D01*
X32124000Y-23233204D01*
X32124000Y-22916795D01*
X32133781Y-22817483D01*
X32172436Y-22690054D01*
X32235208Y-22572617D01*
X32319683Y-22469684D01*
X32422618Y-22385208D01*
X32540055Y-22322436D01*
X32667484Y-22283781D01*
X32800000Y-22270730D01*
X32932517Y-22283781D01*
X32932517Y-22283781D01*
G37*
G36*
X43689890Y-20094017D02*
G01*
X43808364Y-20143091D01*
X43914988Y-20214335D01*
X44005665Y-20305012D01*
X44053632Y-20376799D01*
X44076910Y-20411638D01*
X44125983Y-20530110D01*
X44151000Y-20655881D01*
X44151000Y-20784119D01*
X44149329Y-20792518D01*
X44125983Y-20909890D01*
X44076909Y-21028364D01*
X44005665Y-21134988D01*
X43914988Y-21225665D01*
X43808364Y-21296909D01*
X43808363Y-21296910D01*
X43808362Y-21296910D01*
X43689890Y-21345983D01*
X43564119Y-21371000D01*
X43435881Y-21371000D01*
X43310110Y-21345983D01*
X43191638Y-21296910D01*
X43191637Y-21296910D01*
X43191636Y-21296909D01*
X43085012Y-21225665D01*
X42994335Y-21134988D01*
X42923091Y-21028364D01*
X42874017Y-20909890D01*
X42850671Y-20792518D01*
X42849000Y-20784119D01*
X42849000Y-20655881D01*
X42874017Y-20530110D01*
X42923090Y-20411638D01*
X42946369Y-20376799D01*
X42994335Y-20305012D01*
X43085012Y-20214335D01*
X43191636Y-20143091D01*
X43310110Y-20094017D01*
X43435881Y-20069000D01*
X43564119Y-20069000D01*
X43689890Y-20094017D01*
X43689890Y-20094017D01*
G37*
G36*
X32932517Y-19743781D02*
G01*
X33059946Y-19782436D01*
X33177383Y-19845208D01*
X33280317Y-19929683D01*
X33364792Y-20032617D01*
X33427564Y-20150054D01*
X33466219Y-20277484D01*
X33476000Y-20376796D01*
X33476000Y-20693205D01*
X33466219Y-20792517D01*
X33427564Y-20919946D01*
X33364792Y-21037383D01*
X33280317Y-21140316D01*
X33177382Y-21224792D01*
X33059945Y-21287564D01*
X32932516Y-21326219D01*
X32800000Y-21339270D01*
X32667483Y-21326219D01*
X32540054Y-21287564D01*
X32422617Y-21224792D01*
X32319684Y-21140317D01*
X32235208Y-21037382D01*
X32172436Y-20919945D01*
X32133781Y-20792516D01*
X32124000Y-20693204D01*
X32124000Y-20376795D01*
X32133781Y-20277483D01*
X32172436Y-20150054D01*
X32235208Y-20032617D01*
X32319683Y-19929684D01*
X32422618Y-19845208D01*
X32540055Y-19782436D01*
X32667484Y-19743781D01*
X32800000Y-19730730D01*
X32932517Y-19743781D01*
X32932517Y-19743781D01*
G37*
G36*
X33476000Y-18796000D02*
G01*
X32124000Y-18796000D01*
X32124000Y-17194000D01*
X33476000Y-17194000D01*
X33476000Y-18796000D01*
X33476000Y-18796000D01*
G37*
G36*
X39466601Y-17384397D02*
G01*
X39505305Y-17392096D01*
X39537340Y-17405365D01*
X39614680Y-17437400D01*
X39713115Y-17503173D01*
X39796828Y-17586886D01*
X39861067Y-17683026D01*
X39876613Y-17701968D01*
X39895555Y-17717513D01*
X39917165Y-17729064D01*
X39940614Y-17736177D01*
X39965000Y-17738579D01*
X39989386Y-17736177D01*
X40012835Y-17729064D01*
X40034446Y-17717513D01*
X40053388Y-17701967D01*
X40068933Y-17683026D01*
X40133172Y-17586886D01*
X40216885Y-17503173D01*
X40315320Y-17437400D01*
X40392660Y-17405365D01*
X40424695Y-17392096D01*
X40463399Y-17384397D01*
X40540805Y-17369000D01*
X40659195Y-17369000D01*
X40736601Y-17384397D01*
X40775305Y-17392096D01*
X40807340Y-17405365D01*
X40884680Y-17437400D01*
X40983115Y-17503173D01*
X41066827Y-17586885D01*
X41132600Y-17685320D01*
X41177904Y-17794696D01*
X41201000Y-17910805D01*
X41201000Y-18029195D01*
X41177904Y-18145304D01*
X41132600Y-18254680D01*
X41066827Y-18353115D01*
X40983115Y-18436827D01*
X40884680Y-18502600D01*
X40807340Y-18534635D01*
X40775305Y-18547904D01*
X40736601Y-18555603D01*
X40659195Y-18571000D01*
X40540805Y-18571000D01*
X40463399Y-18555603D01*
X40424695Y-18547904D01*
X40392660Y-18534635D01*
X40315320Y-18502600D01*
X40216885Y-18436827D01*
X40133172Y-18353114D01*
X40068933Y-18256974D01*
X40053387Y-18238032D01*
X40034445Y-18222487D01*
X40012835Y-18210936D01*
X39989386Y-18203823D01*
X39965000Y-18201421D01*
X39940614Y-18203823D01*
X39917165Y-18210936D01*
X39895554Y-18222487D01*
X39876612Y-18238033D01*
X39861067Y-18256974D01*
X39796828Y-18353114D01*
X39713115Y-18436827D01*
X39614680Y-18502600D01*
X39537340Y-18534635D01*
X39505305Y-18547904D01*
X39466601Y-18555603D01*
X39389195Y-18571000D01*
X39270805Y-18571000D01*
X39193399Y-18555603D01*
X39154695Y-18547904D01*
X39122660Y-18534635D01*
X39045320Y-18502600D01*
X38946885Y-18436827D01*
X38863173Y-18353115D01*
X38797400Y-18254680D01*
X38752096Y-18145304D01*
X38729000Y-18029195D01*
X38729000Y-17910805D01*
X38752096Y-17794696D01*
X38797400Y-17685320D01*
X38863173Y-17586885D01*
X38946885Y-17503173D01*
X39045320Y-17437400D01*
X39122660Y-17405365D01*
X39154695Y-17392096D01*
X39193399Y-17384397D01*
X39270805Y-17369000D01*
X39389195Y-17369000D01*
X39466601Y-17384397D01*
X39466601Y-17384397D01*
G37*
M02*
