M48
; DRILL file {KiCad 5.1.4+dfsg1-1~bpo10+1} date Tue Dec 17 19:50:08 2019
; FORMAT={-:-/ absolute / metric / decimal}
; #@! TF.CreationDate,2019-12-17T19:50:08+01:00
; #@! TF.GenerationSoftware,Kicad,Pcbnew,5.1.4+dfsg1-1~bpo10+1
; #@! TF.FileFunction,Plated,4,5,Buried
FMAT,2
METRIC
T1C0.100
T2C0.150
%
G90
G05
T1
X17.85Y-26.0
X20.39Y-26.0
X20.55Y-19.72
X20.87Y-20.959
X20.937Y-22.467
X20.937Y-22.823
X21.284Y-22.819
X21.292Y-22.467
X21.635Y-22.124
X21.635Y-22.467
X21.635Y-22.823
X22.26Y-21.389
X26.32Y-23.64
T2
X17.38Y-25.76
X18.82Y-25.23
X19.77Y-25.28
X19.79Y-24.209
X20.23Y-25.25
X21.1Y-25.7
X21.52Y-26.06
X23.23Y-25.2
X23.24Y-21.079
X23.24Y-23.879
X24.22Y-22.449
X24.5Y-20.584
X24.58Y-24.74
X25.375Y-20.609
X25.86Y-26.08
X25.89Y-23.159
X26.27Y-22.91
T0
M30
