G04 #@! TF.GenerationSoftware,KiCad,Pcbnew,5.1.4+dfsg1-1~bpo10+1*
G04 #@! TF.CreationDate,2019-12-17T19:50:16+01:00*
G04 #@! TF.ProjectId,qomu-board,716f6d75-2d62-46f6-9172-642e6b696361,rev?*
G04 #@! TF.SameCoordinates,Original*
G04 #@! TF.FileFunction,Legend,Bot*
G04 #@! TF.FilePolarity,Positive*
%FSLAX46Y46*%
G04 Gerber Fmt 4.6, Leading zero omitted, Abs format (unit mm)*
G04 Created by KiCad (PCBNEW 5.1.4+dfsg1-1~bpo10+1) date 2019-12-17 19:50:16*
%MOMM*%
%LPD*%
G04 APERTURE LIST*
%ADD10C,0.150000*%
%ADD11C,0.100000*%
%ADD12C,0.120000*%
%ADD13C,0.300000*%
%ADD14C,0.200000*%
G04 APERTURE END LIST*
D10*
X23366158Y-22390000D02*
G75*
G03X23366158Y-22390000I-76158J0D01*
G01*
X23700000Y-22590000D02*
X23975000Y-22590000D01*
X24000000Y-20690000D02*
X24000000Y-20390000D01*
X23700000Y-20690000D02*
X24000000Y-20690000D01*
X25900000Y-20690000D02*
X25900000Y-20390000D01*
X26200000Y-20690000D02*
X25900000Y-20690000D01*
X25900000Y-22590000D02*
X25900000Y-22890000D01*
X26200000Y-22590000D02*
X25900000Y-22590000D01*
D11*
X40400000Y-24870000D02*
X40400000Y-24370000D01*
X40200000Y-24870000D02*
X40400000Y-24870000D01*
X40400000Y-21270000D02*
X40400000Y-21770000D01*
X40200000Y-21270000D02*
X40400000Y-21270000D01*
X33800000Y-21270000D02*
X33800000Y-21870000D01*
X34000000Y-21270000D02*
X33800000Y-21270000D01*
X34000000Y-24870000D02*
X33800000Y-24870000D01*
X33800000Y-24870000D02*
X33800000Y-24370000D01*
X35225000Y-18795000D02*
X35225000Y-18495000D01*
X35600000Y-18795000D02*
X35225000Y-18795000D01*
X37275000Y-18795000D02*
X37275000Y-18520000D01*
X36950000Y-18795000D02*
X37275000Y-18795000D01*
X37275000Y-17145000D02*
X36975000Y-17145000D01*
X37275000Y-17470000D02*
X37275000Y-17145000D01*
X35600000Y-17155000D02*
X35225000Y-17155000D01*
X35225000Y-17455000D02*
X35225000Y-17155000D01*
X35550000Y-18470000D02*
X35450000Y-18470000D01*
X35550000Y-17470000D02*
X35550000Y-18470000D01*
X35450000Y-17470000D02*
X35550000Y-17470000D01*
X35450000Y-18470000D02*
X35450000Y-17470000D01*
X44525000Y-17945000D02*
X45125000Y-17945000D01*
X45125000Y-17945000D02*
X45125000Y-18670000D01*
X40975000Y-18720000D02*
X40975000Y-17945000D01*
X40975000Y-17945000D02*
X41550000Y-17945000D01*
X44525000Y-26495000D02*
X45125000Y-26495000D01*
X45125000Y-26495000D02*
X45125000Y-25820000D01*
X41025000Y-25895000D02*
X41025000Y-26445000D01*
X41025000Y-26445000D02*
X41500000Y-26445000D01*
X38125000Y-19195000D02*
X38125000Y-18695000D01*
X38125000Y-19195000D02*
X38625000Y-19195000D01*
X38125000Y-16745000D02*
X38125000Y-17245000D01*
X38125000Y-16745000D02*
X38625000Y-16745000D01*
X41815000Y-19195000D02*
X41815000Y-18695000D01*
X41815000Y-16745000D02*
X41815000Y-17245000D01*
X41815000Y-19195000D02*
X41315000Y-19195000D01*
X41815000Y-16745000D02*
X41315000Y-16745000D01*
D10*
X18950000Y-22103500D02*
G75*
G03X18950000Y-22103500I-50000J0D01*
G01*
D11*
X26590000Y-18319000D02*
G75*
G03X26590000Y-18319000I-50000J0D01*
G01*
X17960000Y-17479000D02*
G75*
G03X17960000Y-17479000I-50000J0D01*
G01*
X26510355Y-19075000D02*
G75*
G03X26510355Y-19075000I-35355J0D01*
G01*
D12*
X20270000Y-25549000D02*
X19270000Y-25549000D01*
X20430000Y-24289000D02*
X19270000Y-24289000D01*
X24075000Y-23060000D02*
X25075000Y-23060000D01*
X23915000Y-24320000D02*
X25075000Y-24320000D01*
D11*
X18930000Y-17479000D02*
G75*
G03X18930000Y-17479000I-50000J0D01*
G01*
D10*
X22900000Y-20895000D02*
X23300000Y-20895000D01*
X23300000Y-20895000D02*
X23300000Y-20995000D01*
X22900000Y-18595000D02*
X23300000Y-18595000D01*
X23300000Y-18595000D02*
X23300000Y-18495000D01*
X20400000Y-18595000D02*
X20000000Y-18595000D01*
X20000000Y-18595000D02*
X20000000Y-18495000D01*
X20400000Y-20895000D02*
X19975000Y-20895000D01*
D13*
X18876491Y-21195000D02*
G75*
G03X18876491Y-21195000I-126491J0D01*
G01*
D10*
X22099000Y-24006000D02*
X22763000Y-24006000D01*
X22763000Y-24006000D02*
X22763000Y-23400500D01*
X22099000Y-24006000D02*
X22763000Y-24006000D01*
X22763000Y-24006000D02*
X22763000Y-23400500D01*
X22099000Y-21284000D02*
X22763000Y-21284000D01*
X22763000Y-21284000D02*
X22763000Y-21889500D01*
X22099000Y-24006000D02*
X22763000Y-24006000D01*
X22763000Y-24006000D02*
X22763000Y-23400500D01*
X20471000Y-21284000D02*
X19807000Y-21284000D01*
X19807000Y-21284000D02*
X19807000Y-21889500D01*
X20957000Y-24006000D02*
X19807000Y-22856000D01*
D14*
X20057000Y-23856000D02*
G75*
G03X20057000Y-23856000I-100000J0D01*
G01*
D10*
X25961904Y-23067380D02*
X25961904Y-23876904D01*
X25914285Y-23972142D01*
X25866666Y-24019761D01*
X25771428Y-24067380D01*
X25580952Y-24067380D01*
X25485714Y-24019761D01*
X25438095Y-23972142D01*
X25390476Y-23876904D01*
X25390476Y-23067380D01*
X24438095Y-23067380D02*
X24914285Y-23067380D01*
X24961904Y-23543571D01*
X24914285Y-23495952D01*
X24819047Y-23448333D01*
X24580952Y-23448333D01*
X24485714Y-23495952D01*
X24438095Y-23543571D01*
X24390476Y-23638809D01*
X24390476Y-23876904D01*
X24438095Y-23972142D01*
X24485714Y-24019761D01*
X24580952Y-24067380D01*
X24819047Y-24067380D01*
X24914285Y-24019761D01*
X24961904Y-23972142D01*
X37929761Y-24833095D02*
X37977380Y-24975952D01*
X37977380Y-25214047D01*
X37929761Y-25309285D01*
X37882142Y-25356904D01*
X37786904Y-25404523D01*
X37691666Y-25404523D01*
X37596428Y-25356904D01*
X37548809Y-25309285D01*
X37501190Y-25214047D01*
X37453571Y-25023571D01*
X37405952Y-24928333D01*
X37358333Y-24880714D01*
X37263095Y-24833095D01*
X37167857Y-24833095D01*
X37072619Y-24880714D01*
X37025000Y-24928333D01*
X36977380Y-25023571D01*
X36977380Y-25261666D01*
X37025000Y-25404523D01*
X37977380Y-26356904D02*
X37977380Y-25785476D01*
X37977380Y-26071190D02*
X36977380Y-26071190D01*
X37120238Y-25975952D01*
X37215476Y-25880714D01*
X37263095Y-25785476D01*
M02*
