M48
; DRILL file {KiCad 5.1.4+dfsg1-1~bpo10+1} date Tue Dec 17 19:50:08 2019
; FORMAT={-:-/ absolute / metric / decimal}
; #@! TF.CreationDate,2019-12-17T19:50:08+01:00
; #@! TF.GenerationSoftware,Kicad,Pcbnew,5.1.4+dfsg1-1~bpo10+1
; #@! TF.FileFunction,Plated,1,6,PTH
FMAT,2
METRIC
T1C0.150
T2C0.200
T3C0.700
T4C0.900
%
G90
G05
T1
X17.32Y-19.209
X17.32Y-23.559
X17.36Y-18.729
X17.37Y-17.479
X17.38Y-24.919
X17.4Y-21.649
X17.77Y-20.389
X17.8Y-21.659
X18.38Y-17.499
X18.91Y-24.6
X19.84Y-17.999
X20.59Y-18.79
X22.09Y-19.449
X24.1Y-18.734
X25.07Y-24.41
X25.43Y-24.189
X26.13Y-17.879
X27.45Y-18.659
X27.48Y-20.15
X27.51Y-23.839
X27.51Y-24.54
X27.98Y-19.1
X33.7Y-22.22
X34.0Y-19.12
X34.55Y-23.37
X34.6Y-18.62
X34.6Y-19.37
X35.1Y-18.87
X35.85Y-18.77
X35.85Y-19.32
X35.85Y-23.37
X37.1Y-18.77
X37.1Y-19.32
X37.1Y-23.37
X38.35Y-19.37
X38.4Y-23.37
X39.65Y-19.37
X39.65Y-22.67
X39.65Y-23.37
X40.4Y-24.47
X40.9Y-22.25
X41.0Y-20.67
X41.6Y-18.92
X41.6Y-19.37
X41.65Y-22.27
X41.7Y-20.67
X43.3Y-17.97
X43.8Y-17.97
T2
X29.85Y-18.65
X29.85Y-24.95
X29.92Y-19.4
X29.92Y-24.2
X29.98Y-20.15
X29.98Y-23.45
X31.5Y-18.65
X31.5Y-19.4
X31.5Y-20.15
X31.5Y-23.45
X31.5Y-24.2
X31.5Y-24.95
T3
X39.33Y-17.97
X40.6Y-17.97
T4
X32.8Y-17.995
X32.8Y-20.535
X32.8Y-23.075
X32.8Y-25.615
X43.5Y-20.72
X43.5Y-23.72
T0
M30
