M48
; DRILL file {KiCad 5.1.4+dfsg1-1~bpo10+1} date Tue Dec 17 19:50:08 2019
; FORMAT={-:-/ absolute / metric / decimal}
; #@! TF.CreationDate,2019-12-17T19:50:08+01:00
; #@! TF.GenerationSoftware,Kicad,Pcbnew,5.1.4+dfsg1-1~bpo10+1
; #@! TF.FileFunction,Plated,5,6,Blind
FMAT,2
METRIC
T1C0.100
T2C0.150
%
G90
G05
T1
X17.74Y-17.999
X17.74Y-18.509
X18.19Y-26.001
X18.83Y-17.51
X19.44Y-20.239
X19.45Y-19.539
X19.46Y-25.991
X19.71Y-21.719
X19.75Y-22.819
X19.81Y-22.059
X19.95Y-20.909
X20.23Y-18.52
X20.41Y-21.439
X20.55Y-19.359
X20.55Y-20.684
X20.579Y-22.464
X20.585Y-22.12
X20.585Y-22.82
X20.585Y-23.17
X20.73Y-26.001
X20.935Y-22.12
X20.935Y-22.82
X20.935Y-23.17
X20.937Y-22.467
X20.95Y-20.209
X21.225Y-21.234
X21.285Y-22.12
X21.285Y-22.82
X21.285Y-23.17
X21.29Y-23.809
X21.291Y-22.467
X21.635Y-22.47
X21.635Y-22.82
X21.635Y-23.17
X21.635Y-22.12
X21.81Y-23.799
X21.985Y-22.12
X21.985Y-22.467
X21.985Y-22.821
X21.985Y-23.17
X21.99Y-23.519
X22.23Y-24.91
X22.66Y-20.079
X22.66Y-20.509
X22.77Y-23.009
X22.775Y-19.009
X22.775Y-19.484
X22.79Y-23.669
X22.85Y-20.919
X22.85Y-23.339
X22.95Y-24.029
X24.3Y-25.24
X24.64Y-18.549
X24.95Y-21.439
X24.95Y-21.769
X24.95Y-22.979
X25.47Y-22.64
X25.75Y-24.429
X26.125Y-20.609
X26.28Y-24.339
X26.32Y-23.98
X26.85Y-17.46
X27.07Y-19.049
T2
X17.37Y-25.409
X17.77Y-19.959
X18.83Y-25.581
X19.76Y-24.929
X19.77Y-22.439
X20.12Y-24.029
X20.581Y-25.24
X20.72Y-23.969
X21.451Y-25.69
X21.871Y-26.05
X22.6Y-23.969
X22.82Y-22.629
X23.62Y-25.2
X23.65Y-21.084
X23.65Y-22.629
X24.125Y-20.584
X24.22Y-22.829
X24.57Y-24.389
X25.47Y-26.08
X25.75Y-20.609
X25.89Y-22.749
T0
M30
