G04 #@! TF.GenerationSoftware,KiCad,Pcbnew,5.1.4+dfsg1-1~bpo10+1*
G04 #@! TF.CreationDate,2019-12-17T19:50:16+01:00*
G04 #@! TF.ProjectId,qomu-board,716f6d75-2d62-46f6-9172-642e6b696361,rev?*
G04 #@! TF.SameCoordinates,Original*
G04 #@! TF.FileFunction,Copper,L2,Inr*
G04 #@! TF.FilePolarity,Positive*
%FSLAX46Y46*%
G04 Gerber Fmt 4.6, Leading zero omitted, Abs format (unit mm)*
G04 Created by KiCad (PCBNEW 5.1.4+dfsg1-1~bpo10+1) date 2019-12-17 19:50:16*
%MOMM*%
%LPD*%
G04 APERTURE LIST*
%ADD10C,1.200000*%
%ADD11C,1.100000*%
%ADD12O,1.250000X1.500000*%
%ADD13R,1.250000X1.500000*%
%ADD14C,0.350000*%
%ADD15C,0.300000*%
%ADD16C,0.250000*%
%ADD17C,0.150000*%
%ADD18C,0.100000*%
G04 APERTURE END LIST*
D10*
X43500000Y-20720000D03*
X43500000Y-23720000D03*
D11*
X40600000Y-17970000D03*
X39330000Y-17970000D03*
D12*
X32800000Y-25615000D03*
X32800000Y-23075000D03*
X32800000Y-20535000D03*
D13*
X32800000Y-17995000D03*
D14*
X29980000Y-20150000D03*
X29980000Y-23450000D03*
X29920000Y-24200000D03*
X29850000Y-24950000D03*
X29850000Y-18650000D03*
X29920000Y-19400000D03*
X31500000Y-20150000D03*
X31500000Y-23450000D03*
X31500000Y-24200000D03*
X31500000Y-24950000D03*
X31500000Y-18650000D03*
X31500000Y-19400000D03*
D15*
X34000000Y-19120000D03*
X34600000Y-18620000D03*
X39650000Y-22670000D03*
X39650000Y-19370000D03*
X37100000Y-19320000D03*
X37100000Y-18770000D03*
X35850000Y-19320000D03*
X35850000Y-18770000D03*
D14*
X22090000Y-19449000D03*
X17360000Y-18729000D03*
D15*
X17320000Y-23559000D03*
X17320000Y-19209000D03*
D14*
X17370000Y-17479000D03*
X24100000Y-18734000D03*
X26130000Y-17879000D03*
X27450000Y-18659000D03*
X19840000Y-17999000D03*
X18380000Y-17499000D03*
D15*
X17800000Y-21659000D03*
D14*
X20590000Y-18790000D03*
D15*
X41600000Y-18920000D03*
X41600000Y-19370000D03*
X35100000Y-18870000D03*
X34600000Y-19370000D03*
X26930000Y-20480000D03*
D14*
X27980000Y-19100000D03*
X27510000Y-24540000D03*
X27510000Y-23839000D03*
X27480000Y-20150000D03*
D15*
X17770000Y-20389000D03*
X17400000Y-21649000D03*
X39650000Y-23370000D03*
D16*
X18940000Y-26010000D03*
D15*
X25070000Y-24410000D03*
X18910000Y-24600000D03*
X25430000Y-24189000D03*
X17380000Y-24919000D03*
X40900000Y-22250000D03*
X41000000Y-20670000D03*
X33700000Y-22220000D03*
X43800000Y-17970000D03*
X34550000Y-23370000D03*
X43300000Y-17970000D03*
X35850000Y-23370000D03*
X41650000Y-22270000D03*
X38400000Y-23370000D03*
X38350000Y-19370000D03*
X41700000Y-20670000D03*
X37100000Y-23370000D03*
X40400000Y-24470000D03*
D16*
X20200000Y-25720000D03*
D17*
X33950000Y-19170000D02*
X34000000Y-19120000D01*
X32100000Y-19170000D02*
X33950000Y-19170000D01*
X31950000Y-19020000D02*
X32100000Y-19170000D01*
X28700000Y-19020000D02*
X31950000Y-19020000D01*
X27450000Y-18659000D02*
X28339000Y-18659000D01*
X28339000Y-18659000D02*
X28700000Y-19020000D01*
X34100000Y-19120000D02*
X34600000Y-18620000D01*
X34000000Y-19120000D02*
X34100000Y-19120000D01*
X34500000Y-19470000D02*
X34600000Y-19370000D01*
X31860000Y-19760000D02*
X32150000Y-19470000D01*
X32150000Y-19470000D02*
X34500000Y-19470000D01*
X27160000Y-19760000D02*
X31860000Y-19760000D01*
X26930000Y-20480000D02*
X26930000Y-19990000D01*
X26930000Y-19990000D02*
X27160000Y-19760000D01*
D18*
X18940000Y-26010000D02*
X19340000Y-25610000D01*
X19340000Y-25610000D02*
X19340000Y-24880000D01*
X19340000Y-24880000D02*
X19600000Y-24620000D01*
X19600000Y-24620000D02*
X21680000Y-24620000D01*
X21680000Y-24620000D02*
X22690000Y-25630000D01*
X22690000Y-25630000D02*
X24580000Y-25630000D01*
X24580000Y-25630000D02*
X25510000Y-24700000D01*
X25510000Y-24700000D02*
X26490000Y-24700000D01*
X26490000Y-24700000D02*
X27010000Y-24180000D01*
X27010000Y-24180000D02*
X28250000Y-24180000D01*
X28250000Y-24180000D02*
X28600000Y-23830000D01*
X28600000Y-23830000D02*
X31790000Y-23830000D01*
D17*
X31790000Y-23830000D02*
X31860000Y-23830000D01*
X31860000Y-23830000D02*
X32200000Y-24170000D01*
X38850000Y-24170000D02*
X39650000Y-23370000D01*
X32200000Y-24170000D02*
X38850000Y-24170000D01*
D18*
X20200000Y-25720000D02*
X20590000Y-25720000D01*
X20590000Y-25720000D02*
X20980000Y-25330000D01*
X20980000Y-25330000D02*
X22100000Y-25330000D01*
X22100000Y-25330000D02*
X22590000Y-25820000D01*
X22590000Y-25820000D02*
X24680000Y-25820000D01*
X24680000Y-25820000D02*
X25500000Y-25000000D01*
X25500000Y-25000000D02*
X27750000Y-25000000D01*
X27750000Y-25000000D02*
X28170000Y-24580000D01*
X28170000Y-24580000D02*
X31750000Y-24580000D01*
D17*
X31750000Y-24580000D02*
X32090000Y-24580000D01*
X32200000Y-24470000D02*
X40400000Y-24470000D01*
X32090000Y-24580000D02*
X32200000Y-24470000D01*
M02*
