G04 #@! TF.GenerationSoftware,KiCad,Pcbnew,5.1.4+dfsg1-1~bpo10+1*
G04 #@! TF.CreationDate,2019-12-17T19:50:16+01:00*
G04 #@! TF.ProjectId,qomu-board,716f6d75-2d62-46f6-9172-642e6b696361,rev?*
G04 #@! TF.SameCoordinates,Original*
G04 #@! TF.FileFunction,Copper,L4,Inr*
G04 #@! TF.FilePolarity,Positive*
%FSLAX46Y46*%
G04 Gerber Fmt 4.6, Leading zero omitted, Abs format (unit mm)*
G04 Created by KiCad (PCBNEW 5.1.4+dfsg1-1~bpo10+1) date 2019-12-17 19:50:16*
%MOMM*%
%LPD*%
G04 APERTURE LIST*
%ADD10C,1.200000*%
%ADD11C,1.100000*%
%ADD12O,1.250000X1.500000*%
%ADD13R,1.250000X1.500000*%
%ADD14C,0.350000*%
%ADD15C,0.300000*%
%ADD16C,0.250000*%
%ADD17C,0.200000*%
%ADD18C,0.150000*%
%ADD19C,0.100000*%
%ADD20C,0.254000*%
G04 APERTURE END LIST*
D10*
X43500000Y-20720000D03*
X43500000Y-23720000D03*
D11*
X40600000Y-17970000D03*
X39330000Y-17970000D03*
D12*
X32800000Y-25615000D03*
X32800000Y-23075000D03*
X32800000Y-20535000D03*
D13*
X32800000Y-17995000D03*
D14*
X29980000Y-20150000D03*
X29980000Y-23450000D03*
X29920000Y-24200000D03*
X29850000Y-24950000D03*
X29850000Y-18650000D03*
X29920000Y-19400000D03*
X31500000Y-20150000D03*
X31500000Y-23450000D03*
X31500000Y-24200000D03*
X31500000Y-24950000D03*
X31500000Y-18650000D03*
X31500000Y-19400000D03*
D15*
X34000000Y-19120000D03*
X34600000Y-18620000D03*
X39650000Y-22670000D03*
X39650000Y-19370000D03*
X37100000Y-19320000D03*
X37100000Y-18770000D03*
X35850000Y-19320000D03*
X35850000Y-18770000D03*
D16*
X21283959Y-22819319D03*
D15*
X21520000Y-26060000D03*
X21100000Y-25700000D03*
X19770000Y-25280000D03*
X20230000Y-25250000D03*
X18820000Y-25230000D03*
X17380000Y-25760000D03*
D14*
X22090000Y-19449000D03*
X17360000Y-18729000D03*
D15*
X25890000Y-23159000D03*
X23240000Y-23879000D03*
X24220000Y-22449000D03*
D14*
X23240000Y-21079000D03*
D15*
X17320000Y-23559000D03*
X17320000Y-19209000D03*
D14*
X17370000Y-17479000D03*
D16*
X21292400Y-22467200D03*
X20936800Y-22822800D03*
X21635300Y-22822800D03*
X21635300Y-22124300D03*
D14*
X24100000Y-18734000D03*
X26130000Y-17879000D03*
X27450000Y-18659000D03*
X19840000Y-17999000D03*
X18380000Y-17499000D03*
D15*
X17800000Y-21659000D03*
D14*
X20590000Y-18790000D03*
D15*
X23230000Y-25200000D03*
D16*
X26320000Y-23640000D03*
D15*
X24580000Y-24740000D03*
X26270000Y-22910000D03*
X41600000Y-18920000D03*
X41600000Y-19370000D03*
X35100000Y-18870000D03*
X34600000Y-19370000D03*
X25860000Y-26080000D03*
X26260000Y-26080000D03*
X19790000Y-24209000D03*
X19790000Y-23849000D03*
X24950000Y-20834000D03*
X25375000Y-20609000D03*
X24500000Y-20584000D03*
X24950000Y-20459000D03*
D16*
X20550000Y-19720000D03*
X20200000Y-19520000D03*
D14*
X27980000Y-19100000D03*
X27510000Y-24540000D03*
X27510000Y-23839000D03*
X27480000Y-20150000D03*
D16*
X20936800Y-22467200D03*
X20870000Y-20959000D03*
D15*
X17770000Y-20389000D03*
X17400000Y-21649000D03*
X39650000Y-23370000D03*
D16*
X17850000Y-26000000D03*
X18560000Y-26010000D03*
X21635300Y-22467200D03*
X22260000Y-21389000D03*
D15*
X25070000Y-24410000D03*
X18910000Y-24600000D03*
X25430000Y-24189000D03*
X17380000Y-24919000D03*
X40900000Y-22250000D03*
X41000000Y-20670000D03*
X33700000Y-22220000D03*
X43800000Y-17970000D03*
X34550000Y-23370000D03*
X43300000Y-17970000D03*
X35850000Y-23370000D03*
X41650000Y-22270000D03*
X38400000Y-23370000D03*
X38350000Y-19370000D03*
X41700000Y-20670000D03*
X37100000Y-23370000D03*
X40400000Y-24470000D03*
D16*
X20390000Y-26000000D03*
X20010000Y-25990000D03*
D17*
X27450000Y-18659000D02*
X26399000Y-18659000D01*
D18*
X24625000Y-20459000D02*
X24500000Y-20584000D01*
X24950000Y-20459000D02*
X24625000Y-20459000D01*
X25150000Y-20834000D02*
X24950000Y-20834000D01*
X25375000Y-20609000D02*
X25150000Y-20834000D01*
D17*
X19790000Y-23849000D02*
X19790000Y-24209000D01*
X26260000Y-26080000D02*
X25860000Y-26080000D01*
D18*
X20350000Y-19520000D02*
X20550000Y-19720000D01*
X20200000Y-19520000D02*
X20350000Y-19520000D01*
D19*
X20870000Y-20959000D02*
X20590000Y-21239000D01*
X20590000Y-21239000D02*
X20590000Y-22120400D01*
X20590000Y-22120400D02*
X20936800Y-22467200D01*
D18*
X18550000Y-26000000D02*
X18560000Y-26010000D01*
X17850000Y-26000000D02*
X18550000Y-26000000D01*
D19*
X21635300Y-22467200D02*
X21635300Y-22467200D01*
X22130600Y-22467200D02*
X21635300Y-22467200D01*
X22260000Y-21389000D02*
X22260000Y-22337800D01*
X22260000Y-22337800D02*
X22130600Y-22467200D01*
D18*
X32800000Y-21320000D02*
X32800000Y-20535000D01*
X33700000Y-22220000D02*
X32800000Y-21320000D01*
X20020000Y-26000000D02*
X20010000Y-25990000D01*
X20390000Y-26000000D02*
X20020000Y-26000000D01*
D20*
G36*
X26472147Y-17413622D02*
G01*
X26509250Y-17503268D01*
X26523000Y-17607778D01*
X26523000Y-25809842D01*
X26500323Y-25787165D01*
X26438576Y-25745907D01*
X26369967Y-25717488D01*
X26297131Y-25703000D01*
X26222869Y-25703000D01*
X26150033Y-25717488D01*
X26081424Y-25745907D01*
X26070809Y-25753000D01*
X26049191Y-25753000D01*
X26038576Y-25745907D01*
X25969967Y-25717488D01*
X25897131Y-25703000D01*
X25822869Y-25703000D01*
X25750033Y-25717488D01*
X25681424Y-25745907D01*
X25619677Y-25787165D01*
X25567165Y-25839677D01*
X25525907Y-25901424D01*
X25497488Y-25970033D01*
X25483000Y-26042869D01*
X25483000Y-26117131D01*
X25497488Y-26189967D01*
X25521526Y-26248000D01*
X20639803Y-26248000D01*
X20663416Y-26224387D01*
X20701938Y-26166734D01*
X20728473Y-26102675D01*
X20742000Y-26034669D01*
X20742000Y-25965331D01*
X20728473Y-25897325D01*
X20701938Y-25833266D01*
X20663416Y-25775613D01*
X20614387Y-25726584D01*
X20556734Y-25688062D01*
X20492675Y-25661527D01*
X20424669Y-25648000D01*
X20355331Y-25648000D01*
X20287325Y-25661527D01*
X20223266Y-25688062D01*
X20208393Y-25698000D01*
X20206574Y-25698000D01*
X20176734Y-25678062D01*
X20112675Y-25651527D01*
X20044669Y-25638000D01*
X19975331Y-25638000D01*
X19907325Y-25651527D01*
X19843266Y-25678062D01*
X19785613Y-25716584D01*
X19736584Y-25765613D01*
X19698062Y-25823266D01*
X19671527Y-25887325D01*
X19658000Y-25955331D01*
X19658000Y-26024669D01*
X19671527Y-26092675D01*
X19698062Y-26156734D01*
X19736584Y-26214387D01*
X19770197Y-26248000D01*
X18819803Y-26248000D01*
X18833416Y-26234387D01*
X18871938Y-26176734D01*
X18898473Y-26112675D01*
X18912000Y-26044669D01*
X18912000Y-25975331D01*
X18898473Y-25907325D01*
X18871938Y-25843266D01*
X18833416Y-25785613D01*
X18784387Y-25736584D01*
X18726734Y-25698062D01*
X18662675Y-25671527D01*
X18594669Y-25658000D01*
X18525331Y-25658000D01*
X18457325Y-25671527D01*
X18393416Y-25698000D01*
X18031607Y-25698000D01*
X18016734Y-25688062D01*
X17952675Y-25661527D01*
X17884669Y-25648000D01*
X17815331Y-25648000D01*
X17747325Y-25661527D01*
X17683266Y-25688062D01*
X17625613Y-25726584D01*
X17576584Y-25775613D01*
X17538062Y-25833266D01*
X17511527Y-25897325D01*
X17498000Y-25965331D01*
X17498000Y-26034669D01*
X17511527Y-26102675D01*
X17538062Y-26166734D01*
X17576584Y-26224387D01*
X17600197Y-26248000D01*
X17537320Y-26248000D01*
X17477066Y-26242092D01*
X17430955Y-26228170D01*
X17388430Y-26205560D01*
X17351101Y-26175115D01*
X17320401Y-26138005D01*
X17297491Y-26095634D01*
X17283250Y-26049628D01*
X17277000Y-25990166D01*
X17277000Y-25282898D01*
X17342869Y-25296000D01*
X17417131Y-25296000D01*
X17489967Y-25281512D01*
X17558576Y-25253093D01*
X17620323Y-25211835D01*
X17672835Y-25159323D01*
X17714093Y-25097576D01*
X17742512Y-25028967D01*
X17757000Y-24956131D01*
X17757000Y-24881869D01*
X17742512Y-24809033D01*
X17714093Y-24740424D01*
X17672835Y-24678677D01*
X17620323Y-24626165D01*
X17558576Y-24584907D01*
X17505372Y-24562869D01*
X18533000Y-24562869D01*
X18533000Y-24637131D01*
X18547488Y-24709967D01*
X18575907Y-24778576D01*
X18617165Y-24840323D01*
X18669677Y-24892835D01*
X18731424Y-24934093D01*
X18800033Y-24962512D01*
X18872869Y-24977000D01*
X18947131Y-24977000D01*
X19019967Y-24962512D01*
X19088576Y-24934093D01*
X19150323Y-24892835D01*
X19202835Y-24840323D01*
X19244093Y-24778576D01*
X19272512Y-24709967D01*
X19287000Y-24637131D01*
X19287000Y-24562869D01*
X19272512Y-24490033D01*
X19244093Y-24421424D01*
X19202835Y-24359677D01*
X19150323Y-24307165D01*
X19088576Y-24265907D01*
X19019967Y-24237488D01*
X18947131Y-24223000D01*
X18872869Y-24223000D01*
X18800033Y-24237488D01*
X18731424Y-24265907D01*
X18669677Y-24307165D01*
X18617165Y-24359677D01*
X18575907Y-24421424D01*
X18547488Y-24490033D01*
X18533000Y-24562869D01*
X17505372Y-24562869D01*
X17489967Y-24556488D01*
X17417131Y-24542000D01*
X17342869Y-24542000D01*
X17277000Y-24555102D01*
X17277000Y-23811869D01*
X19413000Y-23811869D01*
X19413000Y-23886131D01*
X19427488Y-23958967D01*
X19455907Y-24027576D01*
X19456858Y-24029000D01*
X19455907Y-24030424D01*
X19427488Y-24099033D01*
X19413000Y-24171869D01*
X19413000Y-24246131D01*
X19427488Y-24318967D01*
X19455907Y-24387576D01*
X19497165Y-24449323D01*
X19549677Y-24501835D01*
X19611424Y-24543093D01*
X19680033Y-24571512D01*
X19752869Y-24586000D01*
X19827131Y-24586000D01*
X19899967Y-24571512D01*
X19968576Y-24543093D01*
X20030323Y-24501835D01*
X20082835Y-24449323D01*
X20124093Y-24387576D01*
X20130184Y-24372869D01*
X24693000Y-24372869D01*
X24693000Y-24447131D01*
X24707488Y-24519967D01*
X24735907Y-24588576D01*
X24777165Y-24650323D01*
X24829677Y-24702835D01*
X24891424Y-24744093D01*
X24960033Y-24772512D01*
X25032869Y-24787000D01*
X25107131Y-24787000D01*
X25179967Y-24772512D01*
X25248576Y-24744093D01*
X25310323Y-24702835D01*
X25362835Y-24650323D01*
X25404093Y-24588576D01*
X25413444Y-24566000D01*
X25467131Y-24566000D01*
X25539967Y-24551512D01*
X25608576Y-24523093D01*
X25670323Y-24481835D01*
X25722835Y-24429323D01*
X25764093Y-24367576D01*
X25792512Y-24298967D01*
X25807000Y-24226131D01*
X25807000Y-24151869D01*
X25792512Y-24079033D01*
X25764093Y-24010424D01*
X25722835Y-23948677D01*
X25670323Y-23896165D01*
X25608576Y-23854907D01*
X25539967Y-23826488D01*
X25467131Y-23812000D01*
X25392869Y-23812000D01*
X25320033Y-23826488D01*
X25251424Y-23854907D01*
X25189677Y-23896165D01*
X25137165Y-23948677D01*
X25095907Y-24010424D01*
X25086556Y-24033000D01*
X25032869Y-24033000D01*
X24960033Y-24047488D01*
X24891424Y-24075907D01*
X24829677Y-24117165D01*
X24777165Y-24169677D01*
X24735907Y-24231424D01*
X24707488Y-24300033D01*
X24693000Y-24372869D01*
X20130184Y-24372869D01*
X20152512Y-24318967D01*
X20167000Y-24246131D01*
X20167000Y-24171869D01*
X20152512Y-24099033D01*
X20124093Y-24030424D01*
X20123142Y-24029000D01*
X20124093Y-24027576D01*
X20152512Y-23958967D01*
X20167000Y-23886131D01*
X20167000Y-23811869D01*
X20152512Y-23739033D01*
X20124093Y-23670424D01*
X20082835Y-23608677D01*
X20030323Y-23556165D01*
X19968576Y-23514907D01*
X19899967Y-23486488D01*
X19827131Y-23472000D01*
X19752869Y-23472000D01*
X19680033Y-23486488D01*
X19611424Y-23514907D01*
X19549677Y-23556165D01*
X19497165Y-23608677D01*
X19455907Y-23670424D01*
X19427488Y-23739033D01*
X19413000Y-23811869D01*
X17277000Y-23811869D01*
X17277000Y-22006114D01*
X17290033Y-22011512D01*
X17362869Y-22026000D01*
X17437131Y-22026000D01*
X17509967Y-22011512D01*
X17578576Y-21983093D01*
X17640323Y-21941835D01*
X17692835Y-21889323D01*
X17734093Y-21827576D01*
X17762512Y-21758967D01*
X17777000Y-21686131D01*
X17777000Y-21611869D01*
X17762512Y-21539033D01*
X17734093Y-21470424D01*
X17692835Y-21408677D01*
X17640323Y-21356165D01*
X17578576Y-21314907D01*
X17509967Y-21286488D01*
X17437131Y-21272000D01*
X17362869Y-21272000D01*
X17290033Y-21286488D01*
X17277000Y-21291886D01*
X17277000Y-21239000D01*
X20311661Y-21239000D01*
X20313000Y-21252596D01*
X20313001Y-22106795D01*
X20311661Y-22120400D01*
X20317009Y-22174701D01*
X20332848Y-22226916D01*
X20358569Y-22275037D01*
X20384511Y-22306647D01*
X20393185Y-22317216D01*
X20403752Y-22325888D01*
X20586058Y-22508195D01*
X20598327Y-22569875D01*
X20624862Y-22633934D01*
X20663384Y-22691587D01*
X20712413Y-22740616D01*
X20770066Y-22779138D01*
X20834125Y-22805673D01*
X20902131Y-22819200D01*
X20971469Y-22819200D01*
X21039475Y-22805673D01*
X21103534Y-22779138D01*
X21161187Y-22740616D01*
X21210216Y-22691587D01*
X21248738Y-22633934D01*
X21275273Y-22569875D01*
X21286050Y-22515694D01*
X21296827Y-22569875D01*
X21323362Y-22633934D01*
X21361884Y-22691587D01*
X21410913Y-22740616D01*
X21468566Y-22779138D01*
X21532625Y-22805673D01*
X21600631Y-22819200D01*
X21669969Y-22819200D01*
X21737975Y-22805673D01*
X21802034Y-22779138D01*
X21854323Y-22744200D01*
X22117004Y-22744200D01*
X22130600Y-22745539D01*
X22144196Y-22744200D01*
X22144206Y-22744200D01*
X22184901Y-22740192D01*
X22237116Y-22724353D01*
X22285237Y-22698631D01*
X22327416Y-22664016D01*
X22336093Y-22653443D01*
X22446243Y-22543293D01*
X22456816Y-22534616D01*
X22491431Y-22492437D01*
X22517153Y-22444316D01*
X22532992Y-22392101D01*
X22537000Y-22351406D01*
X22537000Y-22351397D01*
X22538339Y-22337801D01*
X22537000Y-22324205D01*
X22537000Y-21608023D01*
X22571938Y-21555734D01*
X22598473Y-21491675D01*
X22612000Y-21423669D01*
X22612000Y-21354331D01*
X22598473Y-21286325D01*
X22571938Y-21222266D01*
X22533416Y-21164613D01*
X22484387Y-21115584D01*
X22426734Y-21077062D01*
X22362675Y-21050527D01*
X22294669Y-21037000D01*
X22225331Y-21037000D01*
X22157325Y-21050527D01*
X22093266Y-21077062D01*
X22035613Y-21115584D01*
X21986584Y-21164613D01*
X21948062Y-21222266D01*
X21921527Y-21286325D01*
X21908000Y-21354331D01*
X21908000Y-21423669D01*
X21921527Y-21491675D01*
X21948062Y-21555734D01*
X21983000Y-21608023D01*
X21983001Y-22190200D01*
X21854323Y-22190200D01*
X21802034Y-22155262D01*
X21737975Y-22128727D01*
X21669969Y-22115200D01*
X21600631Y-22115200D01*
X21532625Y-22128727D01*
X21468566Y-22155262D01*
X21410913Y-22193784D01*
X21361884Y-22242813D01*
X21323362Y-22300466D01*
X21296827Y-22364525D01*
X21286050Y-22418706D01*
X21275273Y-22364525D01*
X21248738Y-22300466D01*
X21210216Y-22242813D01*
X21161187Y-22193784D01*
X21103534Y-22155262D01*
X21039475Y-22128727D01*
X20977795Y-22116458D01*
X20867000Y-22005664D01*
X20867000Y-21353736D01*
X20910995Y-21309742D01*
X20972675Y-21297473D01*
X21036734Y-21270938D01*
X21094387Y-21232416D01*
X21143416Y-21183387D01*
X21181938Y-21125734D01*
X21208473Y-21061675D01*
X21222000Y-20993669D01*
X21222000Y-20924331D01*
X21208473Y-20856325D01*
X21181938Y-20792266D01*
X21143416Y-20734613D01*
X21094387Y-20685584D01*
X21036734Y-20647062D01*
X20972675Y-20620527D01*
X20904669Y-20607000D01*
X20835331Y-20607000D01*
X20767325Y-20620527D01*
X20703266Y-20647062D01*
X20645613Y-20685584D01*
X20596584Y-20734613D01*
X20558062Y-20792266D01*
X20531527Y-20856325D01*
X20519258Y-20918005D01*
X20403756Y-21033508D01*
X20393184Y-21042184D01*
X20358569Y-21084363D01*
X20332847Y-21132485D01*
X20317008Y-21184700D01*
X20313000Y-21225395D01*
X20313000Y-21225404D01*
X20311661Y-21239000D01*
X17277000Y-21239000D01*
X17277000Y-20351869D01*
X17393000Y-20351869D01*
X17393000Y-20426131D01*
X17407488Y-20498967D01*
X17435907Y-20567576D01*
X17477165Y-20629323D01*
X17529677Y-20681835D01*
X17591424Y-20723093D01*
X17660033Y-20751512D01*
X17732869Y-20766000D01*
X17807131Y-20766000D01*
X17879967Y-20751512D01*
X17948576Y-20723093D01*
X18010323Y-20681835D01*
X18062835Y-20629323D01*
X18104093Y-20567576D01*
X18112670Y-20546869D01*
X24123000Y-20546869D01*
X24123000Y-20621131D01*
X24137488Y-20693967D01*
X24165907Y-20762576D01*
X24207165Y-20824323D01*
X24259677Y-20876835D01*
X24321424Y-20918093D01*
X24390033Y-20946512D01*
X24462869Y-20961000D01*
X24537131Y-20961000D01*
X24590173Y-20950449D01*
X24615907Y-21012576D01*
X24657165Y-21074323D01*
X24709677Y-21126835D01*
X24771424Y-21168093D01*
X24840033Y-21196512D01*
X24912869Y-21211000D01*
X24987131Y-21211000D01*
X25059967Y-21196512D01*
X25128576Y-21168093D01*
X25178642Y-21134640D01*
X25209202Y-21131630D01*
X25266129Y-21114361D01*
X25318594Y-21086319D01*
X25364579Y-21048579D01*
X25374040Y-21037051D01*
X25428309Y-20982782D01*
X25484967Y-20971512D01*
X25553576Y-20943093D01*
X25615323Y-20901835D01*
X25667835Y-20849323D01*
X25709093Y-20787576D01*
X25737512Y-20718967D01*
X25752000Y-20646131D01*
X25752000Y-20571869D01*
X25737512Y-20499033D01*
X25709093Y-20430424D01*
X25667835Y-20368677D01*
X25615323Y-20316165D01*
X25553576Y-20274907D01*
X25484967Y-20246488D01*
X25412131Y-20232000D01*
X25337869Y-20232000D01*
X25265033Y-20246488D01*
X25262201Y-20247661D01*
X25242835Y-20218677D01*
X25190323Y-20166165D01*
X25128576Y-20124907D01*
X25059967Y-20096488D01*
X24987131Y-20082000D01*
X24912869Y-20082000D01*
X24840033Y-20096488D01*
X24771424Y-20124907D01*
X24723393Y-20157000D01*
X24639826Y-20157000D01*
X24625000Y-20155540D01*
X24610174Y-20157000D01*
X24610167Y-20157000D01*
X24571441Y-20160814D01*
X24565797Y-20161370D01*
X24549991Y-20166165D01*
X24508871Y-20178639D01*
X24456406Y-20206681D01*
X24453825Y-20208799D01*
X24390033Y-20221488D01*
X24321424Y-20249907D01*
X24259677Y-20291165D01*
X24207165Y-20343677D01*
X24165907Y-20405424D01*
X24137488Y-20474033D01*
X24123000Y-20546869D01*
X18112670Y-20546869D01*
X18132512Y-20498967D01*
X18147000Y-20426131D01*
X18147000Y-20351869D01*
X18132512Y-20279033D01*
X18104093Y-20210424D01*
X18062835Y-20148677D01*
X18010323Y-20096165D01*
X17948576Y-20054907D01*
X17879967Y-20026488D01*
X17807131Y-20012000D01*
X17732869Y-20012000D01*
X17660033Y-20026488D01*
X17591424Y-20054907D01*
X17529677Y-20096165D01*
X17477165Y-20148677D01*
X17435907Y-20210424D01*
X17407488Y-20279033D01*
X17393000Y-20351869D01*
X17277000Y-20351869D01*
X17277000Y-19485331D01*
X19848000Y-19485331D01*
X19848000Y-19554669D01*
X19861527Y-19622675D01*
X19888062Y-19686734D01*
X19926584Y-19744387D01*
X19975613Y-19793416D01*
X20033266Y-19831938D01*
X20097325Y-19858473D01*
X20165331Y-19872000D01*
X20231959Y-19872000D01*
X20238062Y-19886734D01*
X20276584Y-19944387D01*
X20325613Y-19993416D01*
X20383266Y-20031938D01*
X20447325Y-20058473D01*
X20515331Y-20072000D01*
X20584669Y-20072000D01*
X20652675Y-20058473D01*
X20716734Y-20031938D01*
X20774387Y-19993416D01*
X20823416Y-19944387D01*
X20861938Y-19886734D01*
X20888473Y-19822675D01*
X20902000Y-19754669D01*
X20902000Y-19685331D01*
X20888473Y-19617325D01*
X20861938Y-19553266D01*
X20823416Y-19495613D01*
X20774387Y-19446584D01*
X20716734Y-19408062D01*
X20652675Y-19381527D01*
X20635128Y-19378037D01*
X20574040Y-19316949D01*
X20564579Y-19305421D01*
X20518594Y-19267681D01*
X20466129Y-19239639D01*
X20409202Y-19222370D01*
X20384508Y-19219938D01*
X20366734Y-19208062D01*
X20302675Y-19181527D01*
X20234669Y-19168000D01*
X20165331Y-19168000D01*
X20097325Y-19181527D01*
X20033266Y-19208062D01*
X19975613Y-19246584D01*
X19926584Y-19295613D01*
X19888062Y-19353266D01*
X19861527Y-19417325D01*
X19848000Y-19485331D01*
X17277000Y-19485331D01*
X17277000Y-17612320D01*
X17282908Y-17552066D01*
X17296830Y-17505955D01*
X17319440Y-17463430D01*
X17349885Y-17426101D01*
X17386997Y-17395400D01*
X17429366Y-17372491D01*
X17475372Y-17358250D01*
X17534834Y-17352000D01*
X26424907Y-17352000D01*
X26472147Y-17413622D01*
X26472147Y-17413622D01*
G37*
X26472147Y-17413622D02*
X26509250Y-17503268D01*
X26523000Y-17607778D01*
X26523000Y-25809842D01*
X26500323Y-25787165D01*
X26438576Y-25745907D01*
X26369967Y-25717488D01*
X26297131Y-25703000D01*
X26222869Y-25703000D01*
X26150033Y-25717488D01*
X26081424Y-25745907D01*
X26070809Y-25753000D01*
X26049191Y-25753000D01*
X26038576Y-25745907D01*
X25969967Y-25717488D01*
X25897131Y-25703000D01*
X25822869Y-25703000D01*
X25750033Y-25717488D01*
X25681424Y-25745907D01*
X25619677Y-25787165D01*
X25567165Y-25839677D01*
X25525907Y-25901424D01*
X25497488Y-25970033D01*
X25483000Y-26042869D01*
X25483000Y-26117131D01*
X25497488Y-26189967D01*
X25521526Y-26248000D01*
X20639803Y-26248000D01*
X20663416Y-26224387D01*
X20701938Y-26166734D01*
X20728473Y-26102675D01*
X20742000Y-26034669D01*
X20742000Y-25965331D01*
X20728473Y-25897325D01*
X20701938Y-25833266D01*
X20663416Y-25775613D01*
X20614387Y-25726584D01*
X20556734Y-25688062D01*
X20492675Y-25661527D01*
X20424669Y-25648000D01*
X20355331Y-25648000D01*
X20287325Y-25661527D01*
X20223266Y-25688062D01*
X20208393Y-25698000D01*
X20206574Y-25698000D01*
X20176734Y-25678062D01*
X20112675Y-25651527D01*
X20044669Y-25638000D01*
X19975331Y-25638000D01*
X19907325Y-25651527D01*
X19843266Y-25678062D01*
X19785613Y-25716584D01*
X19736584Y-25765613D01*
X19698062Y-25823266D01*
X19671527Y-25887325D01*
X19658000Y-25955331D01*
X19658000Y-26024669D01*
X19671527Y-26092675D01*
X19698062Y-26156734D01*
X19736584Y-26214387D01*
X19770197Y-26248000D01*
X18819803Y-26248000D01*
X18833416Y-26234387D01*
X18871938Y-26176734D01*
X18898473Y-26112675D01*
X18912000Y-26044669D01*
X18912000Y-25975331D01*
X18898473Y-25907325D01*
X18871938Y-25843266D01*
X18833416Y-25785613D01*
X18784387Y-25736584D01*
X18726734Y-25698062D01*
X18662675Y-25671527D01*
X18594669Y-25658000D01*
X18525331Y-25658000D01*
X18457325Y-25671527D01*
X18393416Y-25698000D01*
X18031607Y-25698000D01*
X18016734Y-25688062D01*
X17952675Y-25661527D01*
X17884669Y-25648000D01*
X17815331Y-25648000D01*
X17747325Y-25661527D01*
X17683266Y-25688062D01*
X17625613Y-25726584D01*
X17576584Y-25775613D01*
X17538062Y-25833266D01*
X17511527Y-25897325D01*
X17498000Y-25965331D01*
X17498000Y-26034669D01*
X17511527Y-26102675D01*
X17538062Y-26166734D01*
X17576584Y-26224387D01*
X17600197Y-26248000D01*
X17537320Y-26248000D01*
X17477066Y-26242092D01*
X17430955Y-26228170D01*
X17388430Y-26205560D01*
X17351101Y-26175115D01*
X17320401Y-26138005D01*
X17297491Y-26095634D01*
X17283250Y-26049628D01*
X17277000Y-25990166D01*
X17277000Y-25282898D01*
X17342869Y-25296000D01*
X17417131Y-25296000D01*
X17489967Y-25281512D01*
X17558576Y-25253093D01*
X17620323Y-25211835D01*
X17672835Y-25159323D01*
X17714093Y-25097576D01*
X17742512Y-25028967D01*
X17757000Y-24956131D01*
X17757000Y-24881869D01*
X17742512Y-24809033D01*
X17714093Y-24740424D01*
X17672835Y-24678677D01*
X17620323Y-24626165D01*
X17558576Y-24584907D01*
X17505372Y-24562869D01*
X18533000Y-24562869D01*
X18533000Y-24637131D01*
X18547488Y-24709967D01*
X18575907Y-24778576D01*
X18617165Y-24840323D01*
X18669677Y-24892835D01*
X18731424Y-24934093D01*
X18800033Y-24962512D01*
X18872869Y-24977000D01*
X18947131Y-24977000D01*
X19019967Y-24962512D01*
X19088576Y-24934093D01*
X19150323Y-24892835D01*
X19202835Y-24840323D01*
X19244093Y-24778576D01*
X19272512Y-24709967D01*
X19287000Y-24637131D01*
X19287000Y-24562869D01*
X19272512Y-24490033D01*
X19244093Y-24421424D01*
X19202835Y-24359677D01*
X19150323Y-24307165D01*
X19088576Y-24265907D01*
X19019967Y-24237488D01*
X18947131Y-24223000D01*
X18872869Y-24223000D01*
X18800033Y-24237488D01*
X18731424Y-24265907D01*
X18669677Y-24307165D01*
X18617165Y-24359677D01*
X18575907Y-24421424D01*
X18547488Y-24490033D01*
X18533000Y-24562869D01*
X17505372Y-24562869D01*
X17489967Y-24556488D01*
X17417131Y-24542000D01*
X17342869Y-24542000D01*
X17277000Y-24555102D01*
X17277000Y-23811869D01*
X19413000Y-23811869D01*
X19413000Y-23886131D01*
X19427488Y-23958967D01*
X19455907Y-24027576D01*
X19456858Y-24029000D01*
X19455907Y-24030424D01*
X19427488Y-24099033D01*
X19413000Y-24171869D01*
X19413000Y-24246131D01*
X19427488Y-24318967D01*
X19455907Y-24387576D01*
X19497165Y-24449323D01*
X19549677Y-24501835D01*
X19611424Y-24543093D01*
X19680033Y-24571512D01*
X19752869Y-24586000D01*
X19827131Y-24586000D01*
X19899967Y-24571512D01*
X19968576Y-24543093D01*
X20030323Y-24501835D01*
X20082835Y-24449323D01*
X20124093Y-24387576D01*
X20130184Y-24372869D01*
X24693000Y-24372869D01*
X24693000Y-24447131D01*
X24707488Y-24519967D01*
X24735907Y-24588576D01*
X24777165Y-24650323D01*
X24829677Y-24702835D01*
X24891424Y-24744093D01*
X24960033Y-24772512D01*
X25032869Y-24787000D01*
X25107131Y-24787000D01*
X25179967Y-24772512D01*
X25248576Y-24744093D01*
X25310323Y-24702835D01*
X25362835Y-24650323D01*
X25404093Y-24588576D01*
X25413444Y-24566000D01*
X25467131Y-24566000D01*
X25539967Y-24551512D01*
X25608576Y-24523093D01*
X25670323Y-24481835D01*
X25722835Y-24429323D01*
X25764093Y-24367576D01*
X25792512Y-24298967D01*
X25807000Y-24226131D01*
X25807000Y-24151869D01*
X25792512Y-24079033D01*
X25764093Y-24010424D01*
X25722835Y-23948677D01*
X25670323Y-23896165D01*
X25608576Y-23854907D01*
X25539967Y-23826488D01*
X25467131Y-23812000D01*
X25392869Y-23812000D01*
X25320033Y-23826488D01*
X25251424Y-23854907D01*
X25189677Y-23896165D01*
X25137165Y-23948677D01*
X25095907Y-24010424D01*
X25086556Y-24033000D01*
X25032869Y-24033000D01*
X24960033Y-24047488D01*
X24891424Y-24075907D01*
X24829677Y-24117165D01*
X24777165Y-24169677D01*
X24735907Y-24231424D01*
X24707488Y-24300033D01*
X24693000Y-24372869D01*
X20130184Y-24372869D01*
X20152512Y-24318967D01*
X20167000Y-24246131D01*
X20167000Y-24171869D01*
X20152512Y-24099033D01*
X20124093Y-24030424D01*
X20123142Y-24029000D01*
X20124093Y-24027576D01*
X20152512Y-23958967D01*
X20167000Y-23886131D01*
X20167000Y-23811869D01*
X20152512Y-23739033D01*
X20124093Y-23670424D01*
X20082835Y-23608677D01*
X20030323Y-23556165D01*
X19968576Y-23514907D01*
X19899967Y-23486488D01*
X19827131Y-23472000D01*
X19752869Y-23472000D01*
X19680033Y-23486488D01*
X19611424Y-23514907D01*
X19549677Y-23556165D01*
X19497165Y-23608677D01*
X19455907Y-23670424D01*
X19427488Y-23739033D01*
X19413000Y-23811869D01*
X17277000Y-23811869D01*
X17277000Y-22006114D01*
X17290033Y-22011512D01*
X17362869Y-22026000D01*
X17437131Y-22026000D01*
X17509967Y-22011512D01*
X17578576Y-21983093D01*
X17640323Y-21941835D01*
X17692835Y-21889323D01*
X17734093Y-21827576D01*
X17762512Y-21758967D01*
X17777000Y-21686131D01*
X17777000Y-21611869D01*
X17762512Y-21539033D01*
X17734093Y-21470424D01*
X17692835Y-21408677D01*
X17640323Y-21356165D01*
X17578576Y-21314907D01*
X17509967Y-21286488D01*
X17437131Y-21272000D01*
X17362869Y-21272000D01*
X17290033Y-21286488D01*
X17277000Y-21291886D01*
X17277000Y-21239000D01*
X20311661Y-21239000D01*
X20313000Y-21252596D01*
X20313001Y-22106795D01*
X20311661Y-22120400D01*
X20317009Y-22174701D01*
X20332848Y-22226916D01*
X20358569Y-22275037D01*
X20384511Y-22306647D01*
X20393185Y-22317216D01*
X20403752Y-22325888D01*
X20586058Y-22508195D01*
X20598327Y-22569875D01*
X20624862Y-22633934D01*
X20663384Y-22691587D01*
X20712413Y-22740616D01*
X20770066Y-22779138D01*
X20834125Y-22805673D01*
X20902131Y-22819200D01*
X20971469Y-22819200D01*
X21039475Y-22805673D01*
X21103534Y-22779138D01*
X21161187Y-22740616D01*
X21210216Y-22691587D01*
X21248738Y-22633934D01*
X21275273Y-22569875D01*
X21286050Y-22515694D01*
X21296827Y-22569875D01*
X21323362Y-22633934D01*
X21361884Y-22691587D01*
X21410913Y-22740616D01*
X21468566Y-22779138D01*
X21532625Y-22805673D01*
X21600631Y-22819200D01*
X21669969Y-22819200D01*
X21737975Y-22805673D01*
X21802034Y-22779138D01*
X21854323Y-22744200D01*
X22117004Y-22744200D01*
X22130600Y-22745539D01*
X22144196Y-22744200D01*
X22144206Y-22744200D01*
X22184901Y-22740192D01*
X22237116Y-22724353D01*
X22285237Y-22698631D01*
X22327416Y-22664016D01*
X22336093Y-22653443D01*
X22446243Y-22543293D01*
X22456816Y-22534616D01*
X22491431Y-22492437D01*
X22517153Y-22444316D01*
X22532992Y-22392101D01*
X22537000Y-22351406D01*
X22537000Y-22351397D01*
X22538339Y-22337801D01*
X22537000Y-22324205D01*
X22537000Y-21608023D01*
X22571938Y-21555734D01*
X22598473Y-21491675D01*
X22612000Y-21423669D01*
X22612000Y-21354331D01*
X22598473Y-21286325D01*
X22571938Y-21222266D01*
X22533416Y-21164613D01*
X22484387Y-21115584D01*
X22426734Y-21077062D01*
X22362675Y-21050527D01*
X22294669Y-21037000D01*
X22225331Y-21037000D01*
X22157325Y-21050527D01*
X22093266Y-21077062D01*
X22035613Y-21115584D01*
X21986584Y-21164613D01*
X21948062Y-21222266D01*
X21921527Y-21286325D01*
X21908000Y-21354331D01*
X21908000Y-21423669D01*
X21921527Y-21491675D01*
X21948062Y-21555734D01*
X21983000Y-21608023D01*
X21983001Y-22190200D01*
X21854323Y-22190200D01*
X21802034Y-22155262D01*
X21737975Y-22128727D01*
X21669969Y-22115200D01*
X21600631Y-22115200D01*
X21532625Y-22128727D01*
X21468566Y-22155262D01*
X21410913Y-22193784D01*
X21361884Y-22242813D01*
X21323362Y-22300466D01*
X21296827Y-22364525D01*
X21286050Y-22418706D01*
X21275273Y-22364525D01*
X21248738Y-22300466D01*
X21210216Y-22242813D01*
X21161187Y-22193784D01*
X21103534Y-22155262D01*
X21039475Y-22128727D01*
X20977795Y-22116458D01*
X20867000Y-22005664D01*
X20867000Y-21353736D01*
X20910995Y-21309742D01*
X20972675Y-21297473D01*
X21036734Y-21270938D01*
X21094387Y-21232416D01*
X21143416Y-21183387D01*
X21181938Y-21125734D01*
X21208473Y-21061675D01*
X21222000Y-20993669D01*
X21222000Y-20924331D01*
X21208473Y-20856325D01*
X21181938Y-20792266D01*
X21143416Y-20734613D01*
X21094387Y-20685584D01*
X21036734Y-20647062D01*
X20972675Y-20620527D01*
X20904669Y-20607000D01*
X20835331Y-20607000D01*
X20767325Y-20620527D01*
X20703266Y-20647062D01*
X20645613Y-20685584D01*
X20596584Y-20734613D01*
X20558062Y-20792266D01*
X20531527Y-20856325D01*
X20519258Y-20918005D01*
X20403756Y-21033508D01*
X20393184Y-21042184D01*
X20358569Y-21084363D01*
X20332847Y-21132485D01*
X20317008Y-21184700D01*
X20313000Y-21225395D01*
X20313000Y-21225404D01*
X20311661Y-21239000D01*
X17277000Y-21239000D01*
X17277000Y-20351869D01*
X17393000Y-20351869D01*
X17393000Y-20426131D01*
X17407488Y-20498967D01*
X17435907Y-20567576D01*
X17477165Y-20629323D01*
X17529677Y-20681835D01*
X17591424Y-20723093D01*
X17660033Y-20751512D01*
X17732869Y-20766000D01*
X17807131Y-20766000D01*
X17879967Y-20751512D01*
X17948576Y-20723093D01*
X18010323Y-20681835D01*
X18062835Y-20629323D01*
X18104093Y-20567576D01*
X18112670Y-20546869D01*
X24123000Y-20546869D01*
X24123000Y-20621131D01*
X24137488Y-20693967D01*
X24165907Y-20762576D01*
X24207165Y-20824323D01*
X24259677Y-20876835D01*
X24321424Y-20918093D01*
X24390033Y-20946512D01*
X24462869Y-20961000D01*
X24537131Y-20961000D01*
X24590173Y-20950449D01*
X24615907Y-21012576D01*
X24657165Y-21074323D01*
X24709677Y-21126835D01*
X24771424Y-21168093D01*
X24840033Y-21196512D01*
X24912869Y-21211000D01*
X24987131Y-21211000D01*
X25059967Y-21196512D01*
X25128576Y-21168093D01*
X25178642Y-21134640D01*
X25209202Y-21131630D01*
X25266129Y-21114361D01*
X25318594Y-21086319D01*
X25364579Y-21048579D01*
X25374040Y-21037051D01*
X25428309Y-20982782D01*
X25484967Y-20971512D01*
X25553576Y-20943093D01*
X25615323Y-20901835D01*
X25667835Y-20849323D01*
X25709093Y-20787576D01*
X25737512Y-20718967D01*
X25752000Y-20646131D01*
X25752000Y-20571869D01*
X25737512Y-20499033D01*
X25709093Y-20430424D01*
X25667835Y-20368677D01*
X25615323Y-20316165D01*
X25553576Y-20274907D01*
X25484967Y-20246488D01*
X25412131Y-20232000D01*
X25337869Y-20232000D01*
X25265033Y-20246488D01*
X25262201Y-20247661D01*
X25242835Y-20218677D01*
X25190323Y-20166165D01*
X25128576Y-20124907D01*
X25059967Y-20096488D01*
X24987131Y-20082000D01*
X24912869Y-20082000D01*
X24840033Y-20096488D01*
X24771424Y-20124907D01*
X24723393Y-20157000D01*
X24639826Y-20157000D01*
X24625000Y-20155540D01*
X24610174Y-20157000D01*
X24610167Y-20157000D01*
X24571441Y-20160814D01*
X24565797Y-20161370D01*
X24549991Y-20166165D01*
X24508871Y-20178639D01*
X24456406Y-20206681D01*
X24453825Y-20208799D01*
X24390033Y-20221488D01*
X24321424Y-20249907D01*
X24259677Y-20291165D01*
X24207165Y-20343677D01*
X24165907Y-20405424D01*
X24137488Y-20474033D01*
X24123000Y-20546869D01*
X18112670Y-20546869D01*
X18132512Y-20498967D01*
X18147000Y-20426131D01*
X18147000Y-20351869D01*
X18132512Y-20279033D01*
X18104093Y-20210424D01*
X18062835Y-20148677D01*
X18010323Y-20096165D01*
X17948576Y-20054907D01*
X17879967Y-20026488D01*
X17807131Y-20012000D01*
X17732869Y-20012000D01*
X17660033Y-20026488D01*
X17591424Y-20054907D01*
X17529677Y-20096165D01*
X17477165Y-20148677D01*
X17435907Y-20210424D01*
X17407488Y-20279033D01*
X17393000Y-20351869D01*
X17277000Y-20351869D01*
X17277000Y-19485331D01*
X19848000Y-19485331D01*
X19848000Y-19554669D01*
X19861527Y-19622675D01*
X19888062Y-19686734D01*
X19926584Y-19744387D01*
X19975613Y-19793416D01*
X20033266Y-19831938D01*
X20097325Y-19858473D01*
X20165331Y-19872000D01*
X20231959Y-19872000D01*
X20238062Y-19886734D01*
X20276584Y-19944387D01*
X20325613Y-19993416D01*
X20383266Y-20031938D01*
X20447325Y-20058473D01*
X20515331Y-20072000D01*
X20584669Y-20072000D01*
X20652675Y-20058473D01*
X20716734Y-20031938D01*
X20774387Y-19993416D01*
X20823416Y-19944387D01*
X20861938Y-19886734D01*
X20888473Y-19822675D01*
X20902000Y-19754669D01*
X20902000Y-19685331D01*
X20888473Y-19617325D01*
X20861938Y-19553266D01*
X20823416Y-19495613D01*
X20774387Y-19446584D01*
X20716734Y-19408062D01*
X20652675Y-19381527D01*
X20635128Y-19378037D01*
X20574040Y-19316949D01*
X20564579Y-19305421D01*
X20518594Y-19267681D01*
X20466129Y-19239639D01*
X20409202Y-19222370D01*
X20384508Y-19219938D01*
X20366734Y-19208062D01*
X20302675Y-19181527D01*
X20234669Y-19168000D01*
X20165331Y-19168000D01*
X20097325Y-19181527D01*
X20033266Y-19208062D01*
X19975613Y-19246584D01*
X19926584Y-19295613D01*
X19888062Y-19353266D01*
X19861527Y-19417325D01*
X19848000Y-19485331D01*
X17277000Y-19485331D01*
X17277000Y-17612320D01*
X17282908Y-17552066D01*
X17296830Y-17505955D01*
X17319440Y-17463430D01*
X17349885Y-17426101D01*
X17386997Y-17395400D01*
X17429366Y-17372491D01*
X17475372Y-17358250D01*
X17534834Y-17352000D01*
X26424907Y-17352000D01*
X26472147Y-17413622D01*
G36*
X38770945Y-17288790D02*
G01*
X38648790Y-17410945D01*
X38552813Y-17554585D01*
X38486703Y-17714189D01*
X38453000Y-17883623D01*
X38453000Y-18056377D01*
X38486703Y-18225811D01*
X38552813Y-18385415D01*
X38648790Y-18529055D01*
X38770945Y-18651210D01*
X38914585Y-18747187D01*
X39074189Y-18813297D01*
X39243623Y-18847000D01*
X39416377Y-18847000D01*
X39585811Y-18813297D01*
X39745415Y-18747187D01*
X39889055Y-18651210D01*
X39965000Y-18575265D01*
X40040945Y-18651210D01*
X40184585Y-18747187D01*
X40344189Y-18813297D01*
X40513623Y-18847000D01*
X40686377Y-18847000D01*
X40855811Y-18813297D01*
X41015415Y-18747187D01*
X41159055Y-18651210D01*
X41281210Y-18529055D01*
X41377187Y-18385415D01*
X41443297Y-18225811D01*
X41477000Y-18056377D01*
X41477000Y-17883623D01*
X41443297Y-17714189D01*
X41377187Y-17554585D01*
X41281210Y-17410945D01*
X41159055Y-17288790D01*
X41021681Y-17197000D01*
X42523000Y-17197000D01*
X42523000Y-26693000D01*
X33615084Y-26693000D01*
X33723814Y-26596689D01*
X33873195Y-26400001D01*
X33981334Y-26177949D01*
X34044075Y-25939067D01*
X33901149Y-25742000D01*
X32927000Y-25742000D01*
X32927000Y-25762000D01*
X32673000Y-25762000D01*
X32673000Y-25742000D01*
X32653000Y-25742000D01*
X32653000Y-25488000D01*
X32673000Y-25488000D01*
X32673000Y-24396098D01*
X32927000Y-24396098D01*
X32927000Y-25488000D01*
X33901149Y-25488000D01*
X34044075Y-25290933D01*
X33981334Y-25052051D01*
X33873195Y-24829999D01*
X33723814Y-24633311D01*
X33538931Y-24469545D01*
X33459263Y-24423020D01*
X39923000Y-24423020D01*
X39923000Y-24516980D01*
X39941331Y-24609136D01*
X39977288Y-24695944D01*
X40029490Y-24774070D01*
X40095930Y-24840510D01*
X40174056Y-24892712D01*
X40260864Y-24928669D01*
X40353020Y-24947000D01*
X40446980Y-24947000D01*
X40539136Y-24928669D01*
X40625944Y-24892712D01*
X40704070Y-24840510D01*
X40770510Y-24774070D01*
X40822712Y-24695944D01*
X40858669Y-24609136D01*
X40877000Y-24516980D01*
X40877000Y-24423020D01*
X40858669Y-24330864D01*
X40822712Y-24244056D01*
X40770510Y-24165930D01*
X40704070Y-24099490D01*
X40625944Y-24047288D01*
X40539136Y-24011331D01*
X40446980Y-23993000D01*
X40353020Y-23993000D01*
X40260864Y-24011331D01*
X40174056Y-24047288D01*
X40095930Y-24099490D01*
X40029490Y-24165930D01*
X39977288Y-24244056D01*
X39941331Y-24330864D01*
X39923000Y-24423020D01*
X33459263Y-24423020D01*
X33325652Y-24344994D01*
X33121540Y-24271718D01*
X32927000Y-24396098D01*
X32673000Y-24396098D01*
X32478460Y-24271718D01*
X32274348Y-24344994D01*
X32127000Y-24431043D01*
X32127000Y-23879232D01*
X32268538Y-23995389D01*
X32433923Y-24083789D01*
X32613375Y-24138225D01*
X32800000Y-24156606D01*
X32986624Y-24138225D01*
X33166076Y-24083789D01*
X33331462Y-23995389D01*
X33476423Y-23876423D01*
X33595389Y-23731462D01*
X33683789Y-23566077D01*
X33738225Y-23386625D01*
X33744489Y-23323020D01*
X34073000Y-23323020D01*
X34073000Y-23416980D01*
X34091331Y-23509136D01*
X34127288Y-23595944D01*
X34179490Y-23674070D01*
X34245930Y-23740510D01*
X34324056Y-23792712D01*
X34410864Y-23828669D01*
X34503020Y-23847000D01*
X34596980Y-23847000D01*
X34689136Y-23828669D01*
X34775944Y-23792712D01*
X34854070Y-23740510D01*
X34920510Y-23674070D01*
X34972712Y-23595944D01*
X35008669Y-23509136D01*
X35027000Y-23416980D01*
X35027000Y-23323020D01*
X35373000Y-23323020D01*
X35373000Y-23416980D01*
X35391331Y-23509136D01*
X35427288Y-23595944D01*
X35479490Y-23674070D01*
X35545930Y-23740510D01*
X35624056Y-23792712D01*
X35710864Y-23828669D01*
X35803020Y-23847000D01*
X35896980Y-23847000D01*
X35989136Y-23828669D01*
X36075944Y-23792712D01*
X36154070Y-23740510D01*
X36220510Y-23674070D01*
X36272712Y-23595944D01*
X36308669Y-23509136D01*
X36327000Y-23416980D01*
X36327000Y-23323020D01*
X36623000Y-23323020D01*
X36623000Y-23416980D01*
X36641331Y-23509136D01*
X36677288Y-23595944D01*
X36729490Y-23674070D01*
X36795930Y-23740510D01*
X36874056Y-23792712D01*
X36960864Y-23828669D01*
X37053020Y-23847000D01*
X37146980Y-23847000D01*
X37239136Y-23828669D01*
X37325944Y-23792712D01*
X37404070Y-23740510D01*
X37470510Y-23674070D01*
X37522712Y-23595944D01*
X37558669Y-23509136D01*
X37577000Y-23416980D01*
X37577000Y-23323020D01*
X37923000Y-23323020D01*
X37923000Y-23416980D01*
X37941331Y-23509136D01*
X37977288Y-23595944D01*
X38029490Y-23674070D01*
X38095930Y-23740510D01*
X38174056Y-23792712D01*
X38260864Y-23828669D01*
X38353020Y-23847000D01*
X38446980Y-23847000D01*
X38539136Y-23828669D01*
X38625944Y-23792712D01*
X38704070Y-23740510D01*
X38770510Y-23674070D01*
X38822712Y-23595944D01*
X38858669Y-23509136D01*
X38877000Y-23416980D01*
X38877000Y-23323020D01*
X39173000Y-23323020D01*
X39173000Y-23416980D01*
X39191331Y-23509136D01*
X39227288Y-23595944D01*
X39279490Y-23674070D01*
X39345930Y-23740510D01*
X39424056Y-23792712D01*
X39510864Y-23828669D01*
X39603020Y-23847000D01*
X39696980Y-23847000D01*
X39789136Y-23828669D01*
X39875944Y-23792712D01*
X39954070Y-23740510D01*
X40020510Y-23674070D01*
X40072712Y-23595944D01*
X40108669Y-23509136D01*
X40127000Y-23416980D01*
X40127000Y-23323020D01*
X40108669Y-23230864D01*
X40072712Y-23144056D01*
X40020510Y-23065930D01*
X39954070Y-22999490D01*
X39875944Y-22947288D01*
X39789136Y-22911331D01*
X39696980Y-22893000D01*
X39603020Y-22893000D01*
X39510864Y-22911331D01*
X39424056Y-22947288D01*
X39345930Y-22999490D01*
X39279490Y-23065930D01*
X39227288Y-23144056D01*
X39191331Y-23230864D01*
X39173000Y-23323020D01*
X38877000Y-23323020D01*
X38858669Y-23230864D01*
X38822712Y-23144056D01*
X38770510Y-23065930D01*
X38704070Y-22999490D01*
X38625944Y-22947288D01*
X38539136Y-22911331D01*
X38446980Y-22893000D01*
X38353020Y-22893000D01*
X38260864Y-22911331D01*
X38174056Y-22947288D01*
X38095930Y-22999490D01*
X38029490Y-23065930D01*
X37977288Y-23144056D01*
X37941331Y-23230864D01*
X37923000Y-23323020D01*
X37577000Y-23323020D01*
X37558669Y-23230864D01*
X37522712Y-23144056D01*
X37470510Y-23065930D01*
X37404070Y-22999490D01*
X37325944Y-22947288D01*
X37239136Y-22911331D01*
X37146980Y-22893000D01*
X37053020Y-22893000D01*
X36960864Y-22911331D01*
X36874056Y-22947288D01*
X36795930Y-22999490D01*
X36729490Y-23065930D01*
X36677288Y-23144056D01*
X36641331Y-23230864D01*
X36623000Y-23323020D01*
X36327000Y-23323020D01*
X36308669Y-23230864D01*
X36272712Y-23144056D01*
X36220510Y-23065930D01*
X36154070Y-22999490D01*
X36075944Y-22947288D01*
X35989136Y-22911331D01*
X35896980Y-22893000D01*
X35803020Y-22893000D01*
X35710864Y-22911331D01*
X35624056Y-22947288D01*
X35545930Y-22999490D01*
X35479490Y-23065930D01*
X35427288Y-23144056D01*
X35391331Y-23230864D01*
X35373000Y-23323020D01*
X35027000Y-23323020D01*
X35008669Y-23230864D01*
X34972712Y-23144056D01*
X34920510Y-23065930D01*
X34854070Y-22999490D01*
X34775944Y-22947288D01*
X34689136Y-22911331D01*
X34596980Y-22893000D01*
X34503020Y-22893000D01*
X34410864Y-22911331D01*
X34324056Y-22947288D01*
X34245930Y-22999490D01*
X34179490Y-23065930D01*
X34127288Y-23144056D01*
X34091331Y-23230864D01*
X34073000Y-23323020D01*
X33744489Y-23323020D01*
X33752000Y-23246765D01*
X33752000Y-22903236D01*
X33738225Y-22763376D01*
X33718090Y-22697000D01*
X33746980Y-22697000D01*
X33839136Y-22678669D01*
X33925944Y-22642712D01*
X34004070Y-22590510D01*
X34070510Y-22524070D01*
X34122712Y-22445944D01*
X34158669Y-22359136D01*
X34177000Y-22266980D01*
X34177000Y-22203020D01*
X40423000Y-22203020D01*
X40423000Y-22296980D01*
X40441331Y-22389136D01*
X40477288Y-22475944D01*
X40529490Y-22554070D01*
X40595930Y-22620510D01*
X40674056Y-22672712D01*
X40760864Y-22708669D01*
X40853020Y-22727000D01*
X40946980Y-22727000D01*
X41039136Y-22708669D01*
X41125944Y-22672712D01*
X41204070Y-22620510D01*
X41267882Y-22556698D01*
X41279490Y-22574070D01*
X41345930Y-22640510D01*
X41424056Y-22692712D01*
X41510864Y-22728669D01*
X41603020Y-22747000D01*
X41696980Y-22747000D01*
X41789136Y-22728669D01*
X41875944Y-22692712D01*
X41954070Y-22640510D01*
X42020510Y-22574070D01*
X42072712Y-22495944D01*
X42108669Y-22409136D01*
X42127000Y-22316980D01*
X42127000Y-22223020D01*
X42108669Y-22130864D01*
X42072712Y-22044056D01*
X42020510Y-21965930D01*
X41954070Y-21899490D01*
X41875944Y-21847288D01*
X41789136Y-21811331D01*
X41696980Y-21793000D01*
X41603020Y-21793000D01*
X41510864Y-21811331D01*
X41424056Y-21847288D01*
X41345930Y-21899490D01*
X41282118Y-21963302D01*
X41270510Y-21945930D01*
X41204070Y-21879490D01*
X41125944Y-21827288D01*
X41039136Y-21791331D01*
X40946980Y-21773000D01*
X40853020Y-21773000D01*
X40760864Y-21791331D01*
X40674056Y-21827288D01*
X40595930Y-21879490D01*
X40529490Y-21945930D01*
X40477288Y-22024056D01*
X40441331Y-22110864D01*
X40423000Y-22203020D01*
X34177000Y-22203020D01*
X34177000Y-22173020D01*
X34158669Y-22080864D01*
X34122712Y-21994056D01*
X34070510Y-21915930D01*
X34004070Y-21849490D01*
X33925944Y-21797288D01*
X33839136Y-21761331D01*
X33802572Y-21754058D01*
X33426174Y-21377661D01*
X33476423Y-21336423D01*
X33595389Y-21191462D01*
X33683789Y-21026077D01*
X33738225Y-20846625D01*
X33752000Y-20706765D01*
X33752000Y-20623020D01*
X40523000Y-20623020D01*
X40523000Y-20716980D01*
X40541331Y-20809136D01*
X40577288Y-20895944D01*
X40629490Y-20974070D01*
X40695930Y-21040510D01*
X40774056Y-21092712D01*
X40860864Y-21128669D01*
X40953020Y-21147000D01*
X41046980Y-21147000D01*
X41139136Y-21128669D01*
X41225944Y-21092712D01*
X41304070Y-21040510D01*
X41350000Y-20994580D01*
X41395930Y-21040510D01*
X41474056Y-21092712D01*
X41560864Y-21128669D01*
X41653020Y-21147000D01*
X41746980Y-21147000D01*
X41839136Y-21128669D01*
X41925944Y-21092712D01*
X42004070Y-21040510D01*
X42070510Y-20974070D01*
X42122712Y-20895944D01*
X42158669Y-20809136D01*
X42177000Y-20716980D01*
X42177000Y-20623020D01*
X42158669Y-20530864D01*
X42122712Y-20444056D01*
X42070510Y-20365930D01*
X42004070Y-20299490D01*
X41925944Y-20247288D01*
X41839136Y-20211331D01*
X41746980Y-20193000D01*
X41653020Y-20193000D01*
X41560864Y-20211331D01*
X41474056Y-20247288D01*
X41395930Y-20299490D01*
X41350000Y-20345420D01*
X41304070Y-20299490D01*
X41225944Y-20247288D01*
X41139136Y-20211331D01*
X41046980Y-20193000D01*
X40953020Y-20193000D01*
X40860864Y-20211331D01*
X40774056Y-20247288D01*
X40695930Y-20299490D01*
X40629490Y-20365930D01*
X40577288Y-20444056D01*
X40541331Y-20530864D01*
X40523000Y-20623020D01*
X33752000Y-20623020D01*
X33752000Y-20363236D01*
X33738225Y-20223376D01*
X33683789Y-20043923D01*
X33595389Y-19878538D01*
X33476423Y-19733577D01*
X33331462Y-19614611D01*
X33166077Y-19526211D01*
X32986625Y-19471775D01*
X32800000Y-19453394D01*
X32613376Y-19471775D01*
X32433924Y-19526211D01*
X32268539Y-19614611D01*
X32127000Y-19730768D01*
X32127000Y-19323020D01*
X34123000Y-19323020D01*
X34123000Y-19416980D01*
X34141331Y-19509136D01*
X34177288Y-19595944D01*
X34229490Y-19674070D01*
X34295930Y-19740510D01*
X34374056Y-19792712D01*
X34460864Y-19828669D01*
X34553020Y-19847000D01*
X34646980Y-19847000D01*
X34739136Y-19828669D01*
X34825944Y-19792712D01*
X34904070Y-19740510D01*
X34970510Y-19674070D01*
X35022712Y-19595944D01*
X35058669Y-19509136D01*
X35077000Y-19416980D01*
X35077000Y-19347000D01*
X35146980Y-19347000D01*
X35239136Y-19328669D01*
X35252773Y-19323020D01*
X37873000Y-19323020D01*
X37873000Y-19416980D01*
X37891331Y-19509136D01*
X37927288Y-19595944D01*
X37979490Y-19674070D01*
X38045930Y-19740510D01*
X38124056Y-19792712D01*
X38210864Y-19828669D01*
X38303020Y-19847000D01*
X38396980Y-19847000D01*
X38489136Y-19828669D01*
X38575944Y-19792712D01*
X38654070Y-19740510D01*
X38720510Y-19674070D01*
X38772712Y-19595944D01*
X38808669Y-19509136D01*
X38827000Y-19416980D01*
X38827000Y-19323020D01*
X38808669Y-19230864D01*
X38772712Y-19144056D01*
X38720510Y-19065930D01*
X38654070Y-18999490D01*
X38575944Y-18947288D01*
X38489136Y-18911331D01*
X38396980Y-18893000D01*
X38303020Y-18893000D01*
X38210864Y-18911331D01*
X38124056Y-18947288D01*
X38045930Y-18999490D01*
X37979490Y-19065930D01*
X37927288Y-19144056D01*
X37891331Y-19230864D01*
X37873000Y-19323020D01*
X35252773Y-19323020D01*
X35325944Y-19292712D01*
X35404070Y-19240510D01*
X35470510Y-19174070D01*
X35522712Y-19095944D01*
X35558669Y-19009136D01*
X35577000Y-18916980D01*
X35577000Y-18873020D01*
X41123000Y-18873020D01*
X41123000Y-18966980D01*
X41141331Y-19059136D01*
X41176897Y-19145000D01*
X41141331Y-19230864D01*
X41123000Y-19323020D01*
X41123000Y-19416980D01*
X41141331Y-19509136D01*
X41177288Y-19595944D01*
X41229490Y-19674070D01*
X41295930Y-19740510D01*
X41374056Y-19792712D01*
X41460864Y-19828669D01*
X41553020Y-19847000D01*
X41646980Y-19847000D01*
X41739136Y-19828669D01*
X41825944Y-19792712D01*
X41904070Y-19740510D01*
X41970510Y-19674070D01*
X42022712Y-19595944D01*
X42058669Y-19509136D01*
X42077000Y-19416980D01*
X42077000Y-19323020D01*
X42058669Y-19230864D01*
X42023103Y-19145000D01*
X42058669Y-19059136D01*
X42077000Y-18966980D01*
X42077000Y-18873020D01*
X42058669Y-18780864D01*
X42022712Y-18694056D01*
X41970510Y-18615930D01*
X41904070Y-18549490D01*
X41825944Y-18497288D01*
X41739136Y-18461331D01*
X41646980Y-18443000D01*
X41553020Y-18443000D01*
X41460864Y-18461331D01*
X41374056Y-18497288D01*
X41295930Y-18549490D01*
X41229490Y-18615930D01*
X41177288Y-18694056D01*
X41141331Y-18780864D01*
X41123000Y-18873020D01*
X35577000Y-18873020D01*
X35577000Y-18823020D01*
X35558669Y-18730864D01*
X35522712Y-18644056D01*
X35470510Y-18565930D01*
X35404070Y-18499490D01*
X35325944Y-18447288D01*
X35239136Y-18411331D01*
X35146980Y-18393000D01*
X35053020Y-18393000D01*
X34960864Y-18411331D01*
X34874056Y-18447288D01*
X34795930Y-18499490D01*
X34729490Y-18565930D01*
X34677288Y-18644056D01*
X34641331Y-18730864D01*
X34623000Y-18823020D01*
X34623000Y-18893000D01*
X34553020Y-18893000D01*
X34460864Y-18911331D01*
X34374056Y-18947288D01*
X34295930Y-18999490D01*
X34229490Y-19065930D01*
X34177288Y-19144056D01*
X34141331Y-19230864D01*
X34123000Y-19323020D01*
X32127000Y-19323020D01*
X32127000Y-19068854D01*
X32175000Y-19073582D01*
X33425000Y-19073582D01*
X33489103Y-19067268D01*
X33550743Y-19048570D01*
X33607550Y-19018206D01*
X33657343Y-18977343D01*
X33698206Y-18927550D01*
X33728570Y-18870743D01*
X33747268Y-18809103D01*
X33753582Y-18745000D01*
X33753582Y-17245000D01*
X33748854Y-17197000D01*
X38908319Y-17197000D01*
X38770945Y-17288790D01*
X38770945Y-17288790D01*
G37*
X38770945Y-17288790D02*
X38648790Y-17410945D01*
X38552813Y-17554585D01*
X38486703Y-17714189D01*
X38453000Y-17883623D01*
X38453000Y-18056377D01*
X38486703Y-18225811D01*
X38552813Y-18385415D01*
X38648790Y-18529055D01*
X38770945Y-18651210D01*
X38914585Y-18747187D01*
X39074189Y-18813297D01*
X39243623Y-18847000D01*
X39416377Y-18847000D01*
X39585811Y-18813297D01*
X39745415Y-18747187D01*
X39889055Y-18651210D01*
X39965000Y-18575265D01*
X40040945Y-18651210D01*
X40184585Y-18747187D01*
X40344189Y-18813297D01*
X40513623Y-18847000D01*
X40686377Y-18847000D01*
X40855811Y-18813297D01*
X41015415Y-18747187D01*
X41159055Y-18651210D01*
X41281210Y-18529055D01*
X41377187Y-18385415D01*
X41443297Y-18225811D01*
X41477000Y-18056377D01*
X41477000Y-17883623D01*
X41443297Y-17714189D01*
X41377187Y-17554585D01*
X41281210Y-17410945D01*
X41159055Y-17288790D01*
X41021681Y-17197000D01*
X42523000Y-17197000D01*
X42523000Y-26693000D01*
X33615084Y-26693000D01*
X33723814Y-26596689D01*
X33873195Y-26400001D01*
X33981334Y-26177949D01*
X34044075Y-25939067D01*
X33901149Y-25742000D01*
X32927000Y-25742000D01*
X32927000Y-25762000D01*
X32673000Y-25762000D01*
X32673000Y-25742000D01*
X32653000Y-25742000D01*
X32653000Y-25488000D01*
X32673000Y-25488000D01*
X32673000Y-24396098D01*
X32927000Y-24396098D01*
X32927000Y-25488000D01*
X33901149Y-25488000D01*
X34044075Y-25290933D01*
X33981334Y-25052051D01*
X33873195Y-24829999D01*
X33723814Y-24633311D01*
X33538931Y-24469545D01*
X33459263Y-24423020D01*
X39923000Y-24423020D01*
X39923000Y-24516980D01*
X39941331Y-24609136D01*
X39977288Y-24695944D01*
X40029490Y-24774070D01*
X40095930Y-24840510D01*
X40174056Y-24892712D01*
X40260864Y-24928669D01*
X40353020Y-24947000D01*
X40446980Y-24947000D01*
X40539136Y-24928669D01*
X40625944Y-24892712D01*
X40704070Y-24840510D01*
X40770510Y-24774070D01*
X40822712Y-24695944D01*
X40858669Y-24609136D01*
X40877000Y-24516980D01*
X40877000Y-24423020D01*
X40858669Y-24330864D01*
X40822712Y-24244056D01*
X40770510Y-24165930D01*
X40704070Y-24099490D01*
X40625944Y-24047288D01*
X40539136Y-24011331D01*
X40446980Y-23993000D01*
X40353020Y-23993000D01*
X40260864Y-24011331D01*
X40174056Y-24047288D01*
X40095930Y-24099490D01*
X40029490Y-24165930D01*
X39977288Y-24244056D01*
X39941331Y-24330864D01*
X39923000Y-24423020D01*
X33459263Y-24423020D01*
X33325652Y-24344994D01*
X33121540Y-24271718D01*
X32927000Y-24396098D01*
X32673000Y-24396098D01*
X32478460Y-24271718D01*
X32274348Y-24344994D01*
X32127000Y-24431043D01*
X32127000Y-23879232D01*
X32268538Y-23995389D01*
X32433923Y-24083789D01*
X32613375Y-24138225D01*
X32800000Y-24156606D01*
X32986624Y-24138225D01*
X33166076Y-24083789D01*
X33331462Y-23995389D01*
X33476423Y-23876423D01*
X33595389Y-23731462D01*
X33683789Y-23566077D01*
X33738225Y-23386625D01*
X33744489Y-23323020D01*
X34073000Y-23323020D01*
X34073000Y-23416980D01*
X34091331Y-23509136D01*
X34127288Y-23595944D01*
X34179490Y-23674070D01*
X34245930Y-23740510D01*
X34324056Y-23792712D01*
X34410864Y-23828669D01*
X34503020Y-23847000D01*
X34596980Y-23847000D01*
X34689136Y-23828669D01*
X34775944Y-23792712D01*
X34854070Y-23740510D01*
X34920510Y-23674070D01*
X34972712Y-23595944D01*
X35008669Y-23509136D01*
X35027000Y-23416980D01*
X35027000Y-23323020D01*
X35373000Y-23323020D01*
X35373000Y-23416980D01*
X35391331Y-23509136D01*
X35427288Y-23595944D01*
X35479490Y-23674070D01*
X35545930Y-23740510D01*
X35624056Y-23792712D01*
X35710864Y-23828669D01*
X35803020Y-23847000D01*
X35896980Y-23847000D01*
X35989136Y-23828669D01*
X36075944Y-23792712D01*
X36154070Y-23740510D01*
X36220510Y-23674070D01*
X36272712Y-23595944D01*
X36308669Y-23509136D01*
X36327000Y-23416980D01*
X36327000Y-23323020D01*
X36623000Y-23323020D01*
X36623000Y-23416980D01*
X36641331Y-23509136D01*
X36677288Y-23595944D01*
X36729490Y-23674070D01*
X36795930Y-23740510D01*
X36874056Y-23792712D01*
X36960864Y-23828669D01*
X37053020Y-23847000D01*
X37146980Y-23847000D01*
X37239136Y-23828669D01*
X37325944Y-23792712D01*
X37404070Y-23740510D01*
X37470510Y-23674070D01*
X37522712Y-23595944D01*
X37558669Y-23509136D01*
X37577000Y-23416980D01*
X37577000Y-23323020D01*
X37923000Y-23323020D01*
X37923000Y-23416980D01*
X37941331Y-23509136D01*
X37977288Y-23595944D01*
X38029490Y-23674070D01*
X38095930Y-23740510D01*
X38174056Y-23792712D01*
X38260864Y-23828669D01*
X38353020Y-23847000D01*
X38446980Y-23847000D01*
X38539136Y-23828669D01*
X38625944Y-23792712D01*
X38704070Y-23740510D01*
X38770510Y-23674070D01*
X38822712Y-23595944D01*
X38858669Y-23509136D01*
X38877000Y-23416980D01*
X38877000Y-23323020D01*
X39173000Y-23323020D01*
X39173000Y-23416980D01*
X39191331Y-23509136D01*
X39227288Y-23595944D01*
X39279490Y-23674070D01*
X39345930Y-23740510D01*
X39424056Y-23792712D01*
X39510864Y-23828669D01*
X39603020Y-23847000D01*
X39696980Y-23847000D01*
X39789136Y-23828669D01*
X39875944Y-23792712D01*
X39954070Y-23740510D01*
X40020510Y-23674070D01*
X40072712Y-23595944D01*
X40108669Y-23509136D01*
X40127000Y-23416980D01*
X40127000Y-23323020D01*
X40108669Y-23230864D01*
X40072712Y-23144056D01*
X40020510Y-23065930D01*
X39954070Y-22999490D01*
X39875944Y-22947288D01*
X39789136Y-22911331D01*
X39696980Y-22893000D01*
X39603020Y-22893000D01*
X39510864Y-22911331D01*
X39424056Y-22947288D01*
X39345930Y-22999490D01*
X39279490Y-23065930D01*
X39227288Y-23144056D01*
X39191331Y-23230864D01*
X39173000Y-23323020D01*
X38877000Y-23323020D01*
X38858669Y-23230864D01*
X38822712Y-23144056D01*
X38770510Y-23065930D01*
X38704070Y-22999490D01*
X38625944Y-22947288D01*
X38539136Y-22911331D01*
X38446980Y-22893000D01*
X38353020Y-22893000D01*
X38260864Y-22911331D01*
X38174056Y-22947288D01*
X38095930Y-22999490D01*
X38029490Y-23065930D01*
X37977288Y-23144056D01*
X37941331Y-23230864D01*
X37923000Y-23323020D01*
X37577000Y-23323020D01*
X37558669Y-23230864D01*
X37522712Y-23144056D01*
X37470510Y-23065930D01*
X37404070Y-22999490D01*
X37325944Y-22947288D01*
X37239136Y-22911331D01*
X37146980Y-22893000D01*
X37053020Y-22893000D01*
X36960864Y-22911331D01*
X36874056Y-22947288D01*
X36795930Y-22999490D01*
X36729490Y-23065930D01*
X36677288Y-23144056D01*
X36641331Y-23230864D01*
X36623000Y-23323020D01*
X36327000Y-23323020D01*
X36308669Y-23230864D01*
X36272712Y-23144056D01*
X36220510Y-23065930D01*
X36154070Y-22999490D01*
X36075944Y-22947288D01*
X35989136Y-22911331D01*
X35896980Y-22893000D01*
X35803020Y-22893000D01*
X35710864Y-22911331D01*
X35624056Y-22947288D01*
X35545930Y-22999490D01*
X35479490Y-23065930D01*
X35427288Y-23144056D01*
X35391331Y-23230864D01*
X35373000Y-23323020D01*
X35027000Y-23323020D01*
X35008669Y-23230864D01*
X34972712Y-23144056D01*
X34920510Y-23065930D01*
X34854070Y-22999490D01*
X34775944Y-22947288D01*
X34689136Y-22911331D01*
X34596980Y-22893000D01*
X34503020Y-22893000D01*
X34410864Y-22911331D01*
X34324056Y-22947288D01*
X34245930Y-22999490D01*
X34179490Y-23065930D01*
X34127288Y-23144056D01*
X34091331Y-23230864D01*
X34073000Y-23323020D01*
X33744489Y-23323020D01*
X33752000Y-23246765D01*
X33752000Y-22903236D01*
X33738225Y-22763376D01*
X33718090Y-22697000D01*
X33746980Y-22697000D01*
X33839136Y-22678669D01*
X33925944Y-22642712D01*
X34004070Y-22590510D01*
X34070510Y-22524070D01*
X34122712Y-22445944D01*
X34158669Y-22359136D01*
X34177000Y-22266980D01*
X34177000Y-22203020D01*
X40423000Y-22203020D01*
X40423000Y-22296980D01*
X40441331Y-22389136D01*
X40477288Y-22475944D01*
X40529490Y-22554070D01*
X40595930Y-22620510D01*
X40674056Y-22672712D01*
X40760864Y-22708669D01*
X40853020Y-22727000D01*
X40946980Y-22727000D01*
X41039136Y-22708669D01*
X41125944Y-22672712D01*
X41204070Y-22620510D01*
X41267882Y-22556698D01*
X41279490Y-22574070D01*
X41345930Y-22640510D01*
X41424056Y-22692712D01*
X41510864Y-22728669D01*
X41603020Y-22747000D01*
X41696980Y-22747000D01*
X41789136Y-22728669D01*
X41875944Y-22692712D01*
X41954070Y-22640510D01*
X42020510Y-22574070D01*
X42072712Y-22495944D01*
X42108669Y-22409136D01*
X42127000Y-22316980D01*
X42127000Y-22223020D01*
X42108669Y-22130864D01*
X42072712Y-22044056D01*
X42020510Y-21965930D01*
X41954070Y-21899490D01*
X41875944Y-21847288D01*
X41789136Y-21811331D01*
X41696980Y-21793000D01*
X41603020Y-21793000D01*
X41510864Y-21811331D01*
X41424056Y-21847288D01*
X41345930Y-21899490D01*
X41282118Y-21963302D01*
X41270510Y-21945930D01*
X41204070Y-21879490D01*
X41125944Y-21827288D01*
X41039136Y-21791331D01*
X40946980Y-21773000D01*
X40853020Y-21773000D01*
X40760864Y-21791331D01*
X40674056Y-21827288D01*
X40595930Y-21879490D01*
X40529490Y-21945930D01*
X40477288Y-22024056D01*
X40441331Y-22110864D01*
X40423000Y-22203020D01*
X34177000Y-22203020D01*
X34177000Y-22173020D01*
X34158669Y-22080864D01*
X34122712Y-21994056D01*
X34070510Y-21915930D01*
X34004070Y-21849490D01*
X33925944Y-21797288D01*
X33839136Y-21761331D01*
X33802572Y-21754058D01*
X33426174Y-21377661D01*
X33476423Y-21336423D01*
X33595389Y-21191462D01*
X33683789Y-21026077D01*
X33738225Y-20846625D01*
X33752000Y-20706765D01*
X33752000Y-20623020D01*
X40523000Y-20623020D01*
X40523000Y-20716980D01*
X40541331Y-20809136D01*
X40577288Y-20895944D01*
X40629490Y-20974070D01*
X40695930Y-21040510D01*
X40774056Y-21092712D01*
X40860864Y-21128669D01*
X40953020Y-21147000D01*
X41046980Y-21147000D01*
X41139136Y-21128669D01*
X41225944Y-21092712D01*
X41304070Y-21040510D01*
X41350000Y-20994580D01*
X41395930Y-21040510D01*
X41474056Y-21092712D01*
X41560864Y-21128669D01*
X41653020Y-21147000D01*
X41746980Y-21147000D01*
X41839136Y-21128669D01*
X41925944Y-21092712D01*
X42004070Y-21040510D01*
X42070510Y-20974070D01*
X42122712Y-20895944D01*
X42158669Y-20809136D01*
X42177000Y-20716980D01*
X42177000Y-20623020D01*
X42158669Y-20530864D01*
X42122712Y-20444056D01*
X42070510Y-20365930D01*
X42004070Y-20299490D01*
X41925944Y-20247288D01*
X41839136Y-20211331D01*
X41746980Y-20193000D01*
X41653020Y-20193000D01*
X41560864Y-20211331D01*
X41474056Y-20247288D01*
X41395930Y-20299490D01*
X41350000Y-20345420D01*
X41304070Y-20299490D01*
X41225944Y-20247288D01*
X41139136Y-20211331D01*
X41046980Y-20193000D01*
X40953020Y-20193000D01*
X40860864Y-20211331D01*
X40774056Y-20247288D01*
X40695930Y-20299490D01*
X40629490Y-20365930D01*
X40577288Y-20444056D01*
X40541331Y-20530864D01*
X40523000Y-20623020D01*
X33752000Y-20623020D01*
X33752000Y-20363236D01*
X33738225Y-20223376D01*
X33683789Y-20043923D01*
X33595389Y-19878538D01*
X33476423Y-19733577D01*
X33331462Y-19614611D01*
X33166077Y-19526211D01*
X32986625Y-19471775D01*
X32800000Y-19453394D01*
X32613376Y-19471775D01*
X32433924Y-19526211D01*
X32268539Y-19614611D01*
X32127000Y-19730768D01*
X32127000Y-19323020D01*
X34123000Y-19323020D01*
X34123000Y-19416980D01*
X34141331Y-19509136D01*
X34177288Y-19595944D01*
X34229490Y-19674070D01*
X34295930Y-19740510D01*
X34374056Y-19792712D01*
X34460864Y-19828669D01*
X34553020Y-19847000D01*
X34646980Y-19847000D01*
X34739136Y-19828669D01*
X34825944Y-19792712D01*
X34904070Y-19740510D01*
X34970510Y-19674070D01*
X35022712Y-19595944D01*
X35058669Y-19509136D01*
X35077000Y-19416980D01*
X35077000Y-19347000D01*
X35146980Y-19347000D01*
X35239136Y-19328669D01*
X35252773Y-19323020D01*
X37873000Y-19323020D01*
X37873000Y-19416980D01*
X37891331Y-19509136D01*
X37927288Y-19595944D01*
X37979490Y-19674070D01*
X38045930Y-19740510D01*
X38124056Y-19792712D01*
X38210864Y-19828669D01*
X38303020Y-19847000D01*
X38396980Y-19847000D01*
X38489136Y-19828669D01*
X38575944Y-19792712D01*
X38654070Y-19740510D01*
X38720510Y-19674070D01*
X38772712Y-19595944D01*
X38808669Y-19509136D01*
X38827000Y-19416980D01*
X38827000Y-19323020D01*
X38808669Y-19230864D01*
X38772712Y-19144056D01*
X38720510Y-19065930D01*
X38654070Y-18999490D01*
X38575944Y-18947288D01*
X38489136Y-18911331D01*
X38396980Y-18893000D01*
X38303020Y-18893000D01*
X38210864Y-18911331D01*
X38124056Y-18947288D01*
X38045930Y-18999490D01*
X37979490Y-19065930D01*
X37927288Y-19144056D01*
X37891331Y-19230864D01*
X37873000Y-19323020D01*
X35252773Y-19323020D01*
X35325944Y-19292712D01*
X35404070Y-19240510D01*
X35470510Y-19174070D01*
X35522712Y-19095944D01*
X35558669Y-19009136D01*
X35577000Y-18916980D01*
X35577000Y-18873020D01*
X41123000Y-18873020D01*
X41123000Y-18966980D01*
X41141331Y-19059136D01*
X41176897Y-19145000D01*
X41141331Y-19230864D01*
X41123000Y-19323020D01*
X41123000Y-19416980D01*
X41141331Y-19509136D01*
X41177288Y-19595944D01*
X41229490Y-19674070D01*
X41295930Y-19740510D01*
X41374056Y-19792712D01*
X41460864Y-19828669D01*
X41553020Y-19847000D01*
X41646980Y-19847000D01*
X41739136Y-19828669D01*
X41825944Y-19792712D01*
X41904070Y-19740510D01*
X41970510Y-19674070D01*
X42022712Y-19595944D01*
X42058669Y-19509136D01*
X42077000Y-19416980D01*
X42077000Y-19323020D01*
X42058669Y-19230864D01*
X42023103Y-19145000D01*
X42058669Y-19059136D01*
X42077000Y-18966980D01*
X42077000Y-18873020D01*
X42058669Y-18780864D01*
X42022712Y-18694056D01*
X41970510Y-18615930D01*
X41904070Y-18549490D01*
X41825944Y-18497288D01*
X41739136Y-18461331D01*
X41646980Y-18443000D01*
X41553020Y-18443000D01*
X41460864Y-18461331D01*
X41374056Y-18497288D01*
X41295930Y-18549490D01*
X41229490Y-18615930D01*
X41177288Y-18694056D01*
X41141331Y-18780864D01*
X41123000Y-18873020D01*
X35577000Y-18873020D01*
X35577000Y-18823020D01*
X35558669Y-18730864D01*
X35522712Y-18644056D01*
X35470510Y-18565930D01*
X35404070Y-18499490D01*
X35325944Y-18447288D01*
X35239136Y-18411331D01*
X35146980Y-18393000D01*
X35053020Y-18393000D01*
X34960864Y-18411331D01*
X34874056Y-18447288D01*
X34795930Y-18499490D01*
X34729490Y-18565930D01*
X34677288Y-18644056D01*
X34641331Y-18730864D01*
X34623000Y-18823020D01*
X34623000Y-18893000D01*
X34553020Y-18893000D01*
X34460864Y-18911331D01*
X34374056Y-18947288D01*
X34295930Y-18999490D01*
X34229490Y-19065930D01*
X34177288Y-19144056D01*
X34141331Y-19230864D01*
X34123000Y-19323020D01*
X32127000Y-19323020D01*
X32127000Y-19068854D01*
X32175000Y-19073582D01*
X33425000Y-19073582D01*
X33489103Y-19067268D01*
X33550743Y-19048570D01*
X33607550Y-19018206D01*
X33657343Y-18977343D01*
X33698206Y-18927550D01*
X33728570Y-18870743D01*
X33747268Y-18809103D01*
X33753582Y-18745000D01*
X33753582Y-17245000D01*
X33748854Y-17197000D01*
X38908319Y-17197000D01*
X38770945Y-17288790D01*
M02*
